<svg xmlns="http://www.w3.org/2000/svg" xmlns:xlink="http://www.w3.org/1999/xlink" viewBox="0 0 4680 3120"><defs><style>.cls-1,.cls-22,.cls-31,.cls-32,.cls-33,.cls-37,.cls-39,.cls-41,.cls-64,.cls-68,.cls-69{fill:none;}.cls-2{isolation:isolate;}.cls-3{fill:#fff;}.cls-4{fill:#ffeacb;}.cls-36,.cls-38,.cls-40,.cls-5,.cls-65{fill:#fed085;}.cls-6{fill:#386d95;}.cls-7{fill:#b2cbc8;}.cls-8{fill:#f8c487;}.cls-9{fill:#ff536b;}.cls-10{fill:#494f5d;}.cls-11{opacity:0.46;}.cls-12{fill:#220404;}.cls-13{fill:#5e1212;}.cls-14{fill:#430808;}.cls-15{fill:#e04510;}.cls-16{fill:#ffa188;}.cls-17{fill:#ec5a29;}.cls-18{fill:#ffba55;}.cls-19{fill:#f29b28;}.cls-20{fill:#e57c2e;}.cls-21{fill:#e7942e;}.cls-22{stroke:#e7942e;}.cls-22,.cls-32,.cls-33,.cls-68,.cls-69{stroke-linecap:round;}.cls-22,.cls-31,.cls-32,.cls-33,.cls-36,.cls-37,.cls-38,.cls-39,.cls-40,.cls-41,.cls-64,.cls-68,.cls-69{stroke-miterlimit:10;}.cls-22,.cls-32{stroke-width:3.89px;}.cls-23{fill:#e25e30;}.cls-24{fill:#347190;}.cls-25{fill:#b82d40;}.cls-26{fill:#64a6c0;}.cls-27{fill:#123a53;}.cls-28{opacity:0.33;}.cls-29{fill:#b3d3ce;}.cls-30{opacity:0.21;}.cls-31{stroke:#000;stroke-width:0.97px;}.cls-32{stroke:#e57c2e;}.cls-33{stroke:#720000;stroke-width:4.86px;}.cls-34{opacity:0.36;}.cls-35{fill:#e5403c;}.cls-36,.cls-38,.cls-40,.cls-68{stroke:#fff;}.cls-36{stroke-width:12.59px;}.cls-37,.cls-39,.cls-41,.cls-64{stroke:#ffeacb;}.cls-37{stroke-width:9.44px;}.cls-38{stroke-width:11.13px;}.cls-39{stroke-width:8.35px;}.cls-40{stroke-width:11.66px;}.cls-41{stroke-width:8.75px;}.cls-42{clip-path:url(#clip-path);}.cls-43{fill:#f47867;}.cls-44{opacity:0.23;}.cls-45{fill:#db3019;}.cls-46{fill:#ffafa4;}.cls-47{fill:#f43f50;}.cls-48{fill:#b72f3c;}.cls-49{fill:#1a2e47;}.cls-50{fill:#f5d7b3;}.cls-51{fill:#f8d9ab;}.cls-52{fill:#fef7ee;}.cls-53{opacity:0.45;}.cls-54{fill:#386d8c;}.cls-55{fill:#000056;}.cls-56{clip-path:url(#clip-path-2);}.cls-57{fill:#c7d0ce;}.cls-58{fill:#2f6e85;}.cls-59{fill:#d0d7d7;opacity:0.78;mix-blend-mode:multiply;}.cls-60{fill:#396f91;}.cls-61{clip-path:url(#clip-path-3);}.cls-62{clip-path:url(#clip-path-4);}.cls-63{clip-path:url(#clip-path-5);}.cls-64{stroke-width:11.51px;}.cls-65{opacity:0.35;}.cls-66{fill:#ffa017;}.cls-67{opacity:0.43;}.cls-68{stroke-width:10px;}.cls-69{stroke:#fed085;stroke-width:5px;}</style><clipPath id="clip-path"><path class="cls-1" d="M3502.21,2462.82c-233.87,175.3-576.23,271.74-857.57,244.4,0,0-744-3-1128.44-2.31-130.61.25-219.71.92-224,2.31,0,0-467.76-244.6-508.44-629.7-25.36-240.16-32.27-583.63,182.31-859.14,129.52-166.29,339.73-307.82,675.26-386.91,891.47-210.16,1508.38,27.11,1881.24,406.75S3736.1,2287.52,3502.21,2462.82Z"/></clipPath><clipPath id="clip-path-2"><path class="cls-1" d="M3288.31,1684.41l-26.26-140.07-18.78-100.16s12.66,3.26,36.87-1.28c28-5.24,34.82-12.16,34.82-12.16l18.78,100.16L3360,1671l-35.85,6.72Z"/></clipPath><clipPath id="clip-path-3"><path class="cls-1" d="M2951.7,2276.56,2978,2136.49l18.78-100.16s-12.65,3.26-36.86-1.28c-28-5.25-34.83-12.16-34.83-12.16l-18.77,100.16L2880,2263.12l35.84,6.72Z"/></clipPath><clipPath id="clip-path-4"><path class="cls-1" d="M3410.81,2210l142.5.22,101.91.16s-5.51-8.7-5.46-26.78c.06-20.9,5.61-26.76,5.61-26.76l-101.9-.16-142.51-.22-.08,26.77Z"/></clipPath><clipPath id="clip-path-5"><path class="cls-1" d="M3640.5,2077.41l-142.5-.25-101.91-.19s5.51,10.2,5.46,31.4c-.06,24.51-5.61,31.39-5.61,31.39l101.9.18,142.51.26.08-31.39Z"/></clipPath></defs><title>02</title><g class="cls-2"><g id="_02" data-name="02"><rect id="_02-2" data-name="02" class="cls-3" width="4680" height="3120"/><path class="cls-4" d="M3502.21,2462.82c-233.87,175.3-576.23,271.74-857.57,244.4,0,0-744-3-1128.44-2.31-130.61.25-219.71.92-224,2.31,0,0-467.76-244.6-508.44-629.7-25.36-240.16-32.27-583.63,182.31-859.14,129.52-166.29,339.73-307.82,675.26-386.91,891.47-210.16,1508.38,27.11,1881.24,406.75S3736.1,2287.52,3502.21,2462.82Z"/><path class="cls-5" d="M2000.23,2050.08l-484,654.83c-130.61.25-219.71.92-224,2.31,0,0-467.76-244.6-508.44-629.7-25.36-240.16-32.27-583.63,182.31-859.14,336.57,96.3,983.14,411.42,983.14,411.42Z"/><rect class="cls-3" x="897.47" y="963.23" width="1742.11" height="1123.67"/><path class="cls-6" d="M2636.18,966.63V2083.5H900.88V966.63h1735.3m6.81-6.8H894.07V2090.3H2643V959.83Z"/><rect class="cls-6" x="894.07" y="959.82" width="1748.92" height="52.2"/><circle class="cls-3" cx="933.19" cy="985.93" r="10.51"/><circle class="cls-3" cx="968.4" cy="985.93" r="10.51"/><circle class="cls-3" cx="1003.62" cy="985.93" r="10.51"/><rect class="cls-4" x="1026.74" y="1091.54" width="590.34" height="403.55"/><rect class="cls-4" x="1656.27" y="1091.54" width="130.06" height="92.34"/><rect class="cls-4" x="1807.04" y="1091.54" width="130.06" height="92.34"/><rect class="cls-4" x="1656.27" y="1195.27" width="130.06" height="92.34"/><rect class="cls-4" x="1807.04" y="1195.27" width="130.06" height="92.34"/><rect class="cls-4" x="1656.27" y="1299.01" width="130.06" height="92.34"/><rect class="cls-4" x="1807.04" y="1299.01" width="130.06" height="92.34"/><rect class="cls-4" x="1656.27" y="1402.75" width="130.06" height="92.34"/><rect class="cls-7" x="1026.74" y="1629.8" width="248.87" height="176.69"/><rect class="cls-7" x="1026.74" y="1842.89" width="248.87" height="176.69"/><rect class="cls-7" x="1656.27" y="1629.8" width="248.87" height="176.69"/><rect class="cls-7" x="1656.27" y="1842.89" width="248.87" height="176.69"/><rect class="cls-4" x="1807.04" y="1402.75" width="130.06" height="92.34"/><rect class="cls-8" x="1989.11" y="1091.54" width="427.24" height="23.08"/><rect class="cls-9" x="1989.11" y="1281.77" width="522.5" height="39.25"/><rect class="cls-8" x="1989.11" y="1130.23" width="241.6" height="23.08"/><rect class="cls-8" x="1311.86" y="1629.8" width="285.87" height="23.08"/><rect class="cls-8" x="1311.86" y="1668.5" width="161.66" height="23.08"/><rect class="cls-8" x="1311.86" y="1838.12" width="285.87" height="23.08"/><rect class="cls-8" x="1311.86" y="1876.81" width="161.66" height="23.08"/><rect class="cls-8" x="1949.2" y="1629.8" width="562.42" height="23.08"/><rect class="cls-8" x="1949.2" y="1668.5" width="318.04" height="23.08"/><rect class="cls-8" x="1949.2" y="1838.12" width="562.42" height="23.08"/><rect class="cls-8" x="1949.2" y="1876.81" width="318.04" height="23.08"/><rect class="cls-10" x="2000.23" y="1438.82" width="272.14" height="56.26" rx="10.11"/><ellipse class="cls-10" cx="1277" cy="1535.79" rx="16.84" ry="17.35"/><ellipse class="cls-10" cx="1321.91" cy="1535.79" rx="16.84" ry="17.35"/><ellipse class="cls-10" cx="1366.82" cy="1535.79" rx="16.84" ry="17.35"/><g class="cls-11"><path class="cls-3" d="M2643,2087.36c-1.38,1-2.77,2-4.17,2.94H894.07v-88.62L2643,1185.43Z"/></g><path class="cls-12" d="M2057.35,1852.66s-32.3,36-12.17,83.5,49.64,0,49.64,0S2064.5,1851.94,2057.35,1852.66Z"/><path class="cls-13" d="M2320.86,1816c-43.91-15.85-23.49-44.64-23.49-44.64s20.19,0,37.17-9.68a48.29,48.29,0,0,0,12.24-9.75c17.28-19.45,40.31-34.56,51.83,2.87a39.83,39.83,0,0,1,1.36,6C2405.32,1796.23,2362.46,1830.94,2320.86,1816Z"/><path class="cls-14" d="M2320.86,1816c-43.91-15.85-23.49-44.64-23.49-44.64s20.19,0,37.17-9.68c0,0,20.5,22.65,45.16,14,8.1-2.83,14.85-8.53,20.27-14.92C2405.32,1796.23,2362.46,1830.94,2320.86,1816Z"/><path class="cls-15" d="M2292.63,2087.45s21.39-82.24,34.31-95.88,130.57-41.84,130.57-41.84,78.88-28.39,95.92,0-54.27,140.73-54.27,140.73-94,77-132.52,60.58S2292.63,2087.45,2292.63,2087.45Z"/><path d="M2378.9,2045.22s12.52,11.62,35.95,6.57,103.44-50.11,103.44-50.11-54.32,81.8-93.95,88.53S2378.9,2045.22,2378.9,2045.22Z"/><path class="cls-16" d="M2405.13,2129.58c-15.14,19.57-100.33,85.2-128.1,75.73-15.42-5.25-25.38-34.25-31.21-59a365.21,365.21,0,0,1-6.65-36.93s79.76-176.46,99.42-134.18c6.75,14.53,16.71,32,26.89,48.63,19.44,31.81,39.65,60.7,39.65,60.7S2420.28,2110,2405.13,2129.58Z"/><path class="cls-17" d="M2343.93,2097.4c-19.19,44.92-75.73,63.73-75.73,63.73-8.8-.89-16.31-6.27-22.38-14.81a365.21,365.21,0,0,1-6.65-36.93s79.76-176.46,99.42-134.18C2345.34,1989.74,2366.22,2045.22,2343.93,2097.4Z"/><path d="M2264.9,2132.13s8.58,29.19,24.67,37,40,2.45,56.46-12.54-7.88,38.39-38.07,39.59-50.53-3.88-58.08-19.7-4.39-49.88,3.17-50.42S2264.9,2132.13,2264.9,2132.13Z"/><path class="cls-18" d="M2782.53,2648.65c-21.2-72.38-69.8-216.43-107.94-288.42-50.48-95.3-94-155.24-94-155.24s25.25-2.52,23.35-96.55,35.34-107.28-22.71-159-249.89,28.4-249.89,28.4l-7.58,23.35s189.95-75.72,210.77-57.42-17.67,77.62-85.82,109.17-77.66,98.87-131.26,124.31c-37.23,17.67-64.37-51.11-64.37-51.11l-147.66,82.66c-20.19.64-35.34,71.95-35.34,71.95s-5.05-14.52-17.67,0c-8.4,9.66-35.32,85.77-55.14,150.22-9.93,32.25-18.07,61.59-21.22,78.22-2,10.76-3.32,24.29-3.87,39-2,53.29,5.51,132.75,20.34,138.69,3.4,1.35,31.35,2.85,74.94,4.29,199.27,6.63,725.28,12.34,725.8.43C2793.38,2688,2789.39,2672.06,2782.53,2648.65Zm-586.07-185.71.05-.12L2251.7,2569s-67.31,2.46-107.54,1Z"/><path class="cls-19" d="M2603.91,2108.76c1.9,94-23.35,96.55-23.35,96.55s-31.55-54.9-75.72-84.56-109.63,19.23-139.36,43.72-57.52,25.06-57.52,25.06c30.91-5.05,42.27-26.5,83.29-60.58s127.47-58.69,164.81-83.72,25.14-95.5,25.14-95.5C2639.25,2001.48,2602,2014.74,2603.91,2108.76Z"/><path class="cls-20" d="M2797.55,2710.41c-.52,12.63-530.85,5-730.12-2l-34.61-45.4s338.87,16.07,360.33-4.68,104.12-247.7,104.12-247.7c13.55-22,14.91,61.3,33.19,130.26,10.64,40.17,38.27,73.75,47.88,83.35,49.73,49.59,153.92,44.29,208,37.79C2793.22,2686.84,2797.7,2706.65,2797.55,2710.41Z"/><path class="cls-21" d="M2547.12,2466a37.28,37.28,0,0,0,2.89,12.51,64.76,64.76,0,0,0,6.13,11.2c2.33,3.57,4.94,7,7.6,10.41s5.38,6.75,8.06,10.11c5.57,6.57,11.31,13,17.32,19.09,1.51,1.53,3.06,3,4.58,4.53l2.3,2.26,2.36,2.17c1.59,1.45,3.13,2.95,4.73,4.37l4.85,4.23a311.52,311.52,0,0,0,41.69,30.18c3.64,2.3,7.45,4.32,11.17,6.5,3.81,2,7.59,4.16,11.46,6,7.69,3.85,15.73,7,24.46,7.93a46.8,46.8,0,0,1-13.18-.78,87.77,87.77,0,0,1-12.77-3.63c-4.16-1.5-8.15-3.29-12.23-5-2-.88-4-1.85-6-2.79-1-.47-2-.93-3-1.42l-2.93-1.53a229,229,0,0,1-43.77-29.62,244.94,244.94,0,0,1-19.07-18.37c-2.94-3.29-5.93-6.54-8.68-10s-5.46-6.93-8.13-10.44c-1.28-1.79-2.52-3.61-3.78-5.42-.62-.91-1.27-1.79-1.86-2.72l-1.76-2.8c-2.35-3.71-4.7-7.44-6.73-11.41a61.36,61.36,0,0,1-4.88-12.44,39.82,39.82,0,0,1-1.1-6.58A32.28,32.28,0,0,1,2547.12,2466Z"/><path class="cls-20" d="M2251.7,2569s23.35-31.55,31.84-57.73,54.26-215.08,79.49-263.19,41.49-60.85,41.49-60.85.71-14.74-31.13,18.1S2277,2526,2227.5,2522.44Z"/><path class="cls-20" d="M2196.51,2463.14s-37,87.39-52.35,106.84l-157.07,8.49s-7.36-14-14.94-30.35c1.51-40.09,12.54-79.36,25.31-117.23-3.72,11.05-3.6,25.91-4.28,37.51-.74,12.62-.45,25.46,2.52,37.8,4.94,20.5,19.41,40.34,39.23,48.53,12.63,5.21,25.53,6.26,38.82,7.87a73.36,73.36,0,0,0,64.05-24.9c18.4-21.51,22.35-54.77,27.79-81.55.21-1,.42-2.06.62-3.08,4.15-20.8,7.77-41.76,10.49-62.8l19.76,72.67Z"/><path class="cls-20" d="M2102.42,2528.23s22.64-41,34.66-89.85,31.13-121.2,9.2-123.92c0,0,37.52-57.52,19.11-61.44-5.41-1.16,23-113.63,23-113.63l88.06-15.85s-35.84,35.14-44.59,52.35c-7.81,15.36-40.33,75-48.82,94.1s-15.56,36.09-10.61,50.94S2144.16,2488.61,2102.42,2528.23Z"/><path class="cls-22" d="M2070.05,2281s2.65,29.79,18.22,33.43"/><path class="cls-22" d="M2119.4,2318.81s17.68,1.91,26.88-4.35"/><path class="cls-23" d="M2251.7,2569a95.56,95.56,0,0,1,14.48,11.91,106,106,0,0,1,12.2,14.33,63.72,63.72,0,0,1,8.77,16.9,33.19,33.19,0,0,1,1.67,9.54,17.71,17.71,0,0,1-2.29,9.25,21.73,21.73,0,0,0-.09-9,38.82,38.82,0,0,0-2.86-8.41,99.19,99.19,0,0,0-9.18-15.47c-3.48-5-7.22-9.78-11.05-14.57Z"/><rect class="cls-24" x="1740.92" y="2679.88" width="641.6" height="27.34"/><rect class="cls-25" x="1122.51" y="2706.13" width="2065.32" height="54.87"/><path class="cls-9" d="M1394,2706.13c61.11,14.9,124.64,33.18,180.49,54.87h-452v-54.87Z"/><path class="cls-9" d="M3187.84,2706.13V2761h-806.2c38.74-16.43,77.38-34.7,115.42-54.87Z"/><polygon class="cls-26" points="2042.41 2706.13 1583.79 2706.13 1536.44 2589.58 1422.17 2308.33 1880.79 2308.33 1881.2 2309.34 2042.41 2706.13"/><polygon class="cls-27" points="1880.79 2308.33 1902.11 2308.33 2067.27 2706.14 2042.41 2706.14 1880.79 2308.33"/><polygon class="cls-27" points="1422.17 2308.33 1438.05 2302.12 1899.67 2302.12 1902.11 2308.33 1422.17 2308.33"/><ellipse class="cls-27" cx="1715.33" cy="2516.63" rx="42.64" ry="30.23"/><g class="cls-28"><path class="cls-29" d="M2042.42,2706.13H1583.79l-47.35-116.55c93.62-18.3,264.16-79,344.76-280.24Z"/></g><path class="cls-23" d="M2308,2189.53a18,18,0,0,0,5.18,0c.86-.13,1.72-.2,2.57-.39l2.53-.55c.84-.2,1.67-.47,2.5-.7s1.67-.44,2.48-.76c1.61-.62,3.26-1.13,4.85-1.82a139.39,139.39,0,0,0,18.45-9.44q8.86-5.4,17.27-11.51c2.76-2.09,5.59-4.08,8.32-6.21l8.14-6.46c2.7-2.18,5.3-4.47,7.95-6.7l4-3.35c1.38-1.13,2.75-2.31,4.19-3.35,2.85-2.16,5.82-4.11,8.83-5.95s6.1-3.56,9.2-5.22c6.22-3.3,12.61-6.22,19.1-8.94a117.17,117.17,0,0,1,20.19-6.7,77.38,77.38,0,0,1,21.42-1.59,73.07,73.07,0,0,1,21,4.58,93.53,93.53,0,0,1,18.92,9.88,125.16,125.16,0,0,1,16.48,13.3,177.21,177.21,0,0,1,14.41,15.38c4.48,5.39,8.72,11,12.76,16.67a372.44,372.44,0,0,1,21.91,35.63c-7.57-11.69-15.35-23.24-23.83-34.22a229.67,229.67,0,0,0-27.81-30.67,134.06,134.06,0,0,0-16.26-12.53,89.59,89.59,0,0,0-18.17-9.12,69.9,69.9,0,0,0-19.71-4.16,72.47,72.47,0,0,0-20.07,1.6,112.92,112.92,0,0,0-19.42,6.34c-6.38,2.61-12.65,5.5-18.78,8.62-3.06,1.57-6.1,3.18-9,4.94a101.66,101.66,0,0,0-8.58,5.57c-1.4,1-2.68,2.05-4,3.11l-4.07,3.3c-2.74,2.18-5.42,4.42-8.2,6.54a271.35,271.35,0,0,1-34.91,23.28,131.64,131.64,0,0,1-19.15,8.63c-1.64.61-3.36,1-5,1.56-.84.27-1.71.42-2.56.63s-1.7.41-2.57.55l-2.6.38c-.86.13-1.75.14-2.62.22A18.58,18.58,0,0,1,2308,2189.53Z"/><path class="cls-16" d="M2341,1968.56s7.92,55.43,0,80.63-33.11,80.62-75.59,89.26a166.38,166.38,0,0,1-33,3.1c-35-.05-71.07-9.66-87.91-25.42-8.26-7.71-15.8-18.37-22.34-29.69a1.34,1.34,0,0,0-.06-.12c-.43-.73-.84-1.45-1.26-2.19-1.47-2.62-2.88-5.27-4.24-7.91s-2.53-5-3.7-7.5c-2.65-5.55-5-11-7-16-2.95-7.29-5.23-13.77-6.73-18.64-5.75-18.71-31.84-52.91-38.15-81.35a163.57,163.57,0,0,1-3.95-40.93c.54-16.69,3.66-26.65,3.66-26.65,6.36-15.31,16.57-28.32,28.73-39.32,46-41.54,119.85-54.35,119.85-54.35s139.66,58.32,151.18,103.67S2341,1968.56,2341,1968.56Z"/><path class="cls-17" d="M2291.35,1957.28c-1.45,2.26-10.87-16.78-11.56-18.17-6.91-13.94-14-30-25.9-40.46-12.67-11.17-29.65-8.48-45.06-6.55-21.16,2.65-42.87,5.88-64.14,2.47a90.29,90.29,0,0,1-9.21-2c-16.21-4.35-33.34-13.58-50.55-9.73-23.95,5.35-27.89,28.9-27.89,28.9.54-16.69,3.66-26.65,3.66-26.65,6.36-15.31,16.57-28.32,28.73-39.32,42.29-1.75,146.5-5.33,166.82,1.07,25.63,8.08,38.73,91.34,38.57,92.31S2295.53,1950.79,2291.35,1957.28Z"/><path class="cls-12" d="M2215,1863.45s47.51,13,58.31,36.72,16.56,59.75,19.44,50.39,3.6-53.27,30.23-59.75,40.32,33.11,18,77.75l2.43,23s30-19.41,35-71.25-4.32-102.22-43.91-146.13Z"/><g class="cls-30"><path class="cls-17" d="M2233.22,2141.32l-.81.23c-35-.05-71.07-9.66-87.91-25.42-8.26-7.71-15.8-18.37-22.34-29.69a1.34,1.34,0,0,0-.06-.12c7.66,6.31,16.84,9.08,40.4,7.8,37.82-2.08,65.36,2.39,70.72,17.93A46.21,46.21,0,0,1,2233.22,2141.32Z"/></g><path class="cls-13" d="M2324.24,1768.39c-4.83-2.59-11.21-5.86-18.81-9.42-35.12-16.49-96.5-39.3-152.66-30.39h0c67.57-18,152.66,14.81,152.66,14.81-142-82.66-231.78,25.69-231.78,25.69h0c-41.53,42.22-27.05,102.15-14.41,122.26,0,0,8.27-21.71,24.12-25.58l.32-.07c.3-.08.58-.14.88-.19a4.4,4.4,0,0,1,.65-.13l.63-.12h0c8.25-1.37,17.9.13,28.37,7.58,32.39,23,97.91,16.45,131,1.39s84.22-69.78,89.26-100C2334.54,1774.19,2330.84,1771.92,2324.24,1768.39Z"/><path class="cls-31" d="M2334.54,1774.19c-5,30.23-56.15,84.94-89.26,100s-98.63,21.65-131-1.39c-10.47-7.45-20.12-9-28.37-7.58,8.48-1.58,51.61,4,90.81-.06,73.2-7.47,147.54-96.78,147.54-96.78C2330.84,1771.92,2334.54,1774.19,2334.54,1774.19Z"/><path class="cls-14" d="M2334.54,1774.19c-5,30.23-56.15,84.94-89.26,100s-98.63,21.65-131-1.39c-6.72-4.79-15.07-7-23.47-6.86-9,.1-16.7,3.23-22.44,10.08a54.43,54.43,0,0,0-9.11,15.3s3.23-66.54,65.71-65.91S2305.43,1759,2305.43,1759c7.6,3.56,14,6.83,18.81,9.42C2330.84,1771.92,2334.54,1774.19,2334.54,1774.19Z"/><path class="cls-16" d="M2214.78,2140.72s5.84,6.05,5.84,13.5-8.28,12.32-8.28,12.32,2.44,3.41,2.93,13.63-8.28,15.57-12.18,16.06c0,0,5.84,8.27,3.41,16.06s-14.11,10.22-22.39,10.22c0,0-15.06,27.91-18.72,30.51s-54.52.08-60-43.93c0,0,12.05-52.28,18.37-78.08s11.68-32.12,29.69-31.64,67.65,3.9,69.6,12.65S2221.81,2139.7,2214.78,2140.72Z"/><path class="cls-17" d="M2184.11,2222.51s-15.06,27.91-18.72,30.51-54.52.08-60-43.93c6.94,11.89,23.07,35.61,38.33,32.4s0-29.68,9.73-25.79S2184.11,2222.51,2184.11,2222.51Z"/><path class="cls-17" d="M2164.5,2188.93a53.89,53.89,0,0,1,10-.36,77.65,77.65,0,0,1,9.85,1.07A66.46,66.46,0,0,1,2194,2192a35.33,35.33,0,0,1,9.09,4.24c-3.34-.4-6.56-.81-9.78-1.27s-6.43-.94-9.63-1.49-6.41-1.17-9.61-1.88A87.59,87.59,0,0,1,2164.5,2188.93Z"/><path class="cls-17" d="M2164.5,2155.35a75.08,75.08,0,0,1,12.46.17,104.24,104.24,0,0,1,12.28,1.84,82.63,82.63,0,0,1,12,3.41,43.82,43.82,0,0,1,11.11,5.77c-4.05-1.07-8-2-12-2.84s-7.95-1.68-11.93-2.54-8-1.7-12-2.63S2168.49,2156.61,2164.5,2155.35Z"/><path class="cls-17" d="M2214.78,2140.72c-4.19-1.7-8.31-3.2-12.47-4.63s-8.36-2.73-12.55-4.09l-12.62-4c-4.22-1.38-8.43-2.79-12.64-4.44a80.94,80.94,0,0,1,13.39,1.48,108.77,108.77,0,0,1,13.05,3.28,89.41,89.41,0,0,1,12.54,5A49.12,49.12,0,0,1,2214.78,2140.72Z"/><g class="cls-28"><path class="cls-17" d="M2164.5,2123.54s43.56-1.89,50.28,3.33,4.42,10.34,4.42,10.34l-3.07,4.11Z"/></g><path class="cls-17" d="M2134.51,2105c1.43-2.19,3.87-3.48,6.27-4.41a29.64,29.64,0,0,1,7.62-1.65,59.48,59.48,0,0,1,7.78-.12c2.58.09,5.15.22,7.73.36,10.29.55,20.57,1.42,30.81,2.78,5.12.72,10.23,1.54,15.29,2.72a61.32,61.32,0,0,1,7.5,2.24,20.37,20.37,0,0,1,3.62,1.74,9,9,0,0,1,1.66,1.34,4.79,4.79,0,0,1,.68.95,3.61,3.61,0,0,1,.24.57l.08.31,0,.25a41.05,41.05,0,0,1-.65,15.59,37.46,37.46,0,0,1-2.51,7.37,18.06,18.06,0,0,1-4.54,6.24,19.23,19.23,0,0,0,4.07-6.45,37.28,37.28,0,0,0,2.05-7.35,48.4,48.4,0,0,0,.73-7.59,34.13,34.13,0,0,0-.63-7.51c-.14-1-1.06-1.7-2.08-2.33a19.4,19.4,0,0,0-3.36-1.54,61.31,61.31,0,0,0-7.32-2c-5-1.1-10.05-1.9-15.13-2.58-10.17-1.39-20.41-2.34-30.66-3.21l-7.69-.6a61,61,0,0,0-7.64-.19,29,29,0,0,0-7.52,1.19,18.05,18.05,0,0,0-3.51,1.49A9.15,9.15,0,0,0,2134.51,2105Z"/><path d="M2165.39,2253s-16.45,7.3-47.44-16.63c0,0,33.89,22.2,49.87,13.78Z"/><path class="cls-32" d="M2237.86,2166.54s3.06,20.54,31.17,33.93,61.15-4.24,61.15-4.24"/><path class="cls-17" d="M2310.87,1930.33a9.43,9.43,0,0,0,.07,4.89c1,3,4.06,5.16,7.49,6,5.48,1.35,12.11-.93,14.23-5.47,2.71-5.8,2.32-15.3-6-17.48C2318.13,1916,2312.21,1924.17,2310.87,1930.33Z"/><path d="M2119.22,2027.59c1.21.52,2.65.92,3.8.28a4.12,4.12,0,0,0,1.52-1.8c4.29-8.11-.76-25.93-12.57-21.06C2100,2010,2112,2024.49,2119.22,2027.59Z"/><path d="M2204.76,1996.44c1.21.52,2.65.92,3.8.28a4.18,4.18,0,0,0,1.52-1.8c4.29-8.11-.76-25.93-12.57-21.06C2185.53,1978.8,2197.57,1993.34,2204.76,1996.44Z"/><path class="cls-33" d="M2078.93,1996.12c-1.93-18,20.63-33.41,35.86-35.48"/><path class="cls-33" d="M2157.59,1931c0-15.62,18.45-25.07,31.95-26.2,13.15-1.1,25.23,4.38,34.53,13.43.29.27,4.91,5,4.84,5.11"/><g class="cls-34"><path class="cls-35" d="M2237.19,1990c-11,5.33-22.32,14.73-22.3,26.67a14.39,14.39,0,0,0,2.59,7.84c6.78,10.44,20,11.74,32,9.08a35.69,35.69,0,0,0,19.93-12.13c5.34-6.56,8.24-15.93,6.21-23.27-3-10.85-15.17-14.45-25.06-12.75A52.4,52.4,0,0,0,2237.19,1990Z"/></g><g class="cls-34"><path class="cls-35" d="M2147.37,2061a12.7,12.7,0,0,1-2,5.81,37,37,0,0,1-24.54,17.36c-1.47-2.62-2.88-5.27-4.24-7.91s-2.53-5-3.7-7.5c-2.65-5.55-5-11-7-16,4.73-5.07,11.06-8.5,17.64-10.82,4.38-1.54,7,.28,11,1.71s6.94,5.38,9.32,8.89C2145.63,2055,2147.44,2057.85,2147.37,2061Z"/></g><path class="cls-35" d="M2165.35,2039.52s-3.63,11.88,4.62,12.54,33.67-18.81,33.67-18.81-16.17,22.78-26.41,23.77S2155.44,2055.37,2165.35,2039.52Z"/><circle class="cls-36" cx="3201.83" cy="732.85" r="309.53"/><circle class="cls-37" cx="3173.85" cy="685.46" r="309.53"/><circle class="cls-38" cx="1733.67" cy="660.76" r="202.74"/><circle class="cls-39" cx="1708.93" cy="618.85" r="202.74"/><circle class="cls-40" cx="2366.91" cy="636.15" r="233.23"/><circle class="cls-41" cx="2340.99" cy="592.23" r="233.23"/><g class="cls-42"><rect class="cls-43" x="2848.97" y="1153.31" width="1128.22" height="1563.87"/><g class="cls-44"><path class="cls-45" d="M3520.41,2717.18H2849V1153.31h383.94c-70.31,109.24-126.49,259-128.54,459.42-5.58,546.19,390.61,965.74,390.61,965.74S3510.87,2637.15,3520.41,2717.18Z"/></g><polygon class="cls-45" points="3883.45 1193.46 3883.45 1146.98 2830.08 1146.98 2830.08 2844.07 2877.12 2844.07 2877.12 2353.8 3883.45 2353.8 3883.45 2307.33 2877.12 2307.33 2877.12 1762.02 3883.45 1762.02 3883.45 1715.55 2877.12 1715.55 2877.12 1193.46 3883.45 1193.46"/><polygon class="cls-46" points="3872.83 1179.66 3872.83 1133.19 2819.47 1133.19 2819.47 2830.27 2866.5 2830.27 2866.5 2340.01 3872.83 2340.01 3872.83 2293.54 2866.5 2293.54 2866.5 1748.22 3872.83 1748.22 3872.83 1701.75 2866.5 1701.75 2866.5 1179.66 3872.83 1179.66"/><path class="cls-47" d="M2995.26,1435.19v257.4a9.16,9.16,0,0,1-9.16,9.16h-35a9.16,9.16,0,0,1-9.16-9.16v-257.4a9.16,9.16,0,0,1,9.16-9.16h35A9.16,9.16,0,0,1,2995.26,1435.19Z"/><path class="cls-48" d="M2995.26,1682.17v10.42a9.16,9.16,0,0,1-9.16,9.16h-35a9.16,9.16,0,0,1-9.16-9.16V1486.28S2944.28,1664.66,2995.26,1682.17Z"/><rect class="cls-49" x="2866.5" y="1311.8" width="75.46" height="389.95" rx="11.87"/><rect class="cls-50" x="2894.15" y="1435.04" width="19.11" height="187.21"/><rect class="cls-47" x="2889.17" y="1644.89" width="29.06" height="6.76"/><rect class="cls-47" x="2894.15" y="1655.65" width="19.11" height="6.76"/><path class="cls-51" d="M3116.51,1374.64v315.87c0,6.2-9.32,11.24-20.83,11.24H3016.1c-11.52,0-20.84-5-20.84-11.24V1374.64c0-6.22,9.32-11.24,20.84-11.24h79.58C3107.19,1363.4,3116.51,1368.42,3116.51,1374.64Z"/><rect class="cls-52" x="3007.41" y="1462.1" width="96.96" height="150.63"/><g class="cls-53"><path class="cls-18" d="M3116.51,1677.72v12.79c0,6.2-9.32,11.24-20.83,11.24H3016.1c-11.52,0-20.84-5-20.84-11.24V1437.33S3000.55,1656.23,3116.51,1677.72Z"/></g><path class="cls-54" d="M3180.77,1371.94l93,301.88a11.26,11.26,0,0,1-7.5,14.07l-41.31,12.73a11.28,11.28,0,0,1-14.12-7.41l-93-301.88a11.28,11.28,0,0,1,7.51-14.08l41.3-12.72A11.28,11.28,0,0,1,3180.77,1371.94Z"/><rect class="cls-52" x="3184.37" y="1461.89" width="25.71" height="150.63" transform="translate(-310.84 1009.29) rotate(-17.12)"/><g class="cls-53"><path class="cls-55" d="M3270,1661.6l3.76,12.22a11.26,11.26,0,0,1-7.5,14.07l-41.31,12.73a11.28,11.28,0,0,1-14.12-7.41l-74.53-242S3203.47,1659.6,3270,1661.6Z"/></g><path class="cls-3" d="M3288.31,1684.41l-26.26-140.07-18.78-100.16s12.66,3.26,36.87-1.28c28-5.24,34.82-12.16,34.82-12.16l18.78,100.16L3360,1671l-35.85,6.72Z"/><path class="cls-1" d="M3288.31,1684.41l-26.26-140.07-18.78-100.16s13.34,6.89,37.55,2.35c28-5.25,34.14-15.79,34.14-15.79l18.78,100.16L3360,1671l-35.85,6.72Z"/><g class="cls-56"><rect class="cls-57" x="3184.43" y="1556.23" width="250.05" height="2.68" transform="translate(4230.58 -1982.21) rotate(79.38)"/><rect class="cls-57" x="3176.9" y="1557.64" width="250.05" height="2.68" transform="translate(4225.82 -1973.66) rotate(79.38)"/><rect class="cls-57" x="3169.37" y="1559.05" width="250.05" height="2.68" transform="translate(4221.07 -1965.1) rotate(79.38)"/><rect class="cls-57" x="3161.84" y="1560.46" width="250.05" height="2.68" transform="translate(4216.31 -1956.55) rotate(79.38)"/><rect class="cls-57" x="3154.31" y="1561.87" width="250.05" height="2.68" transform="translate(4211.56 -1948) rotate(79.38)"/><rect class="cls-57" x="3146.78" y="1563.29" width="250.05" height="2.68" transform="translate(4206.8 -1939.44) rotate(79.38)"/><rect class="cls-57" x="3207.48" y="1551.91" width="250.05" height="2.68" transform="translate(4245.13 -2008.39) rotate(79.38)"/><rect class="cls-57" x="3199.95" y="1553.32" width="250.05" height="2.68" transform="translate(4240.38 -1999.83) rotate(79.38)"/><rect class="cls-57" x="3192.42" y="1554.73" width="250.05" height="2.68" transform="translate(4235.62 -1991.28) rotate(79.38)"/></g><path class="cls-58" d="M3318.12,1419.82h0a5.72,5.72,0,0,0-4.57,6.69l44.79,238.94a5.74,5.74,0,0,1-4.58,6.69l-59.82,11.22a5.74,5.74,0,0,1-6.69-4.58l-44.79-238.94a5.74,5.74,0,0,0-6.69-4.58h0a5.74,5.74,0,0,0-4.58,6.69l47.54,253.54a5.73,5.73,0,0,0,6.68,4.58l82.35-15.44a5.73,5.73,0,0,0,4.58-6.68l-47.53-253.55A5.74,5.74,0,0,0,3318.12,1419.82Z"/><path class="cls-59" d="M3288.31,1684.41l-26.26-140.07-18.78-100.16s12.12,3.09,35.26-1l44,234.81Z"/><g class="cls-53"><path class="cls-55" d="M3323.61,1683.62l.62,3.34a5.72,5.72,0,0,1-4.57,6.69l-34.25,6.42a5.73,5.73,0,0,1-6.68-4.58L3231.19,1442a5.74,5.74,0,0,1,4.58-6.69h0a5.74,5.74,0,0,1,6.69,4.58l44.79,238.94a5.74,5.74,0,0,0,6.69,4.58l23-4.31A5.73,5.73,0,0,1,3323.61,1683.62Z"/></g><path class="cls-47" d="M3244.75,2027.34v257.4a9.16,9.16,0,0,0,9.15,9.16h35a9.16,9.16,0,0,0,9.16-9.16v-257.4a9.15,9.15,0,0,0-9.16-9.16h-35A9.15,9.15,0,0,0,3244.75,2027.34Z"/><path class="cls-48" d="M3244.75,2274.32v10.42a9.16,9.16,0,0,0,9.15,9.16h35a9.16,9.16,0,0,0,9.16-9.16V2078.43S3295.72,2256.81,3244.75,2274.32Z"/><rect class="cls-49" x="3298.04" y="1903.95" width="75.46" height="389.95" rx="11.87"/><rect class="cls-50" x="3326.74" y="2027.19" width="19.11" height="187.21"/><rect class="cls-60" x="3373.5" y="2218.45" width="389.95" height="75.46" rx="11.87"/><rect class="cls-49" x="3452.99" y="2247.14" width="129.07" height="19.11"/><rect class="cls-3" x="3589.25" y="2218.45" width="103.52" height="75.46"/><path class="cls-51" d="M3123.49,1966.79v315.87c0,6.2,9.32,11.24,20.84,11.24h79.58c11.52,0,20.84-5,20.84-11.24V1966.79c0-6.22-9.32-11.24-20.84-11.24h-79.58C3132.81,1955.55,3123.49,1960.57,3123.49,1966.79Z"/><rect class="cls-52" x="3135.64" y="2054.25" width="96.96" height="150.63"/><g class="cls-53"><path class="cls-18" d="M3123.49,2269.87v12.79c0,6.2,9.32,11.24,20.84,11.24h79.58c11.52,0,20.84-5,20.84-11.24V2029.48S3239.46,2248.38,3123.49,2269.87Z"/></g><path class="cls-54" d="M3059.23,1964.09l-93,301.88a11.27,11.27,0,0,0,7.51,14.07l41.3,12.73a11.29,11.29,0,0,0,14.13-7.41l93-301.88a11.28,11.28,0,0,0-7.51-14.08l-41.3-12.72A11.28,11.28,0,0,0,3059.23,1964.09Z"/><rect class="cls-52" x="2967.47" y="2116.5" width="150.63" height="25.71" transform="translate(112.07 4410.49) rotate(-72.88)"/><g class="cls-53"><path class="cls-55" d="M2970,2253.75l-3.76,12.22a11.27,11.27,0,0,0,7.51,14.07l41.3,12.73a11.29,11.29,0,0,0,14.13-7.41l74.53-242S3036.53,2251.75,2970,2253.75Z"/></g><path class="cls-3" d="M2951.7,2276.56,2978,2136.49l18.78-100.16s-12.65,3.26-36.86-1.28c-28-5.25-34.83-12.16-34.83-12.16l-18.77,100.16L2880,2263.12l35.84,6.72Z"/><path class="cls-1" d="M2951.7,2276.56,2978,2136.49l18.78-100.16s-13.33,6.89-37.54,2.35c-28-5.25-34.15-15.79-34.15-15.79l-18.77,100.16L2880,2263.12l35.84,6.72Z"/><g class="cls-61"><rect class="cls-57" x="2805.53" y="2148.38" width="250.05" height="2.68" transform="translate(5583.42 -334.57) rotate(100.62)"/><rect class="cls-57" x="2813.06" y="2149.79" width="250.05" height="2.68" transform="translate(5593.73 -340.3) rotate(100.62)"/><rect class="cls-57" x="2820.59" y="2151.2" width="250.05" height="2.68" transform="translate(5604.03 -346.03) rotate(100.62)"/><rect class="cls-57" x="2828.12" y="2152.61" width="250.05" height="2.68" transform="translate(5614.34 -351.76) rotate(100.62)"/><rect class="cls-57" x="2835.65" y="2154.02" width="250.05" height="2.68" transform="translate(5624.64 -357.49) rotate(100.62)"/><rect class="cls-57" x="2843.18" y="2155.43" width="250.05" height="2.68" transform="translate(5634.95 -363.22) rotate(100.62)"/><rect class="cls-57" x="2782.48" y="2144.06" width="250.05" height="2.68" transform="translate(5551.88 -317.04) rotate(100.62)"/><rect class="cls-57" x="2790.01" y="2145.47" width="250.05" height="2.68" transform="translate(5562.19 -322.77) rotate(100.62)"/><rect class="cls-57" x="2797.54" y="2146.88" width="250.05" height="2.68" transform="translate(5572.49 -328.5) rotate(100.62)"/></g><path class="cls-58" d="M2921.88,2012h0a5.74,5.74,0,0,1,4.58,6.69l-44.8,238.94a5.74,5.74,0,0,0,4.58,6.69l59.83,11.21a5.71,5.71,0,0,0,6.68-4.57l44.8-238.95a5.72,5.72,0,0,1,6.68-4.57h0a5.74,5.74,0,0,1,4.58,6.69l-47.53,253.54a5.74,5.74,0,0,1-6.69,4.58l-82.35-15.44a5.74,5.74,0,0,1-4.58-6.69l47.53-253.54A5.74,5.74,0,0,1,2921.88,2012Z"/><path class="cls-59" d="M2951.7,2276.56,2978,2136.49l18.78-100.16s-12.11,3.09-35.26-1l-44,234.81Z"/><g class="cls-53"><path class="cls-55" d="M2916.4,2275.77l-.63,3.34a5.74,5.74,0,0,0,4.58,6.69l34.24,6.42a5.74,5.74,0,0,0,6.69-4.58l47.53-253.54a5.74,5.74,0,0,0-4.58-6.69h0a5.72,5.72,0,0,0-6.68,4.57l-44.8,238.95a5.71,5.71,0,0,1-6.68,4.57l-23-4.3A5.71,5.71,0,0,0,2916.4,2275.77Z"/></g><path class="cls-3" d="M3410.81,2210l142.5.22,101.91.16s-5.51-8.7-5.46-26.78c.06-20.9,5.61-26.76,5.61-26.76l-101.9-.16-142.51-.22-.08,26.77Z"/><path class="cls-1" d="M3410.81,2210l142.5.22,101.91.16s-9.2-8.7-9.15-26.79c.06-20.9,9.3-26.75,9.3-26.75l-101.9-.16-142.51-.22-.08,26.77Z"/><g class="cls-62"><polygon class="cls-57" points="3406.65 2178.58 3656.7 2178.96 3656.7 2176.99 3406.65 2176.61 3406.65 2178.58"/><polygon class="cls-57" points="3406.63 2184.2 3656.68 2184.59 3656.68 2182.62 3406.64 2182.23 3406.63 2184.2"/><polygon class="cls-57" points="3406.62 2189.82 3656.66 2190.21 3656.67 2188.24 3406.62 2187.86 3406.62 2189.82"/><polygon class="cls-57" points="3406.6 2195.45 3656.65 2195.84 3656.65 2193.87 3406.61 2193.48 3406.6 2195.45"/><polygon class="cls-57" points="3406.58 2201.07 3656.63 2201.46 3656.64 2199.49 3406.59 2199.11 3406.58 2201.07"/><polygon class="cls-57" points="3406.57 2206.7 3656.61 2207.08 3656.62 2205.12 3406.57 2204.73 3406.57 2206.7"/><polygon class="cls-57" points="3406.7 2161.36 3656.74 2161.75 3656.75 2159.78 3406.7 2159.39 3406.7 2161.36"/><polygon class="cls-57" points="3406.68 2166.99 3656.73 2167.37 3656.73 2165.4 3406.69 2165.02 3406.68 2166.99"/><polygon class="cls-57" points="3406.67 2172.61 3656.71 2172.99 3656.72 2171.03 3406.67 2170.64 3406.67 2172.61"/></g><path class="cls-58" d="M3665.53,2153.1h0c0,2.33-2.57,4.21-5.74,4.2l-243.1-.37c-3.17,0-5.74,1.87-5.74,4.19l-.13,44.69c0,2.32,2.55,4.21,5.71,4.21l243.11.38c3.17,0,5.72,1.89,5.72,4.21h0c0,2.33-2.58,4.21-5.74,4.2l-258-.4c-3.16,0-5.72-1.89-5.71-4.21l.17-61.51c0-2.32,2.58-4.2,5.74-4.2l258,.4C3663,2148.89,3665.54,2150.78,3665.53,2153.1Z"/><path class="cls-59" d="M3410.81,2210l142.5.22,101.91.16s-5.25-8.33-5.44-25.58l-238.9-.37Z"/><g class="cls-53"><path class="cls-55" d="M3405.15,2184.43h-3.4c-3.16,0-5.73,1.88-5.74,4.2l-.07,25.58c0,2.32,2.55,4.21,5.71,4.21l258,.4c3.16,0,5.73-1.87,5.74-4.2h0c0-2.32-2.55-4.21-5.72-4.21l-243.11-.38c-3.16,0-5.72-1.89-5.71-4.21l0-17.17C3410.87,2186.32,3408.31,2184.43,3405.15,2184.43Z"/></g><path class="cls-3" d="M3640.5,2077.41l-142.5-.25-101.91-.19s5.51,10.2,5.46,31.4c-.06,24.51-5.61,31.39-5.61,31.39l101.9.18,142.51.26.08-31.39Z"/><path class="cls-1" d="M3640.5,2077.41l-142.5-.25-101.91-.19s9.2,10.21,9.15,31.41c-.06,24.51-9.3,31.38-9.3,31.38l101.9.18,142.51.26.08-31.39Z"/><g class="cls-63"><rect class="cls-57" x="3518.48" y="1990.18" width="2.31" height="250.05" transform="translate(1398.08 5631.01) rotate(-89.9)"/><rect class="cls-57" x="3518.5" y="1983.58" width="2.31" height="250.05" transform="translate(1404.69 5624.44) rotate(-89.9)"/><rect class="cls-57" x="3518.51" y="1976.99" width="2.31" height="250.05" transform="translate(1411.3 5617.88) rotate(-89.9)"/><rect class="cls-57" x="3518.53" y="1970.39" width="2.31" height="250.05" transform="translate(1417.91 5611.31) rotate(-89.9)"/><rect class="cls-57" x="3518.55" y="1963.8" width="2.31" height="250.05" transform="translate(1424.52 5604.74) rotate(-89.9)"/><rect class="cls-57" x="3518.56" y="1957.21" width="2.31" height="250.05" transform="translate(1431.13 5598.18) rotate(-89.9)"/><rect class="cls-57" x="3518.43" y="2010.37" width="2.31" height="250.05" transform="translate(1377.84 5651.11) rotate(-89.9)"/><rect class="cls-57" x="3518.45" y="2003.77" width="2.31" height="250.05" transform="translate(1384.45 5644.54) rotate(-89.9)"/><rect class="cls-57" x="3518.47" y="1997.18" width="2.31" height="250.05" transform="translate(1391.06 5637.98) rotate(-89.9)"/></g><path class="cls-47" d="M3385.78,2144.14h0c0-2.72,2.57-4.92,5.74-4.92l243.1.44c3.17,0,5.74-2.2,5.74-4.92l.13-52.4c0-2.72-2.55-4.93-5.72-4.94l-243.1-.44c-3.17,0-5.73-2.22-5.72-4.94h0c0-2.72,2.58-4.93,5.74-4.92l258,.46c3.16,0,5.72,2.22,5.71,5l-.17,72.12c0,2.72-2.58,4.93-5.74,4.92l-258-.46C3388.33,2149.08,3385.77,2146.87,3385.78,2144.14Z"/><path class="cls-59" d="M3640.5,2077.41l-142.5-.25-101.91-.19s5.25,9.77,5.44,30l238.9.43Z"/><g class="cls-53"><path class="cls-55" d="M3646.16,2107.41h3.4c3.16,0,5.73-2.2,5.74-4.92l.07-30c0-2.73-2.55-4.94-5.71-5l-258-.46c-3.16,0-5.73,2.2-5.74,4.92h0c0,2.72,2.55,4.94,5.72,4.94l243.1.44c3.17,0,5.73,2.22,5.72,4.94l0,20.13C3640.44,2105.2,3643,2107.41,3646.16,2107.41Z"/></g></g><circle class="cls-40" cx="3647.39" cy="1286.63" r="279.55"/><circle class="cls-64" cx="3713.79" cy="1276.9" r="279.55"/><path class="cls-43" d="M1690.57,678.71q-10.38,0-17.57-5a30.78,30.78,0,0,1-10.93-13.64,55.3,55.3,0,0,1,0-39.88A30.72,30.72,0,0,1,1673,606.6q7.2-5,17.57-5,10.14,0,17.24,5a31.76,31.76,0,0,1,10.92,13.64,49,49,0,0,1,3.84,19.94,50.75,50.75,0,0,1-3.73,20.16A30.33,30.33,0,0,1,1708,673.87Q1700.92,678.7,1690.57,678.71Zm101-77.07-94,137.68-21-.45,93.75-137.23Zm-114.47,38.54q0,11,3.49,17.24c2.33,4.13,5.66,6.2,10,6.2s7.66-2.07,9.92-6.2,3.37-9.88,3.37-17.24c0-7.67-1.12-13.44-3.37-17.36a10.84,10.84,0,0,0-9.92-5.86,11.08,11.08,0,0,0-10,5.75Q1677,628.47,1677.05,640.18Zm98,102.3q-10.38,0-17.46-4.84a29.68,29.68,0,0,1-10.71-13.53,52.31,52.31,0,0,1-3.61-20.16,51.47,51.47,0,0,1,3.61-20.06,29.82,29.82,0,0,1,10.71-13.41q7.1-4.83,17.46-4.84t17.46,4.84a31.2,31.2,0,0,1,10.92,13.41,48.48,48.48,0,0,1,3.84,20.06,50.67,50.67,0,0,1-3.73,20,29.94,29.94,0,0,1-10.91,13.64Q1785.42,742.47,1775.07,742.48Zm-13.52-38.31q0,10.82,3.49,17.13c2.33,4.2,5.66,6.3,10,6.3s7.7-2.1,10-6.3,3.48-9.92,3.48-17.13q0-11.7-3.48-17.58a11.62,11.62,0,0,0-20.06-.22Q1761.55,692,1761.55,704.17Z"/><path class="cls-3" d="M1688.49,674.77q-10.38,0-17.57-4.95A30.81,30.81,0,0,1,1660,656.19a55.33,55.33,0,0,1,0-39.89,30.75,30.75,0,0,1,10.93-13.63q7.2-4.95,17.57-5,10.14,0,17.23,5a31.8,31.8,0,0,1,10.93,13.63,49.07,49.07,0,0,1,3.84,20,50.82,50.82,0,0,1-3.73,20.16,30.31,30.31,0,0,1-10.82,13.52Q1698.85,674.78,1688.49,674.77Zm101-77.06-94,137.68-21-.45,93.75-137.23ZM1675,636.25q0,11,3.49,17.23c2.33,4.14,5.66,6.2,10,6.2s7.66-2.06,9.92-6.2,3.37-9.87,3.37-17.23q0-11.5-3.37-17.36a10.83,10.83,0,0,0-9.92-5.86,11.08,11.08,0,0,0-10,5.75Q1675,624.53,1675,636.25Zm98,102.29q-10.38,0-17.46-4.84a29.71,29.71,0,0,1-10.71-13.52,52.31,52.31,0,0,1-3.61-20.16,51.56,51.56,0,0,1,3.61-20.07,29.85,29.85,0,0,1,10.71-13.4q7.1-4.84,17.46-4.84t17.45,4.84a31.17,31.17,0,0,1,10.93,13.4,48.56,48.56,0,0,1,3.84,20.07,50.7,50.7,0,0,1-3.73,20.05,29.91,29.91,0,0,1-10.91,13.63Q1783.34,738.54,1773,738.54Zm-13.52-38.3q0,10.82,3.49,17.12c2.33,4.21,5.66,6.31,10,6.31s7.7-2.1,10-6.31,3.48-9.91,3.48-17.12q0-11.72-3.48-17.58a11.62,11.62,0,0,0-20.06-.22Q1759.47,688.08,1759.47,700.24Z"/><path class="cls-43" d="M2227.06,658.33q2.34-3.68,8.08-6a33.2,33.2,0,0,1,10.69-2.24,73.18,73.18,0,0,1,12.34.36l1.16-16.29a66.26,66.26,0,0,0-14.65-1.13q-7.82.21-18.68,4.67a37,37,0,0,0-13.12,9.72,26.69,26.69,0,0,0-6.09,13.11,27.72,27.72,0,0,0,2.07,15A23.65,23.65,0,0,0,2225,690.31a46.92,46.92,0,0,0,10.32,1.69q5.24.29,10,.16a41.54,41.54,0,0,1,7.82.5,19.64,19.64,0,0,1,6.41,2.07,8.19,8.19,0,0,1,3.77,4.16,9,9,0,0,1,.37,7,12.81,12.81,0,0,1-4.09,5.32,25.6,25.6,0,0,1-6,3.54,30.33,30.33,0,0,1-7.35,1.87,44.8,44.8,0,0,1-8.63.33,46,46,0,0,1-8.57-1.26l-2.16,17a58,58,0,0,0,23.84.28,59.61,59.61,0,0,0,10.87-3.24q10-4.11,15.36-10.51a27.89,27.89,0,0,0,6.49-13.7,26,26,0,0,0-1.66-14.15,31.08,31.08,0,0,0-6.31-10.16,23.75,23.75,0,0,0-7.93-5.45,31.28,31.28,0,0,0-8.94-2.17,73,73,0,0,0-9.18-.31,91.47,91.47,0,0,1-9.68-.16,25.6,25.6,0,0,1-8.29-1.8,8.39,8.39,0,0,1-4.83-4.65Q2224.72,662,2227.06,658.33Z"/><path class="cls-43" d="M2301.38,603.2l-2.25,109.95,17.45-7.15.11-20.57,29.81-12.22,14.13,14.73,20.5-8.4-78.78-76.74Zm15.41,64.8.14-25.63,17.6,18.36Z"/><polygon class="cls-43" points="2375.06 577.13 2357.37 584.38 2394.18 674.19 2454.1 649.63 2447.09 632.55 2404.87 649.85 2375.06 577.13"/><polygon class="cls-43" points="2483.08 617.79 2475.13 598.39 2513.69 582.59 2506.69 565.5 2468.13 581.31 2460.28 562.15 2503.84 544.3 2496.84 527.21 2435.59 552.32 2472.4 642.13 2535.36 616.32 2528.35 599.24 2483.08 617.79"/><path class="cls-3" d="M2219,657q2.34-3.68,8.08-6a32.93,32.93,0,0,1,10.69-2.25,73.18,73.18,0,0,1,12.34.36l1.16-16.29a66.87,66.87,0,0,0-14.65-1.13q-7.82.23-18.68,4.67a37,37,0,0,0-13.12,9.72,26.68,26.68,0,0,0-6.09,13.12,27.74,27.74,0,0,0,2.07,15A23.67,23.67,0,0,0,2217,689a46.92,46.92,0,0,0,10.32,1.69q5.23.29,10,.16a41.54,41.54,0,0,1,7.82.5,19.64,19.64,0,0,1,6.41,2.07,8.19,8.19,0,0,1,3.77,4.16,9,9,0,0,1,.37,7,12.75,12.75,0,0,1-4.09,5.32,25.74,25.74,0,0,1-6,3.54,30.08,30.08,0,0,1-7.36,1.87,44,44,0,0,1-8.63.33,46,46,0,0,1-8.57-1.26l-2.16,17a58.06,58.06,0,0,0,23.85.28,59,59,0,0,0,10.86-3.24q10-4.11,15.36-10.5a27.92,27.92,0,0,0,6.49-13.71,26,26,0,0,0-1.66-14.14,31.13,31.13,0,0,0-6.31-10.17,23.9,23.9,0,0,0-7.93-5.45,31.62,31.62,0,0,0-8.94-2.17,74.91,74.91,0,0,0-9.18-.31,94.25,94.25,0,0,1-9.68-.15,25.86,25.86,0,0,1-8.29-1.81,8.39,8.39,0,0,1-4.83-4.65Q2216.69,660.66,2219,657Z"/><path class="cls-3" d="M2293.35,601.86l-2.25,109.95,17.45-7.15.11-20.57,29.81-12.22,14.13,14.74,20.5-8.41-78.77-76.74Zm15.41,64.81.14-25.63,17.6,18.35Z"/><polygon class="cls-3" points="2367.03 575.79 2349.34 583.04 2386.16 672.85 2446.07 648.29 2439.06 631.21 2396.84 648.51 2367.03 575.79"/><polygon class="cls-3" points="2475.05 616.45 2467.1 597.06 2505.66 581.25 2498.66 564.17 2460.1 579.97 2452.25 560.82 2495.81 542.96 2488.81 525.88 2427.55 550.99 2464.37 640.79 2527.33 614.98 2520.32 597.9 2475.05 616.45"/><path class="cls-1" d="M3235,799.3v20.58c7.45-1.64,10.73-5.52,10.73-10.29C3245.73,804.37,3241.41,801.54,3235,799.3Z"/><path class="cls-43" d="M3264.1,655.7a5.4,5.4,0,0,0,.5-2.17,5.54,5.54,0,0,0-5.43-5.64l-2.92,0,.15-.26,3.42-.25a5.5,5.5,0,0,0,2.63-10.1l30.11-51.62c-3.24-6.65-12.64-4.6-29.14-2.71l-2.59.29-.39,0-3.25.33c-.82.07-1.63.12-2.41.15h-2.33l-.69,0c-.52,0-1-.05-1.55-.09l-.6-.07c-.52,0-1-.11-1.55-.18l-.48-.08c-.54-.08-1.07-.18-1.59-.28l-.34-.08c-.55-.12-1.1-.25-1.64-.39l-.2-.06c-.57-.15-1.13-.32-1.68-.5l-.09,0q-.87-.28-1.68-.6a35.42,35.42,0,0,1-9.67-5.64,6.74,6.74,0,0,0-8.68,0,35.49,35.49,0,0,1-12.7,6.66,36,36,0,0,1-5.84,1.14l-.77.08-1,.08-1,.05-.9,0c-.44,0-.88,0-1.33,0h-.74c-.71,0-1.43-.08-2.16-.14l-3.83-.39h-.06l-3.57-.4c-15.75-1.85-24.75-3.63-27.91,2.85l32.49,55.7a5.55,5.55,0,0,0-4,5.73,5.62,5.62,0,0,0,.51,1.93,5.46,5.46,0,0,0-1,3.1,5.56,5.56,0,0,0,.95,3.2c-27.53,25.57-102.35,106.13-89.67,216.63,0,0-3.21,51.78,127,49.74,130.17,2,127-49.74,127-49.74C3365.92,762,3292,681.74,3264.1,655.7Z"/><path class="cls-3" d="M3240.37,640.38l1,0,.15-.25-1.36.1Z"/><path class="cls-3" d="M3245.6,575.79l.38,0Z"/><path class="cls-3" d="M3239.24,576.28h0Z"/><path class="cls-3" d="M3230.81,575.48l.34.07Z"/><path class="cls-3" d="M3184.9,576.29h-1.32C3184,576.29,3184.46,576.3,3184.9,576.29Z"/><path class="cls-3" d="M3198.76,632.22l-25.55-56.9c-15.74-1.84-24.75-3.63-27.91,2.86l32.5,55.7a5,5,0,0,1,1.1-.19Z"/><path class="cls-3" d="M3234.77,576.1c.2,0,.39,0,.6.06C3235.16,576.15,3235,576.12,3234.77,576.1Z"/><path class="cls-3" d="M3229.76,629.93l14.4-1.06a5.41,5.41,0,0,1,3.44.92l30.11-51.61c-3.24-6.65-12.63-4.6-29.14-2.72,6.7-.76,12.23-1.55,16.65-1.77Z"/><path class="cls-3" d="M3237.61,576.29l-.7,0Z"/><path class="cls-3" d="M3215.31,631l10.19-57.11h0a35.76,35.76,0,0,1-9.66-5.63,6.76,6.76,0,0,0-8.69,0,35.4,35.4,0,0,1-12.7,6.65l5.07,57.25Z"/><path class="cls-3" d="M3229,575l.21.06Z"/><path class="cls-3" d="M3185.8,576.27l1-.06Z"/><path class="cls-3" d="M3232.74,575.84l.47.08Z"/><path class="cls-3" d="M3227.19,574.5l.1,0Z"/><path class="cls-3" d="M3180.67,576.12c.74.07,1.45.11,2.16.14C3182.12,576.23,3181.41,576.19,3180.67,576.12Z"/><path class="cls-3" d="M3187.86,576.14l.76-.08Z"/><path class="cls-3" d="M3176.78,575.73h0Z"/><path class="cls-65" d="M3182.83,576.26l.75,0Z"/><path class="cls-65" d="M3185.8,576.27l-.9,0Z"/><path class="cls-65" d="M3176.84,575.73c1.24.14,2.52.27,3.83.39C3179.36,576,3178.08,575.87,3176.84,575.73Z"/><path class="cls-65" d="M3173.21,575.32h0l3.57.41Z"/><path class="cls-65" d="M3194.46,574.91a35.74,35.74,0,0,1-5.84,1.15,35.74,35.74,0,0,0,5.84-1.15Z"/><path class="cls-65" d="M3186.85,576.21l1-.07Z"/><path class="cls-3" d="M3199.53,632.16l-5.07-57.25a35.74,35.74,0,0,1-5.84,1.15l-.76.08-1,.07-1,.06-.9,0c-.44,0-.88,0-1.32,0l-.75,0c-.71,0-1.42-.07-2.16-.14-1.31-.12-2.59-.25-3.83-.39h-.06l-3.57-.41,25.55,56.9Z"/><path class="cls-65" d="M3199.53,632.16l-5.07-57.25a35.74,35.74,0,0,1-5.84,1.15l-.76.08-1,.07-1,.06-.9,0c-.44,0-.88,0-1.32,0l-.75,0c-.71,0-1.42-.07-2.16-.14-1.31-.12-2.59-.25-3.83-.39h-.06l-3.57-.41,25.55,56.9Z"/><path class="cls-65" d="M3227.29,574.53c.54.18,1.1.34,1.67.5C3228.39,574.87,3227.83,574.71,3227.29,574.53Z"/><path class="cls-65" d="M3246,575.75l2.59-.29Z"/><path class="cls-65" d="M3225.51,573.89c.55.21,1.11.42,1.68.61C3226.62,574.31,3226.06,574.1,3225.51,573.89Z"/><path class="cls-65" d="M3245.6,575.79c-1.06.11-2.14.23-3.26.33-.82.08-1.62.13-2.41.16.79,0,1.59-.08,2.41-.16C3243.46,576,3244.54,575.9,3245.6,575.79Z"/><path class="cls-65" d="M3229.17,575.09c.53.14,1.08.27,1.64.39C3230.25,575.36,3229.7,575.23,3229.17,575.09Z"/><path class="cls-65" d="M3235.37,576.16c.5.05,1,.07,1.54.09C3236.39,576.23,3235.87,576.21,3235.37,576.16Z"/><path class="cls-65" d="M3233.21,575.92q.76.11,1.56.18C3234.24,576,3233.72,576,3233.21,575.92Z"/><path class="cls-65" d="M3231.15,575.55c.52.11,1,.2,1.59.29C3232.2,575.75,3231.67,575.66,3231.15,575.55Z"/><path class="cls-65" d="M3239.24,576.28c-.55,0-1.1,0-1.63,0C3238.14,576.3,3238.69,576.29,3239.24,576.28Z"/><path class="cls-3" d="M3215.31,631l14.45-1.07,35.46-56.24c-4.42.22-9.95,1-16.65,1.77l-2.59.29-.38,0c-1.06.11-2.14.23-3.26.33-.82.08-1.62.13-2.41.16h-.69c-.55,0-1.1,0-1.63,0l-.7,0c-.52,0-1,0-1.54-.09-.21,0-.4,0-.6-.06q-.8-.08-1.56-.18l-.47-.08c-.54-.09-1.07-.18-1.59-.29l-.34-.07c-.56-.12-1.11-.25-1.64-.39L3229,575c-.57-.16-1.13-.32-1.67-.5l-.1,0c-.57-.19-1.13-.4-1.68-.61h0Z"/><path class="cls-65" d="M3215.31,631l14.45-1.07,35.46-56.24c-4.42.22-9.95,1-16.65,1.77l-2.59.29-.38,0c-1.06.11-2.14.23-3.26.33-.82.08-1.62.13-2.41.16h-.69c-.55,0-1.1,0-1.63,0l-.7,0c-.52,0-1,0-1.54-.09-.21,0-.4,0-.6-.06q-.8-.08-1.56-.18l-.47-.08c-.54-.09-1.07-.18-1.59-.29l-.34-.07c-.56-.12-1.11-.25-1.64-.39L3229,575c-.57-.16-1.13-.32-1.67-.5l-.1,0c-.57-.19-1.13-.4-1.68-.61h0Z"/><path class="cls-3" d="M3205.25,766.23V745.06c-7.91,1.78-11,6.11-11,11C3194.21,761.3,3198.69,764.14,3205.25,766.23Z"/><path class="cls-3" d="M3249.26,648.27a5.53,5.53,0,0,1-5,3.25h-.1l-65.43-1.24a5.52,5.52,0,0,1-4.47-2.44c-27.53,25.56-102.36,106.12-89.68,216.62,0,0-3.2,51.79,127,49.75,130.16,2,127-49.75,127-49.75C3351.08,754.59,3277.16,674.31,3249.26,648.27Zm-44,200.55V832.57c-14.76-.89-28.93-5.51-37.13-11.92l8.2-18.19c7.46,5.51,18.19,9.54,28.93,10.58v-24.9c-16.55-4-35-9.54-35-30.86,0-15.81,11.48-29.37,35-32V708.67h14.9v16.26c11.19.89,22.07,3.88,30.27,9.09L3243,752.36a61,61,0,0,0-22.82-7.75V770c16.56,3.87,34.74,9.38,34.74,30.41,0,15.5-11.33,28.92-34.74,31.76v16.69Z"/><path class="cls-3" d="M3238.79,640.35l1.58,0-.17-.13Z"/><path class="cls-3" d="M3220.15,812.44c7.46-1.63,10.74-5.51,10.74-10.29,0-5.21-4.32-8-10.74-10.28Z"/><path class="cls-5" d="M3220.15,848.82V832.13c23.41-2.84,34.74-16.26,34.74-31.76,0-21-18.18-26.54-34.74-30.41V744.61a61,61,0,0,1,22.82,7.75l7.45-18.34c-8.2-5.21-19.08-8.2-30.27-9.09V708.67h-14.9v16.56c-23.56,2.68-35,16.24-35,32,0,21.32,18.49,26.84,35,30.86V813c-10.74-1-21.47-5.07-28.93-10.58l-8.2,18.19c8.2,6.41,22.37,11,37.13,11.92v16.25Zm10.74-46.67c0,4.78-3.28,8.66-10.74,10.29V791.87C3226.57,794.1,3230.89,796.94,3230.89,802.15Zm-36.68-46.06c0-4.92,3.13-9.25,11-11v21.17C3198.69,764.14,3194.21,761.3,3194.21,756.09Z"/><path class="cls-66" d="M3178.79,639.21h.11l59.89,1.14,1.41-.1,1.36-.1,3.41-.25a5.51,5.51,0,0,0,2.63-10.11,5.41,5.41,0,0,0-3.44-.92l-14.4,1.06L3215.31,631l-15.78,1.16-.77.06-19.86,1.47a5,5,0,0,0-1.1.19,5.53,5.53,0,0,0-4,5.73,5.35,5.35,0,0,0,.51,1.92A5.52,5.52,0,0,1,3178.79,639.21Z"/><path class="cls-5" d="M3178.69,650.28l65.43,1.24h.1a5.53,5.53,0,0,0,5-3.25,5.47,5.47,0,0,0,.49-2.17,5.53,5.53,0,0,0-5.42-5.64l-2.92-.06-1,0-1.58,0-59.89-1.14h-.11a5.54,5.54,0,0,0-.1,11.07Z"/><path class="cls-3" d="M3052.92,685.48c2.16-20.8,13.66-36.85,27.81-38-14.15-1.17-25.65-17.22-27.81-38-2.16,20.8-13.67,36.85-27.82,38C3039.25,648.63,3050.76,664.68,3052.92,685.48Z"/><path class="cls-3" d="M3086.56,638.87c1.23-11.92,7.82-21.12,15.93-21.79-8.11-.68-14.7-9.87-15.93-21.79-1.24,11.92-7.83,21.11-15.94,21.79C3078.73,617.75,3085.32,627,3086.56,638.87Z"/><path class="cls-43" d="M3771.93,1189.71a94.46,94.46,0,0,0-129.54,32.75c-1,1.62-1.86,3.26-2.72,4.91h0l0,0q-.78,1.5-1.5,3l-.09.2c-.45.94-.87,1.88-1.28,2.82l-.16.39c-.42,1-.81,1.93-1.19,2.91a.61.61,0,0,0-.05.12c-.07.18-.15.37-.22.56v0c-.23.6-.44,1.21-.65,1.82l-.36,1-.21.58v0a94.71,94.71,0,0,0-2.68,9.61c-.31,1.41-.59,2.83-.82,4.26,0,.26-.08.52-.12.78-.12.73-.23,1.46-.33,2.2-.08.55-.16,1.1-.23,1.65-.29,2.39-.49,4.79-.6,7.18,0,.4,0,.8-.05,1.2s0,.83,0,1.24,0,.9,0,1.34c0,.25,0,.51,0,.76s0,.36,0,.54c0,.86,0,1.72.06,2.57,0,.22,0,.43,0,.65s0,.5,0,.76c0,.43.05.86.08,1.29,0,.84.12,1.69.19,2.53a.28.28,0,0,0,0,.09c1.17,24.36,19.52,62,12.48,73.82l-3.43,5.76-1.92-1.14-10.43,17.49-.49-.19c-2-.73-4.81,1.27-6.39,4.48-1.45,2.93-1.32,5.86.2,6.9h0l-4.93,8.27-.49-.18c-2-.74-4.82,1.27-6.4,4.47-1.45,2.94-1.32,5.86.21,6.9a1.38,1.38,0,0,0,.27.14,68.82,68.82,0,0,0-3.56,9c-2-.68-4.78,1.31-6.34,4.49-1.45,2.93-1.32,5.86.2,6.9a3.45,3.45,0,0,0,.47.24l3.16,1.19c-.73,10.71,2.44,19.17,8.89,23l7.57,4.51c7.6,4.53,18.67,2,29.35-6.62,1-.8,2-1.66,2.9-2.54l2.32.87c1.95.74,4.81-1.27,6.39-4.47,1.32-2.67,1.31-5.31.15-6.55q1.71-2.4,3.23-5l2.14-3.59.49.19c1.95.73,4.82-1.27,6.4-4.48,1.44-2.93,1.29-5.83-.23-6.87l5-8.3.49.18c2,.74,4.81-1.26,6.39-4.47,1.45-2.94,1.3-5.84-.23-6.88l5-8.31-1.91-1.14,3.43-5.76c2.42-4.06,8.95-6.94,17.38-9.38,16.08-4.68,39.07-7.82,53.5-14.74h0c1.56-.67,3.11-1.39,4.64-2.14l.41-.19.53-.28.8-.4.18-.09.08-.05c2.62-1.37,5.2-2.86,7.7-4.48l.08,0,.1-.07.21-.14,1.21-.8.23-.17c2.17-1.49,4.3-3.06,6.36-4.73l.12-.1c.44-.34.87-.71,1.29-1.07l.71-.62,1.09-1,1-.92c.29-.29.61-.58.92-.87l1.22-1.16c.23-.23.44-.47.67-.69q.91-.91,1.8-1.86c.61-.65,1.21-1.3,1.81-2s1.21-1.37,1.8-2.07c.2-.23.41-.45.61-.69a2.26,2.26,0,0,0,.23-.29l1.08-1.34a93.33,93.33,0,0,0,7.12-10.32A94.46,94.46,0,0,0,3771.93,1189.71Z"/><path class="cls-3" d="M3631.22,1209.7a94.49,94.49,0,0,1,162.31,96.78,93.4,93.4,0,0,1-7.13,10.32l-1.08,1.34a2.09,2.09,0,0,1-.23.29,92.48,92.48,0,0,1-6.69,7.26c-.4.4-.82.78-1.21,1.17l-.93.87c-1,.85-1.88,1.68-2.84,2.49l-1.29,1.08-6.72,5c-.5.35-1,.68-1.52,1l-7.86,4.57c-.5.27-1,.52-1.5.77l-5.06,2.33c-22,10.55-63.84,12.31-70.88,24.12l-8,13.49a7.27,7.27,0,0,1-.59.83,5.68,5.68,0,0,1-7.19,1.13l-38.07-22.69a5.67,5.67,0,0,1-2-7.78l8.05-13.49c3.52-5.91.69-18.27-3.16-32.2s-8.74-29.44-9.33-41.63c-.1-1.08-.19-2.18-.24-3.28,0-.46-.06-.93-.08-1.39-.06-1.25-.08-2.5-.08-3.76,0-.48,0-1,0-1.46s0-1.25,0-1.87l.06-1.43c.06-1.11.12-2.21.22-3.31.22-2.76.57-5.53,1.05-8.27.23-1.43.51-2.86.82-4.27a94.53,94.53,0,0,1,2.68-9.6l0,0c.38-1.14.78-2.27,1.21-3.39v0a94.82,94.82,0,0,1,4.49-10l0,0h0C3629.36,1213,3630.25,1211.32,3631.22,1209.7Z"/><path class="cls-5" d="M3651.55,1249.7c-5.74,14-3.1,34.09,19,51.79-3.58,7.47-7.56,15.07-11.54,22.29-6.65,12-13.28,23-18.05,30.68-4.15,6.66-6.89,10.82-7,11l1.4.92c.44-.67,3.13-4.76,7.07-11,4.78-7.65,11.38-18.55,18-30.49,4-7.2,8-14.77,11.55-22.25a105.69,105.69,0,0,0,20.55,12.25c-4.88,6.71-9.67,13.82-14.1,20.76-7.37,11.48-13.81,22.47-18.27,30.3-3.58,6.29-5.87,10.56-6.32,11.41l0,.06,1.47.79s.06-.1.13-.25c.56-1,2.79-5.15,6.22-11.14,4.47-7.84,11-18.89,18.37-30.43,4.47-6.94,9.26-14.08,14.15-20.79,26.07,11,45,3.79,54.58-7.93,5.62-6.84,7.51-15.86,4.5-21.43a14.3,14.3,0,0,0-9.3-6.9c-6.71-1.77-15.11-.08-22.45,4.52-8.48,5.33-18.38,16.66-28,29.65a105.42,105.42,0,0,1-20.82-12.41c6.89-14.6,12.16-28.69,12.8-38.68.56-8.65-1.95-16.84-6.69-21.9a14.33,14.33,0,0,0-10.5-4.91C3661.93,1235.56,3654.9,1241.51,3651.55,1249.7Zm70.75,35.52c7-4.37,14.87-6,21.14-4.32a14.63,14.63,0,0,1,3.94,1.62,11.62,11.62,0,0,1,4.33,4.45c2.65,4.92.78,13.35-4.33,19.59-9.17,11.18-27.23,18-52.27,7.6C3704.5,1301.39,3714.15,1290.34,3722.3,1285.22Zm-54-48a11.54,11.54,0,0,1,6,1.69,14.94,14.94,0,0,1,3.3,2.7c4.45,4.72,6.77,12.44,6.25,20.65-.63,9.61-5.77,23.34-12.53,37.68-21.08-17.08-23.65-36.23-18.17-49.6C3656.15,1242.87,3662.67,1237.23,3668.27,1237.22Z"/><g class="cls-67"><path class="cls-5" d="M3790.5,1311.19c-24.31,30.6-71.72,49-121.37,19.43s-54-81.09-40.61-116a93.93,93.93,0,0,0-10.23,52.17h0c1.18,24.36,19.52,62,12.48,73.82l-8,13.49a5.67,5.67,0,0,0,2,7.78l13,7.78,12,7.14,13.05,7.78a5.68,5.68,0,0,0,7.78-2l8-13.49c7-11.8,48.89-13.57,70.88-24.11h0A94,94,0,0,0,3790.5,1311.19Z"/></g><path class="cls-3" d="M3677.07,1376l-51.65-30.8-25.36,42.53a66.94,66.94,0,0,0-8.39,21.57h0c-2.54,13.51.53,24.44,8.13,29l7.57,4.52c7.6,4.53,18.67,2,29.36-6.62h0a67,67,0,0,0,15-17.65Z"/><path class="cls-5" d="M3608.32,1373.88a1.83,1.83,0,0,0,.46.24l57.17,21.55c2,.74,4.81-1.27,6.39-4.47s1.28-6.41-.67-7.14l-57.17-21.55c-1.95-.74-4.81,1.27-6.39,4.47C3606.66,1369.92,3606.79,1372.84,3608.32,1373.88Z"/><path class="cls-5" d="M3596.71,1393.35a3.33,3.33,0,0,0,.46.24l57.17,21.54c1.95.74,4.82-1.26,6.4-4.47s1.27-6.4-.67-7.14L3602.9,1382c-2-.73-4.82,1.27-6.4,4.48C3595.06,1389.38,3595.18,1392.31,3596.71,1393.35Z"/><path class="cls-5" d="M3587.29,1413.84a1.83,1.83,0,0,0,.46.24l54.19,20.43c1.95.73,4.81-1.27,6.39-4.48s1.28-6.41-.67-7.13l-54.19-20.43c-1.95-.73-4.81,1.27-6.39,4.48C3585.63,1409.88,3585.76,1412.8,3587.29,1413.84Z"/><line class="cls-68" x1="3580.34" y1="1098.62" x2="3639.77" y2="1158.05"/><line class="cls-68" x1="3647.39" y1="1049.04" x2="3664.93" y2="1140.57"/><line class="cls-68" x1="3707.64" y1="1080.34" x2="3695.11" y2="1133.56"/><line class="cls-69" x1="686.59" y1="2761" x2="1060.6" y2="2761"/><line class="cls-69" x1="3254.89" y1="2761" x2="3483.38" y2="2761"/></g></g></svg>