<svg xmlns="http://www.w3.org/2000/svg" width="1149.204" height="1054.89" viewBox="0 0 1149.204 1054.89"><g id="Cloud-Based_Web_App_Testing_Methodology1" data-name="Cloud-Based Web App Testing Methodology1" transform="translate(0 143.595)"><g id="freepik--background-complete--inject-18" transform="translate(0 55)"><rect id="Rectangle_21966" data-name="Rectangle 21966" width="1149.204" height="0.575" transform="translate(0 752.499)" fill="#ebebeb"></rect><rect id="Rectangle_21967" data-name="Rectangle 21967" width="76.123" height="0.575" transform="translate(957.931 789.48)" fill="#ebebeb"></rect><rect id="Rectangle_21968" data-name="Rectangle 21968" width="19.973" height="0.575" transform="translate(741.306 795.732)" fill="#ebebeb"></rect><rect id="Rectangle_21969" data-name="Rectangle 21969" width="44.106" height="0.575" transform="translate(911.526 768.151)" fill="#ebebeb"></rect><rect id="Rectangle_21970" data-name="Rectangle 21970" width="99.268" height="0.575" transform="translate(120.574 772.012)" fill="#ebebeb"></rect><rect id="Rectangle_21971" data-name="Rectangle 21971" width="14.549" height="0.575" transform="translate(240.322 772.012)" fill="#ebebeb"></rect><rect id="Rectangle_21972" data-name="Rectangle 21972" width="215.315" height="0.575" transform="translate(302.172 781.712)" fill="#ebebeb"></rect><path id="Path_162844" data-name="Path 162844" d="M495.111,704.99H51.311a13.124,13.124,0,0,1-13.1-13.124V68.009A13.124,13.124,0,0,1,51.311,55h443.8a13.124,13.124,0,0,1,13.124,13.124V691.866A13.124,13.124,0,0,1,495.111,704.99ZM51.311,55.46A12.549,12.549,0,0,0,38.785,68.009V691.866a12.549,12.549,0,0,0,12.526,12.549h443.8a12.572,12.572,0,0,0,12.549-12.549V68.009A12.572,12.572,0,0,0,495.111,55.46Z" transform="translate(49.612 -55)" fill="#ebebeb"></path><path id="Path_162845" data-name="Path 162845" d="M711.447,704.99H267.624A13.147,13.147,0,0,1,254.5,691.866V68.009A13.147,13.147,0,0,1,267.624,55H711.447a13.124,13.124,0,0,1,13.078,13.009V691.866A13.124,13.124,0,0,1,711.447,704.99ZM267.624,55.46a12.572,12.572,0,0,0-12.549,12.549V691.866a12.572,12.572,0,0,0,12.549,12.549H711.447A12.572,12.572,0,0,0,724,691.866V68.009A12.572,12.572,0,0,0,711.447,55.46Z" transform="translate(330.445 -55)" fill="#ebebeb"></path><rect id="Rectangle_21973" data-name="Rectangle 21973" width="75.595" height="276.751" transform="translate(319.984 752.499) rotate(180)" fill="#e6e6e6"></rect><path id="Path_162846" data-name="Path 162846" d="M124.166,411.056H106.33V360.33h36.545Z" transform="translate(138.06 341.443)" fill="#f0f0f0"></path><rect id="Rectangle_21974" data-name="Rectangle 21974" width="75.595" height="276.751" transform="translate(791.916 752.499) rotate(180)" fill="#e6e6e6"></rect><rect id="Rectangle_21975" data-name="Rectangle 21975" width="487.492" height="251.768" transform="translate(731.905 727.538) rotate(180)" fill="#f0f0f0"></rect><path id="Path_162847" data-name="Path 162847" d="M334.491,270.154V470.92H114.074V270.154H334.491m1.724-1.724H112.35V472.644H336.284V268.43Z" transform="translate(145.876 222.119)" fill="#fafafa"></path><path id="Path_162848" data-name="Path 162848" d="M437.187,270.154V470.92H216.7V270.154H437.187m1.724-1.724H215V472.644H438.934V268.43Z" transform="translate(279.158 222.119)" fill="#fafafa"></path><ellipse id="Ellipse_7907" data-name="Ellipse 7907" cx="15.859" cy="9.492" rx="15.859" ry="9.492" transform="translate(512.499 518.912)" fill="#fafafa"></ellipse><ellipse id="Ellipse_7908" data-name="Ellipse 7908" cx="15.859" cy="9.492" rx="15.859" ry="9.492" transform="translate(432.078 518.912)" fill="#fafafa"></ellipse><path id="Path_162849" data-name="Path 162849" d="M321.249,411.056h17.836V360.33H302.54Z" transform="translate(392.82 341.443)" fill="#f0f0f0"></path><path id="Path_162850" data-name="Path 162850" d="M214.16,248s1.379,32.178,53.829,32.178S321.817,248,321.817,248Z" transform="translate(278.067 195.593)" fill="#f5f5f5"></path><rect id="Rectangle_21976" data-name="Rectangle 21976" width="407.232" height="248.55" transform="translate(1034.927 294.656) rotate(180)" fill="#e6e6e6"></rect><rect id="Rectangle_21977" data-name="Rectangle 21977" width="415.989" height="248.55" transform="translate(1033.502 294.656) rotate(180)" fill="#f0f0f0"></rect><rect id="Rectangle_21978" data-name="Rectangle 21978" width="407.232" height="9.492" transform="translate(1034.927 304.171) rotate(180)" fill="#e6e6e6"></rect><rect id="Rectangle_21979" data-name="Rectangle 21979" width="415.989" height="9.492" transform="translate(1016.471 304.171) rotate(180)" fill="#f0f0f0"></rect><rect id="Rectangle_21980" data-name="Rectangle 21980" width="219.958" height="387.397" transform="translate(1019.206 60.425) rotate(90)" fill="#fafafa"></rect><path id="Path_162851" data-name="Path 162851" d="M426.834,301.248,403.942,81.29h-39.6l22.892,219.958Z" transform="translate(473.062 -20.865)" fill="#fff"></path><path id="Path_162852" data-name="Path 162852" d="M441.16,233.72a1.08,1.08,0,0,0,1.1-1.1V85.864a1.1,1.1,0,0,0-2.183,0V232.617a1.08,1.08,0,0,0,1.08,1.1Z" transform="translate(571.403 -16.153)" fill="#f0f0f0"></path><path id="Path_162853" data-name="Path 162853" d="M392.257,301.248,369.342,81.29H353.92l22.892,219.958Z" transform="translate(459.533 -20.865)" fill="#fff"></path><rect id="Rectangle_21981" data-name="Rectangle 21981" width="219.958" height="1.816" transform="translate(633.625 60.425) rotate(90)" fill="#e6e6e6"></rect><path id="Path_162854" data-name="Path 162854" d="M267.19,96.811H677.755l1.31-13.1H268.523Z" transform="translate(346.922 -17.723)" fill="#e0e0e0" opacity="0.5"></path><path id="Path_162855" data-name="Path 162855" d="M267.19,106.181H677.755l1.31-13.1H268.523Z" transform="translate(346.922 -5.557)" fill="#e0e0e0" opacity="0.5"></path><path id="Path_162856" data-name="Path 162856" d="M267.19,115.551H677.755l1.31-13.1H268.523Z" transform="translate(346.922 6.609)" fill="#e0e0e0" opacity="0.5"></path><path id="Path_162857" data-name="Path 162857" d="M267.19,124.921H677.755l1.31-13.1H268.523Z" transform="translate(346.922 18.776)" fill="#e0e0e0" opacity="0.5"></path><path id="Path_162858" data-name="Path 162858" d="M267.19,134.291H677.755l1.31-13.1H268.523Z" transform="translate(346.922 30.942)" fill="#e0e0e0" opacity="0.5"></path><path id="Path_162859" data-name="Path 162859" d="M267.19,143.661H677.755l1.31-13.1H268.523Z" transform="translate(346.922 43.108)" fill="#e0e0e0" opacity="0.5"></path><rect id="Rectangle_21982" data-name="Rectangle 21982" width="248.09" height="164.244" transform="translate(530.082 216.878) rotate(180)" fill="#e0e0e0"></rect><rect id="Rectangle_21983" data-name="Rectangle 21983" width="256.502" height="164.244" transform="translate(523.554 216.878) rotate(180)" fill="#f5f5f5"></rect><rect id="Rectangle_21984" data-name="Rectangle 21984" width="106.692" height="213.522" transform="translate(288.542 188.102) rotate(-90)" fill="#fff"></rect><rect id="Rectangle_21985" data-name="Rectangle 21985" width="248.09" height="164.244" transform="translate(398.59 418.517) rotate(180)" fill="#e0e0e0"></rect><rect id="Rectangle_21986" data-name="Rectangle 21986" width="256.502" height="164.244" transform="translate(392.017 418.517) rotate(180)" fill="#f5f5f5"></rect><rect id="Rectangle_21987" data-name="Rectangle 21987" width="106.692" height="213.522" transform="translate(157.004 389.718) rotate(-90)" fill="#fff"></rect></g><g id="freepik--Shadow--inject-18" transform="translate(128.964 859.259)"><ellipse id="freepik--path--inject-18" cx="445.638" cy="26.018" rx="445.638" ry="26.018" fill="#f5f5f5"></ellipse></g><g id="freepik--Smartphone--inject-18" transform="translate(551.844 218.945)"><rect id="Rectangle_21988" data-name="Rectangle 21988" width="19.031" height="2.344" transform="translate(427.851 116.505) rotate(-87.25)" fill="#ed7d39"></rect><rect id="Rectangle_21989" data-name="Rectangle 21989" width="53.369" height="2.344" transform="translate(429.523 82.955) rotate(-87.25)" fill="#ed7d39"></rect><path id="Path_162860" data-name="Path 162860" d="M323.115,126.33h285A27.834,27.834,0,0,1,636.089,155.7L607.175,763.288a31.235,31.235,0,0,1-30.753,29.374H291.466a27.834,27.834,0,0,1-27.972-29.374l28.8-607.584a31.189,31.189,0,0,1,30.822-29.374Z" transform="translate(-209.777 -126.33)"></path><path id="Path_162861" data-name="Path 162861" d="M560.183,295.81l.667-13.951-8.527-2.482a85.644,85.644,0,0,0-2.091-13.79l7.309-5.608-4.735-12.894-8.987,1.011a79.028,79.028,0,0,0-7.309-11.745l4.735-7.884-9.4-9.86-8.067,4.344a78.539,78.539,0,0,0-11.492-7.884l1.448-8.918-12.641-5.332-5.93,7.033a81.157,81.157,0,0,0-13.79-2.781l-2.046-8.619H465.351l-2.873,8.642a86.237,86.237,0,0,0-14.043,2.758l-5.24-7.033-13.147,5.332.575,8.918A93.91,93.91,0,0,0,418.6,223l-7.654-4.367L400.6,228.49l4,7.884a88.283,88.283,0,0,0-8.435,11.745l-8.895-1.011L381.321,260l6.78,5.608a85.05,85.05,0,0,0-3.425,13.79l-8.78,2.482-.667,13.951,8.55,2.482a80.88,80.88,0,0,0,2.092,13.79l-7.309,5.585,4.735,12.894,8.987-1.011a79.242,79.242,0,0,0,7.309,11.768l-4.758,7.861,9.4,9.883,8.09-4.367A79.608,79.608,0,0,0,423.7,362.6l-1.425,8.918,12.641,5.355,5.93-7.056a81.314,81.314,0,0,0,13.79,2.758l2.069,8.665H470.66l2.9-8.665a84.047,84.047,0,0,0,14.02-2.758l5.263,7.056,13.147-5.355-.6-8.918a88.506,88.506,0,0,0,12.136-7.883l7.677,4.367,10.343-9.883-4-7.861a92.875,92.875,0,0,0,8.435-11.768l8.895,1.011,5.953-12.894-6.9-5.585a87.328,87.328,0,0,0,3.4-13.79Zm-32.43-6.9a63.275,63.275,0,0,1-62.54,59.759,56.4,56.4,0,0,1-56.863-59.759,63.3,63.3,0,0,1,62.563-59.759,56.4,56.4,0,0,1,56.84,59.667Z" transform="translate(-64.643 -35.285)" fill="#ed7d39"></path><path id="Path_162862" data-name="Path 162862" d="M602.693,129.531H317.806a23.329,23.329,0,0,0-22.984,22.019L267.287,729.209a7.194,7.194,0,0,0,7.263,7.608H588.237a8.044,8.044,0,0,0,7.976-7.608L623.655,151.55a20.686,20.686,0,0,0-20.962-22.019Z" transform="translate(-204.813 -122.176)" fill="#fff"></path><path id="Path_162863" data-name="Path 162863" d="M539.373,498.964H301.9a25.282,25.282,0,0,1-25.283-26.57l7.309-153.557a28.087,28.087,0,0,1,27.719-26.478H549.095a25.168,25.168,0,0,1,25.283,26.57l-7.24,153.557A28.109,28.109,0,0,1,539.373,498.964ZM311.6,294.406A25.926,25.926,0,0,0,286,318.838l-7.309,153.557A22.984,22.984,0,0,0,301.9,496.758H539.373A25.949,25.949,0,0,0,565,472.3l7.286-153.557a22.984,22.984,0,0,0-23.191-24.34Z" transform="translate(-192.723 89.245)" fill="#ed7d39" opacity="0.2"></path><path id="Path_162864" data-name="Path 162864" d="M364.765,298H274.323L266.83,455.533H357.3A19.9,19.9,0,0,0,376.9,436.8l5.7-120.092A17.744,17.744,0,0,0,364.765,298Z" transform="translate(-205.39 96.568)" fill="#ed7d39" opacity="0.1"></path><path id="Path_162865" data-name="Path 162865" d="M402.114,376.817H340.608a9.194,9.194,0,0,1-9.194-9.584l2.919-61.528a10.2,10.2,0,0,1,10.044-9.584h61.528A9.194,9.194,0,0,1,415.1,305.7l-2.919,61.528a10.2,10.2,0,0,1-10.067,9.584Z" transform="translate(-121.544 94.127)" fill="#ed7d39" opacity="0.1"></path><path id="Path_162866" data-name="Path 162866" d="M415.42,310.15a14.618,14.618,0,0,0-14.411,13.79L396.8,412.268a13.032,13.032,0,0,0,13.1,13.79h26.133L441.53,310.2Z" transform="translate(-36.662 112.344)" fill="#ed7d39" opacity="0.1"></path><path id="Path_162867" data-name="Path 162867" d="M412.97,419.047H351.418a9.193,9.193,0,0,1-9.194-9.584l2.919-61.528a10.2,10.2,0,0,1,10.044-9.584h61.506a9.194,9.194,0,0,1,9.194,9.584l-2.919,61.528a10.2,10.2,0,0,1-10,9.584Z" transform="translate(-107.508 148.959)" fill="#ed7d39" opacity="0.1"></path><path id="Path_162868" data-name="Path 162868" d="M360.921,412.386a15.4,15.4,0,0,1-15.238,14.549,13.79,13.79,0,0,1-13.79-14.549A15.4,15.4,0,0,1,347.13,397.86a13.79,13.79,0,0,1,13.79,14.526Z" transform="translate(-120.94 226.227)" fill="#fff" opacity="0.2"></path><path id="Path_162869" data-name="Path 162869" d="M560.517,383.012H290.5a8.734,8.734,0,0,1-8.8-9.194l8.068-169.485a9.768,9.768,0,0,1,9.653-9.194H569.389a8.711,8.711,0,0,1,8.78,9.194l-8.044,169.485a9.791,9.791,0,0,1-9.607,9.194Z" transform="translate(-186.103 -36.986)" fill="#455a64" opacity="0.09"></path><path id="Path_162870" data-name="Path 162870" d="M568.934,216.1H291.654a5.286,5.286,0,0,1-5.309-5.585l2.712-57.23a5.93,5.93,0,0,1,5.838-5.585h277.28a5.286,5.286,0,0,1,5.309,5.585l-2.735,57.161a5.884,5.884,0,0,1-5.815,5.654Z" transform="translate(-180.063 -98.582)" fill="#ed7d39" opacity="0.6"></path><path id="Path_162871" data-name="Path 162871" d="M309.9,219.88H295.262L290.32,323.837h14.641Z" transform="translate(-174.891 -4.863)" fill="#455a64"></path><path id="Path_162872" data-name="Path 162872" d="M320.907,236.52H306.266l-3.126,65.711h14.641Z" transform="translate(-158.245 16.742)" fill="#455a64"></path><path id="Path_162873" data-name="Path 162873" d="M332.679,246.12H318.039l-2.069,43.647h14.641Z" transform="translate(-141.586 29.207)" fill="#455a64"></path><path id="Path_162874" data-name="Path 162874" d="M344.488,255.62H329.824l-1.034,21.812h14.641Z" transform="translate(-124.941 41.542)" fill="#455a64"></path><path id="Path_162875" data-name="Path 162875" d="M360.007,230.76H345.366l-3.746,78.95h14.641Z" transform="translate(-108.282 9.263)" fill="#455a64"></path><path id="Path_162876" data-name="Path 162876" d="M374.85,212.41H360.186L354.44,333.536h14.641Z" transform="translate(-91.637 -14.562)" fill="#455a64"></path><path id="Path_162877" data-name="Path 162877" d="M388.277,206.86H373.614L367.27,340.742h14.641Z" transform="translate(-74.978 -21.769)" fill="#455a64"></path><path id="Path_162878" data-name="Path 162878" d="M398.638,229.48H383.974l-3.884,81.892h14.641Z" transform="translate(-58.332 7.601)" fill="#455a64"></path><path id="Path_162879" data-name="Path 162879" d="M410.181,241H395.54l-2.62,55.415h14.641Z" transform="translate(-41.674 22.559)" fill="#455a64"></path><path id="Path_162880" data-name="Path 162880" d="M378.075,441.533H257.961a17.744,17.744,0,0,1-17.836-18.709l5.723-120.092A19.9,19.9,0,0,1,265.453,284H385.545a17.744,17.744,0,0,1,17.836,18.732l-5.7,120.092a19.9,19.9,0,0,1-19.605,18.709Z" transform="translate(-240.099 78.39)" fill="#ed7d39"></path><path id="Path_162881" data-name="Path 162881" d="M378.075,441.533H257.961a17.744,17.744,0,0,1-17.836-18.709l5.723-120.092A19.9,19.9,0,0,1,265.453,284H385.545a17.744,17.744,0,0,1,17.836,18.732l-5.7,120.092a19.9,19.9,0,0,1-19.605,18.709Z" transform="translate(-240.099 78.39)" fill="#fff" opacity="0.8"></path><path id="Path_162882" data-name="Path 162882" d="M363.388,359.187l.873-18.387-8.55-5.654a45.187,45.187,0,0,0-3.379-8.918l2.3-8.734-12.342-12.963-8.8,1.908a46.45,46.45,0,0,0-8.757-3.792l-5.24-8.826H301.1l-6.068,8.826a51.26,51.26,0,0,0-9.194,3.792l-8.619-1.908-13.607,12.963,1.494,8.711a51.592,51.592,0,0,0-4.229,8.964l-9.056,5.631-.873,18.387,8.527,5.654a45.97,45.97,0,0,0,3.379,8.941l-2.3,8.711,12.365,12.986,8.8-1.908a47.782,47.782,0,0,0,8.734,3.792l5.24,8.8h18.387l6.091-8.8a53.553,53.553,0,0,0,9.194-3.792l8.619,1.908L351.6,382.493l-1.494-8.711a52.179,52.179,0,0,0,4.229-8.941Zm-56.771,12.848a20.686,20.686,0,0,1-20.962-22A23.329,23.329,0,0,1,308.64,328.02,20.685,20.685,0,0,1,329.6,350.039a23.329,23.329,0,0,1-22.984,22Z" transform="translate(-226.009 91.141)" fill="#fff"></path><path id="Path_162883" data-name="Path 162883" d="M395.564,364.7H334.059a9.194,9.194,0,0,1-9.194-9.607l2.919-61.505A10.2,10.2,0,0,1,337.828,284h61.528a9.194,9.194,0,0,1,9.194,9.584l-2.919,61.505A10.205,10.205,0,0,1,395.564,364.7Z" transform="translate(-130.049 78.391)" fill="#ed7d39"></path><path id="Path_162884" data-name="Path 162884" d="M395.564,364.7H334.059a9.194,9.194,0,0,1-9.194-9.607l2.919-61.505A10.2,10.2,0,0,1,337.828,284h61.528a9.194,9.194,0,0,1,9.194,9.584l-2.919,61.505A10.205,10.205,0,0,1,395.564,364.7Z" transform="translate(-130.049 78.391)" fill="#fff" opacity="0.6"></path><path id="Path_162885" data-name="Path 162885" d="M491.7,413.932H403.353a13.032,13.032,0,0,1-13.1-13.79l4.206-88.351A14.618,14.618,0,0,1,408.87,298H497.2a13.032,13.032,0,0,1,13.124,13.79l-4.206,88.328A14.618,14.618,0,0,1,491.7,413.932Z" transform="translate(-45.166 96.568)" fill="#ed7d39"></path><path id="Path_162886" data-name="Path 162886" d="M491.7,413.932H403.353a13.032,13.032,0,0,1-13.1-13.79l4.206-88.351A14.618,14.618,0,0,1,408.87,298H497.2a13.032,13.032,0,0,1,13.124,13.79l-4.206,88.328A14.618,14.618,0,0,1,491.7,413.932Z" transform="translate(-45.166 96.568)" fill="#fff" opacity="0.4"></path><path id="Path_162887" data-name="Path 162887" d="M455.668,338.227l-44.75-26.547L408.39,364.8Z" transform="translate(-21.587 114.331)" fill="#fff"></path><path id="Path_162888" data-name="Path 162888" d="M406.4,406.9H344.868a9.194,9.194,0,0,1-9.194-9.584l3.057-61.505a10.205,10.205,0,0,1,10.044-9.584h61.436a9.194,9.194,0,0,1,9.194,9.584l-2.919,61.505A10.182,10.182,0,0,1,406.4,406.9Z" transform="translate(-116.012 133.222)" fill="#263238"></path><path id="Path_162889" data-name="Path 162889" d="M406.4,406.9H344.868a9.194,9.194,0,0,1-9.194-9.584l3.057-61.505a10.205,10.205,0,0,1,10.044-9.584h61.436a9.194,9.194,0,0,1,9.194,9.584l-2.919,61.505A10.182,10.182,0,0,1,406.4,406.9Z" transform="translate(-116.012 133.222)" fill="#fff" opacity="0.4"></path><path id="Path_162890" data-name="Path 162890" d="M362.955,377.112,341.12,354.173l5.079-4.827,17.008,17.836L395.661,336.2l4.827,5.079Z" transform="translate(-108.931 146.167)" fill="#fff"></path></g><g id="freepik--Character--inject-18" transform="translate(187.709 134.456)"><path id="Path_162891" data-name="Path 162891" d="M177.163,163.83c-.115,13.124-2.413,36.775-12.963,43.394a49.829,49.829,0,0,0,26.363,26.753c21.789-6.665,12.871-18.709,12.871-18.709-13.377-6.252-10.871-16.617-6.413-25.926Z" transform="translate(25.489 6.85)" fill="#ffc38d"></path><path id="Path_162892" data-name="Path 162892" d="M176.226,193.9c2.988,10.871,6.275,22,9.676,32.821q2.586,8.136,5.493,16.089a161.716,161.716,0,0,0,6.252,15.1,59.6,59.6,0,0,0,3.494,6.367c.3.414.6.9.85,1.2l.414.529c.115.184.437.552.644.8l2.873,3.4c3.723,4.6,7.447,9.194,11.032,13.79,7.217,9.194,14.2,18.64,20.847,28.362l-8.228,7.286c-8.826-7.746-17.353-15.767-25.7-23.926l-12.434-12.228-3.057-3.057c-.276-.276-.46-.437-.8-.827l-1.011-1.126a26.82,26.82,0,0,1-1.839-2.3,72.721,72.721,0,0,1-5.516-8.619A224.369,224.369,0,0,1,164.941,233.8c-3.953-11.331-7.309-22.593-10.251-34.292Z" transform="translate(13.141 45.893)" fill="#ffc38d"></path><path id="Path_162893" data-name="Path 162893" d="M153.508,189.231c-9.194,13.423,2.528,46.543,2.528,46.543h41.21s.391-27.4-5.355-37.97C184.491,184.152,159.438,180.5,153.508,189.231Z" transform="translate(7.037 33.691)" fill="#263238"></path><path id="Path_162894" data-name="Path 162894" d="M209.991,249.247l-15.928-4.6-8.343,3.31c0,9.033,12.457,15.514,12.457,15.514l9.63,8.849a6.321,6.321,0,0,0,7.47.8l6-3.517a6.321,6.321,0,0,0,1.931-9.194l-2.6-3.632a20.019,20.019,0,0,0-10.619-7.539Z" transform="translate(53.431 111.787)" fill="#ffc38d"></path><path id="Path_162895" data-name="Path 162895" d="M275.583,229.781l-21.214-21.214a11.883,11.883,0,0,1,0-16.778h0a11.929,11.929,0,0,1,16.778,0L292.361,213a11.929,11.929,0,0,1,0,16.778h0a11.883,11.883,0,0,1-16.778,0Z" transform="translate(138.063 38.673)" fill="#263238"></path><rect id="Rectangle_21990" data-name="Rectangle 21990" width="21.812" height="38.636" rx="4.2" transform="translate(404.721 240.741) rotate(45)" fill="#263238"></rect><path id="Path_162896" data-name="Path 162896" d="M181.339,425l-19.789-19.789a5.953,5.953,0,0,1,0-8.5L363,202.329a5.976,5.976,0,0,1,8.343,0l12.71,12.71a5.953,5.953,0,0,1,0,8.343L189.682,424.838a5.953,5.953,0,0,1-8.343.161Z" transform="translate(19.728 54.633)" fill="#263238"></path><path id="Path_162897" data-name="Path 162897" d="M266.094,292.886a127,127,0,0,1-12.273-21.7l5.447-114.92a10.948,10.948,0,0,1,.161-2.3A56.61,56.61,0,0,1,311.3,103.221c1.218,0,2.436-.161,3.654-.161h119.31A133.168,133.168,0,0,1,454.4,116.368a130.343,130.343,0,0,1,10.641,193.871c-2,2-4,3.884-6.091,5.7a130.366,130.366,0,0,1-192.859-23.145Z" transform="translate(141.853 -72.054)"></path><path id="Path_162898" data-name="Path 162898" d="M273.8,302.761a130.6,130.6,0,0,1-14.641-17.445l6.481-136.525a42.245,42.245,0,0,1,41.762-39.9H447.469A130.343,130.343,0,0,1,458.11,302.761c-2,2-4,3.884-6.091,5.7A130.3,130.3,0,0,1,273.8,302.761Z" transform="translate(148.786 -64.485)" fill="#fff"></path><path id="Path_162899" data-name="Path 162899" d="M437.708,259.991c-2,2-4,3.884-6.091,5.7h-147.1a9.561,9.561,0,0,1-9.63-10.09l4.873-103.7a10.665,10.665,0,0,1,10.55-10.067h182.93A130.09,130.09,0,0,1,437.708,259.991Z" transform="translate(169.189 -21.715)" fill="#ed7d39" opacity="0.6"></path><path id="Path_162900" data-name="Path 162900" d="M287.1,318.955a130.343,130.343,0,1,1,184.309,0A130.343,130.343,0,0,1,287.1,318.955Z" transform="translate(135.484 -80.656)" fill="#fff" opacity="0.5"></path><path id="Path_162901" data-name="Path 162901" d="M364.586,199.863c-18.893,18.893-40.406,17.376-54.61,3.149s-15.744-35.625,3.149-54.61,45.738-22.685,59.942-8.481S383.479,180.971,364.586,199.863Z" transform="translate(200.686 -35.389)" fill="#263238"></path><path id="Path_162902" data-name="Path 162902" d="M329.161,156.361c-7.493-7.516-9.01-18.157-3.379-23.789s16.273-4.114,23.789,3.379,8.987,18.134,3.356,23.766S336.654,163.922,329.161,156.361Z" transform="translate(230.871 -38.153)" fill="#263238"></path><path id="Path_162903" data-name="Path 162903" d="M337.756,178.535a2.942,2.942,0,0,1-2.3-1.2l-23.789-33.189a2.873,2.873,0,0,1-.506-2.023l2.413-20.456a2.919,2.919,0,1,1,5.792.69l-2.3,19.33,23.122,32.178a2.919,2.919,0,0,1-.667,4.068A2.873,2.873,0,0,1,337.756,178.535Z" transform="translate(216.278 -51.387)" fill="#263238"></path><path id="Path_162904" data-name="Path 162904" d="M357.653,172.045a2.919,2.919,0,0,1-1.7-.529L322.81,147.728a2.919,2.919,0,1,1,3.379-4.735l32.178,23.122,19.33-2.3a2.919,2.919,0,0,1,.69,5.792l-20.456,2.3Z" transform="translate(229.569 -21.109)" fill="#263238"></path><path id="Path_162905" data-name="Path 162905" d="M346.341,169.871a2.85,2.85,0,0,1-1.678-.529L312.486,146.2l-19.33,2.3a2.905,2.905,0,1,1-.69-5.769l20.456-2.436a2.965,2.965,0,0,1,2.046.529l33.166,23.789a2.9,2.9,0,0,1-1.7,5.263Z" transform="translate(188.707 -23.738)" fill="#263238"></path><path id="Path_162906" data-name="Path 162906" d="M337.472,210h-.345a2.9,2.9,0,0,1-2.551-3.218l2.3-19.33-23.145-32.178a2.942,2.942,0,0,1,.69-4.068,2.9,2.9,0,0,1,4.045.667l23.789,33.166a2.85,2.85,0,0,1,.529,2.046l-2.436,20.456A2.9,2.9,0,0,1,337.472,210Z" transform="translate(218.952 -10.246)" fill="#263238"></path><path id="Path_162907" data-name="Path 162907" d="M389.679,221.751a2.919,2.919,0,0,1-2.068-.85l-88.742-88.742a2.909,2.909,0,1,1,4.114-4.114l88.742,88.742a2.9,2.9,0,0,1,0,4.114,2.827,2.827,0,0,1-2.046.85Z" transform="translate(199.244 -40.728)" fill="#263238"></path><path id="Path_162908" data-name="Path 162908" d="M338.777,153.762a3.034,3.034,0,0,1-1.172-.23,2.919,2.919,0,0,1-1.517-3.815,20.686,20.686,0,0,0-7.194-24.34,2.919,2.919,0,0,1,3.516-4.6,26.455,26.455,0,0,1,9.033,31.281A2.919,2.919,0,0,1,338.777,153.762Z" transform="translate(238.217 -49.552)" fill="#263238"></path><path id="Path_162909" data-name="Path 162909" d="M362.138,147.246a2.9,2.9,0,0,1-2.3-1.149A20.686,20.686,0,0,0,335.5,138.9a2.9,2.9,0,0,1-2.3-5.332,26.455,26.455,0,0,1,31.281,9.01,2.9,2.9,0,0,1-.575,4.068,2.735,2.735,0,0,1-1.77.6Z" transform="translate(242.644 -34.922)" fill="#263238"></path><path id="Path_162910" data-name="Path 162910" d="M491.514,132.366a146.133,146.133,0,1,0,0,206.673,146.133,146.133,0,0,0,0-206.673ZM301.045,322.835a123.241,123.241,0,1,1,174.265,0A123.241,123.241,0,0,1,301.045,322.835Z" transform="translate(126.576 -89.57)"></path><path id="Path_162911" data-name="Path 162911" d="M266.155,215.013c-1.885,13.607-9.745,44.8-36.775,115.932l-86.42-17.767c7.677-30.914,12.09-51.461,11.492-108.416a22.5,22.5,0,0,1,24.57-22.708c4.091.368,8.435.873,12.756,1.563a279.192,279.192,0,0,1,39.234,8.044c9.86,2.988,20.341,6.9,27.19,9.7a12.756,12.756,0,0,1,7.952,13.653Z" transform="translate(-2.089 30.388)" fill="#ed7d39"></path><path id="Path_162912" data-name="Path 162912" d="M210.5,198.74c.713,5.1,1.586,10.757,2.62,16.089s2.184,10.757,3.54,16.089a154.175,154.175,0,0,0,4.8,15.307,76.787,76.787,0,0,0,6.39,13.63,42.222,42.222,0,0,0,3.93,5.424l1.057,1.08c.368.391.529.483.781.758a17.255,17.255,0,0,0,2.092,1.425,45.072,45.072,0,0,0,13.4,4.252,200.451,200.451,0,0,0,32.637,2.39l1.609,10.871a127.885,127.885,0,0,1-36.085,4.091,58.058,58.058,0,0,1-19.95-4.022,33.325,33.325,0,0,1-5.355-2.919,31.959,31.959,0,0,1-2.551-1.954l-2.092-1.885a64.356,64.356,0,0,1-6.826-8.09,119.1,119.1,0,0,1-15.17-34.591c-1.655-5.838-3.149-11.7-4.229-17.606s-2.115-11.676-2.735-18Z" transform="translate(56.872 52.177)" fill="#ffc38d"></path><path id="Path_162913" data-name="Path 162913" d="M209.12,192.263c18.226,12.182,18.249,42.268,18.249,42.268l-37.3,23.214s-10.343-28.041-7.447-49.278C184.3,196.079,197.949,184.748,209.12,192.263Z" transform="translate(48.74 40.634)" fill="#e0712e"></path><path id="Path_162914" data-name="Path 162914" d="M228.639,232.545l23.49-.965-11.676,17.9s-12.228-1.632-14.963-10.021Z" transform="translate(105.069 94.817)" fill="#ffc38d"></path><path id="Path_162915" data-name="Path 162915" d="M252.018,245.088l-2.3,3.241a7.033,7.033,0,0,1-6.9,2.919l-10.894-1.724,11.791-17.974,5.953,3.4a7.056,7.056,0,0,1,2.344,10.136Z" transform="translate(113.43 94.778)" fill="#ffc38d"></path><path id="Path_162916" data-name="Path 162916" d="M191.5,159.4c0,1.747,1.1,3.126,2.3,3.057s1.977-1.54,1.885-3.287-1.08-3.1-2.3-3.057S191.412,157.651,191.5,159.4Z" transform="translate(60.932 -3.175)" fill="#263238"></path><path id="Path_162917" data-name="Path 162917" d="M192.11,156.988l4.137-1.448S194.271,158.9,192.11,156.988Z" transform="translate(61.728 -3.914)" fill="#263238"></path><path id="Path_162918" data-name="Path 162918" d="M192.24,159.2a46.131,46.131,0,0,0,6.9,10.825,7.516,7.516,0,0,1-6.183,1.517Z" transform="translate(61.897 0.838)" fill="#ed893e"></path><path id="Path_162919" data-name="Path 162919" d="M197.491,182.7c-5.355,0-9.561-7.493-9.561-17.077s4.206-17.077,9.561-17.077,9.538,7.516,9.538,17.077S202.847,182.7,197.491,182.7Zm0-32.913c-4.6,0-8.32,7.1-8.32,15.836s3.723,15.859,8.32,15.859,8.32-7.125,8.32-15.859S202.088,149.791,197.491,149.791Z" transform="translate(56.301 -12.99)" fill="#a64f1a"></path><path id="Path_162920" data-name="Path 162920" d="M189.12,160.363a1.011,1.011,0,0,0,1.057-.621c1.908-4.344,7.929-5.608,7.975-5.608a1.032,1.032,0,1,0-.414-2.023c-.276,0-7.1,1.494-9.447,6.9a1.011,1.011,0,0,0,.529,1.356.759.759,0,0,0,.3,0Z" transform="translate(56.651 -8.392)" fill="#263238"></path><path id="Path_162921" data-name="Path 162921" d="M165.72,174.792c2.459,21.421,3.034,30.546,14.457,41,17.192,15.744,42.98,8.044,46.979-13.676,3.609-19.536-.988-51.3-22.478-58.747a29.42,29.42,0,0,0-38.958,31.419Z" transform="translate(27.164 -21.879)" fill="#ffc38d"></path><path id="Path_162922" data-name="Path 162922" d="M233.169,188.444c9.952-15.284,14.986-34.223,5.4-45.394s-24.064,0-24.064,0-38.705-14.043-51.255,2.3c-18.18,23.513,5.608,38.406-.23,44.957s-13.79,15.7-6.6,29.328c7.907,14.871,68.171,3.4,76.744,20.525C258.429,238.664,245.282,197.569,233.169,188.444Z" transform="translate(11.682 -27.418)" fill="#263238"></path><path id="Path_162923" data-name="Path 162923" d="M160.589,189.184a.69.69,0,0,1-.414-.138.621.621,0,0,1,0-.873c1.816-2.023.276-5.148-1.885-9.492-3.907-7.953-9.837-19.973,2.092-35.418a.621.621,0,0,1,.873,0,.6.6,0,0,1,.115.85c-11.492,14.848-5.976,25.995-1.977,34.154,2.3,4.6,4.068,8.205,1.7,10.826A.575.575,0,0,1,160.589,189.184Z" transform="translate(11.356 -20.09)" fill="#263238"></path><path id="Path_162924" data-name="Path 162924" d="M197.845,208.84a18.113,18.113,0,0,1-3.609-.414.622.622,0,1,1,.253-1.218c5.378,1.172,8.872-.253,10.389-4.206,4.137-10.8-7.608-36.981-17.008-42.314a.621.621,0,0,1,.6-1.08c9.975,5.654,21.95,32.362,17.56,43.831A8.067,8.067,0,0,1,197.845,208.84Z" transform="translate(55.878 1.304)" fill="#263238"></path><path id="Path_162925" data-name="Path 162925" d="M186.419,164.467a.621.621,0,0,1-.6-.483,4.091,4.091,0,0,1,.712-3.585c2.505-3.31,10.55-5.194,23.949-5.608a.575.575,0,0,1,.621.575.6.6,0,0,1-.6.644c-16.089.506-21.444,3.08-22.984,5.125a2.827,2.827,0,0,0-.506,2.551.621.621,0,0,1-.46.758Z" transform="translate(53.375 -4.889)" fill="#a64f1a"></path><path id="Path_162926" data-name="Path 162926" d="M187.952,168.823A14.3,14.3,0,0,0,197.6,175.3c3.838.6,2.781-5.24.942-10.688-1.655-4.9-5.677-11.124-9.194-9.194S185.515,164.111,187.952,168.823Z" transform="translate(54.279 -4.533)" fill="#ffc38d"></path><path id="Path_162927" data-name="Path 162927" d="M101.688,408.836a8,8,0,0,0,5.378-.8,2.758,2.758,0,0,0,1.172-2.3,1.586,1.586,0,0,0-.712-1.448c-2.505-1.724-11.492,1.816-12.6,2.3a.506.506,0,0,0,0,.965A36.027,36.027,0,0,0,101.688,408.836Zm4.321-4.068a1.678,1.678,0,0,1,.919.276.644.644,0,0,1,.3.6,1.862,1.862,0,0,1-.758,1.563c-1.425,1.057-5.011.9-9.722-.368a27.832,27.832,0,0,1,9.263-2.183Z" transform="translate(-64.912 318.449)" fill="#ed7d39"></path><path id="Path_162928" data-name="Path 162928" d="M95.053,410.568h.207c2.712-.919,8.274-5.057,8.113-7.539,0-.6-.368-1.356-1.77-1.655a3.769,3.769,0,0,0-2.919.6c-2.965,2-4.045,7.769-4.091,8.021a.529.529,0,0,0,.46.6Zm6.022-8.251h.322c.919.184.942.575.942.69,0,1.494-3.723,4.827-6.5,6.16a11.929,11.929,0,0,1,3.425-6.252,2.643,2.643,0,0,1,1.816-.6Z" transform="translate(-64.896 315.177)" fill="#ed7d39"></path><path id="Path_162929" data-name="Path 162929" d="M83.86,436.776l21.306,4.16,23.559-52.519-21.306-4.137Z" transform="translate(-78.825 293.084)" fill="#ffc38d"></path><path id="Path_162930" data-name="Path 162930" d="M113.481,409.541,90.5,401.4a1.333,1.333,0,0,0-1.839.919l-6.9,17.974a4.459,4.459,0,0,0,2.735,5.057c8.044,2.689,16.411,4,26.845,6.551a114.925,114.925,0,0,0,25.581,3.746c8.918,0,7.815-9.033,3.838-9.837-17.767-3.654-19.353-6.9-24.064-13.79a6.688,6.688,0,0,0-3.218-2.482Z" transform="translate(-81.669 315.17)" fill="#263238"></path><g id="Group_86884" data-name="Group 86884" transform="translate(16.435 677.364)" opacity="0.2"><path id="Path_162931" data-name="Path 162931" d="M122.262,388.44l-12.136,27.052L88.82,411.355l12.136-27.075Z" transform="translate(-88.82 -384.28)"></path></g><path id="Path_162932" data-name="Path 162932" d="M211.219,238.69c-30.178,28.087-32.293,120.919-54.128,183.873-35.166,63.3-67.481,165.6-67.481,165.6l29.328,8.067s44.98-89.132,73.733-151.695C224.389,375.583,266.5,250.2,266.5,250.2Z" transform="translate(-71.359 104.049)" fill="#263238"></path><path id="Path_162933" data-name="Path 162933" d="M151.823,259.51a264.946,264.946,0,0,0,3.218,50.933c5.539-15.009,10.665-29.328,15.1-41.808Z" transform="translate(9.228 131.082)" opacity="0.2"></path><path id="Path_162934" data-name="Path 162934" d="M188.091,409.261a8.321,8.321,0,0,0,5.286-1.333,2.85,2.85,0,0,0,.919-2.505,1.609,1.609,0,0,0-.873-1.379c-2.666-1.448-11.331,2.965-12.3,3.471a.574.574,0,0,0-.276.529.506.506,0,0,0,.414.437A36.786,36.786,0,0,0,188.091,409.261Zm3.884-4.6a2.3,2.3,0,0,1,.965.184.643.643,0,0,1,.322.575,1.793,1.793,0,0,1-.575,1.632c-1.333,1.2-4.9,1.4-9.722.6a28.156,28.156,0,0,1,8.918-2.9Z" transform="translate(47.107 318.369)" fill="#ed7d39"></path><path id="Path_162935" data-name="Path 162935" d="M181.288,411.338a.3.3,0,0,0,.207,0c2.6-1.149,7.723-5.838,7.332-8.3-.115-.6-.529-1.31-1.954-1.471a3.792,3.792,0,0,0-2.827.9c-2.735,2.3-3.241,8.113-3.264,8.366a.482.482,0,0,0,.207.46.506.506,0,0,0,.3.046Zm5.171-8.8h.322c.942,0,.988.46,1.011.6.253,1.471-3.218,5.148-5.861,6.757a11.928,11.928,0,0,1,2.758-6.711,2.78,2.78,0,0,1,1.839-.6Z" transform="translate(47.015 315.511)" fill="#ed7d39"></path><path id="Path_162936" data-name="Path 162936" d="M171.07,435.754l21.49,3.241,10.389-49.324-21.49-3.241Z" transform="translate(34.409 295.875)" fill="#ffc38d"></path><path id="Path_162937" data-name="Path 162937" d="M198.359,405.49H173.927a1.7,1.7,0,0,0-1.724,1.494l-2.781,19.307a3.471,3.471,0,0,0,3.471,3.861c8.5-.138,12.618-.643,23.352-.643,6.6,0,21.7.689,30.822.689s9.607-9.033,5.815-9.837c-17.031-3.654-25.282-8.711-30.914-13.538a5.631,5.631,0,0,0-3.608-1.333Z" transform="translate(32.242 320.623)" fill="#263238"></path><g id="Group_86885" data-name="Group 86885" transform="translate(210.513 682.328)" opacity="0.2"><path id="Path_162938" data-name="Path 162938" d="M200.082,389.681,194.75,415.1l-21.49-3.241,5.332-25.42Z" transform="translate(-173.26 -386.44)"></path></g><path id="Path_162939" data-name="Path 162939" d="M222.226,254.181s56.242,108.807,50.013,174.679c-6.482,68.631-41.371,168.7-41.371,168.7l-26.179-4.735s19.95-126.619,32.178-173.507c-30.224-69.642-118.3-96.027-78.146-178.242C170.7,243.195,222.226,254.181,222.226,254.181Z" transform="translate(4.996 107.152)" fill="#263238"></path><path id="Path_162940" data-name="Path 162940" d="M171.12,401.623l34.085,5.149,3.7-13.17L171.35,390.66Z" transform="translate(34.474 301.368)" fill="#263238"></path><path id="Path_162941" data-name="Path 162941" d="M87.92,399.34l33.074,9.653,7.378-12.871L90.517,388.79Z" transform="translate(-73.553 298.94)" fill="#263238"></path><path id="Path_162942" data-name="Path 162942" d="M145.052,236.963l-3.815,7.286c-.414.529.161,1.287,1.172,1.494l88.948,18.272c.781.161,1.517,0,1.655-.575l2.3-7.562c.161-.529-.414-1.126-1.264-1.287l-87.523-18A1.655,1.655,0,0,0,145.052,236.963Z" transform="translate(-4.503 101.271)" fill="#fff"></path><path id="Path_162943" data-name="Path 162943" d="M148.757,248.429l-2.3-.483c-.483,0-.781-.414-.689-.69l3.172-9.837c0-.276.552-.437,1.011-.345l2.3.483c.46,0,.781.414.69.69l-3.172,9.837A.724.724,0,0,1,148.757,248.429Z" transform="translate(1.537 101.918)" fill="#263238"></path><path id="Path_162944" data-name="Path 162944" d="M179.127,254.71l-2.3-.483c-.46,0-.781-.414-.69-.69l3.172-9.837c0-.3.552-.437,1.011-.345l2.3.483c.483,0,.781.414.69.69l-3.172,9.837C180.046,254.641,179.587,254.8,179.127,254.71Z" transform="translate(40.97 110.07)" fill="#263238"></path><path id="Path_162945" data-name="Path 162945" d="M163.924,251.589l-2.3-.483c-.46,0-.758-.414-.667-.69l3.149-9.837c0-.276.552-.437,1.034-.345l2.3.483c.46,0,.758.414.667.69l-3.149,9.814C164.867,251.52,164.407,251.681,163.924,251.589Z" transform="translate(21.26 106.021)" fill="#263238"></path></g><g id="freepik--Cloud--inject-2" transform="translate(612.148 -143.595)"><path id="Path_161622" data-name="Path 161622" d="M376.91,151.82a28.042,28.042,0,0,1,0-11.54,28.042,28.042,0,0,1,0,11.54Z" transform="translate(-244.126 -1.958)" fill="#263238"></path><path id="Path_161623" data-name="Path 161623" d="M376.91,161.82a28.042,28.042,0,0,1,0-11.54A28.042,28.042,0,0,1,376.91,161.82Z" transform="translate(-244.126 11.123)" fill="#263238"></path><path id="Path_161624" data-name="Path 161624" d="M376.91,171.82a28.042,28.042,0,0,1,0-11.54A28.042,28.042,0,0,1,376.91,171.82Z" transform="translate(-244.126 24.204)" fill="#263238"></path><path id="Path_161625" data-name="Path 161625" d="M376.91,181.81a28.042,28.042,0,0,1,0-11.54,28.042,28.042,0,0,1,0,11.54Z" transform="translate(-244.126 37.271)" fill="#263238"></path><path id="Path_161626" data-name="Path 161626" d="M376.909,191.82a28.158,28.158,0,0,1,0-11.54A28.159,28.159,0,0,1,376.909,191.82Z" transform="translate(-244.124 50.365)" fill="#263238"></path><path id="Path_161627" data-name="Path 161627" d="M376.91,201.82a28.042,28.042,0,0,1,0-11.54A28.042,28.042,0,0,1,376.91,201.82Z" transform="translate(-244.126 63.446)" fill="#263238"></path><path id="Path_161628" data-name="Path 161628" d="M376.91,211.82a28.042,28.042,0,0,1,0-11.54A28.042,28.042,0,0,1,376.91,211.82Z" transform="translate(-244.126 76.526)" fill="#263238"></path><path id="Path_161629" data-name="Path 161629" d="M376.91,221.82a28.042,28.042,0,0,1,0-11.54A28.042,28.042,0,0,1,376.91,221.82Z" transform="translate(-244.126 89.607)" fill="#263238"></path><path id="Path_161630" data-name="Path 161630" d="M608.564,240.8h-21.35l-59.64.208-205.856.485h-.462l-.162-.531a51.147,51.147,0,0,1,50.477-65.48l-.762.992a43.852,43.852,0,0,1-1.593-13.848c.623-15.926,9.671-31.3,23.565-38.406a46.6,46.6,0,0,1,43.622.231l-1.062.392A67.742,67.742,0,0,1,475.2,87.7c16.987-6.186,35.821-5.378,50.639,2.308a68.965,68.965,0,0,1,31.344,34.252,65.6,65.6,0,0,1,3.877,41.06l-.577-.646a48.7,48.7,0,0,1,23.888,3.485,49.971,49.971,0,0,1,17.68,12.117,31.138,31.138,0,0,1,5.562,7.986,45.311,45.311,0,0,1,2.977,8.471,77.465,77.465,0,0,1,2.031,15.487,88.256,88.256,0,0,1-1.87,21.419,50.438,50.438,0,0,1-1.477,5.378c-.415,1.2-.646,1.777-.646,1.777" transform="translate(-319.039 -76.115)" fill="#ed7d39" opacity="0.89"></path><g id="Group_86893" data-name="Group 86893"><path id="Path_161631" data-name="Path 161631" d="M469.639,165.979h-8.886V112.524a23.288,23.288,0,0,0-46.577,0v53.455H405.29V112.524a32.174,32.174,0,0,1,64.349,0Z" transform="translate(-206.218 -80.35)" fill="#e0e0e0"></path><rect id="Rectangle_21593" data-name="Rectangle 21593" width="87.983" height="56.455" rx="3.39" transform="translate(187.255 61.833)" fill="#e0e0e0"></rect><path id="Path_161632" data-name="Path 161632" d="M423.416,127.716a7.363,7.363,0,1,1,7.34-7.34,7.363,7.363,0,0,1-7.34,7.34" transform="translate(-192.17 -37.655)" fill="#455a64"></path><rect id="Rectangle_21594" data-name="Rectangle 21594" width="4.016" height="15.118" transform="translate(229.238 85.629)" fill="#455a64"></rect></g></g></g></svg>