<svg xmlns="http://www.w3.org/2000/svg" width="1183.575" height="1064.788" viewBox="0 0 1183.575 1064.788"><g id="Configuration_Auditing_Methodology" data-name="Configuration Auditing Methodology" transform="translate(-34.7 155.329)"><g id="freepik--background-complete--inject-2" transform="translate(236.859 205.454)"><rect id="Rectangle_21586" data-name="Rectangle 21586" width="106.002" height="145.061" transform="translate(26.865 0)" fill="#f5f5f5"></rect><rect id="Rectangle_21587" data-name="Rectangle 21587" width="106.002" height="145.061" transform="translate(0 18.266)" fill="#e0e0e0"></rect><path id="Path_161555" data-name="Path 161555" d="M557.573,207.7H546.851l-29.953.105-103.334.351h-.281v-.281a25.689,25.689,0,0,1,25.338-32.883l-.368.509a21.531,21.531,0,0,1-.807-7.019,22.811,22.811,0,0,1,11.827-19.3,23.443,23.443,0,0,1,21.916.123l-.544.193A34.147,34.147,0,0,1,490.7,130.811,32.076,32.076,0,0,1,516.144,132a34.708,34.708,0,0,1,15.792,17.214,32.866,32.866,0,0,1,1.93,20.618l-.281-.333a24.566,24.566,0,0,1,11.967,1.755,25.092,25.092,0,0,1,8.879,6.071,16.07,16.07,0,0,1,2.79,4.018,22.332,22.332,0,0,1,1.491,4.246,38.6,38.6,0,0,1,1.018,7.791,44.886,44.886,0,0,1-.93,10.739,23.853,23.853,0,0,1-.754,2.72l-.316.877" transform="translate(48.081 8.933)" fill="#ebebeb"></path><path id="Path_161556" data-name="Path 161556" d="M661.63,134.615a26.408,26.408,0,1,0,30.69,27.9h0l7.247-1.211,3.931-8.177,5.65,6.563,9.072-1.509,3.878-8.142,5.65,6.563,7.791-1.3,2.369-4.966,3.509,4,4.545-.755,4.983-6.6L742.4,137.58l-53.957,8.967a26.408,26.408,0,0,0-26.812-11.932Zm-14.7,29.233a7.581,7.581,0,1,1,3.09,4.941,7.58,7.58,0,0,1-3.09-4.941Z" transform="translate(219.635 13.078)" fill="#ebebeb"></path><path id="Path_161557" data-name="Path 161557" d="M636.871,251.294l3.264,59.835a4.036,4.036,0,0,0,4,3.825l107.651.772a4.036,4.036,0,0,0,4.071-4l.333-46.57a4.036,4.036,0,0,0-4.036-4.071h-66.2a3.948,3.948,0,0,1-2.843-1.193l-11.423-11.406a4.089,4.089,0,0,0-2.825-1.193l-27.917-.193a4.036,4.036,0,0,0-4.071,4.194Z" transform="translate(217.599 98.261)" fill="#ebebeb"></path><rect id="Rectangle_21588" data-name="Rectangle 21588" width="117.635" height="70.293" transform="translate(856.247 351.462) rotate(0.42)" fill="#f5f5f5"></rect><path id="Path_161558" data-name="Path 161558" d="M632.538,255.375l8.44,73.347a2.6,2.6,0,0,0,2.562,2.316l114.635.825a2.58,2.58,0,0,0,2.6-2.369l6.317-73.259a2.579,2.579,0,0,0-2.579-2.808l-129.392-.948a2.579,2.579,0,0,0-2.579,2.9Z" transform="translate(214.317 102.321)" fill="#ebebeb"></path><path id="Path_161559" data-name="Path 161559" d="M643.112,518.7c-27.286-19.056-33.48-54.4-32.392-86.261.175-5.264-.4-10.914,2.123-15.564s8.405-7.844,13.16-5.615c3.948,1.86,5.668,6.457,7.879,10.247a30.97,30.97,0,0,0,12.441,11.9c3.387,1.755,7.58,2.825,10.914.983,4.58-2.527,5.124-8.861,5.089-14.143q-.105-14.775-.193-29.514a48.934,48.934,0,0,1,1.6-15.687c1.649-5.018,5.264-9.668,10.3-11.09s11.23,1.492,12.283,6.668a48.307,48.307,0,0,1,.141,6.58c.158,2.193,1.176,4.615,3.246,5.264s4.229-.877,5.808-2.439c5.457-5.264,9.142-12.2,12.6-19.021s6.826-13.827,11.774-19.653,11.774-10.423,19.3-10.844,15.634,4.246,17.547,11.669-2.439,15-7.159,21.056A117.967,117.967,0,0,1,725,386.627a9.686,9.686,0,0,0-4.036,4.422c-1.141,3.509,2.193,7.019,5.668,8.177,3.931,1.316,8.212.895,12.283,1.386s8.581,2.3,10.142,6.194c2.158,5.387-2.351,11.055-6.791,14.757a100.984,100.984,0,0,1-29.83,17.249c-3.9,1.421-7.984,2.667-11.107,5.4s-5.036,7.475-3.141,11.2,6.755,4.913,10.826,4.159,7.7-2.965,11.581-4.422c7.265-2.737,16.635-2.246,21.285,4.036a16.652,16.652,0,0,1,1.755,14.775,38.6,38.6,0,0,1-8,13.055,101.493,101.493,0,0,1-43.359,30.374c-16.828,5.843-32.427,7.422-49.132,1.3" transform="translate(197.777 161.192)" fill="#ebebeb"></path><path id="Path_161560" data-name="Path 161560" d="M628.89,540.388a233.125,233.125,0,0,1,8.633-43.517,473.927,473.927,0,0,1,18.793-50.886l5.6-13.09c1.86-4.3,3.685-8.563,5.738-12.616a234.049,234.049,0,0,1,13.143-22.636c4.527-7.019,9.072-13.476,13.371-19.495s8.44-11.546,12.406-16.424a187.4,187.4,0,0,1,20.46-21.706c2.6-2.351,4.685-4.106,6.106-5.264l1.632-1.334a2.651,2.651,0,0,1,.579-.421l-.509.509c-.4.333-.912.807-1.579,1.386-1.386,1.228-3.509,3.036-5.984,5.422A200.3,200.3,0,0,0,707.1,362.093c-3.931,4.9-8,10.44-12.283,16.459s-8.773,12.529-13.283,19.512a239.157,239.157,0,0,0-13.02,22.671c-2.035,4.036-3.86,8.247-5.7,12.564l-5.615,13.09a488.62,488.62,0,0,0-18.81,50.886,237.179,237.179,0,0,0-8.774,43.324" transform="translate(211.578 163.09)" fill="#e0e0e0"></path><path id="Path_161561" data-name="Path 161561" d="M654.453,407.676a11.762,11.762,0,0,1-.509-2.263c-.281-1.456-.614-3.509-.983-6.212-.755-5.264-1.526-12.546-2.369-20.6s-1.755-15.319-2.544-20.548c-.4-2.615-.755-4.738-1-6.194a9.557,9.557,0,0,1-.3-2.3,10.52,10.52,0,0,1,.667,2.228c.369,1.421.825,3.509,1.316,6.141,1,5.264,2,12.511,2.825,20.565s1.527,15.126,2.088,20.618c.263,2.474.491,4.58.667,6.247a10,10,0,0,1,.14,2.316Z" transform="translate(225.057 175.588)" fill="#e0e0e0"></path><path id="Path_161562" data-name="Path 161562" d="M719.047,375.476a13.458,13.458,0,0,1-2.72.333c-1.755.158-4.264.368-7.37.719-6.212.684-14.775,1.913-24.145,3.667s-17.81,3.773-23.864,5.369c-3.036.79-5.475,1.492-7.159,1.965a16.22,16.22,0,0,1-2.65.649,14.882,14.882,0,0,1,2.544-1.018c1.649-.6,4.071-1.386,7.019-2.264,6.019-1.755,14.441-3.878,23.846-5.668a238.451,238.451,0,0,1,24.285-3.387c3.123-.281,5.65-.386,7.4-.421a18.536,18.536,0,0,1,2.807.053Z" transform="translate(228.37 195.084)" fill="#e0e0e0"></path><path id="Path_161563" data-name="Path 161563" d="M649,462.985a3.963,3.963,0,0,1-.474-.842c-.316-.649-.7-1.474-1.158-2.457-1-2.123-2.369-5.264-4-9.16-3.281-7.773-7.457-18.653-11.914-30.725s-8.545-23-11.651-30.83c-1.527-3.808-2.772-7.019-3.72-9.282l-.983-2.527a4.04,4.04,0,0,1-.3-.912,3.969,3.969,0,0,1,.474.842l1.158,2.457c1,2.123,2.369,5.264,4,9.16,3.281,7.773,7.458,18.652,11.914,30.742s8.545,22.987,11.651,30.813l3.72,9.282.983,2.527A4.036,4.036,0,0,1,649,462.985Z" transform="translate(200.944 195.731)" fill="#e0e0e0"></path><path id="Path_161564" data-name="Path 161564" d="M724.517,409.1a3.714,3.714,0,0,1-.895.369l-2.632.877-9.651,3.141c-8.159,2.65-19.389,6.422-31.778,10.528s-23.689,7.9-31.9,10.37c-4.106,1.246-7.44,2.211-9.756,2.825l-2.667.7a4.788,4.788,0,0,1-.948.193,3.652,3.652,0,0,1,.895-.386l2.615-.86,9.668-3.141c8.159-2.65,19.3-6.422,31.778-10.634s23.671-7.879,31.883-10.353c4.106-1.246,7.44-2.211,9.756-2.825l2.685-.7a4.552,4.552,0,0,1,.948-.105Z" transform="translate(215.653 220.523)" fill="#e0e0e0"></path></g><g id="freepik--Floor--inject-2" transform="translate(61.898 908.599)"><path id="Path_161565" data-name="Path 161565" d="M1177.071,451.4c0,.263-252.274.456-563.4.456S50.2,451.667,50.2,451.4s252.221-.4,563.47-.4S1177.071,451.158,1177.071,451.4Z" transform="translate(-50.2 -451)" fill="#263238"></path></g><g id="freepik--Plant--inject-2" transform="translate(1016.747 804.846)"><path id="Path_161566" data-name="Path 161566" d="M619.768,434.771c3.053,3.948,8.545,2.316,11-.316s3.351-6.282,4.176-9.791c1.86-7.984,3.738-16.354,1.649-24.285a13.616,13.616,0,0,0-3.422-6.422,7.019,7.019,0,0,0-6.756-1.86c-2.772.877-4.369,3.7-5.492,6.387a57.519,57.519,0,0,0-4.439,24.987,19.828,19.828,0,0,0,3.281,11.3" transform="translate(-577.717 -391.872)" fill="#ed7d39"></path><g id="Group_85999" data-name="Group 85999" transform="translate(38.708 0)" opacity="0.2"><path id="Path_161567" data-name="Path 161567" d="M619.768,434.771c3.053,3.948,8.545,2.316,11-.316s3.351-6.282,4.176-9.791c1.86-7.984,3.738-16.354,1.649-24.285a13.616,13.616,0,0,0-3.422-6.422,7.019,7.019,0,0,0-6.756-1.86c-2.772.877-4.369,3.7-5.492,6.387a57.519,57.519,0,0,0-4.439,24.987,19.828,19.828,0,0,0,3.281,11.3" transform="translate(-616.425 -391.872)"></path></g><path id="Path_161568" data-name="Path 161568" d="M627.215,429.054A24.8,24.8,0,0,1,642.5,426.4a12.845,12.845,0,0,1,7.756,3.018c2.018,2,2.562,5.668.474,7.58a7.422,7.422,0,0,1-4.738,1.456c-4.071.158-8.616-.333-11.739,2.281-1.755,1.474-2.9,3.86-5.071,4.668a5.264,5.264,0,0,1-5.9-2.281,8.967,8.967,0,0,1-.983-6.563,10.09,10.09,0,0,1,4.913-7.51Z" transform="translate(-573.46 -366.01)" fill="#ed7d39"></path><path id="Path_161569" data-name="Path 161569" d="M628.819,434.435a14.9,14.9,0,0,0,1.614-13.792,26.409,26.409,0,0,0-8.774-11.353,43.743,43.743,0,0,0-14.95-7.826,15.511,15.511,0,0,0-6.562-.772,6.843,6.843,0,0,0-5.264,3.509c-1.386,3,.263,6.457,2,9.247a110.079,110.079,0,0,0,10.248,14.038c3.053,3.509,6.51,7.019,10.932,8.44s8.949,1.018,11.107-2.106" transform="translate(-594.365 -385.271)" fill="#ed7d39"></path><path id="Path_161570" data-name="Path 161570" d="M620.091,468.067a8.91,8.91,0,0,0,.158-1.86c0-1.369.158-3.071.246-5.106a68.417,68.417,0,0,1,.755-7.475,57.922,57.922,0,0,1,2.264-8.914,32.534,32.534,0,0,1,4.071-8.159,16.636,16.636,0,0,1,5.439-4.983,15.67,15.67,0,0,1,4.685-1.755,8.48,8.48,0,0,0,1.755-.351,8.016,8.016,0,0,0-1.878,0,14.231,14.231,0,0,0-4.9,1.544,16.5,16.5,0,0,0-5.738,5.036,31.761,31.761,0,0,0-4.229,8.335,53.5,53.5,0,0,0-2.229,9.054A61.03,61.03,0,0,0,619.88,461V466.1A8.46,8.46,0,0,0,620.091,468.067Z" transform="translate(-575.109 -363.542)" fill="#263238"></path><path id="Path_161571" data-name="Path 161571" d="M620.606,485.413a5.252,5.252,0,0,0,0-.86,19.253,19.253,0,0,0-.123-2.474c-.123-2.123-.281-5.264-.351-9.054-.193-7.65,0-18.214.614-29.83s1.86-22.179,3.018-29.742c.281-1.9.561-3.6.825-5.089s.474-2.79.7-3.843.333-1.755.456-2.422a5.263,5.263,0,0,0,.105-.86,2.983,2.983,0,0,0-.263.825l-.6,2.4c-.263,1.035-.526,2.316-.825,3.808s-.632,3.194-.93,5.089a279.615,279.615,0,0,0-3.264,29.83c-.684,11.669-.719,22.285-.386,29.935.14,3.843.386,6.931.6,9.072l.263,2.457A2.916,2.916,0,0,0,620.606,485.413Z" transform="translate(-575.484 -384.801)" fill="#263238"></path><path id="Path_161572" data-name="Path 161572" d="M632.493,461.549a15.478,15.478,0,0,0-.158-2.562,69.982,69.982,0,0,0-1.141-6.931,87.649,87.649,0,0,0-2.773-10.037,90.1,90.1,0,0,0-4.861-11.809,64.2,64.2,0,0,0-13.441-18.81,32.848,32.848,0,0,0-3.071-2.58c-.474-.351-.895-.7-1.316-.983l-1.176-.737a22.086,22.086,0,0,0-2.229-1.281,81.377,81.377,0,0,1,7.422,5.984,67.31,67.31,0,0,1,13.055,18.758,92.988,92.988,0,0,1,4.878,11.686,102.959,102.959,0,0,1,2.913,9.932c.684,2.86,1.105,5.264,1.386,6.843A15.384,15.384,0,0,0,632.493,461.549Z" transform="translate(-588.354 -381.345)" fill="#263238"></path></g><g id="freepik--User--inject-2" transform="translate(34.7 514.37)"><rect id="Rectangle_21589" data-name="Rectangle 21589" width="198.387" height="132.866" transform="translate(0.211 0.737)" fill="#fafafa"></rect><path id="Path_161573" data-name="Path 161573" d="M133.605,294.347h-5.264V262.535a13.862,13.862,0,0,0-27.707,0v31.813H95.37V262.535a19.144,19.144,0,0,1,38.27,0Z" transform="translate(11.088 -213.017)" fill="#263238"></path><rect id="Rectangle_21590" data-name="Rectangle 21590" width="52.343" height="33.585" rx="3.39" transform="translate(99.386 67.17)" fill="#263238"></rect><path id="Path_161574" data-name="Path 161574" d="M108.139,277.938a4.369,4.369,0,1,1,4.369-4.369,4.369,4.369,0,0,1-4.369,4.369" transform="translate(17.427 -193.976)" fill="#455a64"></path><rect id="Rectangle_21591" data-name="Rectangle 21591" width="2.386" height="9.002" transform="translate(124.373 81.331)" fill="#455a64"></rect><path id="Path_161575" data-name="Path 161575" d="M109.365,290.037a21.144,21.144,0,0,0,12.616-19.583c0-11.7-8.774-21.232-19.776-21.285s-19.9,9.388-19.951,21.056A21.056,21.056,0,0,0,94.924,290c-30.479,4.65-29.181,37.831-29.181,37.831l72.276.333S139.669,294.617,109.365,290.037Z" transform="translate(-11.277 -209.093)" fill="#ed7d39"></path><path id="Path_161576" data-name="Path 161576" d="M233.28,359.951v-9.458c0-6.159,0-15.178-.105-26.724,0-23.092-.105-56.256-.175-96.7l.351.368H35.068l.456-.456V359.863l-.4-.421,142.886.193,40.85.123h.176l-40.744.123-143.166.193H34.7V226.33h.474l198.369.105h.368v.351c0,40.534-.14,73.785-.193,96.93,0,11.511,0,20.512-.088,26.654v7.019A7.659,7.659,0,0,1,233.28,359.951Z" transform="translate(-34.7 -226.33)" fill="#263238"></path><path id="Path_161577" data-name="Path 161577" d="M233.116,236.046c0,.246-44.394.456-99.123.456s-99.123-.211-99.123-.456,44.376-.456,99.123-.456S233.116,235.8,233.116,236.046Z" transform="translate(-34.572 -219.341)" fill="#263238"></path><path id="Path_161578" data-name="Path 161578" d="M44.026,232.193a2.053,2.053,0,1,1-2.053-2.053,2.053,2.053,0,0,1,2.053,2.053Z" transform="translate(-30.76 -223.455)" fill="#263238"></path><path id="Path_161579" data-name="Path 161579" d="M47.856,232.193A2.053,2.053,0,1,1,45.8,230.14a2.053,2.053,0,0,1,2.053,2.053Z" transform="translate(-27.87 -223.455)" fill="#263238"></path><path id="Path_161580" data-name="Path 161580" d="M51.966,232.193a2.053,2.053,0,1,1-.62-1.471,2.053,2.053,0,0,1,.62,1.471Z" transform="translate(-24.768 -223.455)" fill="#263238"></path><path id="Path_161581" data-name="Path 161581" d="M233.28,359.951v-9.458c0-6.159,0-15.178-.105-26.724,0-23.092-.105-56.256-.175-96.7l.351.368H35.068l.456-.456V359.863l-.4-.421,142.886.193,40.85.123h.176l-40.744.123-143.166.193H34.7V226.33h.474l198.369.105h.368v.351c0,40.534-.14,73.785-.193,96.93,0,11.511,0,20.512-.088,26.654v7.019A7.659,7.659,0,0,1,233.28,359.951Z" transform="translate(-34.7 -226.33)" fill="#263238"></path><path id="Path_161582" data-name="Path 161582" d="M90.806,306.887c-.246,0-.456-.983-.456-2.193s.211-2.193.456-2.193.474.983.474,2.193S91.069,306.887,90.806,306.887Z" transform="translate(7.299 -168.844)" fill="#263238"></path><path id="Path_161583" data-name="Path 161583" d="M90.829,320.048a13.249,13.249,0,0,1-.456-4.808,13.107,13.107,0,0,1,.456-4.79,24.543,24.543,0,0,1,0,9.6Z" transform="translate(7.277 -162.844)" fill="#263238"></path><path id="Path_161584" data-name="Path 161584" d="M90.829,330.988a13.248,13.248,0,0,1-.456-4.808,13.108,13.108,0,0,1,.456-4.79,24.544,24.544,0,0,1,0,9.6Z" transform="translate(7.277 -154.588)" fill="#263238"></path><path id="Path_161585" data-name="Path 161585" d="M90.829,341.928a13.249,13.249,0,0,1-.456-4.808,13.107,13.107,0,0,1,.456-4.79,24.544,24.544,0,0,1,0,9.6Z" transform="translate(7.277 -146.331)" fill="#263238"></path><path id="Path_161586" data-name="Path 161586" d="M90.829,352.868a13.248,13.248,0,0,1-.456-4.808,13.108,13.108,0,0,1,.456-4.79,24.544,24.544,0,0,1,0,9.6Z" transform="translate(7.277 -138.075)" fill="#263238"></path><path id="Path_161587" data-name="Path 161587" d="M95.193,358.574a11,11,0,0,1-4.387.456l-.456-.456h0v-1.649a5.785,5.785,0,0,1,.105-1.4c0-.79.193-1.281.316-1.281s.246.491.333,1.281v3.053h0c-.211-.211.439.456-.474-.456A11,11,0,0,1,95.193,358.574Z" transform="translate(7.299 -129.796)" fill="#263238"></path><path id="Path_161588" data-name="Path 161588" d="M106.646,356.929a10.72,10.72,0,0,1-4.317.456,10.67,10.67,0,0,1-4.3-.456,10.669,10.669,0,0,1,4.3-.456,10.721,10.721,0,0,1,4.317.456Z" transform="translate(13.095 -128.15)" fill="#263238"></path><path id="Path_161589" data-name="Path 161589" d="M116.483,356.929a10.72,10.72,0,0,1-4.317.456,10.721,10.721,0,0,1-4.317-.456,10.721,10.721,0,0,1,4.317-.456,10.721,10.721,0,0,1,4.317.456Z" transform="translate(20.507 -128.15)" fill="#263238"></path><path id="Path_161590" data-name="Path 161590" d="M126.313,356.929a10.72,10.72,0,0,1-4.317.456,10.721,10.721,0,0,1-4.317-.456,10.721,10.721,0,0,1,4.317-.456,10.721,10.721,0,0,1,4.317.456Z" transform="translate(27.925 -128.15)" fill="#263238"></path><path id="Path_161591" data-name="Path 161591" d="M136.126,356.906a20.565,20.565,0,0,1-8.616,0A20.565,20.565,0,0,1,136.126,356.906Z" transform="translate(35.344 -128.128)" fill="#263238"></path><path id="Path_161592" data-name="Path 161592" d="M145.956,356.906a20.566,20.566,0,0,1-8.616,0,20.565,20.565,0,0,1,8.616,0Z" transform="translate(42.763 -128.128)" fill="#263238"></path><path id="Path_161593" data-name="Path 161593" d="M155.793,356.906a20.652,20.652,0,0,1-8.633,0,20.653,20.653,0,0,1,8.633,0Z" transform="translate(50.174 -128.128)" fill="#263238"></path><path id="Path_161594" data-name="Path 161594" d="M165.606,356.906a20.566,20.566,0,0,1-8.616,0,20.565,20.565,0,0,1,8.616,0Z" transform="translate(57.593 -128.128)" fill="#263238"></path><path id="Path_161595" data-name="Path 161595" d="M175.436,356.906a20.566,20.566,0,0,1-8.616,0,20.565,20.565,0,0,1,8.616,0Z" transform="translate(65.011 -128.128)" fill="#263238"></path><path id="Path_161596" data-name="Path 161596" d="M185.273,356.906a20.652,20.652,0,0,1-8.633,0,20.653,20.653,0,0,1,8.633,0Z" transform="translate(72.423 -128.128)" fill="#263238"></path><path id="Path_161597" data-name="Path 161597" d="M195.086,356.906a20.566,20.566,0,0,1-8.616,0,20.565,20.565,0,0,1,8.616,0Z" transform="translate(79.841 -128.128)" fill="#263238"></path><path id="Path_161598" data-name="Path 161598" d="M200.687,356.906c0,.246-.983.456-2.193.456s-2.193-.211-2.193-.456.983-.456,2.193-.456S200.687,356.661,200.687,356.906Z" transform="translate(87.26 -128.128)" fill="#263238"></path></g><g transform="translate(218.295 245.215)"><rect id="Rectangle_21592" data-name="Rectangle 21592" width="106.002" height="145.061" transform="translate(0.404 0.79)" fill="#fff"></rect><path id="Path_161599" data-name="Path 161599" d="M245.788,218.686v-10.7c0-6.931,0-17.038-.14-29.83,0-25.531-.193-61.73-.316-104.563l.474.474-105.984.123h0l.526-.526V218.721l-.421-.421,76.979.158,21.425.105h.175l-21.337.123-77.207.281h-.439v-.439c0-40.709-.123-90.876-.193-145.061V72.94H246.349v.491c0,42.955-.123,79.278-.175,104.879,0,12.722,0,22.811-.105,29.69v9.826a4.577,4.577,0,0,1-.281.86Z" transform="translate(-139.33 -72.94)" fill="#263238"></path><path id="Path_161600" data-name="Path 161600" d="M198.648,90.219c0,.3-11.528.526-25.759.544s-25.759-.211-25.759-.509,11.528-.544,25.759-.544S198.648,89.921,198.648,90.219Z" transform="translate(-133.443 -60.284)" fill="#263238"></path><path id="Path_161601" data-name="Path 161601" d="M226.513,97.381c0,.3-17.775.544-39.691.561s-39.691-.211-39.691-.509,17.775-.544,39.691-.544S226.513,97.083,226.513,97.381Z" transform="translate(-133.443 -54.865)" fill="#263238"></path><path id="Path_161602" data-name="Path 161602" d="M226.523,104.889c0,.281-17.775.526-39.691.544s-39.691-.211-39.691-.491,17.775-.544,39.691-.561S226.523,104.591,226.523,104.889Z" transform="translate(-133.436 -49.213)" fill="#263238"></path><path id="Path_161603" data-name="Path 161603" d="M226.515,112.379c0,.3-17.758.544-39.674.562s-39.691-.211-39.691-.509,17.758-.544,39.691-.562S226.515,112.1,226.515,112.379Z" transform="translate(-133.428 -43.56)" fill="#263238"></path><path id="Path_161604" data-name="Path 161604" d="M226.533,119.862c0,.3-17.775.544-39.691.562s-39.691-.211-39.691-.491,17.775-.544,39.691-.562S226.533,119.581,226.533,119.862Z" transform="translate(-133.428 -37.899)" fill="#263238"></path><path id="Path_161605" data-name="Path 161605" d="M226.525,127.369c0,.3-17.758.544-39.674.562s-39.691-.211-39.691-.509,17.758-.544,39.691-.562S226.525,127.106,226.525,127.369Z" transform="translate(-133.421 -32.247)" fill="#263238"></path><path id="Path_161606" data-name="Path 161606" d="M226.543,134.852c0,.3-17.775.544-39.691.562s-39.691-.211-39.691-.491,17.775-.544,39.691-.562S226.543,134.571,226.543,134.852Z" transform="translate(-133.421 -26.586)" fill="#263238"></path><path id="Path_161607" data-name="Path 161607" d="M189.827,142.369c0,.3-9.546.544-21.32.544s-21.337-.211-21.337-.509,9.546-.544,21.337-.544S189.827,142.106,189.827,142.369Z" transform="translate(-133.413 -20.926)" fill="#263238"></path><circle id="Ellipse_7877" data-name="Ellipse 7877" cx="21.53" cy="21.53" r="21.53" transform="translate(75.663 113.301)" fill="#ed7d39"></circle><path id="Path_161608" data-name="Path 161608" d="M211.914,145.094c.912.86-3.316,6.878-9.44,13.459-1,1.053-1.965,2.053-2.9,2.983l-1.492,1.474-1.492-1.246c-5.352-4.492-8.861-8.352-8.212-9.195s5.264,1.632,10.932,5.72l-2.965.228c.86-.983,1.755-2.035,2.772-3.088C205.316,148.849,210.984,144.235,211.914,145.094Z" transform="translate(-102.368 -18.563)" fill="#e0e0e0"></path><path id="Path_161609" data-name="Path 161609" d="M165.386,164.344a21.32,21.32,0,0,1,0-8.773A21.319,21.319,0,0,1,165.386,164.344Z" transform="translate(-120.01 -10.579)" fill="#263238"></path><path id="Path_161610" data-name="Path 161610" d="M165.386,174.344a21.32,21.32,0,0,1,0-8.774A21.319,21.319,0,0,1,165.386,174.344Z" transform="translate(-120.01 -3.032)" fill="#263238"></path><path id="Path_161611" data-name="Path 161611" d="M165.386,184.344a21.32,21.32,0,0,1,0-8.774A21.319,21.319,0,0,1,165.386,184.344Z" transform="translate(-120.01 4.515)" fill="#263238"></path><path id="Path_161612" data-name="Path 161612" d="M165.386,194.344a21.32,21.32,0,0,1,0-8.773A21.319,21.319,0,0,1,165.386,194.344Z" transform="translate(-120.01 12.062)" fill="#263238"></path><path id="Path_161613" data-name="Path 161613" d="M165.386,204.344a21.32,21.32,0,0,1,0-8.774A21.319,21.319,0,0,1,165.386,204.344Z" transform="translate(-120.01 19.609)" fill="#263238"></path><path id="Path_161614" data-name="Path 161614" d="M165.386,214.344a21.32,21.32,0,0,1,0-8.774A21.319,21.319,0,0,1,165.386,214.344Z" transform="translate(-120.01 27.156)" fill="#263238"></path><path id="Path_161615" data-name="Path 161615" d="M165.386,224.344a21.32,21.32,0,0,1,0-8.773,21.319,21.319,0,0,1,0,8.774Z" transform="translate(-120.01 34.703)" fill="#263238"></path><path id="Path_161616" data-name="Path 161616" d="M165.386,234.344a21.32,21.32,0,0,1,0-8.774A21.319,21.319,0,0,1,165.386,234.344Z" transform="translate(-120.01 42.25)" fill="#263238"></path><path id="Path_161617" data-name="Path 161617" d="M173.728,235.943a11.072,11.072,0,0,1-4.387.456,22.07,22.07,0,0,1-4.088-.281h-.193V236c0-.193.105-.3.158-.3s.123.105.175.3l-.175-.158a20.2,20.2,0,0,1,4.089-.3,11.072,11.072,0,0,1,4.422.4Z" transform="translate(-119.911 49.723)" fill="#263238"></path><path id="Path_161618" data-name="Path 161618" d="M183.774,235.936a21.319,21.319,0,0,1-8.774,0,21.32,21.32,0,0,1,8.774,0Z" transform="translate(-112.41 49.73)" fill="#263238"></path><path id="Path_161619" data-name="Path 161619" d="M193.774,235.936a21.319,21.319,0,0,1-8.774,0,21.32,21.32,0,0,1,8.774,0Z" transform="translate(-104.863 49.73)" fill="#263238"></path><path id="Path_161620" data-name="Path 161620" d="M203.774,235.936a21.319,21.319,0,0,1-8.773,0,21.319,21.319,0,0,1,8.773,0Z" transform="translate(-97.316 49.73)" fill="#263238"></path><path id="Path_161621" data-name="Path 161621" d="M213.774,235.936a21.319,21.319,0,0,1-8.774,0,21.32,21.32,0,0,1,8.774,0Z" transform="translate(-89.769 49.73)" fill="#263238"></path></g><g id="freepik--Cloud--inject-2" transform="translate(533.632 258.218)"><path id="Path_161622" data-name="Path 161622" d="M376.766,149.054a21.319,21.319,0,0,1,0-8.774,21.319,21.319,0,0,1,0,8.774Z" transform="translate(-275.817 -35.121)" fill="#263238"></path><path id="Path_161623" data-name="Path 161623" d="M376.766,159.054a21.319,21.319,0,0,1,0-8.774A21.319,21.319,0,0,1,376.766,159.054Z" transform="translate(-275.817 -27.574)" fill="#263238"></path><path id="Path_161624" data-name="Path 161624" d="M376.766,169.054a21.319,21.319,0,0,1,0-8.774A21.319,21.319,0,0,1,376.766,169.054Z" transform="translate(-275.817 -20.027)" fill="#263238"></path><path id="Path_161625" data-name="Path 161625" d="M376.766,179.044a21.319,21.319,0,0,1,0-8.774,21.319,21.319,0,0,1,0,8.774Z" transform="translate(-275.817 -12.487)" fill="#263238"></path><path id="Path_161626" data-name="Path 161626" d="M376.765,189.054a21.407,21.407,0,0,1,0-8.774A21.407,21.407,0,0,1,376.765,189.054Z" transform="translate(-275.816 -4.932)" fill="#263238"></path><path id="Path_161627" data-name="Path 161627" d="M376.766,199.054a21.319,21.319,0,0,1,0-8.774A21.319,21.319,0,0,1,376.766,199.054Z" transform="translate(-275.817 2.615)" fill="#263238"></path><path id="Path_161628" data-name="Path 161628" d="M376.766,209.054a21.319,21.319,0,0,1,0-8.773A21.319,21.319,0,0,1,376.766,209.054Z" transform="translate(-275.817 10.162)" fill="#263238"></path><path id="Path_161629" data-name="Path 161629" d="M376.766,219.054a21.319,21.319,0,0,1,0-8.774A21.319,21.319,0,0,1,376.766,219.054Z" transform="translate(-275.817 17.709)" fill="#263238"></path><path id="Path_161630" data-name="Path 161630" d="M539.15,203.1H522.919l-45.341.158-156.5.368h-.351l-.123-.4a38.884,38.884,0,0,1,38.375-49.781l-.579.755a33.339,33.339,0,0,1-1.211-10.528c.474-12.107,7.352-23.794,17.916-29.2a35.427,35.427,0,0,1,33.164.175l-.807.3a51.5,51.5,0,0,1,30.3-28.233c12.915-4.7,27.233-4.088,38.5,1.755a52.431,52.431,0,0,1,23.829,26.04,49.869,49.869,0,0,1,2.948,31.216l-.439-.491a37.024,37.024,0,0,1,18.161,2.65A37.99,37.99,0,0,1,534.2,157.1a23.673,23.673,0,0,1,4.229,6.071,34.448,34.448,0,0,1,2.264,6.44,58.9,58.9,0,0,1,1.544,11.774,67.1,67.1,0,0,1-1.421,16.284,38.343,38.343,0,0,1-1.123,4.089c-.316.912-.491,1.351-.491,1.351" transform="translate(-319.039 -77.906)" fill="#ed7d39"></path><path id="Path_161631" data-name="Path 161631" d="M454.211,145.45h-6.756V104.811a17.7,17.7,0,0,0-35.41,0V145.45H405.29V104.811a24.461,24.461,0,1,1,48.921,0Z" transform="translate(-253.946 -80.35)" fill="#e0e0e0"></path><rect id="Rectangle_21593" data-name="Rectangle 21593" width="66.889" height="42.92" rx="3.39" transform="translate(142.36 47.009)" fill="#e0e0e0"></rect><path id="Path_161632" data-name="Path 161632" d="M421.645,124.185a5.6,5.6,0,1,1,5.58-5.58,5.6,5.6,0,0,1-5.58,5.58" transform="translate(-245.84 -55.717)" fill="#455a64"></path><rect id="Rectangle_21594" data-name="Rectangle 21594" width="3.053" height="11.493" transform="translate(174.278 65.1)" fill="#455a64"></rect></g><g id="freepik--Key--inject-2" transform="translate(956.99 241.905)"><path id="Path_161633" data-name="Path 161633" d="M701.919,137.017a36.586,36.586,0,1,0-56.765-8.774l-7.458,7.019,1.755,12.283-11.528-3.088-9.318,8.774,1.755,12.283L608.8,162.267l-7.966,7.422,1.088,7.528-7.019-1.965-4.6,4.3-.7,11.458,17.073,4.3,55.4-51.694a36.586,36.586,0,0,0,39.849-6.6Zm-5.4-44.991a10.528,10.528,0,1,1-14.845-.509,10.528,10.528,0,0,1,14.845.509Z" transform="translate(-538.205 -69.098)" fill="#263238"></path><path id="Path_161634" data-name="Path 161634" d="M701.919,137.017a36.586,36.586,0,1,0-56.765-8.774l-7.458,7.019,1.755,12.283-11.528-3.088-9.318,8.774,1.755,12.283L608.8,162.267l-7.966,7.422,1.088,7.528-7.019-1.965-4.6,4.3-.7,11.458,17.073,4.3,55.4-51.694a36.586,36.586,0,0,0,39.849-6.6Zm-5.4-44.991a10.528,10.528,0,1,1-14.845-.509,10.528,10.528,0,0,1,14.845.509Z" transform="translate(-538.205 -69.098)" fill="none"></path><path id="Path_161635" data-name="Path 161635" d="M658.509,85.688a13.654,13.654,0,0,0-2.088-1.509,10.4,10.4,0,0,0-6.6-1.439,10.107,10.107,0,1,0,11.02,11.827,10.529,10.529,0,0,0-.983-6.7c-.755-1.456-1.422-2.123-1.351-2.176s.193.123.509.456a8.1,8.1,0,0,1,1.158,1.562,10.527,10.527,0,0,1,1.316,7.019,10.856,10.856,0,1,1-11.686-12.634,10.405,10.405,0,0,1,6.861,1.755,7.957,7.957,0,0,1,1.474,1.263A2.156,2.156,0,0,1,658.509,85.688Z" transform="translate(-500.2 -62.76)" fill="#263238"></path><path id="Path_161636" data-name="Path 161636" d="M702.13,137.214a4.656,4.656,0,0,1-.526.509l-1.614,1.439a38.431,38.431,0,0,1-7.019,4.51,36.849,36.849,0,0,1-30.848.439h.3L607.13,195.891l-.176.14h-.21l-17.073-4.281-.351-.088v-.351c.21-3.509.439-7.475.684-11.441v-.175l.14-.123,4.65-4.352.175-.158h.246l7.019,1.983-.562.491c-.333-2.351-.7-4.931-1.088-7.528v-.246l.158-.158,8.019-7.475.175-.175h.246l11.564,3.246-.579.491c-.562-3.913-1.176-8.124-1.755-12.283v-.228l.158-.175,2.474-2.3,6.843-6.387.193-.175h.246l11.564,3.246-.579.491q-.9-6.229-1.755-12.283v-.228l.175-.158,7.44-7.019-.088.544a37.569,37.569,0,0,1-4.755-16.652,35.9,35.9,0,0,1,.614-8.475,35.5,35.5,0,0,1,2.439-7.966,36.8,36.8,0,0,1,70.486,17.775,36.2,36.2,0,0,1-4.106,14.038l-.684,1.3-.737,1.158c-.509.737-.912,1.474-1.4,2.071-.983,1.193-1.755,2.264-2.492,3.018l-1.755,1.755-.6.544.544-.614,1.632-1.755a35.419,35.419,0,0,0,2.4-3.018c.474-.614.877-1.351,1.351-2.088l.737-1.158.649-1.3a36.708,36.708,0,0,0,.281-32.9,36.255,36.255,0,0,0-65.661,1.544,34.68,34.68,0,0,0-2.369,7.773,34.146,34.146,0,0,0-.579,8.265,36.342,36.342,0,0,0,4.667,16.266l.158.3-.246.246-7.44,7.019.14-.386q.877,6.106,1.755,12.283l.105.684-.667-.175-11.564-3.246.439-.105-6.843,6.387-2.474,2.3.14-.386c.614,4.229,1.211,8.44,1.755,12.283l.105.684-.667-.175-11.564-3.246.439-.105-8.019,7.475.14-.4c.369,2.6.737,5.176,1.088,7.528v.684l-.649-.175-7.019-1.983.421-.105-4.65,4.352.14-.3c-.246,3.966-.491,7.879-.719,11.441l-.316-.439,17.073,4.317h-.386L661.912,143.5l.123-.123h.175a36.709,36.709,0,0,0,30.5-.211,39.346,39.346,0,0,0,7.106-4.352c.719-.579,1.263-1.035,1.649-1.369Z" transform="translate(-538.416 -69.295)" fill="#263238"></path><path id="Path_161637" data-name="Path 161637" d="M701.241,134.657a36.586,36.586,0,1,0-56.765-8.774h0l-7.44,7.019,1.755,12.283-11.564-3.246-9.318,8.774L619.665,163,608.1,159.749l-7.949,7.545,1.088,7.528-7.019-1.965-4.65,4.352-.7,11.441,17.073,4.3,55.4-51.676a36.586,36.586,0,0,0,39.9-6.615Zm-5.4-45.008a10.528,10.528,0,1,1-14.827-.509,10.528,10.528,0,0,1,14.827.509Z" transform="translate(-538.756 -70.88)" fill="#e0e0e0"></path><path id="Path_161638" data-name="Path 161638" d="M701.241,134.657a36.586,36.586,0,1,0-56.765-8.774h0l-7.44,7.019,1.755,12.283-11.564-3.246-9.318,8.774L619.665,163,608.1,159.749l-7.949,7.545,1.088,7.528-7.019-1.965-4.65,4.352-.7,11.441,17.073,4.3,55.4-51.676a36.586,36.586,0,0,0,39.9-6.615Zm-5.4-45.008a10.528,10.528,0,1,1-14.827-.509,10.528,10.528,0,0,1,14.827.509Z" transform="translate(-538.756 -70.88)" fill="none"></path><path id="Path_161639" data-name="Path 161639" d="M657.81,83.286a14.564,14.564,0,0,0-2.088-1.491,10.388,10.388,0,0,0-6.6-1.456,10.107,10.107,0,1,0,11.037,11.827,10.37,10.37,0,0,0-1-6.685c-.755-1.456-1.421-2.123-1.351-2.193s.193.14.509.456a8.114,8.114,0,0,1,1.158,1.562,10.527,10.527,0,0,1,1.316,7.019,10.828,10.828,0,0,1-21.46-.526,10.668,10.668,0,0,1,1.14-6.229,10.792,10.792,0,0,1,8.633-5.808,10.528,10.528,0,0,1,6.861,1.755,7.354,7.354,0,0,1,1.474,1.263Q657.845,83.269,657.81,83.286Z" transform="translate(-500.729 -64.517)" fill="#263238"></path><path id="Path_161640" data-name="Path 161640" d="M701.453,134.831a6.241,6.241,0,0,1-.526.491l-1.6,1.439a38.373,38.373,0,0,1-7.019,4.51,36.849,36.849,0,0,1-30.848.439h.3L606.4,193.438l-.158.158h-.228l-17.073-4.281h-.351v-.351c.21-3.509.439-7.493.684-11.458v-.175l.123-.105c1.439-1.351,3.036-2.86,4.65-4.352l.193-.175h.228l7.019,1.965-.562.491c-.351-2.351-.719-4.931-1.088-7.528V167.4l.158-.175,8.019-7.457.175-.175h.246L620,162.818l-.579.509c-.562-3.931-1.176-8.124-1.755-12.283v-.228l.175-.158,2.457-2.316,6.843-6.387.193-.175h.246l11.564,3.246-.579.509c-.6-4.176-1.193-8.282-1.755-12.283v-.228l.175-.158,7.44-7.019v.544a37.085,37.085,0,0,1-1.72-33.076,36.862,36.862,0,0,1,70.574,17.67,36.113,36.113,0,0,1-4.106,14.038l-.667,1.3-.755,1.158c-.509.755-.912,1.474-1.386,2.088-1,1.193-1.755,2.246-2.492,3l-1.755,1.755c-.386.386-.6.562-.6.562s.175-.228.544-.614l1.632-1.755a36.473,36.473,0,0,0,2.421-3.036c.456-.614.86-1.351,1.334-2.088l.737-1.158.667-1.3a36.3,36.3,0,0,0-65.5-31.321,36.339,36.339,0,0,0,1.72,32.3l.175.316-.263.228-7.44,7.019.14-.386q.86,6.106,1.755,12.283l.105.7-.667-.193-11.563-3.246.439-.105-6.843,6.387-2.474,2.316.14-.4c.614,4.229,1.211,8.44,1.755,12.283l.105.7-.667-.193-11.528-3.176.439-.105-8.019,7.475.141-.386c.369,2.6.755,5.264,1.088,7.528l.088.667-.649-.175-7.019-1.983.421-.105-4.667,4.352.14-.3c-.246,3.966-.491,7.879-.719,11.441l-.316-.439,17.073,4.317-.386.105,55.4-51.588.14-.123h.158a36.971,36.971,0,0,0,17.547,3.141,37.551,37.551,0,0,0,12.915-3.334,41.468,41.468,0,0,0,7.019-4.352l1.649-1.386Z" transform="translate(-538.967 -71.053)" fill="#263238"></path><path id="Path_161641" data-name="Path 161641" d="M674.5,129.932a49.121,49.121,0,0,0,4.913-6.194,30.513,30.513,0,0,0,3.755-8.423,31.9,31.9,0,0,0-16.2-37.235,29.952,29.952,0,0,0-8.651-2.913,37.8,37.8,0,0,0-4.7-.544,37.2,37.2,0,0,0-4.825.246,31.585,31.585,0,0,0-27.443,25.636,37.5,37.5,0,0,0-.579,4.79,38.6,38.6,0,0,0,.21,4.738,30.727,30.727,0,0,0,2.316,8.773,31.869,31.869,0,0,0,36.006,18.74,30.5,30.5,0,0,0,8.668-3.158,51.173,51.173,0,0,0,6.527-4.474s-.123.14-.369.368l-1.141,1.018a14.753,14.753,0,0,1-1.965,1.562,25.832,25.832,0,0,1-2.878,1.755,30.8,30.8,0,0,1-8.773,3.352,32.4,32.4,0,0,1-36.9-18.916,30.636,30.636,0,0,1-2.369-8.967,34.076,34.076,0,0,1-.228-4.843,33.451,33.451,0,0,1,.579-4.931,32.445,32.445,0,0,1,28.233-26.321,35.935,35.935,0,0,1,4.948-.228,36.586,36.586,0,0,1,4.826.561,30.9,30.9,0,0,1,8.879,3.036,32.655,32.655,0,0,1,12.669,11.6,31.9,31.9,0,0,1,4.843,14.178,32.358,32.358,0,0,1-1.211,12.283,30.59,30.59,0,0,1-3.948,8.475,22.669,22.669,0,0,1-2.035,2.737,14.045,14.045,0,0,1-1.755,1.755l-1.105,1.07C674.639,129.827,674.5,129.95,674.5,129.932Z" transform="translate(-515.364 -69.015)" fill="#263238"></path><path id="Path_161642" data-name="Path 161642" d="M659.224,100.352a14.288,14.288,0,0,0,1.755-2.421,12.16,12.16,0,0,0-.105-12.95,11.845,11.845,0,0,0-4.685-4.194,11.6,11.6,0,0,0-6.773-1.193,11.891,11.891,0,0,0-9.546,16.424,12.108,12.108,0,0,0,16.775,5.948c1.755-.912,2.474-1.755,2.544-1.614s-.158.228-.544.579a9.366,9.366,0,0,1-1.755,1.351,12.441,12.441,0,0,1-13.529-.719,12.7,12.7,0,1,1,20.056-11.476,12.283,12.283,0,0,1-2.071,8.037,10.529,10.529,0,0,1-1.474,1.755,2.72,2.72,0,0,1-.649.474Z" transform="translate(-501.581 -65.352)" fill="#263238"></path><path id="Path_161643" data-name="Path 161643" d="M596,162.074c-.175-.175,12.283-12.09,27.847-26.6s28.321-26.145,28.5-25.952-12.283,12.09-27.865,26.619S596.229,162.267,596,162.074Z" transform="translate(-533.375 -42.024)" fill="#263238"></path><path id="Path_161644" data-name="Path 161644" d="M569.084,230.006a21.32,21.32,0,0,1-8.774,0A21.32,21.32,0,0,1,569.084,230.006Z" transform="translate(-560.31 48.565)" fill="#263238"></path><path id="Path_161645" data-name="Path 161645" d="M579.084,230.006a21.32,21.32,0,0,1-8.774,0,21.32,21.32,0,0,1,8.774,0Z" transform="translate(-552.763 48.565)" fill="#263238"></path><path id="Path_161646" data-name="Path 161646" d="M589.084,230.006a21.32,21.32,0,0,1-8.774,0A21.32,21.32,0,0,1,589.084,230.006Z" transform="translate(-545.216 48.565)" fill="#263238"></path><path id="Path_161647" data-name="Path 161647" d="M599.084,230.006a21.32,21.32,0,0,1-8.774,0A21.32,21.32,0,0,1,599.084,230.006Z" transform="translate(-537.669 48.565)" fill="#263238"></path><path id="Path_161648" data-name="Path 161648" d="M609.083,230.006a21.319,21.319,0,0,1-8.773,0A21.319,21.319,0,0,1,609.083,230.006Z" transform="translate(-530.122 48.565)" fill="#263238"></path><path id="Path_161649" data-name="Path 161649" d="M619.084,230.006a21.32,21.32,0,0,1-8.774,0A21.32,21.32,0,0,1,619.084,230.006Z" transform="translate(-522.575 48.565)" fill="#263238"></path><path id="Path_161650" data-name="Path 161650" d="M626.449,228.3c.175,0,.351,1.088.421,2.65v.333h-2.193a11.073,11.073,0,0,1-4.387-.456,11.072,11.072,0,0,1,4.387-.456h1.755l-.421.421C626.1,229.388,626.256,228.3,626.449,228.3Z" transform="translate(-515.043 47.621)" fill="#263238"></path><path id="Path_161651" data-name="Path 161651" d="M624,218.3a21.319,21.319,0,0,1,0,8.774,21.323,21.323,0,0,1,0-8.773Z" transform="translate(-512.59 40.074)" fill="#263238"></path><path id="Path_161652" data-name="Path 161652" d="M624,208.3a21.319,21.319,0,0,1,0,8.774A21.323,21.323,0,0,1,624,208.3Z" transform="translate(-512.59 32.527)" fill="#263238"></path><path id="Path_161653" data-name="Path 161653" d="M624,198.3a21.319,21.319,0,0,1,0,8.773,21.323,21.323,0,0,1,0-8.774Z" transform="translate(-512.59 24.98)" fill="#263238"></path><path id="Path_161654" data-name="Path 161654" d="M624,188.3a21.319,21.319,0,0,1,0,8.774A21.323,21.323,0,0,1,624,188.3Z" transform="translate(-512.59 17.433)" fill="#263238"></path><path id="Path_161655" data-name="Path 161655" d="M624,178.3a21.319,21.319,0,0,1,0,8.774,21.323,21.323,0,0,1,0-8.773Z" transform="translate(-512.59 9.886)" fill="#263238"></path><path id="Path_161656" data-name="Path 161656" d="M624,168.3a21.319,21.319,0,0,1,0,8.773A21.323,21.323,0,0,1,624,168.3Z" transform="translate(-512.59 2.339)" fill="#263238"></path><path id="Path_161657" data-name="Path 161657" d="M624,158.3a21.319,21.319,0,0,1,0,8.774,21.323,21.323,0,0,1,0-8.773Z" transform="translate(-512.59 -5.208)" fill="#263238"></path><path id="Path_161658" data-name="Path 161658" d="M624,148.3a21.319,21.319,0,0,1,0,8.774A21.323,21.323,0,0,1,624,148.3Z" transform="translate(-512.59 -12.755)" fill="#263238"></path><path id="Path_161659" data-name="Path 161659" d="M624,138.3a21.319,21.319,0,0,1,0,8.773,21.323,21.323,0,0,1,0-8.773Z" transform="translate(-512.59 -20.302)" fill="#263238"></path><path id="Path_161660" data-name="Path 161660" d="M624,128.3a21.319,21.319,0,0,1,0,8.774,21.323,21.323,0,0,1,0-8.773Z" transform="translate(-512.59 -27.849)" fill="#263238"></path></g><g id="freepik--Folder--inject-2" transform="translate(928.055 581.926)"><path id="Path_161661" data-name="Path 161661" d="M552.594,329.676a21.319,21.319,0,0,1-8.773,0A21.321,21.321,0,0,1,552.594,329.676Z" transform="translate(-543.82 -216.235)" fill="#263238"></path><path id="Path_161662" data-name="Path 161662" d="M562.594,329.676a21.32,21.32,0,0,1-8.774,0,21.322,21.322,0,0,1,8.774,0Z" transform="translate(-536.273 -216.235)" fill="#263238"></path><path id="Path_161663" data-name="Path 161663" d="M572.594,329.676a21.319,21.319,0,0,1-8.773,0A21.321,21.321,0,0,1,572.594,329.676Z" transform="translate(-528.726 -216.235)" fill="#263238"></path><path id="Path_161664" data-name="Path 161664" d="M582.594,329.676a21.319,21.319,0,0,1-8.773,0A21.321,21.321,0,0,1,582.594,329.676Z" transform="translate(-521.179 -216.235)" fill="#263238"></path><path id="Path_161665" data-name="Path 161665" d="M592.594,329.676a21.319,21.319,0,0,1-8.773,0A21.321,21.321,0,0,1,592.594,329.676Z" transform="translate(-513.632 -216.235)" fill="#263238"></path><path id="Path_161666" data-name="Path 161666" d="M602.594,329.676a21.319,21.319,0,0,1-8.774,0A21.321,21.321,0,0,1,602.594,329.676Z" transform="translate(-506.085 -216.235)" fill="#263238"></path><path id="Path_161667" data-name="Path 161667" d="M612.594,329.676a21.319,21.319,0,0,1-8.774,0A21.321,21.321,0,0,1,612.594,329.676Z" transform="translate(-498.538 -216.235)" fill="#263238"></path><path id="Path_161668" data-name="Path 161668" d="M622.594,329.676a21.319,21.319,0,0,1-8.773,0A21.321,21.321,0,0,1,622.594,329.676Z" transform="translate(-490.991 -216.235)" fill="#263238"></path><path id="Path_161669" data-name="Path 161669" d="M632.594,329.676a21.319,21.319,0,0,1-8.774,0A21.321,21.321,0,0,1,632.594,329.676Z" transform="translate(-483.444 -216.235)" fill="#263238"></path><path id="Path_161670" data-name="Path 161670" d="M642.594,329.676a21.319,21.319,0,0,1-8.774,0,21.322,21.322,0,0,1,8.774,0Z" transform="translate(-475.897 -216.235)" fill="#263238"></path><path id="Path_161671" data-name="Path 161671" d="M650.969,328.55c.158,0,.263.632.351,1.649v.316h-.386c-.737,0-1.755.088-2.737.088a10.723,10.723,0,0,1-4.387-.456,11.071,11.071,0,0,1,4.387-.456,21.193,21.193,0,0,1,2.737.105l-.351.351C650.688,329.182,650.829,328.55,650.969,328.55Z" transform="translate(-468.357 -216.74)" fill="#263238"></path><path id="Path_161672" data-name="Path 161672" d="M648.24,318.55a10.721,10.721,0,0,1,.421,4.387,10.9,10.9,0,0,1-.509,4.387,10.9,10.9,0,0,1-.4-4.387A11.072,11.072,0,0,1,648.24,318.55Z" transform="translate(-465.435 -224.287)" fill="#263238"></path><path id="Path_161673" data-name="Path 161673" d="M648.331,308.55a11.085,11.085,0,0,1,.421,4.387,10.9,10.9,0,0,1-.509,4.387,10.9,10.9,0,0,1-.4-4.387A11.072,11.072,0,0,1,648.331,308.55Z" transform="translate(-465.367 -231.834)" fill="#263238"></path><path id="Path_161674" data-name="Path 161674" d="M648.435,298.55a11.09,11.09,0,0,1,.421,4.387,11.265,11.265,0,0,1-.509,4.387,11.088,11.088,0,0,1-.421-4.387A11.267,11.267,0,0,1,648.435,298.55Z" transform="translate(-465.296 -239.381)" fill="#263238"></path><path id="Path_161675" data-name="Path 161675" d="M615.1,269.006,618.33,328.3a3.983,3.983,0,0,0,3.966,3.79l106.7.79a4.018,4.018,0,0,0,4.036-3.983l.333-46.149a4,4,0,0,0-4-4.036H663.742a4,4,0,0,1-2.825-1.176L649.6,266.216a3.965,3.965,0,0,0-2.808-1.176l-27.672-.211a4.018,4.018,0,0,0-4.018,4.176Z" transform="translate(-490.026 -264.83)" fill="#ed7d39"></path><rect id="Rectangle_21595" data-name="Rectangle 21595" width="116.6" height="69.662" transform="translate(126.818 6.048) rotate(0.42)" fill="#f5f5f5"></rect><path id="Path_161676" data-name="Path 161676" d="M610.8,273.03l8.37,72.715a2.544,2.544,0,0,0,2.544,2.281l113.617.842a2.562,2.562,0,0,0,2.579-2.369l6.264-72.61a2.579,2.579,0,0,0-2.562-2.79l-128.234-.93a2.579,2.579,0,0,0-2.579,2.86Z" transform="translate(-493.284 -260.8)" fill="#ed7d39"></path></g><g id="freepik--Device--inject-2" transform="translate(310.715 481.1)"><rect id="Rectangle_21596" data-name="Rectangle 21596" width="638.414" height="422.182" rx="14.57" transform="translate(26.777)" fill="#263238"></rect><path id="Path_161677" data-name="Path 161677" d="M192,430.18H883.757v5.7a31.234,31.234,0,0,1-31.234,31.234h-629.2a31.234,31.234,0,0,1-31.234-31.234v-5.7Z" transform="translate(-192 -39.214)" fill="#263238"></path><rect id="Rectangle_21597" data-name="Rectangle 21597" width="602.355" height="356.521" transform="translate(43.92 16.775)" fill="#455a64"></rect><path id="Path_161678" data-name="Path 161678" d="M353.31,430.18l8.581,13.652H482.667l7.984-13.652Z" transform="translate(-70.259 -39.214)" fill="#455a64"></path><rect id="Rectangle_21598" data-name="Rectangle 21598" width="578.789" height="343.308" rx="3.27" transform="translate(56.326 28.847)" fill="#ebebeb"></rect><rect id="Rectangle_21599" data-name="Rectangle 21599" width="578.789" height="318.163" transform="translate(56.326 54.01)" fill="#fafafa"></rect><path id="Path_161679" data-name="Path 161679" d="M255.135,233.362a4.615,4.615,0,1,1-1.345-3.275A4.632,4.632,0,0,1,255.135,233.362Z" transform="translate(-151.344 -191.25)" fill="#263238"></path><path id="Path_161680" data-name="Path 161680" d="M239.175,233.362a4.632,4.632,0,1,1-4.632-4.632A4.632,4.632,0,0,1,239.175,233.362Z" transform="translate(-163.389 -191.25)" fill="#263238"></path><path id="Path_161681" data-name="Path 161681" d="M246.835,233.362a4.615,4.615,0,1,1-1.345-3.275A4.632,4.632,0,0,1,246.835,233.362Z" transform="translate(-157.608 -191.25)" fill="#263238"></path><path id="Path_161682" data-name="Path 161682" d="M840.229,430.361c0,.228-141.692.421-316.443.421s-316.5-.193-316.5-.421,141.675-.421,316.5-.421S840.229,430.133,840.229,430.361Z" transform="translate(-180.461 -39.396)" fill="#455a64"></path><rect id="Rectangle_21600" data-name="Rectangle 21600" width="132.077" height="8.844" transform="translate(96.439 214.284)" fill="#e0e0e0"></rect><rect id="Rectangle_21601" data-name="Rectangle 21601" width="132.077" height="8.844" transform="translate(267.031 91.613)" fill="#e0e0e0"></rect><path id="Path_161683" data-name="Path 161683" d="M672.7,278.5c0,.228-73.54.421-164.258.421s-164.258-.193-164.258-.421,73.54-.4,164.258-.4S672.7,278.276,672.7,278.5Z" transform="translate(-77.149 -153.99)" fill="#e0e0e0"></path><path id="Path_161684" data-name="Path 161684" d="M672.7,289.511c0,.228-73.54.4-164.258.4s-164.258-.175-164.258-.4,73.54-.421,164.258-.421S672.7,289.283,672.7,289.511Z" transform="translate(-77.149 -145.696)" fill="#e0e0e0"></path><path id="Path_161685" data-name="Path 161685" d="M672.7,300.494c0,.228-73.54.421-164.258.421s-164.258-.193-164.258-.421,73.54-.4,164.258-.4S672.7,300.266,672.7,300.494Z" transform="translate(-77.149 -137.394)" fill="#e0e0e0"></path><path id="Path_161686" data-name="Path 161686" d="M672.7,311.5c0,.228-73.54.4-164.258.4s-164.258-.175-164.258-.4,73.54-.421,164.258-.421S672.7,311.273,672.7,311.5Z" transform="translate(-77.149 -129.1)" fill="#e0e0e0"></path><path id="Path_161687" data-name="Path 161687" d="M672.7,322.484c0,.228-73.54.421-164.258.421s-164.258-.193-164.258-.421,73.54-.4,164.258-.4S672.7,322.255,672.7,322.484Z" transform="translate(-77.149 -120.798)" fill="#e0e0e0"></path><path id="Path_161688" data-name="Path 161688" d="M472.414,333.491c0,.228-28.707.4-64.117.4s-64.117-.176-64.117-.4,28.707-.421,64.117-.421S472.414,333.263,472.414,333.491Z" transform="translate(-77.149 -112.504)" fill="#e0e0e0"></path><path id="Path_161689" data-name="Path 161689" d="M622.866,354.814c0,.228-48.342.421-107.949.421s-107.967-.193-107.967-.421,48.325-.4,107.967-.4S622.866,354.586,622.866,354.814Z" transform="translate(-29.776 -96.398)" fill="#e0e0e0"></path><path id="Path_161690" data-name="Path 161690" d="M622.866,366.5c0,.228-48.342.4-107.949.4s-107.967-.176-107.967-.4,48.325-.421,107.967-.421S622.866,366.273,622.866,366.5Z" transform="translate(-29.776 -87.591)" fill="#e0e0e0"></path><path id="Path_161691" data-name="Path 161691" d="M622.829,378.181c0,.228-48.342.4-107.949.4S407,378.392,407,378.181s48.325-.421,107.967-.421S622.829,377.935,622.829,378.181Z" transform="translate(-29.739 -78.776)" fill="#e0e0e0"></path><path id="Path_161692" data-name="Path 161692" d="M622.866,389.841c0,.228-48.342.4-107.949.4s-107.967-.175-107.967-.4,48.325-.421,107.967-.421S622.866,389.613,622.866,389.841Z" transform="translate(-29.776 -69.976)" fill="#e0e0e0"></path><path id="Path_161693" data-name="Path 161693" d="M377.785,353.711c0,.228-28.812.4-64.363.4s-64.363-.175-64.363-.4,28.812-.421,64.363-.421S377.785,353.483,377.785,353.711Z" transform="translate(-148.937 -97.244)" fill="#e0e0e0"></path><path id="Path_161694" data-name="Path 161694" d="M377.785,362.864c0,.228-28.812.421-64.363.421s-64.363-.193-64.363-.421,28.812-.4,64.363-.4S377.785,362.635,377.785,362.864Z" transform="translate(-148.937 -90.323)" fill="#e0e0e0"></path><path id="Path_161695" data-name="Path 161695" d="M377.785,372.041c0,.228-28.812.421-64.363.421s-64.363-.193-64.363-.421,28.812-.421,64.363-.421S377.785,371.813,377.785,372.041Z" transform="translate(-148.937 -83.41)" fill="#e0e0e0"></path><path id="Path_161696" data-name="Path 161696" d="M377.785,381.181c0,.228-28.812.4-64.363.4s-64.363-.175-64.363-.4,28.812-.421,64.363-.421S377.785,381.006,377.785,381.181Z" transform="translate(-148.937 -76.512)" fill="#e0e0e0"></path><path id="Path_161697" data-name="Path 161697" d="M377.785,390.364c0,.228-28.812.421-64.363.421s-64.363-.193-64.363-.421,28.812-.4,64.363-.4S377.785,390.136,377.785,390.364Z" transform="translate(-148.937 -69.569)" fill="#e0e0e0"></path><rect id="Rectangle_21602" data-name="Rectangle 21602" width="93.701" height="90.666" transform="translate(266.943 248.659)" fill="#f5f5f5"></rect><path id="Path_161698" data-name="Path 161698" d="M348.27,416.388,374.2,369.73l21.2,29.83,12.9-15.845,19.161,32.673Z" transform="translate(-74.062 -84.836)" fill="#ebebeb"></path><path id="Path_161699" data-name="Path 161699" d="M386.091,367.458a6.756,6.756,0,1,1-6.738-6.738,6.756,6.756,0,0,1,6.738,6.738Z" transform="translate(-55.716 -91.636)" fill="#ebebeb"></path><path id="Path_161700" data-name="Path 161700" d="M427.565,429.194a1.439,1.439,0,0,1,0-.386v-5.124c0-3.6,0-8.774-.105-15.406,0-13.248-.105-32.094-.193-54.747l.386.386H348.481l.439-.439h0v75.786l-.386-.4,57.238.211,16.143.088h.158l-16.055.088-57.484.211h-.4V353.566h0l.456-.456h79.558v.368c-.088,22.811-.158,41.692-.193,54.992,0,6.563-.088,11.739-.105,15.319v5.018a2.3,2.3,0,0,1-.281.386Z" transform="translate(-74.168 -97.379)" fill="#ebebeb"></path><rect id="Rectangle_21603" data-name="Rectangle 21603" width="127.093" height="122.97" transform="translate(98.93 76.523)" fill="#f5f5f5"></rect><path id="Path_161701" data-name="Path 161701" d="M253.99,342.275,289.154,279l28.76,40.446,17.477-21.478,25.987,44.306Z" transform="translate(-145.216 -153.311)" fill="#e0e0e0"></path><path id="Path_161702" data-name="Path 161702" d="M305.264,275.932a9.142,9.142,0,1,1-9.142-9.142A9.142,9.142,0,0,1,305.264,275.932Z" transform="translate(-120.318 -162.525)" fill="#e0e0e0"></path><path id="Path_161703" data-name="Path 161703" d="M361.579,359.649v-7.475c0-4.878-.088-11.932-.14-20.881,0-17.968-.158-43.534-.263-74.242l.509.509-107.37.088c-.14.123,1.141-1.141.6-.579h0V359.631l-.526-.526,77.646.263,21.9.14h.228l-21.776.14-78,.263h-.526V257.086h0c-.544.526.737-.772.614-.632l107.37.088h.526v.526c-.105,30.848-.193,56.537-.263,74.575,0,8.9-.105,15.915-.14,20.758v6.808A1.246,1.246,0,0,1,361.579,359.649Z" transform="translate(-145.417 -170.334)" fill="#e0e0e0"></path><path id="Path_161704" data-name="Path 161704" d="M339.259,277.61l6.282,12.722,14.038,2.035-10.16,9.914,2.386,13.985-12.546-6.6-12.564,6.6,2.4-13.985-10.16-9.914,14.038-2.035Z" transform="translate(-96.198 -154.36)" fill="#ed7d39"></path><path id="Path_161705" data-name="Path 161705" d="M364.46,252.41l6.282,12.722,14.038,2.035-10.16,9.914,2.4,13.985-12.564-6.615L351.9,291.066l2.4-13.985-10.16-9.914,14.038-2.035Z" transform="translate(-77.179 -173.378)" fill="#ed7d39"></path><path id="Path_161706" data-name="Path 161706" d="M398.139,242.52l6.282,12.722,14.038,2.035-10.16,9.9,2.4,13.985-12.564-6.6-12.564,6.6,2.4-13.985-10.16-9.9,14.038-2.035Z" transform="translate(-51.761 -180.842)" fill="#ed7d39"></path><path id="Path_161707" data-name="Path 161707" d="M433,252.65l6.282,12.722,14.038,2.035-10.16,9.9,2.4,13.985L433,284.691l-12.564,6.6,2.4-13.985-10.16-9.9,14.038-2.035Z" transform="translate(-25.452 -173.197)" fill="#ed7d39"></path><path id="Path_161708" data-name="Path 161708" d="M457.019,276.67l6.282,12.722,14.038,2.035-10.16,9.914,2.4,13.967-12.564-6.6-12.546,6.6,2.386-13.967-10.16-9.914,14.038-2.035Z" transform="translate(-7.324 -155.069)" fill="#ed7d39"></path><path id="Path_161709" data-name="Path 161709" d="M465.739,311.53l6.282,12.722,14.038,2.035-10.16,9.9,2.386,13.985-12.546-6.6-12.564,6.6,2.4-13.985-10.16-9.9,14.038-2.035Z" transform="translate(-0.743 -128.76)" fill="#ed7d39"></path><path id="Path_161710" data-name="Path 161710" d="M457.259,346.15l6.282,12.722,14.038,2.035-10.16,9.914,2.4,13.985-12.564-6.615L444.7,384.806l2.4-13.985-10.16-9.914,14.038-2.035Z" transform="translate(-7.143 -102.632)" fill="#ed7d39"></path><path id="Path_161711" data-name="Path 161711" d="M431.732,370.18l6.282,12.722,14.038,2.035-10.16,9.9,2.4,13.985-12.564-6.6-12.546,6.6,2.386-13.985-10.142-9.9,14.038-2.035Z" transform="translate(-26.395 -84.497)" fill="#ed7d39"></path><path id="Path_161712" data-name="Path 161712" d="M397.459,380.08l6.282,12.722,14.038,2.035-10.16,9.914,2.4,13.967-12.564-6.6-12.546,6.6,2.386-13.967-10.16-9.914,14.038-2.035Z" transform="translate(-52.274 -77.025)" fill="#ed7d39"></path><path id="Path_161713" data-name="Path 161713" d="M364.72,370.19,371,382.912l14.038,2.035-10.16,9.9,2.4,13.985-12.564-6.6-12.546,6.6,2.386-13.985-10.16-9.9,14.055-2.035Z" transform="translate(-76.983 -84.489)" fill="#ed7d39"></path><path id="Path_161714" data-name="Path 161714" d="M338.819,345.52l6.264,12.722,14.038,2.053-10.142,9.9,2.386,13.985-12.546-6.6-12.564,6.6,2.4-13.985-10.16-9.9,14.038-2.053Z" transform="translate(-96.53 -103.108)" fill="#ed7d39"></path><path id="Path_161715" data-name="Path 161715" d="M330.1,311.57l6.282,12.722,14.038,2.035-10.16,9.914,2.4,13.967-12.564-6.6-12.564,6.6,2.4-13.967-10.16-9.914,14.038-2.035Z" transform="translate(-103.111 -128.73)" fill="#ed7d39"></path><path id="Path_161716" data-name="Path 161716" d="M449.2,382.749H436.916V315.894a28.531,28.531,0,1,0-57.063,0v66.854H367.57V315.894a40.814,40.814,0,0,1,81.629,0Z" transform="translate(-59.497 -156.269)" fill="#263238"></path><rect id="Rectangle_21604" data-name="Rectangle 21604" width="110.02" height="70.592" rx="5.81" transform="translate(293.878 196.737)" fill="#ed7d39"></rect><path id="Path_161717" data-name="Path 161717" d="M403.979,338.315a9.195,9.195,0,1,1-9.195-9.195A9.195,9.195,0,0,1,403.979,338.315Z" transform="translate(-45.897 -115.485)" fill="#263238"></path><rect id="Rectangle_21605" data-name="Rectangle 21605" width="5.018" height="18.916" transform="translate(346.379 226.48)" fill="#263238"></rect><path id="Path_161718" data-name="Path 161718" d="M363.016,378.541c-.246,0-.456-11.774-.456-26.321s.211-26.321.456-26.321.456,11.774.456,26.321S363.332,378.541,363.016,378.541Z" transform="translate(-63.278 -117.915)" fill="#fafafa"></path><path id="Path_161719" data-name="Path 161719" d="M389.329,351.182a4.318,4.318,0,0,1-1.088-.614,11.071,11.071,0,0,1-2.369-2.422,12.9,12.9,0,0,1,4.58-19.3,11.091,11.091,0,0,1,3.211-1.088,3.017,3.017,0,0,1,1.228,0,30.24,30.24,0,0,0-4.124,1.755A12.757,12.757,0,0,0,386.4,347.9a27.383,27.383,0,0,0,2.93,3.281Z" transform="translate(-47.636 -116.561)" fill="#fafafa"></path></g><g id="freepik--Character--inject-2" transform="translate(89.148 630.075)"><path id="Path_161720" data-name="Path 161720" d="M170.641,303.261a19.425,19.425,0,0,0,.281,12.283,57.906,57.906,0,0,0,5.545,11.2,197.961,197.961,0,0,0,7.457-21.478,5.054,5.054,0,0,0-.4-4.773,4.422,4.422,0,0,0-3.509-.965,16.249,16.249,0,0,0-10.037,4.281" transform="translate(12.796 -286.837)" fill="#263238"></path><path id="Path_161721" data-name="Path 161721" d="M94.437,414.026,65.73,479.635h39.516L133.391,413.5Z" transform="translate(-65.73 -200.777)" fill="#263238"></path><path id="Path_161722" data-name="Path 161722" d="M257.5,478.3c38.726-12.827,12.178-64.047,12.178-64.047L100.406,430.165A24.566,24.566,0,0,0,75.84,454.643h0a24.566,24.566,0,0,0,24.566,24.566l157.257-.842" transform="translate(-58.1 -200.211)" fill="#455a64"></path><path id="Path_161723" data-name="Path 161723" d="M277.037,479.154C314.781,466.415,289.9,414.23,289.9,414.23L124.957,429.777c-16.108.211-23.987,7.984-23.987,24.443h0c0,13.511,5.018,24.917,23.934,24.566l152.2.386" transform="translate(-39.134 -200.226)" fill="#455a64"></path><path id="Path_161724" data-name="Path 161724" d="M239.947,419.17H238.1l-5.264.211-19.407.965L149.4,423.855c-3.141.158-6.229.421-9.265.474s-6.071.175-9.019.351-5.843.4-8.774.7a30.92,30.92,0,0,0-8.247,1.755,19.493,19.493,0,0,0-6.861,4.387,18.5,18.5,0,0,0-4.176,6.685,34.271,34.271,0,0,0-1.755,7.212,48.642,48.642,0,0,0-.456,6.826,28.935,28.935,0,0,0,2.176,11.493,18.775,18.775,0,0,0,5.141,7.019,13.932,13.932,0,0,0,4.668,2.65c1.158.368,1.193.246,0-.175a15.02,15.02,0,0,1-4.527-2.737,18.689,18.689,0,0,1-4.9-6.931,28.619,28.619,0,0,1-2.018-11.283,47.465,47.465,0,0,1,.509-6.72,32.5,32.5,0,0,1,1.755-7.019,17.214,17.214,0,0,1,4.018-6.37,18.668,18.668,0,0,1,6.615-4.194,30.811,30.811,0,0,1,8.072-1.632c2.808-.281,5.7-.509,8.651-.667s5.931-.3,8.984-.351,6.141-.3,9.265-.456l64.152-3.878,19.407-1.246,5.264-.386,1.369-.123a1.228,1.228,0,0,0,.491-.07Z" transform="translate(-39.226 -196.498)" fill="#263238"></path><path id="Path_161725" data-name="Path 161725" d="M210.912,437.421a4.089,4.089,0,0,1-1.334.667,14.215,14.215,0,0,1-4.018.825A15.669,15.669,0,0,1,188.785,421.7a13.44,13.44,0,0,1,.93-3.983,3.789,3.789,0,0,1,.684-1.316,29.971,29.971,0,0,0-.965,5.352,15.512,15.512,0,0,0,16.108,16.512,27.419,27.419,0,0,0,5.369-.842Z" transform="translate(27.079 -198.589)" fill="#263238"></path><path id="Path_161726" data-name="Path 161726" d="M185.187,369.25l-15.669,53.589L111.56,429.05v10.283l85.173,1.176,11.581-69.767Z" transform="translate(-31.142 -234.173)" fill="#ffbe9d"></path><path id="Path_161727" data-name="Path 161727" d="M230.635,337.562c10.283,0,38.13,5.264,40.569,24.039,2.211,16.95,5.51,36.182,5.51,36.182l-36.638.983,12.476,3.316,5.264,79.12-94.859-3.3,5.036-40.674,4.211-40.621h0l-20.723-1.755s7.019-35.392,19.46-46.324a50.361,50.361,0,0,1,27.3-11,286.939,286.939,0,0,1,32.392,0" transform="translate(-1.014 -258.46)" fill="#ed7d39"></path><path id="Path_161728" data-name="Path 161728" d="M168.365,356c.228,0-1.228,14.318-3.229,31.936s-3.808,31.883-4.036,31.848,1.228-14.318,3.246-31.936S168.154,356,168.365,356Z" transform="translate(6.228 -244.173)" fill="#263238"></path><path id="Path_161729" data-name="Path 161729" d="M214.6,337.42a3.215,3.215,0,0,0,.105.667,11.01,11.01,0,0,1,.105,1.913,21.285,21.285,0,0,1-1.035,7.019,20.476,20.476,0,0,1-5.369,9.125,15.793,15.793,0,0,1-5.492,3.4,21.828,21.828,0,0,1-6.9,1.088,37.907,37.907,0,0,1-7.019-.474,14.319,14.319,0,0,1-6.019-2.439,15.792,15.792,0,0,1-5.7-8.9,23.022,23.022,0,0,1-.79-7.019,14.86,14.86,0,0,1,.14-1.913,2.614,2.614,0,0,1,.123-.667,22.815,22.815,0,0,1,0,2.579,25.426,25.426,0,0,0,1,6.914,15.529,15.529,0,0,0,5.615,8.475,13.757,13.757,0,0,0,5.738,2.281,37.515,37.515,0,0,0,6.808.456,21.54,21.54,0,0,0,6.647-1.052,14.652,14.652,0,0,0,5.267-3.212,20.425,20.425,0,0,0,5.352-8.773,23.725,23.725,0,0,0,1.246-6.861C214.566,338.438,214.548,337.42,214.6,337.42Z" transform="translate(17.845 -258.195)" fill="#263238"></path><g id="Group_86000" data-name="Group 86000" transform="translate(194.842 111.827)" opacity="0.2"><path id="Path_161730" data-name="Path 161730" d="M219.462,356c-3.509,16.793-8.089,34.041-11.6,50.886a25.514,25.514,0,0,1-3.72,10.177,24.163,24.163,0,0,1-5.018,4.615A88.172,88.172,0,0,1,176.77,434.7a203.091,203.091,0,0,0,34.8-6.054,7.212,7.212,0,0,0,6.791-7.686c2.527-21.53,1.755-43.236,1.105-64.924" transform="translate(-176.77 -356)"></path></g><path id="Path_161731" data-name="Path 161731" d="M239.875,385.309a14.552,14.552,0,0,1-2.755.211l-7.528.281c-6.334.211-15.108.421-24.811.614H201.29v-.386c-.351-9-.193-17,0-22.811,0-2.86.193-5.176.3-6.773a14.193,14.193,0,0,1,.228-2.474,15.057,15.057,0,0,1,0,2.474q0,2.632,0,6.791c0,5.755-.105,13.757.263,22.706l-.4-.386H204.8c9.686-.193,18.46-.316,24.812-.368h7.528a17.883,17.883,0,0,1,2.737.123Z" transform="translate(36.42 -245.705)" fill="#263238"></path><path id="Path_161732" data-name="Path 161732" d="M70.328,375.992l32.374,63.7H204.791l-4.141-8.3-29.567-.895-24.11-53.659a9.265,9.265,0,0,0-8.475-5.475H73.206a3.229,3.229,0,0,0-2.878,4.632Z" transform="translate(-62.502 -232.58)" fill="#e0e0e0"></path><circle id="Ellipse_7878" data-name="Ellipse 7878" cx="3.913" cy="3.913" r="3.913" transform="translate(51.132 168.048)" fill="#263238"></circle><path id="Path_161733" data-name="Path 161733" d="M219.116,320.823l-3.65,51.8a16.161,16.161,0,0,1-16.108,15h0a16.161,16.161,0,0,1-16.126-17.2c.333-4.931.614-8.984.614-8.984s-12.511-1.948-12.686-14.476c0-5.913.7-17.547,1.579-28.584a24.706,24.706,0,0,1,24.566-22.724h0a23.215,23.215,0,0,1,21.811,25.162Z" transform="translate(13.838 -289.712)" fill="#ffbe9d"></path><path id="Path_161734" data-name="Path 161734" d="M178.365,335.52a29.111,29.111,0,0,0,16.354-4.65s-3.878,9.019-16.389,7.9Z" transform="translate(19.25 -263.138)" fill="#eb996e"></path><path id="Path_161735" data-name="Path 161735" d="M174.3,313.965a1.8,1.8,0,1,0,1.842-1.614,1.755,1.755,0,0,0-1.842,1.614Z" transform="translate(16.208 -277.117)" fill="#263238"></path><path id="Path_161736" data-name="Path 161736" d="M173.672,312.685c.228.228,1.579-.772,3.509-.772s3.334.965,3.509.737-.123-.526-.737-.983a5.018,5.018,0,0,0-2.843-.877,4.772,4.772,0,0,0-2.79.912C173.76,312.159,173.567,312.58,173.672,312.685Z" transform="translate(15.713 -278.293)" fill="#263238"></path><path id="Path_161737" data-name="Path 161737" d="M184.64,314.264a1.758,1.758,0,1,0,1.755-1.614A1.755,1.755,0,0,0,184.64,314.264Z" transform="translate(24.012 -276.889)" fill="#263238"></path><path id="Path_161738" data-name="Path 161738" d="M184.461,312.878c.228.228,1.6-.772,3.509-.755s3.334.965,3.509.719-.123-.526-.737-.965A4.843,4.843,0,0,0,187.9,311a4.7,4.7,0,0,0-2.79.895C184.567,312.351,184.356,312.755,184.461,312.878Z" transform="translate(23.857 -278.134)" fill="#263238"></path><path id="Path_161739" data-name="Path 161739" d="M182.571,327.108a13.142,13.142,0,0,0-3.123-.562c-.491,0-.965-.14-1.053-.474a2.579,2.579,0,0,1,.333-1.474l1.456-3.738a65.573,65.573,0,0,0,3.264-9.791,66.173,66.173,0,0,0-4.053,9.51c-.474,1.316-.948,2.562-1.386,3.755a2.773,2.773,0,0,0-.246,1.948,1.264,1.264,0,0,0,.807.719,3.79,3.79,0,0,0,.825.105,11.64,11.64,0,0,0,3.176,0Z" transform="translate(18.764 -278.082)" fill="#263238"></path><path id="Path_161740" data-name="Path 161740" d="M186.342,321c-.316,0-.316,2.071-2.106,3.509s-4.018,1.263-4.036,1.544.509.4,1.439.439a5.158,5.158,0,0,0,3.369-1.176,4.545,4.545,0,0,0,1.632-2.983C186.728,321.456,186.482,321,186.342,321Z" transform="translate(20.661 -270.587)" fill="#263238"></path><path id="Path_161741" data-name="Path 161741" d="M184.175,308.393c.193.526,2.123.281,4.369.544s4.088.895,4.387.421-.175-.719-.912-1.228a7.633,7.633,0,0,0-6.668-.737C184.508,307.727,184.087,308.148,184.175,308.393Z" transform="translate(23.652 -281.196)" fill="#263238"></path><path id="Path_161742" data-name="Path 161742" d="M174.087,309.539c.333.439,1.755,0,3.264,0s2.93.3,3.246-.175,0-.649-.667-1.07a4.7,4.7,0,0,0-5.264.158C174.122,308.873,173.964,309.329,174.087,309.539Z" transform="translate(16.018 -280.727)" fill="#263238"></path><path id="Path_161743" data-name="Path 161743" d="M196.269,316c.211-.105,8.616-2.544,8.335,6.019s-8.774,6.528-8.774,6.282S196.269,316,196.269,316Z" transform="translate(32.457 -274.661)" fill="#ffbe9d"></path><path id="Path_161744" data-name="Path 161744" d="M197.352,323.92a4.122,4.122,0,0,0,.4.228,1.439,1.439,0,0,0,1.105,0,3.667,3.667,0,0,0,1.755-3.246,5.263,5.263,0,0,0-.351-2.158,1.754,1.754,0,0,0-1.088-1.176.755.755,0,0,0-.895.368c-.123.246,0,.421-.123.421s-.175-.14,0-.491a.877.877,0,0,1,.351-.526,1.088,1.088,0,0,1,.825-.193,2.088,2.088,0,0,1,1.527,1.369,5.264,5.264,0,0,1,.439,2.422,3.93,3.93,0,0,1-2.3,3.632,1.755,1.755,0,0,1-1.369-.281C197.369,324.2,197.334,324.008,197.352,323.92Z" transform="translate(33.602 -273.507)" fill="#eb996e"></path><rect id="Rectangle_21606" data-name="Rectangle 21606" width="124.777" height="6.089" transform="translate(28.374 207.213)" fill="#263238"></rect><path id="Path_161745" data-name="Path 161745" d="M131.11,412.1l37.954,68.662h33.989l-33.515-65.626Z" transform="translate(-16.387 -201.834)" fill="#263238"></path><path id="Path_161746" data-name="Path 161746" d="M206.735,413.932c0,.246-27.97.6-62.467.772s-62.467.105-62.467-.14,27.97-.6,62.467-.772S206.735,413.687,206.735,413.932Z" transform="translate(-53.602 -200.63)" fill="#455a64"></path><path id="Path_161747" data-name="Path 161747" d="M173.085,315.362a8.545,8.545,0,0,0,7.019-.509,2.018,2.018,0,0,0,.351,3,5.089,5.089,0,0,0,3.3.719,25.391,25.391,0,0,0,16.652-7.107,5.545,5.545,0,0,0,3.825,4.773,11.212,11.212,0,0,0,6.4,0,24.409,24.409,0,0,0-.386,9.686,8.335,8.335,0,0,0,6.282,6.668,16.23,16.23,0,0,1,.4,5.071c.123,1.755,1.105,3.65,2.825,3.7s2.615-1.509,2.825-3-.684-4.527.386-6.931.7-2.141,1.842-4.755,1.755-6.229,2.7-8.949a12.792,12.792,0,0,0,.228-8.44,7.019,7.019,0,0,0-6.545-4.65,6.9,6.9,0,0,0-10.142-8.3s-9.756-6.633-20.548-2.965-12.406,13.459-14.757,13.757-9.475-3.509-8.247-1.123,3.264,4.79,4.281,4.9-8.159-3.773-5-.3a19.706,19.706,0,0,0,6.3,4.755Z" transform="translate(10.036 -292.27)" fill="#263238"></path><path id="Path_161748" data-name="Path 161748" d="M265.909,356.187a20.887,20.887,0,0,0-3.387-3.246,19.986,19.986,0,0,0-12.037-3.509c-5.422,0-11.634,2.334-17.74,6.071s-12.371,8.773-20.126,12.16a30.742,30.742,0,0,1-23.215.86,32.375,32.375,0,0,1-8.984-5.124c-2.544-1.965-4.79-3.948-7.019-5.545A21.5,21.5,0,0,0,161.75,353.1a15.214,15.214,0,0,0-4.65.614l.281-.14a7.473,7.473,0,0,1,.86-.333,11.739,11.739,0,0,1,3.509-.491,21.32,21.32,0,0,1,12.037,4.58c4.492,3.106,9.072,8.036,15.792,10.405a30.479,30.479,0,0,0,22.583-.895c7.58-3.3,13.792-8.405,20.056-12.055s12.581-6.106,18.161-6a19.863,19.863,0,0,1,12.283,3.913,13.283,13.283,0,0,1,2.509,2.492,5,5,0,0,1,.737,1Z" transform="translate(3.227 -249.624)" fill="#fafafa"></path><path id="Path_161749" data-name="Path 161749" d="M230.287,382.1s-.86-.562-2.421-1.456a24.759,24.759,0,0,0-7.107-2.737,23.88,23.88,0,0,0-11.16.193c-4.141,1.035-8.37,3.211-13.073,4.948A32.869,32.869,0,0,1,189.4,384.8a32.071,32.071,0,0,1-6.843.123,32.5,32.5,0,0,1-11.107-3.036,27.585,27.585,0,0,1-6.51-4.229,14.3,14.3,0,0,1-1.527-1.456c-.333-.333-.509-.526-.474-.562s.79.632,2.228,1.755a31.585,31.585,0,0,0,6.545,3.931,33.745,33.745,0,0,0,10.914,2.79,31.445,31.445,0,0,0,13.581-1.948,128.342,128.342,0,0,1,13.178-4.9,23.969,23.969,0,0,1,18.67,3.036,19.543,19.543,0,0,1,1.755,1.263A3.51,3.51,0,0,1,230.287,382.1Z" transform="translate(7.633 -229.351)" fill="#fafafa"></path><path id="Path_161750" data-name="Path 161750" d="M245.469,397.765a27.26,27.26,0,0,0-3.387-1.088,19.3,19.3,0,0,0-9.528.86,38.007,38.007,0,0,0-6.142,2.632c-2.141,1.123-4.369,2.456-6.773,3.755a39.764,39.764,0,0,1-7.949,3.422,19.3,19.3,0,0,1-9.317.386c-6.37-1.386-11.406-5.071-16.038-7.826a31.321,31.321,0,0,0-13.23-5.264,15.108,15.108,0,0,0-9.247,2,15.5,15.5,0,0,0-2.737,2.264,3.651,3.651,0,0,1,.526-.772,9.408,9.408,0,0,1,2.018-1.755,14.985,14.985,0,0,1,9.528-2.351c4.246.211,8.931,2.3,13.616,5.124s9.686,6.334,15.792,7.65a18.547,18.547,0,0,0,8.9-.351,40.358,40.358,0,0,0,7.791-3.3c2.4-1.263,4.65-2.579,6.826-3.7a38.2,38.2,0,0,1,6.317-2.562,18.372,18.372,0,0,1,9.774-.579,11.475,11.475,0,0,1,2.527.93C245.223,397.536,245.486,397.729,245.469,397.765Z" transform="translate(6.261 -215.521)" fill="#fafafa"></path><path id="Path_161751" data-name="Path 161751" d="M250.675,418.455a3,3,0,0,1-.877.368,12.455,12.455,0,0,1-2.72.456,24.566,24.566,0,0,1-9.879-2.07,57.746,57.746,0,0,0-6.563-2.123,26.442,26.442,0,0,0-7.808-.456c-5.545.474-11.388,2.579-17.547,4.369a54.8,54.8,0,0,1-9.335,1.913,41.617,41.617,0,0,1-8.9-.123,60.909,60.909,0,0,1-14.476-3.878,98.7,98.7,0,0,1-9.177-4.141c-1.07-.526-1.878-.983-2.422-1.281a4,4,0,0,1-.825-.509,3.016,3.016,0,0,1,.895.351l2.492,1.123c2.176.983,5.264,2.4,9.265,3.878a62.467,62.467,0,0,0,14.336,3.632,39.949,39.949,0,0,0,8.774,0,53.376,53.376,0,0,0,9.177-1.9c6.194-1.755,12.107-3.878,17.81-4.317a26.322,26.322,0,0,1,8.054.544,52.763,52.763,0,0,1,6.615,2.264,26.041,26.041,0,0,0,9.633,2.316,20.829,20.829,0,0,0,3.474-.421Z" transform="translate(5.529 -202.679)" fill="#fafafa"></path><path id="Path_161752" data-name="Path 161752" d="M237.441,367.7a5.071,5.071,0,0,1-1.07,1.123,14.036,14.036,0,0,1-3.615,2.211,15.791,15.791,0,0,1-6.194,1.211,17.549,17.549,0,0,1-7.475-1.983c-2.457-1.176-4.668-2.457-6.826-3.229a12.581,12.581,0,0,0-5.913-.649,7.633,7.633,0,0,0-3.685,1.527c-.737.632-1.053,1.088-1.123,1.035a3.194,3.194,0,0,1,.877-1.3,7.281,7.281,0,0,1,3.808-1.9,12.721,12.721,0,0,1,6.317.491,63.283,63.283,0,0,1,7.019,3.193,17.283,17.283,0,0,0,7.019,1.965,15.793,15.793,0,0,0,5.931-.965,28.336,28.336,0,0,0,4.931-2.737Z" transform="translate(36.766 -236.957)" fill="#fafafa"></path><path id="Path_161753" data-name="Path 161753" d="M171.958,368.086a1.461,1.461,0,0,1-.561.614,3.931,3.931,0,0,1-2.211.579,7.02,7.02,0,0,1-3.246-.93c-1.105-.614-2.158-1.474-3.3-2.211a8.931,8.931,0,0,0-6.563-1.316c-1.755.316-2.72.965-2.808.825a4.931,4.931,0,0,1,2.667-1.456,8.773,8.773,0,0,1,7.194,1.193c1.211.772,2.228,1.632,3.229,2.228a6.9,6.9,0,0,0,2.86,1.018A5.264,5.264,0,0,0,171.958,368.086Z" transform="translate(0.337 -238.221)" fill="#fafafa"></path><path id="Path_161754" data-name="Path 161754" d="M140.647,418.751l25.531-3.071,17.986,11.792,68.784-16.477,2.018-38.393,30.883-.772-.719,45.061a26.145,26.145,0,0,1-26.865,25.583l-100.755-2.79-4.281-8.581-21.618-.632Z" transform="translate(-16.01 -232.226)" fill="#ffbe9d"></path><path id="Path_161755" data-name="Path 161755" d="M252.435,394.15a10.781,10.781,0,0,1-1.3.386l-3.738.983-13.81,3.509-45.622,11.055-4.229,1h-.176l-.14-.105-17.986-11.827h.246L140.152,402.1h.158l-6.738,8.563c-.772.93-1.369,1.755-1.755,2.246a5.561,5.561,0,0,1-.667.755,5.934,5.934,0,0,1,.561-.842l1.755-2.334,6.563-8.773h.105l25.513-3.194h.263l18,11.757H183.6l4.246-1.018,45.622-10.827,13.88-3.194,3.773-.825a7.183,7.183,0,0,1,1.316-.263Z" transform="translate(-16.357 -215.381)" fill="#eb996e"></path><path id="Path_161756" data-name="Path 161756" d="M152.393,402.9a63.31,63.31,0,0,1-9.932.4H140.97a47.753,47.753,0,0,1-6.44,4.948,46.587,46.587,0,0,1,5.913-5.545l.123-.105h1.948A60.841,60.841,0,0,1,152.393,402.9Z" transform="translate(-13.806 -209.06)" fill="#eb996e"></path><path id="Path_161757" data-name="Path 161757" d="M212.607,401.858a14.985,14.985,0,0,0-11.9-7.492,4.3,4.3,0,0,1,2.211-.176,11.88,11.88,0,0,1,5.106,1.755,11.581,11.581,0,0,1,3.773,3.843,4.212,4.212,0,0,1,.807,2.071Z" transform="translate(36.14 -215.404)" fill="#eb996e"></path></g><g id="freepik--Icon--inject-2" transform="translate(152.768 -114.128) rotate(-17)"><path id="Path_161547" data-name="Path 161547" d="M22,11.037A11,11,0,1,1,11.055,0,11,11,0,0,1,22,11.037Z" transform="translate(59.062 98.108)" fill="#263238"></path><path id="Path_161548" data-name="Path 161548" d="M10.472,22.1a30.444,30.444,0,0,1,44.078-.579c5.615,5.65,14.406-3.053,8.774-8.774a42.973,42.973,0,0,0-61.573.491c-5.492,5.773,3.194,14.564,8.774,8.774Z" transform="translate(37.624 72.92)" fill="#263238"></path><path id="Path_161549" data-name="Path 161549" d="M10.755,36.045c16.7-14.459,36.673-23.548,59.028-23.6A87.63,87.63,0,0,1,130,35.483c5.79,5.44,14.6-3.246,8.774-8.774A100.4,100.4,0,0,0,69.819,0C44.095,0,21.248,10.531,2.034,27.183c-6.036,5.264,2.7,14.038,8.773,8.773Z" transform="translate(0 7.791)" fill="#263238"></path><path id="Path_161550" data-name="Path 161550" d="M10.417,32.545A60.485,60.485,0,0,1,99.31,31.265c5.562,5.72,14.336-2.983,8.774-8.774A72.838,72.838,0,0,0,1.7,23.684c-5.387,5.826,3.3,14.634,8.774,8.774Z" transform="translate(15.078 39.664)" fill="#263238"></path><path id="Path_161551" data-name="Path 161551" d="M22,11.037A11,11,0,1,1,11.055,0,11,11,0,0,1,22,11.037Z" transform="translate(59.29 90.335)" fill="#455a64"></path><path id="Path_161552" data-name="Path 161552" d="M10.472,22.11a30.462,30.462,0,0,1,44.078-.6c5.615,5.668,14.406-3.036,8.773-8.773a42.973,42.973,0,0,0-61.572.509C-3.741,19,4.944,27.812,10.524,22.022Z" transform="translate(37.852 65.05)" fill="#455a64"></path><path id="Path_161553" data-name="Path 161553" d="M10.66,35.975c16.722-14.459,36.691-23.548,59.046-23.6a87.56,87.56,0,0,1,60.221,23.039c5.79,5.44,14.6-3.246,8.774-8.773A100.317,100.317,0,0,0,69.829,0C44.1,0,21.241,10.531,2.027,27.184c-6.019,5.264,2.7,14.038,8.774,8.774Z" transform="translate(0.306)" fill="#455a64"></path><path id="Path_161554" data-name="Path 161554" d="M10.417,32.528A60.5,60.5,0,0,1,99.31,31.264c5.562,5.72,14.353-3,8.773-8.774A72.838,72.838,0,0,0,1.7,23.684C-3.691,29.51,5,38.318,10.47,32.458Z" transform="translate(15.288 31.803)" fill="#455a64"></path></g><g id="freepik--Icon--inject-2-2" data-name="freepik--Icon--inject-2" transform="translate(1030.965 80.317) rotate(8)"><path id="Path_161547-2" data-name="Path 161547" d="M18.716,9.388A9.358,9.358,0,1,1,9.4,0,9.358,9.358,0,0,1,18.716,9.388Z" transform="translate(50.236 83.448)" fill="#263238"></path><path id="Path_161548-2" data-name="Path 161548" d="M8.907,18.8A25.895,25.895,0,0,1,46.4,18.306c4.776,4.806,12.253-2.6,7.462-7.462a36.551,36.551,0,0,0-52.372.418c-4.671,4.91,2.716,12.388,7.462,7.462Z" transform="translate(32.001 62.023)" fill="#263238"></path><path id="Path_161549-2" data-name="Path 161549" d="M9.148,30.658c14.209-12.3,31.193-20.029,50.207-20.074a74.535,74.535,0,0,1,51.222,19.6C115.5,34.807,123,27.42,118.04,22.718A85.4,85.4,0,0,0,59.385,0C37.505,0,18.073,8.957,1.73,23.121c-5.134,4.477,2.3,11.94,7.462,7.462Z" transform="translate(0 6.627)" fill="#263238"></path><path id="Path_161550-2" data-name="Path 161550" d="M8.86,27.682a51.446,51.446,0,0,1,75.61-1.089c4.731,4.865,12.194-2.537,7.462-7.462a61.953,61.953,0,0,0-90.49,1.015C-3.139,25.1,4.249,32.592,8.905,27.607Z" transform="translate(12.825 33.737)" fill="#263238"></path><path id="Path_161551-2" data-name="Path 161551" d="M18.716,9.388A9.358,9.358,0,1,1,9.4,0a9.358,9.358,0,0,1,9.313,9.388Z" transform="translate(50.43 76.836)" fill="#455a64"></path><path id="Path_161552-2" data-name="Path 161552" d="M8.907,18.806A25.91,25.91,0,0,1,46.4,18.3c4.776,4.821,12.253-2.582,7.462-7.462a36.551,36.551,0,0,0-52.371.433c-4.672,4.9,2.716,12.388,7.462,7.462Z" transform="translate(32.195 55.329)" fill="#455a64"></path><path id="Path_161553-2" data-name="Path 161553" d="M9.067,30.6C23.291,18.3,40.275,10.57,59.29,10.525a74.475,74.475,0,0,1,51.222,19.6c4.925,4.627,12.418-2.761,7.462-7.462A85.326,85.326,0,0,0,59.394,0C37.514,0,18.067,8.958,1.724,23.121c-5.119,4.477,2.3,11.94,7.462,7.462Z" transform="translate(0.26)" fill="#455a64"></path><path id="Path_161554-2" data-name="Path 161554" d="M8.86,27.667a51.461,51.461,0,0,1,75.61-1.075c4.731,4.866,12.209-2.552,7.462-7.462a61.953,61.953,0,0,0-90.49,1.015C-3.139,25.1,4.249,32.592,8.905,27.607Z" transform="translate(13.004 27.05)" fill="#455a64"></path></g><g id="Group_86001" data-name="Group 86001" transform="translate(595.672 -32.834)"><g id="Group_53773" data-name="Group 53773"><g id="Group_53770" data-name="Group 53770"><g id="Group_53769" data-name="Group 53769"><path id="Path_93922" data-name="Path 93922" d="M566.031,152.342,492.122,125.8l-73.19,26.183c-9.346,4.413-17.54,7.055-17.54,15.758v43.339A163.775,163.775,0,0,0,425.5,297.332C439.153,319.49,460.294,342.3,492.84,356.8c29.914-9.717,52.247-35.622,65.9-57.78a163.774,163.774,0,0,0,24.108-86.251V173.8C582.849,161.386,576.274,155.328,566.031,152.342Z" transform="translate(-401.392 -125.801)" fill="#ed7d39"></path></g></g><g id="Group_53771" data-name="Group 53771" opacity="0.3" style="mix-blend-mode: color-burn;isolation: isolate"><path id="Path_93923" data-name="Path 93923" d="M492.84,331.653c-25.75-11.471-42.475-29.9-53.277-47.437a129.583,129.583,0,0,1-19.075-68.238v-30.4c0-6.886,4.155-13.335,12.4-17.185l59.243-22.154-.013-20.436-73.19,26.183c-7.684,3.357-17.54,7.055-17.54,15.758v43.339A163.775,163.775,0,0,0,425.5,297.332C439.153,319.49,460.294,342.3,492.84,356.8Z" transform="translate(-401.392 -125.801)" style="mix-blend-mode: color;isolation: isolate"></path></g><g id="Group_53772" data-name="Group 53772" transform="translate(90.73)" opacity="0.3" style="mix-blend-mode: color-burn;isolation: isolate"><path id="Path_93924" data-name="Path 93924" d="M429.517,356.8a89.258,89.258,0,0,0,14.52-6.224c12.269-6.684,22.737-15.864,30.726-24.174,8.935-9.293,15.593-19.334,21.373-28.716a157.629,157.629,0,0,0,23.389-87.082l.047-35.781c-.047-17.814-9.184-19.129-16.865-22.486L428.8,125.8l.013,20.436,59.935,22.512c8.247,3.85,12.4,10.3,12.4,17.185v30.4a129.582,129.582,0,0,1-19.076,68.238c-10.8,17.533-26.809,35.609-52.555,47.08Z" transform="translate(-428.798 -125.801)" style="mix-blend-mode: color-burn;isolation: isolate"></path></g></g><path id="Path_93925" data-name="Path 93925" d="M467.9,169.926l.083-5.85a19.188,19.188,0,0,0-38.376-.03l-.086,5.959a10.73,10.73,0,0,0-9.154,10.607v34.5A10.737,10.737,0,0,0,431.1,225.851h35.817a10.74,10.74,0,0,0,10.74-10.739v-34.5A10.735,10.735,0,0,0,467.9,169.926Zm-13.991,36.6h-9.366L446,199.761a5.705,5.705,0,1,1,6.188-.106C452.852,202.277,453.9,206.528,453.9,206.528Zm9.859-36.651h-30.11l.079-5.8a15.055,15.055,0,0,1,30.11-.03Z" transform="translate(-357.56 -81.699)" fill="#fff" opacity="0.5"></path><g id="Group_53774" data-name="Group 53774" transform="translate(29.318 48.786)"><path id="Path_93926" data-name="Path 93926" d="M412,179.558c-.162.023-.675-2.258-1.109-6.005a102.744,102.744,0,0,1-.6-14.712c.08-2.877.271-5.615.533-8.1a17.3,17.3,0,0,1,1.652-6.538,7.523,7.523,0,0,1,3.234-3.254c1-.467,1.629-.444,1.639-.374a8.383,8.383,0,0,0-4.059,4.039,18.018,18.018,0,0,0-1.281,6.237c-.192,2.463-.348,5.178-.427,8.025-.169,5.7.01,10.862.218,14.6S412.191,179.531,412,179.558Z" transform="translate(-410.248 -140.537)" fill="#fff"></path></g><g id="Group_53775" data-name="Group 53775" transform="translate(31.429 98.692)"><path id="Path_93927" data-name="Path 93927" d="M411.615,163.591c-.357.007-.682-1.775-.725-3.976s.212-4,.57-4,.679,1.771.722,3.976S411.973,163.584,411.615,163.591Z" transform="translate(-410.885 -155.612)" fill="#fff"></path></g></g></g></svg>