<svg xmlns="http://www.w3.org/2000/svg" xmlns:xlink="http://www.w3.org/1999/xlink" width="1149.106" height="740.255" viewBox="0 0 1149.106 740.255"><defs><linearGradient id="linear-gradient" y1="0.5" x2="1" y2="0.5" gradientUnits="objectBoundingBox"><stop offset="0" stop-color="#dae3fe"></stop><stop offset="1" stop-color="#e9effd"></stop></linearGradient><linearGradient id="linear-gradient-4" x1="200.258" y1="0.5" x2="201.258" y2="0.5" gradientUnits="objectBoundingBox"><stop offset="0"></stop><stop offset="1"></stop></linearGradient><linearGradient id="linear-gradient-5" x1="150.164" y1="0.5" x2="151.164" y2="0.5" gradientUnits="objectBoundingBox"><stop offset="0" stop-color="#ff928e"></stop><stop offset="1" stop-color="#feb3b1"></stop></linearGradient><linearGradient id="linear-gradient-6" x1="531.7" y1="-0.843" x2="531.193" y2="2.39" xlink:href="#linear-gradient-5"></linearGradient><linearGradient id="linear-gradient-8" x1="540.193" y1="-0.224" x2="539.678" y2="2.539" xlink:href="#linear-gradient-5"></linearGradient><linearGradient id="linear-gradient-9" x1="265.576" y1="-0.138" x2="263.823" y2="1.017" xlink:href="#linear-gradient-5"></linearGradient><linearGradient id="linear-gradient-10" x1="299.51" y1="0.257" x2="297.526" y2="2.087" xlink:href="#linear-gradient-5"></linearGradient><linearGradient id="linear-gradient-11" x1="225.366" y1="-0.222" x2="224.547" y2="2.966" xlink:href="#linear-gradient-5"></linearGradient><linearGradient id="linear-gradient-12" x1="74.868" y1="71.297" x2="73.796" y2="72.579" xlink:href="#linear-gradient-5"></linearGradient><linearGradient id="linear-gradient-13" x1="52.607" y1="47.632" x2="53.513" y2="47.632" gradientUnits="objectBoundingBox"><stop offset="0" stop-color="#09005d"></stop><stop offset="1" stop-color="#1a0f91"></stop></linearGradient><linearGradient id="linear-gradient-14" x1="209.608" y1="238.018" x2="212.066" y2="235.37" xlink:href="#linear-gradient-5"></linearGradient><linearGradient id="linear-gradient-15" x1="-11.501" y1="2.168" x2="-26.562" y2="4.266" gradientUnits="objectBoundingBox"><stop offset="0" stop-color="#4042e2"></stop><stop offset="1" stop-color="#4f52ff"></stop></linearGradient><linearGradient id="linear-gradient-16" x1="361.968" y1="-0.866" x2="361.045" y2="0.839" xlink:href="#linear-gradient-13"></linearGradient><linearGradient id="linear-gradient-17" x1="-113.259" y1="-5.931" x2="-112.131" y2="-5.931" xlink:href="#linear-gradient-5"></linearGradient><linearGradient id="linear-gradient-18" x1="-97.59" y1="-6.363" x2="-96.689" y2="-6.363" xlink:href="#linear-gradient-5"></linearGradient><linearGradient id="linear-gradient-19" x1="-28.729" y1="-2.592" x2="-27.735" y2="-2.592" xlink:href="#linear-gradient-5"></linearGradient><linearGradient id="linear-gradient-20" x1="0.142" y1="-0.265" x2="0.904" y2="1.436" xlink:href="#linear-gradient-5"></linearGradient><linearGradient id="linear-gradient-21" x1="0.961" y1="-2.955" x2="0.675" y2="-0.623" xlink:href="#linear-gradient-5"></linearGradient><linearGradient id="linear-gradient-22" x1="76.838" y1="66.717" x2="77.296" y2="65.792" xlink:href="#linear-gradient-5"></linearGradient><linearGradient id="linear-gradient-23" x1="311.733" y1="229.951" x2="313.618" y2="226.734" xlink:href="#linear-gradient-5"></linearGradient></defs><g id="Firewall_Auditing_Methodology" data-name="Firewall Auditing Methodology" transform="translate(-161.149 -124.819)"><path id="Path_162381" data-name="Path 162381" d="M1335.862,552.378c-19.323-21.184-42.173-41.844-48.131-70.6-10.311-49.77,33.779-92.206,48.212-140.814,9.98-33.61,4.831-71.878-13.617-101.2s-49.82-49.114-82.968-52.333c-57.035-5.539-112.853,35.139-169.036,23.358-44.986-9.432-80.535-51.043-126.2-55.5-53.737-5.245-98.323,41.7-149.638,59.382-61.379,21.144-127.925-.954-188.271-25.2s-123.837-51.3-187.446-39.7c-70.805,12.918-130.172,78.218-139.642,153.6-9.386,74.706,69.327,134.676,2.324,224.378-20.939,28.031-34.866,67.061-25.609,101.425,8.994,33.39,47.265,54.508,47.544,89.227.22,27.409-24.2,49.216-26.164,76.547-1.688,23.458,14.252,45.145,33.842,56.263s42.319,13.836,64.42,16.356l-6.515,7.412c111.318,10.576,223.329,8.221,335.073,5.858L1232.7,869.65c18.111-.383,36.661-.854,53.536-7.824s32.01-21.89,34.58-40.869c4.375-32.3-27.523-60.328-24.575-92.807,3.764-41.473,58.942-57.474,69.441-97.628C1373.1,602.145,1355.185,573.561,1335.862,552.378Z" transform="translate(-57.142 -22.171)" fill="#ebebeb"></path><g id="Group_86447" data-name="Group 86447" transform="translate(277.659 333.16)"><g id="Group_86446" data-name="Group 86446" transform="translate(40.94)"><path id="Path_162394" data-name="Path 162394" d="M1291.98,1017.435a14.448,14.448,0,0,1-14.412,14.4H498.2a14.448,14.448,0,0,1-14.413-14.4L477.3,569.555c0-7.919,9.33-23.38,26.429-22.218l761.682-19.708a36.319,36.319,0,0,1,37.267,37.146Z" transform="translate(-477.305 -527.617)" fill="#263238"></path><path id="Path_162395" data-name="Path 162395" d="M1294.239,1017.744a13.676,13.676,0,0,1-13.635,13.635H533.485a13.675,13.675,0,0,1-13.635-13.635l-6.12-406.589c.721-24.467,22.172-33.261,35.176-32.742l730-19.585a25.525,25.525,0,0,1,26.188,26.12Z" transform="translate(-493.792 -541.74)" fill="#f6f6f6"></path><g id="Group_86445" data-name="Group 86445" transform="translate(29.989 39.07)"><path id="Path_162396" data-name="Path 162396" d="M538.35,1013.631a1.1,1.1,0,0,1-1.1-1.085l-.484-32.974a1.1,1.1,0,0,1,1.085-1.118h.017a1.1,1.1,0,0,1,1.1,1.085l.484,32.974a1.1,1.1,0,0,1-1.085,1.118Z" transform="translate(-534.208 -770.753)" fill="#fff"></path><path id="Path_162397" data-name="Path 162397" d="M535.049,761.071a1.1,1.1,0,0,1-1.1-1.085L532.094,633.7c.038-8.434,2.637-15.171,7.723-20.046,9.254-8.867,23.734-8.424,24.347-8.4L797.287,599a1.084,1.084,0,0,1,1.131,1.072,1.1,1.1,0,0,1-1.072,1.13L564.16,607.455c-.651-.021-14.231-.443-22.819,7.787-4.639,4.445-7.009,10.65-7.044,18.443l1.854,126.269a1.1,1.1,0,0,1-1.085,1.118Z" transform="translate(-532.094 -598.996)" fill="#fff"></path></g><path id="Path_162398" data-name="Path 162398" d="M583.8,1020.452c.782-33.605.491-331.187-1.437-356.887s38.1-30.521,99.552-33.413,579.959-14.343,593.309-15.426c30.009-2.434,36.22,42.421,33.218,139.794-2.255,73.156-5.994,193.669-7.714,249.09a30.582,30.582,0,0,1-30.51,29.64c-124.774.343-602.994,1.713-634.829,2.661C598.754,1037,583.491,1033.777,583.8,1020.452Z" transform="translate(-524.828 -567.003)" fill="#f6f6f6"></path></g><rect id="Rectangle_21887" data-name="Rectangle 21887" width="918.841" height="39.352" rx="7.505" transform="translate(0 487.724)" fill="#263238"></rect></g><g id="Group_86448" data-name="Group 86448" transform="translate(408.089 515.795)" opacity="0.6"><rect id="Rectangle_21888" data-name="Rectangle 21888" width="34.053" height="147.357" transform="translate(0 119.376)" fill="#9a9fa2"></rect><rect id="Rectangle_21889" data-name="Rectangle 21889" width="34.053" height="96.713" transform="translate(56.9 170.02)" fill="#9a9fa2"></rect><rect id="Rectangle_21890" data-name="Rectangle 21890" width="34.053" height="221.876" transform="translate(113.799 44.856)" fill="#9a9fa2"></rect><rect id="Rectangle_21891" data-name="Rectangle 21891" width="34.053" height="53.303" transform="translate(170.699 213.43)" fill="#9a9fa2"></rect><rect id="Rectangle_21892" data-name="Rectangle 21892" width="34.053" height="192.213" transform="translate(227.598 74.52)" fill="#9a9fa2"></rect><rect id="Rectangle_21893" data-name="Rectangle 21893" width="34.053" height="158.933" transform="translate(284.498 107.8)" fill="#9a9fa2"></rect><rect id="Rectangle_21894" data-name="Rectangle 21894" width="34.053" height="122.758" transform="translate(341.397 143.975)" fill="#9a9fa2"></rect><rect id="Rectangle_21895" data-name="Rectangle 21895" width="34.053" height="266.733" transform="translate(398.297 0)" fill="#9a9fa2"></rect><rect id="Rectangle_21896" data-name="Rectangle 21896" width="34.053" height="238.517" transform="translate(455.197 28.216)" fill="#9a9fa2"></rect><rect id="Rectangle_21897" data-name="Rectangle 21897" width="34.053" height="195.831" transform="translate(512.096 70.902)" fill="#9a9fa2"></rect><rect id="Rectangle_21898" data-name="Rectangle 21898" width="34.053" height="48.356" transform="translate(568.996 218.376)" fill="#9a9fa2"></rect><rect id="Rectangle_21899" data-name="Rectangle 21899" width="34.053" height="142.292" transform="translate(625.896 124.44)" fill="#9a9fa2"></rect></g><g id="Group_86454" data-name="Group 86454" transform="translate(161.149 442.038)"><path id="Path_162399" data-name="Path 162399" d="M208.442,732.591l358.405-6.057c14.43-.244,26.012,12.132,25.154,26.879L579.665,965.564a21.853,21.853,0,0,1-21.376,20.818l-344.514,3.407a15.892,15.892,0,0,1-15.864-15.482l-8.243-221.419A19.363,19.363,0,0,1,208.442,732.591Z" transform="translate(-189.653 -726.531)" fill="#434343"></path><path id="Path_162400" data-name="Path 162400" d="M200.6,762.02a18.606,18.606,0,0,1,18.285-19.312l349.051-5.762a24.141,24.141,0,0,1,24.5,25.573L580.418,964.36A21.059,21.059,0,0,1,559.6,984.167l-335.523,3.241a15.313,15.313,0,0,1-15.45-14.729Z" transform="translate(-194.602 -731.244)" fill="#f2f2f2"></path><path id="Path_162401" data-name="Path 162401" d="M214.121,774.035a17.717,17.717,0,0,1,17.412-18.389l332.379-5.487A22.988,22.988,0,0,1,587.24,774.51L575.8,966.711a20.053,20.053,0,0,1-19.824,18.861l-319.5,3.087a14.582,14.582,0,0,1-14.712-14.026Z" transform="translate(-200.722 -737.224)" fill="#f2f2f2"></path><path id="Path_162402" data-name="Path 162402" d="M568.136,736.641l-350.514,5.786a18.683,18.683,0,0,0-18.361,19.393l.566,14.849H591.882l.854-14.349A24.242,24.242,0,0,0,568.136,736.641Z" transform="translate(-193.996 -731.105)" fill="#434343"></path><g id="Group_86449" data-name="Group 86449" transform="translate(28.343 15.347)" opacity="0.85"><path id="Path_162403" data-name="Path 162403" d="M247.74,757.722a3.153,3.153,0,1,1-3.153-3.153A3.152,3.152,0,0,1,247.74,757.722Z" transform="translate(-241.435 -754.569)" fill="url(#linear-gradient)"></path><path id="Path_162404" data-name="Path 162404" d="M247.74,774.6a3.153,3.153,0,1,1-3.153-3.152A3.153,3.153,0,0,1,247.74,774.6Z" transform="translate(-241.435 -762.208)" fill="url(#linear-gradient)"></path><path id="Path_162405" data-name="Path 162405" d="M247.74,791.475a3.153,3.153,0,1,1-3.153-3.153A3.152,3.152,0,0,1,247.74,791.475Z" transform="translate(-241.435 -769.847)" fill="url(#linear-gradient)"></path></g><circle id="Ellipse_7891" data-name="Ellipse 7891" cx="49.963" cy="49.963" r="49.963" transform="matrix(0.23, -0.973, 0.973, 0.23, 30.299, 161.744)" fill="#fde9de"></circle><circle id="Ellipse_7892" data-name="Ellipse 7892" cx="11.015" cy="11.015" r="11.015" transform="translate(79.39 113.582)" fill="#455a64"></circle><path id="Path_162406" data-name="Path 162406" d="M348.537,938.944A32.093,32.093,0,1,1,322,888.807q.814,0,1.619.04v-8.135c-.537-.021-1.076-.035-1.619-.035a40.222,40.222,0,1,0,33.128,63.035Z" transform="translate(-231.35 -796.303)" fill="#ed7d39"></path><g id="Group_86453" data-name="Group 86453" transform="translate(163.899 79.23)"><g id="Group_86450" data-name="Group 86450"><path id="Path_162407" data-name="Path 162407" d="M503.728,878.648a7.321,7.321,0,1,1-7.272-7.369A7.321,7.321,0,0,1,503.728,878.648Z" transform="translate(-489.087 -871.279)" fill="#455a64"></path><path id="Path_162408" data-name="Path 162408" d="M490.546,883.263a6.626,6.626,0,0,1,.1-.82Z" transform="translate(-489.747 -876.332)" fill="#455a64"></path></g><g id="Group_86451" data-name="Group 86451" transform="translate(0 44.381)"><path id="Path_162409" data-name="Path 162409" d="M503.728,959.73a7.321,7.321,0,1,1-7.272-7.369A7.321,7.321,0,0,1,503.728,959.73Z" transform="translate(-489.087 -952.361)" fill="#455a64"></path><path id="Path_162410" data-name="Path 162410" d="M490.546,964.346a6.607,6.607,0,0,1,.1-.82Z" transform="translate(-489.747 -957.415)" fill="#455a64"></path></g><g id="Group_86452" data-name="Group 86452" transform="translate(0 88.763)"><path id="Path_162411" data-name="Path 162411" d="M503.728,1040.812a7.321,7.321,0,1,1-7.272-7.369A7.321,7.321,0,0,1,503.728,1040.812Z" transform="translate(-489.087 -1033.443)" fill="#455a64"></path><path id="Path_162412" data-name="Path 162412" d="M490.546,1045.428a6.607,6.607,0,0,1,.1-.82Z" transform="translate(-489.747 -1038.497)" fill="#455a64"></path></g><path id="Path_162413" data-name="Path 162413" d="M536.41,878.66l.033,1.247c.091,3.376,2.2,6.054,4.776,6.067l142.451.3c2.66.014,4.821-2.813,4.817-6.3h0c0-3.42-2.093-6.209-4.7-6.278L541.3,872.149C538.548,872.076,536.312,875.052,536.41,878.66Z" transform="translate(-510.506 -871.672)" fill="#455a64"></path><path id="Path_162414" data-name="Path 162414" d="M536.41,959.347l.033,1.247c.091,3.375,2.2,6.054,4.776,6.066l142.451.3c2.66.013,4.821-2.813,4.817-6.3h0c0-3.421-2.093-6.209-4.7-6.278L541.3,952.836C538.548,952.763,536.312,955.738,536.41,959.347Z" transform="translate(-510.506 -908.194)" fill="#455a64"></path><path id="Path_162415" data-name="Path 162415" d="M536.41,1040.033l.033,1.247c.091,3.375,2.2,6.054,4.776,6.067l142.451.3c2.66.014,4.821-2.813,4.817-6.3h0c0-3.42-2.093-6.209-4.7-6.278L541.3,1033.522C538.548,1033.449,536.312,1036.425,536.41,1040.033Z" transform="translate(-510.506 -944.715)" fill="#455a64"></path></g><path id="Path_162416" data-name="Path 162416" d="M579.1,1118.785a8.833,8.833,0,0,0-8.94-9.766l-305.805,5.425a8.833,8.833,0,0,0-8.566,10.226l1.349,8.435a8.832,8.832,0,0,0,8.757,7.438l303.11-1.191a8.832,8.832,0,0,0,8.748-7.9Z" transform="translate(-219.54 -899.658)" fill="#455a64"></path></g><g id="Group_86456" data-name="Group 86456" transform="translate(167.946 564.336)"><path id="Path_162417" data-name="Path 162417" d="M290.663,1482.586a1.746,1.746,0,0,0-.047-.455c-2.268-8.991-13.523-14.591-13.523-14.591l-4.46.35c-2.564,7.924-2.235,12.784-1.823,14.949.012.061.03.118.046.177A105.868,105.868,0,0,0,290.663,1482.586Z" transform="translate(-233.057 -1184.237)" fill="url(#linear-gradient-4)"></path><path id="Path_162418" data-name="Path 162418" d="M271.127,1495.458a1.935,1.935,0,0,0,1.415,1.43c5.233,1.1,13.552.214,17.044-.242a1.624,1.624,0,0,0,1.347-1.618A105.847,105.847,0,0,1,271.127,1495.458Z" transform="translate(-233.328 -1196.679)" fill="#263238"></path><path id="Path_162419" data-name="Path 162419" d="M230.867,1204.261a41.545,41.545,0,0,1-9.665,7.065,80.254,80.254,0,0,0,17.666,15.709l2.185,4.9,7-8.392S235.491,1217.3,230.867,1204.261Z" transform="translate(-210.73 -1065.067)" fill="url(#linear-gradient-5)"></path><path id="Path_162420" data-name="Path 162420" d="M271.1,1456.042l1.889,9.094a1.486,1.486,0,0,0,1.27,1.223,12.6,12.6,0,0,0,2.927-.046,1.869,1.869,0,0,0,1.481-2.2l-1.313-8.075Z" transform="translate(-233.315 -1179.032)" fill="url(#linear-gradient-6)"></path><path id="Path_162421" data-name="Path 162421" d="M335.332,1494.608c-4.926-.138-7.474-.718-8.791-1.257,0,.49,0,.989.015,1.5a.972.972,0,0,0,.928.989l27.046-.175a1.235,1.235,0,0,0,.993-1.8C351.978,1494.165,342.947,1494.821,335.332,1494.608Z" transform="translate(-258.41 -1195.919)" fill="#263238"></path><path id="Path_162422" data-name="Path 162422" d="M355.525,1483.345a1.251,1.251,0,0,0-.107-.2c-2.389-3.338-8.472-9.983-20.493-12.866l-5.766-.182s-2.568,4.463-2.616,12.73c1.317.539,3.865,1.119,8.791,1.257C342.948,1484.293,351.979,1483.638,355.525,1483.345Z" transform="translate(-258.411 -1185.392)" fill="url(#linear-gradient-4)"></path><path id="Path_162423" data-name="Path 162423" d="M329.368,1452.969c.064.43.854,6.963,1.16,9.5a1.255,1.255,0,0,0,1.059,1.134,13.211,13.211,0,0,0,3.961-.061,1.706,1.706,0,0,0,1.293-1.712v-10.255Z" transform="translate(-259.69 -1177.008)" fill="url(#linear-gradient-8)"></path><path id="Path_162424" data-name="Path 162424" d="M290.613,1236.3s13.91,52.86,13.658,119.38a2.575,2.575,0,0,1-2.043,2.51,30.007,30.007,0,0,1-6.448.746,2.39,2.39,0,0,1-2.276-2c-1.951-11.437-13.143-75.869-19.52-86.329,0,0-4.2,57.385-2.855,87.158a1.41,1.41,0,0,1-1.245,1.467,23.691,23.691,0,0,1-5.176-.014,1.888,1.888,0,0,1-1.683-1.6c-1.389-9.679-9.385-67.3-9.045-108.8.019-2.34,6.19-12.518,6.19-12.518Z" transform="translate(-225.562 -1079.57)" fill="#1a2d59"></path><path id="Path_162425" data-name="Path 162425" d="M312.605,1028.342c-6.106,11.364-16.241,22.961-32.731,26.069-15.223,2.869-42.559,6.415-53.547,7.8a13.458,13.458,0,0,0-8.5,4.565c-8.636,9.994-27.585,37.354-5.281,64.924a41.545,41.545,0,0,0,9.665-7.065c-2.467-6.956-2.669-15.845,2.5-26.746a25.369,25.369,0,0,0,.661,2.561,158.594,158.594,0,0,1,7.492,45.7,1.429,1.429,0,0,0,.9,1.336c9.381,3.759,27.438,1.522,33.5.619a2.04,2.04,0,0,0,1.706-2.314c-2.975-21.553,12.293-57.009,16.326-65.89a5.881,5.881,0,0,1,2.929-2.931c23.061-10.432,33.086-26.491,37.151-40.958C321.854,1031.3,316.4,1029.234,312.605,1028.342Z" transform="translate(-202.071 -985.439)" fill="#ed7d39"></path><path id="Path_162426" data-name="Path 162426" d="M416.775,1015.3a70.014,70.014,0,0,0,1.095-32.728h-5.254a85.065,85.065,0,0,1-8.606,25.056C407.81,1008.514,413.26,1010.576,416.775,1015.3Z" transform="translate(-293.476 -964.72)" fill="url(#linear-gradient-9)"></path><path id="Path_162427" data-name="Path 162427" d="M418.216,970.6s-8-10.36-5.4-15.756,11.508-4.873,11.508-4.873l1.25,4.229a5.319,5.319,0,0,1-.126,3.388L420.526,970.6Z" transform="translate(-297.227 -949.962)" fill="url(#linear-gradient-10)"></path><path id="Path_162428" data-name="Path 162428" d="M274.513,1051.9l-1.808,18.471s10.391,3.13,17.949-2.2l-5.313-16.788Z" transform="translate(-234.042 -995.87)" fill="url(#linear-gradient-11)"></path><g id="Group_86455" data-name="Group 86455" transform="translate(31.999 25.832)"><path id="Path_162429" data-name="Path 162429" d="M286.673,1013.228c.25.235,10.555,20.472,10.555,20.472l-11.68,5.638-12.616-17.729S282.486,1009.287,286.673,1013.228Z" transform="translate(-266.145 -1004.079)" fill="url(#linear-gradient-12)"></path><path id="Path_162430" data-name="Path 162430" d="M272.487,1015.177a1.866,1.866,0,0,0,.14,1.636l5.825,9.711a1.824,1.824,0,0,0,.32.4c.694.645,3.066,2.523,4.9-.033,1.563-2.178,3.03-4.159,4.6-4.976a1.862,1.862,0,0,1,2.514.828,69.51,69.51,0,0,1,3.986,9.457,1.854,1.854,0,0,1-1.079,2.274,51.7,51.7,0,0,1-11.187,3.263,1.862,1.862,0,0,1-1.761-.749c-1.784-2.444-6.814-9.277-8.531-10.987-1.6-1.589-4.538-.99-5.864-.609a1.871,1.871,0,0,1-1.488-.2c-1.345-.81-3.694-2.829-1.546-6.246a1.865,1.865,0,0,0-.576-2.533c-1.5-.988-3.133-2.844-1.58-5.847a5.811,5.811,0,0,1,6.292-3.08,1.935,1.935,0,0,0,2.03-1.129,1.231,1.231,0,0,1,.961-.758,1.808,1.808,0,0,0,1.463-2.123,4.772,4.772,0,0,1,2.665-5.467c5.04-2.771,9.454,1.744,10.576,5.555s-4.512,6.5-8.056,6.954C274.489,1010.851,273.061,1013.692,272.487,1015.177Z" transform="translate(-260.532 -997.156)" fill="url(#linear-gradient-13)"></path><path id="Path_162431" data-name="Path 162431" d="M278.843,1051.137s-2.241-6.557-5.109-6.316-5.126,3.1-1.571,6.31C276.584,1055.127,278.843,1051.137,278.843,1051.137Z" transform="translate(-264.971 -1018.728)" fill="url(#linear-gradient-14)"></path></g><path id="Path_162432" data-name="Path 162432" d="M239.511,1133.321c-3.781-10.347-2.409-22.842-2.4-22.967l1.042.119c-.014.123-1.356,12.377,2.339,22.487Z" transform="translate(-217.819 -1022.561)" fill="url(#linear-gradient-15)"></path><path id="Path_162433" data-name="Path 162433" d="M280.791,1287.626a.525.525,0,0,1-.507-.393c-1.153-4.448-9.791-9.338-9.878-9.387a.524.524,0,1,1,.513-.915c.372.209,9.115,5.158,10.38,10.038a.525.525,0,0,1-.509.656Z" transform="translate(-232.881 -1097.93)" fill="url(#linear-gradient-16)"></path></g><g id="Group_86458" data-name="Group 86458" transform="translate(491.591 213.699)"><path id="Path_162434" data-name="Path 162434" d="M1276.785,445.031A45.982,45.982,0,0,0,1250.6,406.5l-195.137-92.678a46.033,46.033,0,0,0-39.5,0L820.827,406.5a45.98,45.98,0,0,0-26.186,38.532c-18.3,282.932,163.109,386.021,222.578,412.062a46.089,46.089,0,0,0,36.988,0C1113.676,831.052,1295.089,727.963,1276.785,445.031Z" transform="translate(-793.35 -309.37)" fill="#0d0d0d"></path><path id="Path_162435" data-name="Path 162435" d="M1126.016,366.143a2.754,2.754,0,0,1-1.184-5.242L1170.94,339a2.754,2.754,0,1,1,2.364,4.975l-46.108,21.9A2.745,2.745,0,0,1,1126.016,366.143Z" transform="translate(-942.679 -322.662)" fill="#4e4e4e"></path><path id="Path_162436" data-name="Path 162436" d="M820.445,543.938a2.754,2.754,0,0,1-2.751-2.661c-.617-18.405-.293-37.59.964-57.022a32.827,32.827,0,0,1,18.7-27.491l131.271-62.346a2.754,2.754,0,0,1,2.363,4.976L839.718,461.739a27.318,27.318,0,0,0-15.564,22.872c-1.245,19.252-1.567,38.255-.955,56.481a2.754,2.754,0,0,1-2.66,2.845Z" transform="translate(-804.232 -347.745)" fill="#4e4e4e"></path><path id="Path_162437" data-name="Path 162437" d="M1269.079,496.727a11.494,11.494,0,0,0-6.542-9.8l-182.42-86.638a11.475,11.475,0,0,0-9.844,0L887.854,486.931a11.494,11.494,0,0,0-6.542,9.8c-5.395,105.543,18.984,193.6,72.509,261.857a323.6,323.6,0,0,0,116.519,92.932,11.5,11.5,0,0,0,9.71,0,323.607,323.607,0,0,0,116.519-92.932C1250.1,690.33,1274.474,602.268,1269.079,496.727Z" transform="translate(-832.833 -350.023)" fill="#f6ba96"></path><g id="Group_86457" data-name="Group 86457" transform="translate(154.202 126.78)"><path id="Path_162438" data-name="Path 162438" d="M1122.56,674.308h-18.181V601.856a56.4,56.4,0,0,1,49.552-55.938L1191.1,541.4a56.349,56.349,0,0,1,63.148,55.938V660.59H1236.07V597.338a38.169,38.169,0,0,0-42.774-37.89l-37.173,4.517a38.2,38.2,0,0,0-33.564,37.89Z" transform="translate(-1088.335 -540.989)" fill="#ed7d39"></path><path id="Path_162439" data-name="Path 162439" d="M1085.737,747.521l159.372-8.829a11.294,11.294,0,0,1,11.918,11.276V876.224a11.294,11.294,0,0,1-11.294,11.294H1090.191a11.294,11.294,0,0,1-11.288-10.926l-3.829-117.426A11.294,11.294,0,0,1,1085.737,747.521Z" transform="translate(-1075.068 -630.468)" fill="#ed7d39"></path><path id="Path_162440" data-name="Path 162440" d="M1245.343,876.71l-9.646-27.732a9.287,9.287,0,0,1,2.11-9.575,26.261,26.261,0,1,0-35.227,1.96,9.36,9.36,0,0,1,3.041,10.342l-8.7,25.005a9.358,9.358,0,0,0,8.839,12.432H1236.5A9.358,9.358,0,0,0,1245.343,876.71Z" transform="translate(-1128.381 -655.83)" fill="#a23d00"></path></g></g><g id="Group_86461" data-name="Group 86461" transform="translate(922.944 512.219)"><path id="Path_162441" data-name="Path 162441" d="M1728.052,937.783s6.766,3.291,8.01,7.071c1,3.034,8.479,3.424,9.218,9.39a6.846,6.846,0,0,0,5.729,6.017c7.641,1.171,19.416,5.139,21.3,18.4,1.438,10.125-3.724,13.965-9.142,15.294a7.673,7.673,0,0,0-5.818,8.863c.772,3.853-.379,8.307-7.054,11.829-14.958,7.893-29.9-18.7-29.9-18.7l-3.062-46.43Z" transform="translate(-1642.934 -892.332)" fill="#0d0d0d"></path><path id="Path_162442" data-name="Path 162442" d="M1605.652,893.049s19.247,52.469,52.043,68.868c0,0-10.916,17.81-16.612,18.891,0,0-35.034-44.84-38.605-81.576Z" transform="translate(-1590.944 -872.084)" fill="#feb3b1"></path><path id="Path_162443" data-name="Path 162443" d="M1849.222,1467.144l.968,7.958a3.287,3.287,0,0,0,2.883,2.876,50.885,50.885,0,0,0,10.65.167,2.814,2.814,0,0,0,2.363-3.65c-.976-3.072-2.762-7.683-5.338-10.4h-8.827A2.719,2.719,0,0,0,1849.222,1467.144Z" transform="translate(-1702.621 -1130.561)" fill="#0d0d0d"></path><path id="Path_162444" data-name="Path 162444" d="M1717.446,1299.368l-1.49,8.764s4.989,50.537,5.876,70.752a15.836,15.836,0,0,1-2.344,9l-8.676,14.088,22.049-13.011.439-2.69-3.61-4.963,4.728-56.614a17.374,17.374,0,0,0-1.977-9.608l-4.561-8.567Z" transform="translate(-1639.981 -1055.999)" fill="#feb3b1"></path><path id="Path_162445" data-name="Path 162445" d="M1706.622,1473.255h7.036a4.237,4.237,0,0,0,3.362-1.649c2.193-2.85,6.738-8.411,8.911-8.556,2.925-.2,2.551,10.2,2.551,10.2h1.64l2.077-12.923a7.65,7.65,0,0,0-4.014-8h0s-.669,4.946-4.3,7.133-14.755,10.021-14.755,10.021a10.052,10.052,0,0,0-2.86.076A1.861,1.861,0,0,0,1706.622,1473.255Z" transform="translate(-1637.241 -1125.237)" fill="#0d0d0d"></path><path id="Path_162446" data-name="Path 162446" d="M1778.1,1303.961s29.229,55.444,33.875,68.1a121.622,121.622,0,0,1,6.336,24.219c.1,1.563,2.041,3.061,7.4,3.061,2.765,0,4.119-1.108,4.782-2.181a3.122,3.122,0,0,0,.118-3.025c-1.691-3.422-7.056-14.357-9.043-19.316-2.372-5.922-7.476-32.757-10.275-42.087s-5.962-19.451-18.151-28.774C1793.143,1303.961,1784.777,1295.766,1778.1,1303.961Z" transform="translate(-1670.439 -1056.429)" fill="#feb3b1"></path><path id="Path_162447" data-name="Path 162447" d="M1710.365,1085.717c-7.54-31.948,11.56-50.018,11.56-50.018-12.052-11.568-34.01-16.833-34.01-16.833s-20.953,15.319-18.468,27.309c1.457,7.028,14.728,42.093,14.728,42.093S1696.447,1094.076,1710.365,1085.717Z" transform="translate(-1621.165 -929.033)" fill="#1a2d59"></path><path id="Path_162448" data-name="Path 162448" d="M1738.172,1156.816c-3.068-9.244-16.716-15.817-16.716-15.817-13.918,8.359-26.19,2.551-26.19,2.551s-2.752,10.519-.852,20.3,13.816,72.6,13.816,72.6c18.778,3.8,47.657-3.828,47.657-3.828C1743.927,1211.385,1741.24,1166.06,1738.172,1156.816Z" transform="translate(-1632.255 -984.315)" fill="#1a2d59"></path><path id="Path_162449" data-name="Path 162449" d="M1718.584,978.124l6.13,27.534c.587,2.425-1.624,2.029-4.076,1.567-4.015-.757-9.191-2.316-10.922-5.441a2.971,2.971,0,0,1-.314-1.037l-2.633-19.093a3.431,3.431,0,0,1,2.008-3.6l5.082-2.253A3.43,3.43,0,0,1,1718.584,978.124Z" transform="translate(-1638.136 -909.403)" fill="#f7a29f"></path><path id="Path_162450" data-name="Path 162450" d="M1757.376,1049.619s42.784,30.61,5.472,62.774a9.642,9.642,0,0,1-4.221,2.446c-1.413.422-5.593,3.585-7.712,5.233a1.452,1.452,0,0,1-2.124-.381h0a1.986,1.986,0,0,1-.112-1.9l5.3-11.2a4.086,4.086,0,0,1,5.306-.229h0a2.016,2.016,0,0,0,3.056-.692c2.884-5.875,8.33-23.152-13.961-42.676a2.414,2.414,0,0,1-.536-2.936C1749.407,1057.047,1752.989,1051.072,1757.376,1049.619Z" transform="translate(-1656.615 -942.953)" fill="#feb3b1"></path><g id="Group_86459" data-name="Group 86459" transform="translate(58.713 32.719)"><path id="Path_162451" data-name="Path 162451" d="M1703.216,932.039s-7.26,3.066-12.2,13.557-1.25,15.335,3.38,16,11.555.564,18.88-6.213S1712.653,928.406,1703.216,932.039Z" transform="translate(-1688.672 -922.255)" fill="#feb3b1"></path><path id="Path_162452" data-name="Path 162452" d="M1714.015,942.049s5.478-15.349-8.13-15.53l-3.2,2.238s-4.993-8.51,3.2-12.572,17.786-.707,21.274,10.334,4.083,18.431-1.719,23.713-8.193-.707-8.193-.707,3.159-4.941,1.873-7.584-4.252.547-4.252.547Z" transform="translate(-1694.332 -914.522)" fill="#0d0d0d"></path><path id="Path_162453" data-name="Path 162453" d="M1727.421,963.388s2.769-7.906,6.463-4.758-3,7.3-5.624,8.649Z" transform="translate(-1706.211 -934.152)" fill="#f7a29f"></path></g><g id="Group_86460" data-name="Group 86460"><path id="Path_162454" data-name="Path 162454" d="M1594.267,885.262c-.293.934,3.107,2.355,5.109-1.463.07-1.83,1.183-9.669.089-11.16-5.823-7.939-17.114-17.892-17.114-17.892a2.687,2.687,0,0,0-.336,3.732l5.477,5.706c-1.146,2.07-2.543,3.818-3.2,6.322a7.673,7.673,0,0,0,.765,5.649c.961,1.732,2.273,3.984,3.513,5.746A7.579,7.579,0,0,0,1594.267,885.262Z" transform="translate(-1581.407 -854.747)" fill="#feb3b1"></path><path id="Path_162455" data-name="Path 162455" d="M1597.1,891.688c-.412-2.3-1.668-8.566-2.535-9.977a3.23,3.23,0,0,1-.61-2.545,2.364,2.364,0,0,1,1.329-1.447l.327-.166,5.381,4.562,1.618,4.348-1.032.384-1.517-4.078-4.584-3.885a1.089,1.089,0,0,0-.461.58,2.3,2.3,0,0,0,.488,1.671c1.153,1.876,2.62,10.013,2.681,10.359Z" transform="translate(-1587.052 -865.07)" fill="#feb3b1"></path></g></g><g id="Group_86470" data-name="Group 86470" transform="translate(1010.819 611.638)"><g id="Group_86464" data-name="Group 86464" transform="translate(114.995 153.872)"><g id="Group_86462" data-name="Group 86462" transform="translate(34.804 17.343)"><rect id="Rectangle_21900" data-name="Rectangle 21900" width="6.735" height="75.918" fill="#7d97f4"></rect></g><g id="Group_86463" data-name="Group 86463" transform="translate(8.678 90.155)"><path id="Path_162456" data-name="Path 162456" d="M2026.88,1486.775h-58.988v-3.007a1.563,1.563,0,0,1,1.563-1.563h55.74a1.685,1.685,0,0,1,1.685,1.684Z" transform="translate(-1967.892 -1482.205)" fill="#7d97f4"></path></g><path id="Rectangle_21901" data-name="Rectangle 21901" d="M11.177,0H67.643A11.177,11.177,0,0,1,78.82,11.177v0A11.177,11.177,0,0,1,67.643,22.354H11.177A11.177,11.177,0,0,1,0,11.177v0A11.177,11.177,0,0,1,11.177,0Z" fill="#7d97f4"></path></g><g id="Group_86466" data-name="Group 86466" transform="translate(53.374)"><path id="Path_162457" data-name="Path 162457" d="M1895.688,1440.415s-21.773,9.378-20.526,19.193c0,0,22.507-4.317,26.535-10.749s1.808-10.16,1.808-10.16Z" transform="translate(-1855.597 -1218.485)" fill="#0d0d0d"></path><path id="Path_162458" data-name="Path 162458" d="M1914.7,1422.253l1.106,9.555a3.161,3.161,0,0,1-2,3.357,8.241,8.241,0,0,1-2.759.421,3.68,3.68,0,0,1-3.575-2.684l-2.142-7.729Z" transform="translate(-1869.274 -1211.04)" fill="url(#linear-gradient-17)"></path><path id="Path_162459" data-name="Path 162459" d="M1952.635,1288.288s-40.047-1.853-59.974,9.767,1.01,67.4,1.01,67.4,5.206,1.119,12.7-2.887c0,0-10.7-40.829,7.884-47.933,20.889-7.985,42.495-6.043,42.495-6.043l-4-19.039Z" transform="translate(-1859.647 -1150.354)" fill="#0d0d0d"></path><path id="Path_162460" data-name="Path 162460" d="M1876.532,1463.639c4.553-1,18.057-6.593,20.108-6.518s4.957,3.148,4.957,3.148a5.457,5.457,0,0,1-.967,4.091c-3.479,2.713-10.974,7.694-19.688,8.24-6.41.4-10.266-2.15-12.472-4.623A17.826,17.826,0,0,1,1876.532,1463.639Z" transform="translate(-1852.591 -1226.823)" fill="#0d0d0d"></path><path id="Path_162461" data-name="Path 162461" d="M1879.331,1478.588c8.714-.546,16.209-5.527,19.688-8.24-.991,1.63-2.879,3.593-6.43,5.6-8.805,4.975-23.36,4.25-26.245,3.13-2.312-.9-1.6-3.056.515-5.112C1869.065,1476.438,1872.922,1478.989,1879.331,1478.588Z" transform="translate(-1850.98 -1232.81)" fill="#91b3fa"></path><path id="Path_162462" data-name="Path 162462" d="M1927.532,1449.507c-.3,1.128-3.487,4.515-5.331,6.4a3.631,3.631,0,0,1-3.374,1.015,9.332,9.332,0,0,1-2.414-.847,2.355,2.355,0,0,1-.911-3.2l4.663-8.481Z" transform="translate(-1873.745 -1221.062)" fill="url(#linear-gradient-18)"></path><path id="Path_162463" data-name="Path 162463" d="M2007.788,1282.241s3.5,24.8-6.612,29.867-32.275,8.387-39.911,21.249-21.349,38.107-33.829,45.361c0,0-7.127-2.318-9.21-5.823,0,0,14.813-38.94,20.992-48.406,5.352-8.2,13.178-20.006,24.3-25.113,3.183-1.462,3.433-4.839,2.872-8.3l-1.02-6.3Z" transform="translate(-1875.113 -1147.666)" fill="#1f1f1f"></path><path id="Path_162464" data-name="Path 162464" d="M1908.238,1200.449c14.17,4.044,20.512-35.834,20.455-36.8l21.725,25.4s-12.945,22.779-32.491,25.2a23.071,23.071,0,0,1-12.681-1.859A20.306,20.306,0,0,0,1908.238,1200.449Z" transform="translate(-1869.237 -1093.985)" fill="#ed7d39"></path><path id="Path_162465" data-name="Path 162465" d="M1852.22,1206.448c6.176-2.538,11.415,2.527,11.415,2.527,6.12,6.264,10.973,9.426,14.826,10.526a20.305,20.305,0,0,1-2.992,11.941c-7.635-3.5-12.085-10.568-13.918-14.1a2.651,2.651,0,0,0-3.5-1.185c-1.309.633-2.659,1.6-2.743,2.91-.167,2.587-3.245,2.739-3.263,1.784s2.384-6.064,2.384-6.064-7.1,4.552-9.858,6.293-5.115-1.133-5.115-1.133S1846.044,1208.986,1852.22,1206.448Z" transform="translate(-1839.46 -1113.037)" fill="url(#linear-gradient-19)"></path><path id="Path_162466" data-name="Path 162466" d="M2015.53,1130.7s-19.042-12.991-65.031,10.5c0,0-4.736,6-2.517,12.772s29.524,43.4,30.585,60.593c0,0,18.666,10.987,42.9.095C2021.463,1214.667,2029.589,1169.261,2015.53,1130.7Z" transform="translate(-1888.313 -1077.453)" fill="#ed7d39"></path><path id="Path_162467" data-name="Path 162467" d="M1987.036,1103.323l7.525,14.745a4.194,4.194,0,0,1-.434,4.521c-2.072,2.6-6.4,6.086-13.781,3.836a6.467,6.467,0,0,1-4.406-4.69l-3.9-16.459Z" transform="translate(-1899.47 -1066.681)" fill="url(#linear-gradient-20)"></path><path id="Path_162468" data-name="Path 162468" d="M2079.118,1185.156c1.289-8.964-22.4-26.336-22.4-26.336l8.3-25.154s45.2,32.254,35.692,58.595a18.407,18.407,0,0,1-5.873,8.476C2090.051,1190.921,2083.56,1186.842,2079.118,1185.156Z" transform="translate(-1937.801 -1080.416)" fill="#ed7d39"></path><path id="Path_162469" data-name="Path 162469" d="M2020.66,1230.222s26.793,7.483,32.352-.673a4.244,4.244,0,0,0,.692-1.815c4.441,1.687,10.932,5.765,15.719,15.581-12.721,10.008-37.25-1.21-43.914-4.573a4.707,4.707,0,0,0-3.529-.3c-2.37.74-6.478,1.888-8.767,1.763-3.348-.184-6.942,11.915-12.639,8.852C2000.573,1249.062,2003.163,1228.391,2020.66,1230.222Z" transform="translate(-1912.386 -1122.994)" fill="url(#linear-gradient-21)"></path><g id="Group_86465" data-name="Group 86465" transform="translate(62.443)"><path id="Path_162470" data-name="Path 162470" d="M1962.954,1061.575s-7.014,11.661-8.232,18.105-3.171,10.473,4.164,12.77,14.152-.61,18.43-6.626c0,0,6.681-9.258,6.014-13.5S1962.954,1061.575,1962.954,1061.575Z" transform="translate(-1953.54 -1047.784)" fill="url(#linear-gradient-22)"></path><path id="Path_162471" data-name="Path 162471" d="M1977.913,1069.432l-.948-.125s4.967-7.505,1.717-9.367-16.494-6.43-18.794-11.646c-2.218-5.028,1.1-10.709,5.1-11.894a.509.509,0,0,1,.611.322l.235.633a.515.515,0,0,0,.953.027h0a.512.512,0,0,1,.932-.02c.709,1.563,2.833,4.232,9.2,6.3,9.037,2.93,14.667,7.485,13.974,13.906a.514.514,0,0,0,.734.522c.738-.326,1.858-.378,3.159,1.045,2.262,2.474.49,7.884-5.687,11.713a.511.511,0,0,0-.084.82c.924.792,2.224,2.556-1.955,4.128-4.275,1.609-6.608,1.064-7.47.719a.515.515,0,0,1-.316-.579l1.1-5.627a.515.515,0,0,0-.438-.608Z" transform="translate(-1956.091 -1036.38)" fill="#0d0d0d"></path><path id="Path_162472" data-name="Path 162472" d="M1992.7,1094.312s3.1-7.631,6.346-4.948-3,8.61-5.892,8.531Z" transform="translate(-1971.264 -1060.104)" fill="url(#linear-gradient-23)"></path></g></g><g id="Group_86467" data-name="Group 86467" transform="translate(4.26 67.455)"><path id="Path_162473" data-name="Path 162473" d="M1920.571,1258.758c-.048,0-.1,0-.144,0l-62.595-.068a2.8,2.8,0,1,1,.006-5.6l62.595.068a2.8,2.8,0,0,1,.138,5.6Z" transform="translate(-1797.396 -1201.926)" fill="#263238"></path><path id="Path_162474" data-name="Path 162474" d="M1753.9,1159.617h52.129a9.936,9.936,0,0,1,8.987,5.7l24.1,51.1h-64.783a6.038,6.038,0,0,1-5.615-3.819l-18.688-47.287A4.163,4.163,0,0,1,1753.9,1159.617Z" transform="translate(-1749.732 -1159.617)" fill="#263238"></path><path id="Path_162475" data-name="Path 162475" d="M1817.559,1203.167c1.13,3.51.295,6.918-1.864,7.613s-4.825-1.587-5.955-5.1-.3-6.918,1.864-7.613S1816.429,1199.657,1817.559,1203.167Z" transform="translate(-1776.666 -1176.966)" fill="#263238"></path></g><g id="Group_86469" data-name="Group 86469" transform="translate(0 123.692)"><g id="Group_86468" data-name="Group 86468" transform="translate(14.249 5.751)"><path id="Path_162476" data-name="Path 162476" d="M1770.61,1392.02a2.9,2.9,0,0,1-1.038-.192,2.26,2.26,0,0,1-1.377-3.084l55.166-114.458a2.759,2.759,0,0,1,3.455-1.229,2.26,2.26,0,0,1,1.377,3.084L1773.028,1390.6A2.659,2.659,0,0,1,1770.61,1392.02Z" transform="translate(-1767.981 -1272.865)" fill="#7d97f4"></path><path id="Path_162477" data-name="Path 162477" d="M1838.527,1392.02a2.659,2.659,0,0,1-2.418-1.421l-55.166-114.458a2.26,2.26,0,0,1,1.377-3.084,2.759,2.759,0,0,1,3.456,1.229l55.166,114.458a2.261,2.261,0,0,1-1.377,3.084A2.905,2.905,0,0,1,1838.527,1392.02Z" transform="translate(-1773.751 -1272.865)" fill="#7d97f4"></path><path id="Path_162478" data-name="Path 162478" d="M2082.582,1392.02a2.908,2.908,0,0,1-1.038-.192,2.26,2.26,0,0,1-1.377-3.084l55.165-114.458a2.76,2.76,0,0,1,3.456-1.229,2.26,2.26,0,0,1,1.377,3.084L2085,1390.6A2.661,2.661,0,0,1,2082.582,1392.02Z" transform="translate(-1909.191 -1272.865)" fill="#7d97f4"></path><path id="Path_162479" data-name="Path 162479" d="M2150.5,1392.02a2.66,2.66,0,0,1-2.418-1.421l-55.165-114.458a2.26,2.26,0,0,1,1.377-3.084,2.759,2.759,0,0,1,3.456,1.229l55.166,114.458a2.261,2.261,0,0,1-1.377,3.084A2.9,2.9,0,0,1,2150.5,1392.02Z" transform="translate(-1914.961 -1272.865)" fill="#7d97f4"></path></g><path id="Path_162480" data-name="Path 162480" d="M1998.206,1265.754a3.174,3.174,0,0,0-.523-2.359,2.37,2.37,0,0,0-1.915-1.038H1744.805a2.789,2.789,0,0,0-2.406,1.515,3.716,3.716,0,0,0-.187,3.147l2.72,6.769a3.814,3.814,0,0,0,3.457,2.543h245.659a3.021,3.021,0,0,0,2.83-2.686Z" transform="translate(-1741.949 -1262.358)" fill="#bdd0fb"></path></g></g><g id="Group_86471" data-name="Group 86471" transform="translate(916.458 217.155)"><path id="Path_162481" data-name="Path 162481" d="M1758.488,316.682l-179.443-1a9.419,9.419,0,0,0-8.128,14.267l.9,1.5a9.419,9.419,0,0,0,8.076,4.57h178.542a9.419,9.419,0,0,0,9.419-9.419v-.5A9.419,9.419,0,0,0,1758.488,316.682Z" transform="translate(-1569.558 -315.683)" fill="#8f8f8f"></path><path id="Path_162482" data-name="Path 162482" d="M1960.516,327.31v.292a9.419,9.419,0,0,0,9.419,9.419h39.834a9.419,9.419,0,0,0,9.1-6.988h0a9.419,9.419,0,0,0-9.031-11.85L1970,317.891A9.419,9.419,0,0,0,1960.516,327.31Z" transform="translate(-1746.52 -316.682)" fill="#8f8f8f"></path></g><g id="Group_86472" data-name="Group 86472" transform="translate(916.458 250.966)"><path id="Path_162483" data-name="Path 162483" d="M1715.323,378.453l-136.278-1a9.419,9.419,0,0,0-8.128,14.267l.9,1.5a9.419,9.419,0,0,0,8.076,4.57H1715.27a9.419,9.419,0,0,0,9.419-9.419v-.5A9.419,9.419,0,0,0,1715.323,378.453Z" transform="translate(-1569.558 -377.454)" fill="#8f8f8f"></path><path id="Path_162484" data-name="Path 162484" d="M1881.656,389.081v.292a9.419,9.419,0,0,0,9.419,9.419h39.834a9.419,9.419,0,0,0,9.1-6.988h0a9.419,9.419,0,0,0-9.031-11.85l-39.834-.292A9.419,9.419,0,0,0,1881.656,389.081Z" transform="translate(-1710.825 -378.453)" fill="#8f8f8f"></path></g><path id="Path_162485" data-name="Path 162485" d="M1262.382,836.418a2.2,2.2,0,0,1-1.831-3.425q.905-1.358,1.788-2.733a2.2,2.2,0,1,1,3.708,2.38q-.9,1.407-1.83,2.8A2.2,2.2,0,0,1,1262.382,836.418Zm5.845-9.333a2.2,2.2,0,0,1-1.9-3.32q.827-1.407,1.63-2.83a2.2,2.2,0,1,1,3.837,2.166q-.823,1.457-1.668,2.9A2.2,2.2,0,0,1,1268.226,827.085Zm5.307-9.651a2.2,2.2,0,0,1-1.958-3.21q.745-1.452,1.466-2.919A2.2,2.2,0,1,1,1277,813.25q-.737,1.5-1.5,2.987A2.2,2.2,0,0,1,1273.534,817.435Zm4.743-9.941a2.2,2.2,0,0,1-2.014-3.094q.661-1.5,1.294-3a2.2,2.2,0,0,1,4.061,1.711q-.649,1.54-1.324,3.07A2.2,2.2,0,0,1,1278.277,807.493Zm4.153-10.2a2.2,2.2,0,0,1-2.065-2.972q.571-1.531,1.113-3.072a2.2,2.2,0,0,1,4.156,1.465q-.556,1.576-1.14,3.144A2.2,2.2,0,0,1,1282.43,797.291Zm-547.907-4.164a2.2,2.2,0,0,1,0-4.406q1.637,0,3.272-.025h.034a2.2,2.2,0,0,1,.032,4.406Q736.192,793.127,734.523,793.127Zm-7.7-.134-.078,0q-1.664-.057-3.328-.139a2.2,2.2,0,1,1,.215-4.4q1.634.08,3.266.137a2.2,2.2,0,0,1-.074,4.4Zm18.708-.131a2.2,2.2,0,0,1-.1-4.4q1.636-.075,3.27-.17a2.2,2.2,0,0,1,.256,4.4q-1.659.1-3.323.173Zm-29.692-.519c-.062,0-.124,0-.186-.008q-1.661-.139-3.321-.3a2.2,2.2,0,1,1,.432-4.385q1.627.161,3.254.3a2.2,2.2,0,0,1-.18,4.4Zm40.667-.208a2.2,2.2,0,0,1-.188-4.4q1.631-.141,3.26-.3a2.2,2.2,0,1,1,.431,4.385q-1.654.163-3.309.307C756.633,792.133,756.569,792.136,756.505,792.136Zm-51.61-.973a2.284,2.284,0,0,1-.291-.019q-1.653-.219-3.3-.461a2.2,2.2,0,0,1,.641-4.359q1.618.238,3.239.452a2.2,2.2,0,0,1-.285,4.388Zm62.549-.193a2.2,2.2,0,0,1-.274-4.389q1.626-.206,3.248-.429a2.2,2.2,0,0,1,.6,4.365q-1.648.227-3.3.436A2.3,2.3,0,0,1,767.444,790.97Zm-73.427-1.511a2.205,2.205,0,0,1-.4-.036q-1.641-.3-3.279-.618a2.2,2.2,0,1,1,.848-4.323q1.606.314,3.216.606a2.2,2.2,0,0,1-.39,4.371Zm84.319-.078a2.2,2.2,0,0,1-.357-4.377q1.618-.268,3.231-.553a2.2,2.2,0,1,1,.767,4.34q-1.638.288-3.279.56A2.2,2.2,0,0,1,778.336,789.381Zm10.827-2a2.2,2.2,0,0,1-.436-4.362q1.609-.327,3.211-.672a2.2,2.2,0,0,1,.925,4.308q-1.627.35-3.258.681A2.261,2.261,0,0,1,789.163,787.384Zm-105.935-.145a2.212,2.212,0,0,1-.5-.057q-1.626-.374-3.246-.773a2.2,2.2,0,1,1,1.051-4.279q1.59.391,3.185.759a2.2,2.2,0,0,1-.493,4.35Zm602.734-.381a2.2,2.2,0,0,1-2.108-2.846q.475-1.562.922-3.131a2.2,2.2,0,0,1,4.238,1.2q-.457,1.609-.945,3.21A2.2,2.2,0,0,1,1285.962,786.858ZM799.917,785a2.2,2.2,0,0,1-.513-4.346q1.6-.383,3.187-.783a2.2,2.2,0,1,1,1.075,4.273q-1.613.406-3.232.8A2.214,2.214,0,0,1,799.917,785Zm-127.365-.49a2.216,2.216,0,0,1-.6-.083q-1.607-.453-3.208-.928A2.2,2.2,0,0,1,670,779.274q1.57.466,3.146.91a2.2,2.2,0,0,1-.6,4.324Zm138.032-2.269a2.2,2.2,0,0,1-.586-4.327q1.583-.438,3.162-.891a2.2,2.2,0,0,1,1.216,4.235q-1.6.46-3.2.9A2.207,2.207,0,0,1,810.585,782.239Zm-148.568-.971a2.187,2.187,0,0,1-.7-.114q-1.585-.529-3.16-1.082a2.2,2.2,0,0,1,1.457-4.159q1.546.543,3.1,1.061a2.2,2.2,0,0,1-.7,4.294Zm159.14-2.139a2.2,2.2,0,0,1-.655-4.307q1.568-.49,3.133-.993a2.2,2.2,0,1,1,1.35,4.194q-1.584.51-3.171,1A2.194,2.194,0,0,1,821.157,779.13Zm-169.51-1.609a2.194,2.194,0,0,1-.8-.151q-1.558-.606-3.107-1.236a2.2,2.2,0,0,1,1.66-4.081q1.517.617,3.044,1.211a2.2,2.2,0,0,1-.8,4.256Zm637.194-1.3a2.2,2.2,0,0,1-2.146-2.711q.376-1.588.722-3.183a2.2,2.2,0,0,1,4.306.933q-.355,1.635-.74,3.265A2.2,2.2,0,0,1,1288.841,776.225Zm-457.212-.537a2.2,2.2,0,0,1-.721-4.285q1.553-.538,3.1-1.089a2.2,2.2,0,1,1,1.476,4.151q-1.567.558-3.138,1.1A2.2,2.2,0,0,1,831.629,775.688Zm-190.158-2.421a2.191,2.191,0,0,1-.9-.193q-1.526-.683-3.042-1.389a2.2,2.2,0,0,1,1.861-3.994q1.484.691,2.981,1.362a2.2,2.2,0,0,1-.9,4.215Zm200.522-1.334a2.2,2.2,0,0,1-.781-4.265q1.538-.581,3.071-1.177a2.2,2.2,0,1,1,1.6,4.107q-1.551.6-3.106,1.191A2.2,2.2,0,0,1,841.994,771.933Zm-210.472-3.427a2.189,2.189,0,0,1-1-.241q-1.491-.761-2.968-1.544a2.2,2.2,0,1,1,2.065-3.893q1.447.768,2.908,1.513a2.2,2.2,0,0,1-1,4.165Zm220.726-.621a2.2,2.2,0,0,1-.839-4.242q1.521-.624,3.039-1.263a2.2,2.2,0,0,1,1.707,4.062q-1.534.644-3.071,1.277A2.206,2.206,0,0,1,852.248,767.885Zm438.783-2.454a2.234,2.234,0,0,1-.37-.031,2.2,2.2,0,0,1-1.806-2.539q.271-1.608.51-3.22a2.2,2.2,0,0,1,4.359.643q-.245,1.658-.524,3.31A2.2,2.2,0,0,1,1291.031,765.431Zm-428.642-1.869a2.2,2.2,0,0,1-.891-4.219Q863,758.678,864.5,758a2.2,2.2,0,1,1,1.81,4.017q-1.516.683-3.036,1.355A2.192,2.192,0,0,1,862.388,763.562Zm-240.558-.325a2.19,2.19,0,0,1-1.1-.3q-1.45-.839-2.883-1.7a2.2,2.2,0,1,1,2.268-3.778q1.4.843,2.823,1.664a2.2,2.2,0,0,1-1.106,4.111Zm250.587-4.256a2.2,2.2,0,0,1-.942-4.2q1.489-.7,2.973-1.416a2.2,2.2,0,1,1,1.908,3.972q-1.5.72-3,1.429A2.194,2.194,0,0,1,872.417,758.981Zm-259.982-1.526a2.2,2.2,0,0,1-1.2-.359q-1.4-.916-2.787-1.855a2.2,2.2,0,0,1,2.471-3.648q1.356.918,2.728,1.815a2.2,2.2,0,0,1-1.208,4.047Zm680.061-2.941a2.162,2.162,0,0,1-.221-.011,2.2,2.2,0,0,1-1.974-2.411q.161-1.621.288-3.246a2.2,2.2,0,1,1,4.393.344q-.131,1.672-.3,3.338A2.2,2.2,0,0,1,1292.495,754.514Zm-410.166-.354a2.2,2.2,0,0,1-.989-4.174q1.472-.737,2.939-1.484a2.2,2.2,0,1,1,2,3.926q-1.481.754-2.966,1.5A2.2,2.2,0,0,1,882.329,754.159Zm-278.956-3a2.194,2.194,0,0,1-1.305-.429q-1.349-.994-2.678-2.01a2.2,2.2,0,0,1,2.674-3.5q1.3.993,2.619,1.964a2.2,2.2,0,0,1-1.309,3.977Zm288.755-2.052a2.2,2.2,0,0,1-1.032-4.151q1.455-.769,2.906-1.549a2.2,2.2,0,0,1,2.084,3.881q-1.462.786-2.93,1.562A2.2,2.2,0,0,1,892.128,749.113Zm-297.439-4.747a2.2,2.2,0,0,1-1.408-.509q-1.287-1.071-2.556-2.165a2.2,2.2,0,1,1,2.878-3.337q1.237,1.067,2.5,2.113a2.2,2.2,0,0,1-1.409,3.9Zm307.127-.507a2.2,2.2,0,0,1-1.073-4.129q1.439-.8,2.874-1.609a2.2,2.2,0,0,1,2.163,3.838q-1.446.815-2.9,1.622A2.2,2.2,0,0,1,901.816,743.858Zm391.381-.334h-.063a2.2,2.2,0,0,1-2.14-2.264q.046-1.628.057-3.256a2.2,2.2,0,0,1,2.2-2.188h.015a2.2,2.2,0,0,1,2.188,2.218q-.012,1.675-.059,3.351A2.2,2.2,0,0,1,1293.2,743.524Zm-381.8-5.115a2.2,2.2,0,0,1-1.111-4.107q1.424-.829,2.843-1.666a2.2,2.2,0,1,1,2.236,3.8q-1.429.842-2.862,1.676A2.194,2.194,0,0,1,911.393,738.409Zm-324.964-1.346a2.2,2.2,0,0,1-1.508-.6q-1.223-1.149-2.42-2.319a2.2,2.2,0,1,1,3.08-3.151q1.167,1.141,2.357,2.259a2.2,2.2,0,0,1-1.509,3.809Zm334.433-4.284a2.2,2.2,0,0,1-1.146-4.087q1.406-.855,2.81-1.716a2.2,2.2,0,1,1,2.306,3.754q-1.412.868-2.829,1.728A2.2,2.2,0,0,1,920.863,732.779Zm372.243-.267a2.2,2.2,0,0,1-2.2-2.1q-.072-1.625-.183-3.249a2.2,2.2,0,1,1,4.4-.3q.115,1.674.189,3.35a2.2,2.2,0,0,1-2.1,2.3Zm-714.463-3.249a2.2,2.2,0,0,1-1.609-.7q-1.145-1.223-2.265-2.465a2.2,2.2,0,0,1,3.272-2.95q1.093,1.212,2.21,2.4a2.2,2.2,0,0,1-1.608,3.709Zm351.585-2.282a2.2,2.2,0,0,1-1.178-4.067q1.392-.879,2.779-1.764a2.2,2.2,0,0,1,2.371,3.714q-1.4.891-2.8,1.776A2.193,2.193,0,0,1,930.227,726.981Zm361.965-5.443a2.2,2.2,0,0,1-2.184-1.935q-.2-1.612-.435-3.221a2.2,2.2,0,0,1,4.359-.641q.245,1.66.449,3.326a2.2,2.2,0,0,1-1.919,2.455A2.266,2.266,0,0,1,1292.192,721.538Zm-352.7-.512a2.2,2.2,0,0,1-1.209-4.046q1.378-.9,2.751-1.81a2.2,2.2,0,1,1,2.429,3.676q-1.381.912-2.766,1.82A2.193,2.193,0,0,1,939.49,721.026Zm-368.109-.042a2.2,2.2,0,0,1-1.705-.806q-1.061-1.294-2.1-2.608a2.2,2.2,0,0,1,3.46-2.727q1.009,1.28,2.042,2.541a2.2,2.2,0,0,1-1.7,3.6Zm377.274-6.056a2.2,2.2,0,0,1-1.237-4.027q1.364-.923,2.723-1.851a2.2,2.2,0,1,1,2.484,3.639q-1.366.933-2.737,1.86A2.192,2.192,0,0,1,948.654,714.928Zm-383.962-2.685a2.2,2.2,0,0,1-1.8-.925q-.97-1.362-1.912-2.745a2.2,2.2,0,1,1,3.641-2.481q.915,1.345,1.859,2.669a2.2,2.2,0,0,1-1.793,3.481Zm725.721-1.571a2.2,2.2,0,0,1-2.156-1.76q-.328-1.592-.692-3.178a2.2,2.2,0,1,1,4.294-.987q.376,1.636.714,3.279a2.2,2.2,0,0,1-1.714,2.6A2.233,2.233,0,0,1,1290.413,710.672Zm-332.689-1.977a2.2,2.2,0,0,1-1.262-4.01l2.7-1.889a2.2,2.2,0,1,1,2.535,3.6l-2.711,1.9A2.194,2.194,0,0,1,957.724,708.695ZM558.633,703.07a2.2,2.2,0,0,1-1.882-1.055q-.87-1.424-1.711-2.869a2.2,2.2,0,0,1,3.807-2.218q.818,1.4,1.664,2.789a2.2,2.2,0,0,1-1.877,3.353Zm408.086-.73a2.2,2.2,0,0,1-1.282-4l2.682-1.922A2.2,2.2,0,1,1,970.689,700L968,701.93A2.194,2.194,0,0,1,966.719,702.34Zm321.054-2.359a2.2,2.2,0,0,1-2.114-1.591q-.453-1.562-.942-3.113a2.2,2.2,0,0,1,4.2-1.326q.5,1.6.972,3.213a2.207,2.207,0,0,1-2.117,2.817ZM975.656,695.9a2.2,2.2,0,0,1-1.3-3.986l2.673-1.942a2.2,2.2,0,1,1,2.591,3.564l-2.676,1.944A2.2,2.2,0,0,1,975.656,695.9Zm-422.412-2.4a2.2,2.2,0,0,1-1.959-1.192q-.769-1.488-1.506-3a2.2,2.2,0,1,1,3.959-1.934q.715,1.463,1.461,2.908a2.2,2.2,0,0,1-1.955,3.215Zm731.052-3.967a2.2,2.2,0,0,1-2.062-1.425q-.575-1.521-1.185-3.029a2.2,2.2,0,1,1,4.083-1.655q.631,1.556,1.224,3.127a2.2,2.2,0,0,1-2.06,2.982Zm-299.733-.118a2.2,2.2,0,0,1-1.3-3.982l2.669-1.95a2.2,2.2,0,0,1,2.6,3.558l-2.668,1.95A2.194,2.194,0,0,1,984.563,689.414ZM548.552,683.54a2.2,2.2,0,0,1-2.027-1.338q-.655-1.537-1.281-3.094a2.2,2.2,0,1,1,4.089-1.643q.608,1.512,1.245,3.006a2.2,2.2,0,0,1-2.025,3.069Zm444.907-.623a2.2,2.2,0,0,1-1.3-3.983l2.673-1.948a2.2,2.2,0,1,1,2.593,3.563l-2.669,1.944A2.195,2.195,0,0,1,993.459,682.917ZM1280,679.392a2.2,2.2,0,0,1-1.994-1.264q-.694-1.471-1.423-2.924a2.2,2.2,0,1,1,3.939-1.975q.752,1.5,1.47,3.02a2.2,2.2,0,0,1-1.991,3.143Zm-277.627-2.948a2.2,2.2,0,0,1-1.291-3.989l2.683-1.934a2.2,2.2,0,1,1,2.573,3.576l-2.677,1.93A2.19,2.19,0,0,1,1002.372,676.444Zm-457.758-3.186a2.2,2.2,0,0,1-2.087-1.5q-.538-1.592-1.037-3.193a2.2,2.2,0,0,1,4.206-1.312q.484,1.552,1.005,3.094a2.2,2.2,0,0,1-2.088,2.909Zm466.713-3.229a2.2,2.2,0,0,1-1.278-4q1.351-.96,2.7-1.912a2.2,2.2,0,1,1,2.539,3.6q-1.347.949-2.691,1.9A2.191,2.191,0,0,1,1011.326,670.029Zm263.573-.4a2.2,2.2,0,0,1-1.912-1.106q-.81-1.409-1.656-2.8a2.2,2.2,0,0,1,3.763-2.293q.875,1.436,1.713,2.893a2.2,2.2,0,0,1-1.908,3.3Zm-254.555-5.924a2.2,2.2,0,0,1-1.255-4.015q1.363-.942,2.729-1.878a2.2,2.2,0,0,1,2.491,3.635q-1.359.931-2.714,1.867A2.187,2.187,0,0,1,1020.345,663.707Zm-478.839-1.014a2.2,2.2,0,0,1-2.135-1.667q-.408-1.628-.779-3.265a2.2,2.2,0,0,1,4.3-.973q.359,1.586.755,3.164a2.2,2.2,0,0,1-1.6,2.674A2.226,2.226,0,0,1,541.506,662.693Zm727.51-2.374a2.2,2.2,0,0,1-1.813-.949q-.926-1.337-1.884-2.648a2.2,2.2,0,0,1,3.557-2.6q.991,1.356,1.948,2.74a2.2,2.2,0,0,1-1.808,3.457Zm-239.564-2.8a2.2,2.2,0,0,1-1.227-4.035q1.379-.922,2.763-1.835a2.2,2.2,0,1,1,2.427,3.678q-1.373.906-2.741,1.82A2.19,2.19,0,0,1,1029.452,657.514Zm-490.213-5.6a2.2,2.2,0,0,1-2.169-1.833q-.282-1.655-.525-3.316a2.2,2.2,0,1,1,4.36-.637q.235,1.61.508,3.212a2.2,2.2,0,0,1-1.8,2.542A2.226,2.226,0,0,1,539.239,651.916Zm723.123-.375a2.2,2.2,0,0,1-1.7-.8q-1.035-1.251-2.1-2.472a2.2,2.2,0,1,1,3.318-2.9q1.107,1.266,2.181,2.562a2.2,2.2,0,0,1-1.7,3.608Zm-223.693-.053a2.2,2.2,0,0,1-1.188-4.06q1.4-.894,2.8-1.777a2.2,2.2,0,1,1,2.347,3.729q-1.391.875-2.777,1.76A2.189,2.189,0,0,1,1038.669,651.488Zm9.35-5.82a2.2,2.2,0,0,1-1.143-4.088q1.42-.86,2.848-1.708a2.2,2.2,0,1,1,2.252,3.788q-1.413.839-2.818,1.69A2.2,2.2,0,0,1,1048.02,645.669Zm206.944-2.285a2.2,2.2,0,0,1-1.563-.651q-1.143-1.151-2.316-2.27a2.2,2.2,0,0,1,3.039-3.19q1.218,1.161,2.4,2.356a2.2,2.2,0,0,1-1.564,3.755ZM537.8,641a2.2,2.2,0,0,1-2.191-2q-.157-1.67-.275-3.343a2.2,2.2,0,1,1,4.4-.312q.115,1.625.267,3.245a2.2,2.2,0,0,1-1.988,2.4C537.941,640.994,537.871,641,537.8,641Zm519.717-.9a2.2,2.2,0,0,1-1.089-4.12q1.446-.819,2.9-1.626a2.2,2.2,0,1,1,2.139,3.852q-1.435.8-2.864,1.607A2.191,2.191,0,0,1,1057.519,640.1Zm189.333-4.159a2.193,2.193,0,0,1-1.41-.511q-1.243-1.038-2.517-2.039a2.2,2.2,0,0,1,2.725-3.463q1.323,1.041,2.615,2.119a2.2,2.2,0,0,1-1.413,3.894Zm-179.669-1.122a2.2,2.2,0,0,1-1.027-4.153q1.473-.775,2.955-1.533a2.2,2.2,0,1,1,2.007,3.922q-1.461.747-2.912,1.511A2.2,2.2,0,0,1,1067.183,634.815Zm-530-4.813a2.2,2.2,0,0,1-2.2-2.158q-.032-1.578-.032-3.155V624.5a2.2,2.2,0,0,1,4.406,0v.194q0,1.533.031,3.065A2.2,2.2,0,0,1,537.227,630Zm539.843-.134a2.2,2.2,0,0,1-.955-4.19q1.5-.721,3.013-1.425a2.2,2.2,0,1,1,1.859,3.994q-1.486.693-2.965,1.4A2.193,2.193,0,0,1,1077.024,629.868Zm161.046-.568a2.193,2.193,0,0,1-1.239-.383q-1.335-.91-2.7-1.783a2.2,2.2,0,0,1,2.371-3.713q1.421.907,2.812,1.856a2.2,2.2,0,0,1-1.244,4.024Zm-151.022-4a2.2,2.2,0,0,1-.875-4.226q1.531-.662,3.075-1.3a2.2,2.2,0,0,1,1.685,4.072q-1.513.626-3.012,1.274A2.2,2.2,0,0,1,1087.048,625.3Zm141.63-1.743a2.194,2.194,0,0,1-1.054-.27q-1.425-.779-2.868-1.514a2.2,2.2,0,0,1,2-3.926q1.5.764,2.98,1.573a2.2,2.2,0,0,1-1.059,4.137Zm-131.411-2.37a2.2,2.2,0,0,1-.771-4.267q1.564-.584,3.139-1.145a2.2,2.2,0,1,1,1.478,4.151q-1.543.548-3.073,1.122A2.206,2.206,0,0,1,1097.267,621.186Zm-559.913-2.194-.114,0a2.2,2.2,0,0,1-2.088-2.312q.085-1.672.2-3.342a2.2,2.2,0,1,1,4.395.314q-.115,1.625-.2,3.251A2.2,2.2,0,0,1,537.355,618.992Zm681.42-.252a2.192,2.192,0,0,1-.867-.18q-1.493-.64-3-1.238a2.2,2.2,0,1,1,1.625-4.1q1.563.62,3.111,1.284a2.2,2.2,0,0,1-.869,4.228Zm-111.092-1.146a2.2,2.2,0,0,1-.664-4.3q1.589-.5,3.191-.984a2.2,2.2,0,0,1,1.266,4.22q-1.568.47-3.127.964A2.217,2.217,0,0,1,1107.683,617.594Zm100.785-2.726a2.21,2.21,0,0,1-.682-.108q-1.543-.5-3.1-.962a2.2,2.2,0,0,1,1.247-4.226q1.613.476,3.214,1a2.2,2.2,0,0,1-.68,4.3Zm-90.2-.327a2.2,2.2,0,0,1-.555-4.336q1.618-.421,3.24-.816a2.2,2.2,0,0,1,1.041,4.281q-1.588.387-3.17.8A2.172,2.172,0,0,1,1118.266,614.54Zm10.728-2.489a2.2,2.2,0,0,1-.438-4.362q1.64-.333,3.281-.638a2.2,2.2,0,0,1,.8,4.332q-1.605.3-3.206.625A2.221,2.221,0,0,1,1128.994,612.051Zm68.864-.125a2.208,2.208,0,0,1-.5-.057q-1.581-.366-3.172-.692a2.2,2.2,0,0,1,.883-4.317q1.648.337,3.284.717a2.2,2.2,0,0,1-.495,4.349Zm-58.015-1.766a2.2,2.2,0,0,1-.314-4.384q1.657-.24,3.313-.451a2.2,2.2,0,0,1,.553,4.372q-1.617.2-3.234.44A2.182,2.182,0,0,1,1139.844,610.161Zm47.2-.277a2.18,2.18,0,0,1-.325-.024q-1.607-.237-3.222-.437a2.2,2.2,0,0,1,.54-4.373q1.667.206,3.326.451a2.2,2.2,0,0,1-.32,4.383Zm-36.255-.976a2.2,2.2,0,0,1-.181-4.4q1.668-.14,3.335-.248a2.2,2.2,0,0,1,.286,4.4q-1.626.107-3.254.242C1150.908,608.9,1150.847,608.907,1150.785,608.907Zm25.308-.213c-.053,0-.105,0-.158-.005q-1.622-.116-3.25-.2a2.2,2.2,0,1,1,.217-4.4q1.675.083,3.345.2a2.2,2.2,0,0,1-.154,4.4Zm-14.311-.359a2.2,2.2,0,0,1-.042-4.405q1.621-.033,3.243-.032a2.248,2.248,0,0,1,2.255,2.2,2.16,2.16,0,0,1-2.152,2.2h-.1q-1.577,0-3.157.031Zm-623.489-.313a2.173,2.173,0,0,1-.265-.015,2.2,2.2,0,0,1-1.925-2.45q.2-1.663.435-3.321a2.2,2.2,0,0,1,4.362.617q-.228,1.613-.422,3.229A2.2,2.2,0,0,1,538.293,608.023Zm1.685-10.879a2.207,2.207,0,0,1-2.167-2.614q.311-1.645.656-3.284a2.2,2.2,0,0,1,4.312.908q-.335,1.594-.639,3.2A2.2,2.2,0,0,1,539.979,597.143Zm2.407-10.745a2.206,2.206,0,0,1-2.134-2.757q.42-1.62.872-3.232a2.2,2.2,0,1,1,4.243,1.19q-.441,1.57-.849,3.148A2.2,2.2,0,0,1,542.386,586.4Zm3.11-10.564a2.205,2.205,0,0,1-2.093-2.9q.525-1.589,1.081-3.167a2.2,2.2,0,0,1,4.157,1.462q-.542,1.54-1.054,3.088A2.2,2.2,0,0,1,545.5,575.835Zm3.793-10.34a2.2,2.2,0,0,1-2.042-3.03q.628-1.551,1.286-3.091a2.2,2.2,0,1,1,4.052,1.731q-.641,1.5-1.253,3.013A2.2,2.2,0,0,1,549.289,565.5Zm4.46-10.071a2.2,2.2,0,0,1-1.982-3.162q.728-1.508,1.484-3a2.2,2.2,0,0,1,3.931,1.991q-.737,1.457-1.448,2.926A2.2,2.2,0,0,1,553.749,555.424Zm5.11-9.759a2.2,2.2,0,0,1-1.915-3.289q.825-1.458,1.68-2.9a2.2,2.2,0,1,1,3.789,2.247q-.832,1.4-1.636,2.823A2.2,2.2,0,0,1,558.86,545.666Zm5.746-9.4a2.2,2.2,0,0,1-1.838-3.414q.92-1.4,1.87-2.78a2.2,2.2,0,1,1,3.631,2.494q-.923,1.345-1.821,2.708A2.2,2.2,0,0,1,564.605,536.266Zm6.365-8.992a2.2,2.2,0,0,1-1.752-3.536q1.015-1.335,2.056-2.647a2.2,2.2,0,1,1,3.451,2.739q-1.013,1.277-2,2.575A2.2,2.2,0,0,1,570.971,527.274Zm6.968-8.533a2.2,2.2,0,0,1-1.655-3.655q1.105-1.261,2.236-2.5a2.2,2.2,0,0,1,3.252,2.972q-1.1,1.2-2.175,2.429A2.2,2.2,0,0,1,577.939,518.741Zm7.552-8.019a2.2,2.2,0,0,1-1.548-3.77q1.193-1.178,2.412-2.331a2.2,2.2,0,0,1,3.027,3.2q-1.183,1.118-2.342,2.263A2.195,2.195,0,0,1,585.491,510.721Zm8.114-7.448a2.2,2.2,0,0,1-1.43-3.88q1.276-1.087,2.578-2.146a2.2,2.2,0,0,1,2.781,3.417q-1.263,1.027-2.5,2.082A2.192,2.192,0,0,1,593.6,503.273Zm8.644-6.818a2.2,2.2,0,0,1-1.3-3.984q1.355-.986,2.732-1.943a2.2,2.2,0,0,1,2.512,3.62q-1.336.928-2.649,1.884A2.191,2.191,0,0,1,602.248,496.455Zm9.139-6.128a2.2,2.2,0,0,1-1.156-4.08q1.425-.877,2.874-1.721a2.2,2.2,0,0,1,2.22,3.806q-1.4.819-2.786,1.668A2.2,2.2,0,0,1,611.388,490.327Zm9.593-5.384a2.2,2.2,0,0,1-1-4.167q.985-.5,1.98-.989a2.2,2.2,0,0,1,1.935,3.959q-.963.47-1.915.956A2.205,2.205,0,0,1,620.98,484.943Z" transform="translate(-184.797 -172.706)" fill="#585858"></path><g id="Group_86473" data-name="Group 86473" transform="translate(434.647 253.228)"><path id="Path_162486" data-name="Path 162486" d="M722.568,435.239l4.606,15.082,8.234-9.6Z" transform="translate(-704.368 -405.872)" fill="#7e7e7e"></path><path id="Path_162487" data-name="Path 162487" d="M772.7,381.587l-29.821,48.164a3.99,3.99,0,0,1-5.62,1.211L690.024,399.2a1.6,1.6,0,0,1,.611-2.9Z" transform="translate(-689.317 -381.587)" fill="#474747"></path><path id="Path_162488" data-name="Path 162488" d="M722.578,410.954l65.172-29.367L730.184,416.1l1.1,4.237Z" transform="translate(-704.372 -381.587)" fill="#7e7e7e"></path><path id="Path_162489" data-name="Path 162489" d="M738.521,447.666l-7.539,6.913,3.006-9.932Z" transform="translate(-708.176 -410.13)" fill="#646464"></path></g></g></svg>