<svg xmlns="http://www.w3.org/2000/svg" xmlns:xlink="http://www.w3.org/1999/xlink" width="1048.756" height="948.548" viewBox="0 0 1048.756 948.548"><defs><linearGradient id="linear-gradient" y1="0.5" x2="1" y2="0.5" gradientUnits="objectBoundingBox"><stop offset="0.005" stop-color="#808285"></stop><stop offset="1" stop-color="#bcbec0"></stop></linearGradient><linearGradient id="linear-gradient-4" y1="0.5" x2="1" y2="0.5" gradientUnits="objectBoundingBox"><stop offset="0.01" stop-color="#e6e7e8"></stop><stop offset="1" stop-color="#bcbec0"></stop></linearGradient><linearGradient id="linear-gradient-6" x1="0" y1="0.5" x2="1" y2="0.5" xlink:href="#linear-gradient"></linearGradient><linearGradient id="linear-gradient-10" x1="0.525" y1="0.64" x2="0.406" y2="0.418" xlink:href="#linear-gradient"></linearGradient><linearGradient id="linear-gradient-12" x1="0.5" y1="0.81" x2="0.5" y2="0.05" xlink:href="#linear-gradient-4"></linearGradient><linearGradient id="linear-gradient-15" x1="0.618" y1="0.7" x2="0.382" y2="0.3" xlink:href="#linear-gradient"></linearGradient><linearGradient id="linear-gradient-22" x1="0.5" y1="0.953" x2="0.5" y2="0.561" xlink:href="#linear-gradient"></linearGradient><linearGradient id="linear-gradient-23" x1="0" y1="0.5" x2="1" y2="0.5" xlink:href="#linear-gradient"></linearGradient><linearGradient id="linear-gradient-24" x1="0.405" y1="0.77" x2="0.563" y2="0.492" xlink:href="#linear-gradient"></linearGradient><linearGradient id="linear-gradient-25" y1="0.5" x2="1" y2="0.5" gradientUnits="objectBoundingBox"><stop offset="0.005" stop-color="#808285"></stop><stop offset="1" stop-color="#6d6e71"></stop></linearGradient></defs><g id="Router_Auditing_Methodology" data-name="Router Auditing Methodology" transform="translate(-323.084 -103.267)"><g id="Group_86384" data-name="Group 86384" transform="translate(960.657 254.28)"><g id="Group_86381" data-name="Group 86381" transform="translate(0.002 32.808)"><path id="Path_162043" data-name="Path 162043" d="M586.048,230.934l-58.783,9.212v32.806a13.371,13.371,0,0,0,6.7,11.663l134.3,78.277V183.012Z" transform="translate(-527.265 -117.822)" fill="url(#linear-gradient)"></path><path id="Path_162044" data-name="Path 162044" d="M572.421,188.4v179.88h0a13.5,13.5,0,0,0,13.6,0v-187.8Z" transform="translate(-431.417 -123.207)" fill="url(#linear-gradient)"></path><path id="Path_162045" data-name="Path 162045" d="M792.609,226.41,685.476,163.971a13.5,13.5,0,0,0-13.6,0l-95.1,55.432v187.8h0L819.781,265.574a13.375,13.375,0,0,0,6.7-11.663V221.105Z" transform="translate(-422.175 -162.135)" fill="url(#linear-gradient)"></path></g><path id="Path_162046" data-name="Path 162046" d="M533.967,295.1l243-141.631a13.487,13.487,0,0,1,13.6,0l134.306,78.277a13.5,13.5,0,0,1,0,23.326L681.866,396.7a13.5,13.5,0,0,1-13.6,0l-134.3-78.277A13.5,13.5,0,0,1,533.967,295.1Z" transform="translate(-527.265 -151.628)" fill="url(#linear-gradient-4)"></path><path id="Path_162047" data-name="Path 162047" d="M547.612,273.538l196-114.234a10.876,10.876,0,0,1,10.963,0L862.9,222.439a10.888,10.888,0,0,1,0,18.814l-196,114.234a10.882,10.882,0,0,1-10.966,0L547.612,292.351A10.888,10.888,0,0,1,547.612,273.538Z" transform="translate(-495.548 -138.483)" fill="#263238" opacity="0.75"></path><g id="Group_86382" data-name="Group 86382" transform="translate(295.881 31.479)"><path id="Path_162048" data-name="Path 162048" d="M676,195.379a1.56,1.56,0,0,1-.787-.212L622.8,164.619a1.562,1.562,0,1,1,1.574-2.7l52.413,30.548a1.561,1.561,0,0,1-.787,2.91Z" transform="translate(-622.019 -161.709)" fill="#fff"></path></g><g id="Group_86383" data-name="Group 86383" transform="translate(59.222 173.602)"><path id="Path_162049" data-name="Path 162049" d="M590.261,246.169a9.324,9.324,0,0,1-4.709-1.277l-34.67-20.206a9.368,9.368,0,0,1,9.434-16.187l34.67,20.209a9.369,9.369,0,0,1-4.724,17.462Z" transform="translate(-546.23 -207.224)" fill="#fff"></path></g></g><g id="Group_86386" data-name="Group 86386" transform="translate(374.529 751.667)"><g id="Group_86385" data-name="Group 86385" transform="translate(0 26.467)"><path id="Path_162050" data-name="Path 162050" d="M473.914,374.891l47.423,7.432V408.79a10.788,10.788,0,0,1-5.408,9.408L407.584,481.346V336.233Z" transform="translate(-195.17 -283.642)" fill="url(#linear-gradient)"></path><path id="Path_162051" data-name="Path 162051" d="M415.039,340.578V485.691h0a10.881,10.881,0,0,1-10.967,0v-151.5Z" transform="translate(-202.624 -287.987)" fill="url(#linear-gradient-6)"></path><path id="Path_162052" data-name="Path 162052" d="M366.888,371.245l86.424-50.374a10.9,10.9,0,0,1,10.97,0l76.725,44.719v151.5h0L344.967,402.836a10.787,10.787,0,0,1-5.408-9.408V366.964Z" transform="translate(-339.559 -319.391)" fill="url(#linear-gradient)"></path></g><path id="Path_162053" data-name="Path 162053" d="M660.318,426.654,464.281,312.4a10.9,10.9,0,0,0-10.97,0L344.967,375.543a10.891,10.891,0,0,0,0,18.82l196.04,114.256a10.883,10.883,0,0,0,10.967,0l108.345-63.148A10.888,10.888,0,0,0,660.318,426.654Z" transform="translate(-339.558 -310.915)" fill="url(#linear-gradient-4)"></path></g><g id="Group_86390" data-name="Group 86390" transform="translate(326.134 129.443)"><g id="Group_86387" data-name="Group 86387" transform="translate(72.469 333.798)"><path id="Path_162054" data-name="Path 162054" d="M369.509,236.786l-22.241,2.041v11.031l50.879,29.682V268.51Z" transform="translate(-347.269 -179.833)" fill="url(#linear-gradient)"></path><path id="Path_162055" data-name="Path 162055" d="M466.352,238.7l-34.528-20.151-68.261,88.677v11.031L482.7,248.229V237.2Z" transform="translate(-312.683 -218.547)" fill="url(#linear-gradient-10)"></path></g><path id="Path_162056" data-name="Path 162056" d="M466.409,215.015,347.269,285.04l50.879,29.682L517.288,244.7Z" transform="translate(-274.8 107.752)" fill="url(#linear-gradient-4)"></path><g id="Group_86388" data-name="Group 86388" transform="translate(105.945 245.634)"><path id="Path_162057" data-name="Path 162057" d="M360.46,250.583l97.189-57.464v91.533l-97.891,57.464Z" transform="translate(-354.235 -184.359)" fill="url(#linear-gradient-12)"></path><path id="Path_162058" data-name="Path 162058" d="M463.073,193.625l-5.523-3.311-97.189,57.464,5.523,3.311Z" transform="translate(-352.954 -190.313)" fill="#fff" stroke="#231f20" stroke-miterlimit="10" stroke-width="1"></path><path id="Path_162059" data-name="Path 162059" d="M358.692,210.461l-.7,91.533,5.523,3.311.7-91.533Z" transform="translate(-357.989 -147.549)" fill="url(#linear-gradient)"></path></g><g id="Group_86389" data-name="Group 86389"><path id="Path_162060" data-name="Path 162060" d="M330.872,272.958,598.749,114.572V366.861L328.935,525.247Z" transform="translate(-313.714 -105.446)" fill="url(#linear-gradient-4)"></path><path id="Path_162061" data-name="Path 162061" d="M607.779,120.776l-15.222-9.126L324.681,270.036l15.222,9.126Z" transform="translate(-322.744 -111.65)" fill="url(#linear-gradient-15)"></path><path id="Path_162062" data-name="Path 162062" d="M326,162.372l-1.937,252.289,15.222,9.126L341.219,171.5Z" transform="translate(-324.061 -3.986)" fill="url(#linear-gradient)"></path></g><path id="Path_162063" data-name="Path 162063" d="M335.265,263.1,574.626,121.572V347L333.534,488.531Z" transform="translate(-303.952 -90.588)" fill="#263238" opacity="0.75"></path></g><g id="Group_86392" data-name="Group 86392" transform="translate(1032.734 771.499)"><g id="Group_86391" data-name="Group 86391" transform="translate(0 44.272)"><path id="Path_162064" data-name="Path 162064" d="M613.787,334.948a25.752,25.752,0,0,0-25.936,0V501.054a25.753,25.753,0,0,0,25.936,0V334.948Z" transform="translate(-470.741 -331.444)" fill="url(#linear-gradient)"></path><path id="Path_162065" data-name="Path 162065" d="M667.457,332.566l-66.542,38.783H550.347v44.272a25.51,25.51,0,0,0,12.787,22.249l104.322,60.8V332.566Z" transform="translate(-550.347 -329.062)" fill="url(#linear-gradient)"></path><path id="Path_162066" data-name="Path 162066" d="M662.7,371.349l-66.539-38.783V498.672l104.323-60.8a25.507,25.507,0,0,0,12.784-22.249V371.349Z" transform="translate(-453.111 -329.062)" fill="url(#linear-gradient)"></path></g><path id="Path_162067" data-name="Path 162067" d="M563.134,381.573l104.322-60.8a25.752,25.752,0,0,1,25.936,0l104.323,60.8a25.757,25.757,0,0,1,0,44.5l-104.323,60.8a25.752,25.752,0,0,1-25.936,0l-104.322-60.8A25.754,25.754,0,0,1,563.134,381.573Z" transform="translate(-550.347 -317.266)" fill="url(#linear-gradient-4)"></path><ellipse id="Ellipse_7884" data-name="Ellipse 7884" cx="57.55" cy="34.472" rx="57.55" ry="34.472" transform="translate(72.527 51.894)" fill="#fff"></ellipse><path id="Path_162068" data-name="Path 162068" d="M649.729,358.919c0,11.366-15.385,20.584-34.364,20.584S581,370.285,581,358.919s15.388-20.587,34.368-20.587S649.729,347.55,649.729,358.919Z" transform="translate(-485.287 -272.551)" fill="url(#linear-gradient-4)"></path><ellipse id="Ellipse_7885" data-name="Ellipse 7885" cx="16.701" cy="10.004" rx="16.701" ry="10.004" transform="translate(113.377 9.568)" fill="#fff"></ellipse><path id="Path_162069" data-name="Path 162069" d="M652.764,351.136c0,5.524-7.476,10-16.7,10s-16.7-4.481-16.7-10,7.479-10,16.7-10S652.764,345.612,652.764,351.136Z" transform="translate(-403.856 -266.61)" fill="#fff"></path><path id="Path_162070" data-name="Path 162070" d="M587.6,351.136c0,5.524-7.475,10-16.7,10s-16.7-4.481-16.7-10,7.479-10,16.7-10S587.6,345.612,587.6,351.136Z" transform="translate(-542.167 -266.61)" fill="#fff"></path><ellipse id="Ellipse_7886" data-name="Ellipse 7886" cx="16.701" cy="10.004" rx="16.701" ry="10.004" transform="translate(113.377 142.95)" fill="#fff"></ellipse></g><g id="Group_86401" data-name="Group 86401" transform="translate(607.306 389.061)"><g id="Group_86394" data-name="Group 86394" transform="translate(157.644 0)"><g id="Group_86393" data-name="Group 86393"><path id="Path_162071" data-name="Path 162071" d="M464.59,202.444V365.927l15.285,8.909V202.444a7.639,7.639,0,0,0-3.794-6.6h0A7.642,7.642,0,0,0,464.59,202.444Z" transform="translate(-464.59 -194.791)" fill="#131b4c"></path><path id="Path_162072" data-name="Path 162072" d="M513.647,231.183v163.48l15.285,8.909V231.183a7.649,7.649,0,0,0-3.794-6.6h0A7.643,7.643,0,0,0,513.647,231.183Z" transform="translate(-360.462 -133.797)" fill="#131b4c"></path></g></g><g id="Group_86396" data-name="Group 86396" transform="translate(0 138.721)"><g id="Group_86395" data-name="Group 86395" transform="translate(0 28.672)"><path id="Path_162073" data-name="Path 162073" d="M559.659,308.524l51.376,8.053v66.48a11.7,11.7,0,0,1-5.858,10.2L487.8,461.662V266.644Z" transform="translate(-257.683 -209.67)" fill="url(#linear-gradient-22)"></path><path id="Path_162074" data-name="Path 162074" d="M495.876,271.352V466.37h0a11.8,11.8,0,0,1-11.882,0V264.426Z" transform="translate(-265.759 -214.378)" fill="url(#linear-gradient-23)"></path><path id="Path_162075" data-name="Path 162075" d="M443.71,304.573,537.341,250a11.8,11.8,0,0,1,11.881,0l83.117,48.444V500.391h0L419.963,376.611a11.69,11.69,0,0,1-5.858-10.2v-66.48Z" transform="translate(-414.105 -248.398)" fill="url(#linear-gradient-24)"></path></g><path id="Path_162076" data-name="Path 162076" d="M761.6,364.6,549.222,240.82a11.8,11.8,0,0,0-11.881,0L419.962,309.23a11.8,11.8,0,0,0,0,20.387L632.339,453.4a11.787,11.787,0,0,0,11.881,0L761.6,384.987A11.8,11.8,0,0,0,761.6,364.6Z" transform="translate(-414.104 -239.216)" fill="#a9a9a9"></path></g><path id="Path_162077" data-name="Path 162077" d="M424.507,319.421V282.553L565.314,364.62v36.868Z" transform="translate(-392.025 -8.509)" fill="url(#linear-gradient-25)"></path><g id="Group_86398" data-name="Group 86398" transform="translate(42.167 292.515)"><g id="Group_86397" data-name="Group 86397"><path id="Path_162078" data-name="Path 162078" d="M427.609,288.468v13.649l24.751,14.426V302.894Z" transform="translate(-427.609 -288.468)" fill="#253587"></path></g></g><g id="Group_86399" data-name="Group 86399" transform="translate(86.068 318.374)"><path id="Path_162079" data-name="Path 162079" d="M441.668,296.75V310.4l24.751,14.425V311.175Z" transform="translate(-441.668 -296.75)" fill="#fff"></path></g><g id="Group_86400" data-name="Group 86400" transform="translate(129.969 343.645)"><path id="Path_162080" data-name="Path 162080" d="M455.727,304.843v13.649l24.751,14.425V319.268Z" transform="translate(-455.727 -304.843)" fill="#fff"></path></g></g><g id="Group_86405" data-name="Group 86405" transform="translate(728.64 124.676)"><g id="Group_86402" data-name="Group 86402"><path id="Path_162081" data-name="Path 162081" d="M473.231,174.517c-.016-.462-.062-.9-.062-1.377,0-21.452,15.157-47.595,33.849-58.389,8.9-5.137,16.977-5.842,23.013-2.882l15.463,9.1a38.564,38.564,0,0,1,5.536-3.941c7.682-4.434,12.753-5.443,18.439-1.9l7.2,5.321a38.648,38.648,0,0,1,5.374-3.81c6.714-3.875,13.308-4.028,17.752-1.6l29.121,17.8c-4.415-2.258-10.37-1.789-16.937,2a40.988,40.988,0,0,0-7.769,5.939,16.5,16.5,0,0,0-1.2-2.532c-.062-.109-.119-.225-.184-.334a14.106,14.106,0,0,0-1.483-2c-.094-.106-.194-.209-.287-.312a11.894,11.894,0,0,0-1.8-1.555c-.09-.066-.181-.119-.275-.178-4.49-2.967-10.895-2.764-18.024,1.352a39.665,39.665,0,0,0-6.8,5.08c-.247.225-.493.453-.743.684-1.162,1.109-2.3,2.264-3.388,3.507-.2-.931-.434-1.817-.7-2.673-.106-.344-.241-.662-.359-.993-.175-.484-.343-.977-.54-1.433-.175-.415-.378-.8-.575-1.187-.162-.331-.325-.674-.506-.99-.243-.434-.509-.837-.778-1.24-.153-.231-.306-.465-.468-.687-.312-.431-.646-.837-.993-1.233-.131-.15-.265-.3-.4-.45-.39-.412-.8-.806-1.218-1.174-.1-.087-.2-.175-.3-.262a16.113,16.113,0,0,0-1.455-1.084c-.059-.041-.119-.075-.181-.112-6.167-3.956-14.895-3.635-24.6,1.973-18.7,10.792-33.855,36.937-33.855,58.386,0,.478.047.915.062,1.377C491.5,203,482.9,220.135,482.9,234.633c0,8.222,2.785,14.07,7.3,17.046-5.068-3.1-25.362-15.407-29.053-17.646-.2-.112-.393-.237-.587-.356l-.006-.006c-4.693-2.91-7.594-8.843-7.594-17.243,0-14.5,8.606-31.626,20.269-41.911" transform="translate(-452.962 -110.123)" fill="#dad9e2"></path><path id="Path_162082" data-name="Path 162082" d="M482.815,180.359c-.012-.465-.062-.9-.062-1.38,0-21.452,15.154-47.591,33.852-58.386,16.244-9.377,29.8-4.069,33.081,11.544a44.145,44.145,0,0,1,10.929-9.271c10.767-6.217,19.894-3.55,23.251,5.555a41.136,41.136,0,0,1,7.769-5.942c6.57-3.791,12.521-4.259,16.937-2l1.408.852.081.059c3.853,2.767,6.214,7.947,6.214,15.138,0,15.616-11.032,34.648-24.64,42.5L489.759,237.849v0c-7.285,4.187-13.883,4.687-18.767,2.148-.044-.025-.1-.044-.144-.069-.181-.109-.518-.322-1-.612-4.515-2.97-7.3-8.821-7.3-17.043,0-14.5,8.6-31.629,20.266-41.911" transform="translate(-432.613 -97.76)" fill="#edeef4"></path></g><g id="Group_86403" data-name="Group 86403" transform="translate(33.933 767.662)"><path id="Path_162083" data-name="Path 162083" d="M486.309,427.39c-.016-.515-.069-1-.069-1.527,0-23.8,16.815-52.794,37.546-64.766,9.874-5.7,18.832-6.479,25.527-3.2l17.149,10.089a42.363,42.363,0,0,1,6.142-4.368c8.518-4.921,14.145-6.039,20.453-2.1l7.991,5.9a42.613,42.613,0,0,1,5.958-4.225c7.447-4.3,14.764-4.469,19.691-1.771L659,381.16c-4.9-2.5-11.5-1.983-18.789,2.223a45.533,45.533,0,0,0-8.618,6.589,17.925,17.925,0,0,0-1.33-2.807c-.069-.125-.131-.253-.2-.375a15.618,15.618,0,0,0-1.646-2.211c-.1-.119-.212-.231-.319-.347a13.349,13.349,0,0,0-2-1.727c-.1-.069-.2-.128-.3-.2-4.981-3.288-12.084-3.066-19.991,1.5a43.919,43.919,0,0,0-7.541,5.633c-.275.25-.546.5-.824.759-1.287,1.23-2.554,2.511-3.76,3.891-.215-1.034-.478-2.017-.774-2.966-.119-.381-.266-.734-.4-1.1-.194-.534-.378-1.081-.6-1.586-.2-.462-.421-.884-.637-1.318-.184-.368-.362-.746-.562-1.1-.272-.484-.568-.931-.865-1.377-.169-.256-.34-.515-.515-.762-.35-.478-.721-.927-1.1-1.368-.147-.165-.293-.337-.443-.5q-.651-.693-1.352-1.305c-.112-.1-.222-.194-.337-.29a18.187,18.187,0,0,0-1.615-1.2c-.062-.044-.128-.081-.2-.125-6.841-4.387-16.522-4.031-27.288,2.189-20.74,11.972-37.552,40.968-37.552,64.763,0,.531.053,1.015.069,1.527-12.934,11.41-22.476,30.408-22.476,46.489,0,9.121,3.088,15.607,8.1,18.907-5.624-3.435-28.135-17.09-32.228-19.572-.225-.122-.434-.262-.65-.393l-.009-.006c-5.205-3.226-8.422-9.808-8.422-19.126,0-16.081,9.543-35.079,22.48-46.486" transform="translate(-463.829 -355.964)" fill="#dad9e2"></path><path id="Path_162084" data-name="Path 162084" d="M496.94,433.869c-.013-.518-.069-1-.069-1.53,0-23.8,16.809-52.791,37.549-64.763,18.017-10.4,33.049-4.515,36.69,12.806A48.847,48.847,0,0,1,583.235,370.1c11.941-6.895,22.064-3.938,25.786,6.161a45.688,45.688,0,0,1,8.618-6.592c7.288-4.2,13.889-4.725,18.789-2.217l1.561.946.091.069c4.275,3.063,6.892,8.812,6.892,16.79,0,17.321-12.237,38.427-27.332,47.142l-113,65.237v0c-8.081,4.647-15.4,5.2-20.818,2.383-.047-.028-.106-.047-.156-.075-.2-.122-.578-.356-1.109-.678-5.009-3.3-8.1-9.786-8.1-18.9,0-16.085,9.543-35.082,22.477-46.489" transform="translate(-441.257 -342.253)" fill="#fff"></path></g><g id="Group_86404" data-name="Group 86404" transform="translate(514.916 398.311)"><path id="Path_162085" data-name="Path 162085" d="M708.932,274.759c.009-.269.034-.518.034-.793,0-12.353-8.728-27.407-19.491-33.621-5.124-2.957-9.774-3.363-13.249-1.661l-8.9,5.237a22.406,22.406,0,0,0-3.188-2.267c-4.425-2.554-7.344-3.135-10.62-1.093l-4.147,3.066a22.207,22.207,0,0,0-3.094-2.2c-3.866-2.233-7.663-2.32-10.224-.918l-16.768,10.245c2.542-1.3,5.97-1.03,9.755,1.155a23.671,23.671,0,0,1,4.472,3.419,9.495,9.495,0,0,1,.69-1.458c.037-.062.069-.131.106-.194a8.219,8.219,0,0,1,.855-1.146c.053-.063.109-.122.165-.181a7,7,0,0,1,1.034-.9c.053-.038.106-.066.159-.1,2.586-1.7,6.273-1.589,10.376.781a22.727,22.727,0,0,1,3.916,2.923c.143.131.284.262.428.4.668.637,1.327,1.3,1.952,2.02.112-.537.25-1.049.4-1.543.062-.2.138-.381.206-.571.1-.278.2-.562.312-.824.1-.237.216-.459.328-.684.1-.19.19-.387.293-.568.14-.25.293-.481.449-.715.088-.134.175-.269.269-.4.178-.247.372-.481.571-.709.075-.087.153-.175.228-.259a9.521,9.521,0,0,1,.7-.674c.059-.053.115-.1.175-.153.272-.222.55-.431.84-.624.031-.022.065-.044.1-.066,3.55-2.276,8.578-2.092,14.167,1.14,10.767,6.214,19.494,21.268,19.494,33.618,0,.275-.028.528-.038.793,6.714,5.924,11.669,15.788,11.669,24.135,0,4.734-1.6,8.1-4.206,9.814,2.92-1.783,14.6-8.871,16.731-10.158.116-.066.225-.137.338-.206l0,0c2.7-1.677,4.372-5.093,4.372-9.93,0-8.347-4.953-18.211-11.669-24.131" transform="translate(-614.848 -237.681)" fill="#d3ad8e"></path><path id="Path_162086" data-name="Path 162086" d="M694.709,278.124c.006-.269.038-.518.038-.8,0-12.353-8.728-27.4-19.494-33.618-9.352-5.4-17.159-2.345-19.048,6.648a25.3,25.3,0,0,0-6.3-5.34c-6.2-3.579-11.454-2.045-13.387,3.2a23.669,23.669,0,0,0-4.472-3.419c-3.785-2.186-7.213-2.454-9.755-1.152l-.808.49-.047.034c-2.22,1.593-3.579,4.575-3.579,8.718,0,8.99,6.352,19.95,14.189,24.472l58.658,33.868h0c4.2,2.411,7.994,2.7,10.807,1.237l.084-.041c.1-.062.3-.184.574-.353,2.6-1.711,4.2-5.08,4.2-9.814,0-8.35-4.952-18.211-11.669-24.131" transform="translate(-617.862 -230.563)" fill="#ed7d39"></path><path id="Path_162087" data-name="Path 162087" d="M634.038,248.2l-4.466,2.546,16.054,27.692,4.521-2.455Z" transform="translate(-593.007 -215.359)" fill="#455a64"></path><path id="Path_162088" data-name="Path 162088" d="M632.067,256.354v12.586l4.519-2.456v-7.519Z" transform="translate(-587.71 -198.046)" fill="#455a64"></path><path id="Path_162089" data-name="Path 162089" d="M656.612,276.767,640.5,248.983,624.4,258.167l8.262,4.77v12.585l15.693,9.061V272Z" transform="translate(-603.993 -213.69)" fill="#263238"></path></g></g><g id="Group_86428" data-name="Group 86428" transform="translate(323.084 103.267)"><g id="Group_86410" data-name="Group 86410" transform="translate(0 572.087)"><g id="Group_86409" data-name="Group 86409" transform="translate(0 0)"><path id="Path_162090" data-name="Path 162090" d="M385.358,335.46l5.355,3.082a10.085,10.085,0,0,1-2.664,2.495,6.115,6.115,0,0,1-.834,2.567c-.234.387-.465.771-.681,1.158a9.289,9.289,0,0,1-7.906,4.518,18.088,18.088,0,0,0-8.881,2.832,37.168,37.168,0,0,0-11.154,10.392,4.848,4.848,0,0,1-1.03,1.009v3.544l-5.418-3.145-.084-.047a4.56,4.56,0,0,1-1.589-6.636c8.166-11.909,20.006-21,30.476-22.726a6.066,6.066,0,0,1,3.529.45h0l.034.019A6.134,6.134,0,0,1,385.358,335.46Zm-8.25,23.679a4.412,4.412,0,0,0-.437-.225l-.012-.006c-1.752-.8-4.091-.546-6.661.943a21.489,21.489,0,0,0-9.842,16.75c0,2.576.784,4.493,2.108,5.605a4.14,4.14,0,0,0,.584.406l0,0,.047.028.178.1,5.8,3.329-.353-3.41a11.949,11.949,0,0,0,1.486-.721c5.43-3.145,9.839-10.645,9.839-16.747,0-.29-.019-.565-.037-.837l2.81-2.03Zm22.461-47.563a5.828,5.828,0,0,0-2.526-.952c-9.649-1.233-20.494,2.2-32.553,10.52-10.454,7.216-19.607,16.981-27.523,29.04a4.582,4.582,0,0,0,1.677,6.554l.091.047,5.5,3.191v-3.422a5.57,5.57,0,0,0,1.643-1.571c6.892-10.177,14.835-17.98,23.869-23.251,7.685-4.484,14.6-6.22,20.728-5.358a9.3,9.3,0,0,0,9.44-4.344l1.468-2.495a5.881,5.881,0,0,0,.718-4.081l3.425-.353Zm17.746-20.453-5.055-2.926a6.766,6.766,0,0,0-2.454-1c-13.174-2.517-28.085,1.5-44.794,12.409-15.647,10.217-29.305,24.553-41.056,42.633a5.375,5.375,0,0,0,1.97,7.675l5.593,3.238.34-4.734c10.81-16.675,23.388-29.359,37.8-37.749,12.725-7.407,24.041-9.814,33.974-7.488a9.025,9.025,0,0,0,9.83-4.178q.464-.778.924-1.558a6.821,6.821,0,0,0,.512-5.936Z" transform="translate(-323.084 -286.476)" fill="#263238"></path><g id="Group_86406" data-name="Group 86406" transform="translate(4.19)"><path id="Path_162091" data-name="Path 162091" d="M409.411,288.2a6.766,6.766,0,0,0-2.454-1c-13.174-2.517-28.085,1.5-44.794,12.409-14.186,9.265-26.736,21.927-37.711,37.68a5.347,5.347,0,0,0,2.795,5.271l4.1,2.373c.575-.837,1.149-1.664,1.733-2.479l.1-1.393c10.81-16.675,23.388-29.359,37.8-37.746,12.724-7.41,24.041-9.817,33.974-7.491a9.01,9.01,0,0,0,7.535-1.633,7,7,0,0,0-.437-2.679l2.417-.39Z" transform="translate(-324.426 -286.476)" fill="#263238"></path><path id="Path_162092" data-name="Path 162092" d="M387.794,295.327a5.828,5.828,0,0,0-2.526-.952c-9.649-1.233-20.494,2.2-32.553,10.52a100.61,100.61,0,0,0-24.082,24.072,4.559,4.559,0,0,0,2.4,4.162l.087.047,4.909,2.845c.2-.278.393-.568.6-.84v-2.236a5.523,5.523,0,0,0,1.639-1.571c6.895-10.174,14.839-17.98,23.872-23.251,7.685-4.484,14.6-6.22,20.728-5.358a9.568,9.568,0,0,0,7.522-2.089,5.923,5.923,0,0,0-.065-1.471l1.542-.159c.147-.206.306-.4.44-.624l.184-.315Z" transform="translate(-315.498 -270.228)" fill="#263238"></path><path id="Path_162093" data-name="Path 162093" d="M356.81,313.4l-5.5-3.191a4.411,4.411,0,0,0-.437-.225l-.013-.006c-1.752-.8-4.091-.546-6.661.943a19.82,19.82,0,0,0-6.342,6.267,23.1,23.1,0,0,0-2.617,5.4,5.083,5.083,0,0,0,.837.927,4.369,4.369,0,0,0,.587.406l0,0,.047.028q.084.051.178.1l5.792,3.326-.35-3.407a12.4,12.4,0,0,0,1.486-.721C347.92,320.876,355.336,318.269,356.81,313.4Z" transform="translate(-301.473 -237.543)" fill="#263238"></path><path id="Path_162094" data-name="Path 162094" d="M369.239,305.628l-4.787-2.757a6.141,6.141,0,0,0-.846-.487l-.034-.019h0a6.066,6.066,0,0,0-3.528-.45c-9.109,1.505-19.251,8.578-27.11,18.233a4.492,4.492,0,0,0,2.392,3.769l.084.047,4.809,2.792c.2-.228.406-.44.609-.662v-2.529a4.847,4.847,0,0,0,1.03-1.009,37.169,37.169,0,0,1,11.154-10.392,18.09,18.09,0,0,1,8.881-2.832A9.3,9.3,0,0,0,369.239,305.628Z" transform="translate(-306.368 -253.887)" fill="#263238"></path><path id="Path_162095" data-name="Path 162095" d="M350.215,307.135l-.091-.053a3.774,3.774,0,0,0-.434-.225l-.016-.009c-1.749-.8-4.087-.543-6.657.946a19.816,19.816,0,0,0-6.342,6.267c-.384.584-.731,1.193-1.062,1.8a34.215,34.215,0,0,1,7.538-6.052A20.035,20.035,0,0,1,350.215,307.135Z" transform="translate(-300.677 -244.177)" fill="#263238"></path></g><g id="Group_86407" data-name="Group 86407" transform="translate(0.025 13.012)"><path id="Path_162096" data-name="Path 162096" d="M348.834,314.518a18.526,18.526,0,0,1-5.093,4.559,12.175,12.175,0,0,1-1.483.721l.35,3.407-5.8-3.329q-.089-.047-.178-.1l-.047-.025,0,0a4.443,4.443,0,0,1-.584-.409,4.981,4.981,0,0,1-1.024-1.246,6.585,6.585,0,0,0,2.027,4.593,4.141,4.141,0,0,0,.584.406l0,0,.047.028.178.1,5.8,3.329-.353-3.41a11.96,11.96,0,0,0,1.486-.721,19.24,19.24,0,0,0,5.8-5.5A12.531,12.531,0,0,1,348.834,314.518Z" transform="translate(-297.854 -239.966)" fill="#263238"></path><path id="Path_162097" data-name="Path 162097" d="M356.293,305.658a22.034,22.034,0,0,0-5.624,2.392,37.206,37.206,0,0,0-11.154,10.392,4.837,4.837,0,0,1-1.027,1.009V323l-5.421-3.148-.084-.044a4.485,4.485,0,0,1-1.358-1.124,4.494,4.494,0,0,0,2.361,4.469l.084.047,5.418,3.145V322.8a4.848,4.848,0,0,0,1.03-1.009A37.167,37.167,0,0,1,351.671,311.4a24.9,24.9,0,0,1,3.216-1.593C355.293,308.4,355.777,307.026,356.293,305.658Z" transform="translate(-305.032 -258.772)" fill="#263238"></path><path id="Path_162098" data-name="Path 162098" d="M373.342,298.223a40.04,40.04,0,0,0-13.533,5.227c-9.034,5.271-16.981,13.077-23.872,23.251a5.567,5.567,0,0,1-1.642,1.571v3.422l-5.5-3.191-.09-.047a4.519,4.519,0,0,1-1.383-1.149,4.564,4.564,0,0,0,2.385,4.5l.091.047,5.5,3.191v-3.422a5.57,5.57,0,0,0,1.642-1.571c6.892-10.177,14.835-17.98,23.869-23.251a42.1,42.1,0,0,1,11.7-4.843C372.821,300.724,373.111,299.488,373.342,298.223Z" transform="translate(-314.169 -274.554)" fill="#263238"></path><path id="Path_162099" data-name="Path 162099" d="M389.054,290.643c-6.351,1.021-13.152,3.613-20.412,7.841-14.411,8.391-26.988,21.075-37.8,37.749l-.343,4.734-5.589-3.238a5.311,5.311,0,0,1-1.814-1.592,5.337,5.337,0,0,0,2.813,4.937l5.593,3.238.34-4.734c10.81-16.675,23.388-29.359,37.8-37.749a63.412,63.412,0,0,1,17.627-7.294C387.827,293.219,388.414,291.92,389.054,290.643Z" transform="translate(-323.092 -290.643)" fill="#263238"></path></g><g id="Group_86408" data-name="Group 86408" transform="translate(5.502 3.191)"><path id="Path_162100" data-name="Path 162100" d="M356.4,317.287c0,6.1-4.409,13.6-9.842,16.746-3.144,1.824-5.933,1.786-7.735.262-1.321-1.112-2.1-3.029-2.1-5.605a21.5,21.5,0,0,1,9.839-16.75c2.573-1.489,4.912-1.742,6.66-.946l.016.009a4.063,4.063,0,0,1,.434.225C355.361,312.237,356.4,314.323,356.4,317.287Z" transform="translate(-299.644 -238.565)" fill="#455a64"></path><path id="Path_162101" data-name="Path 162101" d="M370.915,312.035c-.231.387-.465.774-.681,1.162a9.281,9.281,0,0,1-7.906,4.518,18.123,18.123,0,0,0-8.881,2.829,37.252,37.252,0,0,0-11.154,10.4,5.071,5.071,0,0,1-6.445,1.408l-.087-.047a4.56,4.56,0,0,1-1.586-6.635c8.162-11.91,20-21,30.473-22.726A6.1,6.1,0,0,1,370.915,312.035Z" transform="translate(-306.783 -254.909)" fill="#455a64"></path><path id="Path_162102" data-name="Path 162102" d="M331.57,341.558l-.09-.05a4.581,4.581,0,0,1-1.677-6.554c7.916-12.056,17.071-21.821,27.523-29.034,12.059-8.328,22.907-11.757,32.556-10.523a5.943,5.943,0,0,1,4.337,8.912l-1.468,2.492a9.306,9.306,0,0,1-9.44,4.347c-6.13-.865-13.04.874-20.725,5.358-9.034,5.271-16.977,13.077-23.872,23.251A5.514,5.514,0,0,1,331.57,341.558Z" transform="translate(-315.919 -271.249)" fill="#455a64"></path><path id="Path_162103" data-name="Path 162103" d="M416.151,298.471q-.464.782-.924,1.558a9.025,9.025,0,0,1-9.83,4.178c-9.933-2.326-21.249.081-33.974,7.488-14.436,8.4-27.029,21.115-37.852,37.827a4.426,4.426,0,0,1-5.792,1.464l-.087-.047a5.373,5.373,0,0,1-1.973-7.675c11.75-18.08,25.412-32.415,41.056-42.633,16.709-10.913,31.619-14.926,44.794-12.409A6.867,6.867,0,0,1,416.151,298.471Z" transform="translate(-324.846 -287.498)" fill="#455a64"></path></g></g></g><g id="Group_86414" data-name="Group 86414" transform="translate(48.887)"><g id="Group_86413" data-name="Group 86413"><path id="Path_162104" data-name="Path 162104" d="M401.014,152.251l5.355,3.082a10.086,10.086,0,0,1-2.664,2.495,6.1,6.1,0,0,1-.834,2.567c-.234.387-.465.771-.681,1.158a9.285,9.285,0,0,1-7.906,4.518A18.089,18.089,0,0,0,385.4,168.9,37.207,37.207,0,0,0,374.25,179.3a4.851,4.851,0,0,1-1.03,1.009v3.544L367.8,180.7l-.084-.047a4.56,4.56,0,0,1-1.589-6.635c8.166-11.91,20.007-21,30.477-22.726a6.067,6.067,0,0,1,3.529.45h0l.034.019A6.483,6.483,0,0,1,401.014,152.251Zm-8.25,23.679a4.416,4.416,0,0,0-.437-.225l-.012-.006c-1.752-.8-4.091-.546-6.661.943a21.489,21.489,0,0,0-9.842,16.75c0,2.576.784,4.493,2.108,5.605a4.446,4.446,0,0,0,.584.409l0,0,.047.025c.059.034.119.072.178.1l5.8,3.329-.353-3.41a11.923,11.923,0,0,0,1.486-.718c5.433-3.148,9.839-10.648,9.839-16.75,0-.29-.016-.565-.037-.837l2.81-2.03Zm22.461-47.563a5.83,5.83,0,0,0-2.526-.952c-9.646-1.233-20.494,2.2-32.553,10.523-10.454,7.216-19.607,16.978-27.522,29.037a4.582,4.582,0,0,0,1.677,6.554l.091.047,5.5,3.191v-3.422a5.572,5.572,0,0,0,1.643-1.571c6.892-10.173,14.835-17.98,23.869-23.251,7.688-4.484,14.6-6.22,20.728-5.358a9.3,9.3,0,0,0,9.44-4.344l1.468-2.495a5.881,5.881,0,0,0,.718-4.081l3.425-.353Zm17.746-20.453-5.055-2.926a6.768,6.768,0,0,0-2.454-1c-13.174-2.517-28.085,1.5-44.794,12.409-15.647,10.22-29.305,24.553-41.056,42.633a5.379,5.379,0,0,0,1.97,7.678l5.593,3.238.343-4.737c10.81-16.675,23.385-29.359,37.8-37.749,12.725-7.407,24.041-9.814,33.974-7.488a9.025,9.025,0,0,0,9.83-4.178q.464-.778.924-1.558a6.821,6.821,0,0,0,.512-5.936Z" transform="translate(-338.74 -103.267)" fill="#263238"></path><g id="Group_86411" data-name="Group 86411" transform="translate(39.126 62.227)"><path id="Path_162105" data-name="Path 162105" d="M365.871,123.926l-.088-.053a4.118,4.118,0,0,0-.437-.225l-.016-.009c-1.749-.8-4.088-.543-6.658.946a19.817,19.817,0,0,0-6.342,6.267c-.384.584-.731,1.193-1.062,1.808a34.146,34.146,0,0,1,7.538-6.055A20.1,20.1,0,0,1,365.871,123.926Z" transform="translate(-351.27 -123.195)" fill="#8cd9ff"></path></g><g id="Group_86412" data-name="Group 86412" transform="translate(5.502 3.191)"><path id="Path_162106" data-name="Path 162106" d="M372.057,134.077c0,6.1-4.409,13.6-9.842,16.747-3.144,1.824-5.933,1.786-7.735.262-1.321-1.112-2.1-3.029-2.1-5.608a21.5,21.5,0,0,1,9.839-16.746c2.573-1.49,4.912-1.742,6.661-.946l.016.009a4.079,4.079,0,0,1,.434.225C371.017,129.028,372.057,131.114,372.057,134.077Z" transform="translate(-315.3 -55.356)" fill="#455a64"></path><path id="Path_162107" data-name="Path 162107" d="M386.571,128.829c-.231.384-.465.771-.681,1.158a9.281,9.281,0,0,1-7.906,4.518,18.1,18.1,0,0,0-8.881,2.832A37.241,37.241,0,0,0,357.95,147.73a5.07,5.07,0,0,1-6.445,1.408l-.087-.047a4.56,4.56,0,0,1-1.586-6.635c8.162-11.91,20.007-21,30.473-22.726A6.1,6.1,0,0,1,386.571,128.829Z" transform="translate(-322.439 -71.7)" fill="#455a64"></path><path id="Path_162108" data-name="Path 162108" d="M347.224,158.349l-.091-.047a4.59,4.59,0,0,1-1.677-6.557c7.916-12.056,17.071-21.818,27.522-29.034,12.059-8.328,22.907-11.757,32.556-10.523a5.943,5.943,0,0,1,4.337,8.912l-1.468,2.495a9.3,9.3,0,0,1-9.44,4.344c-6.13-.862-13.04.874-20.725,5.358-9.034,5.271-16.977,13.077-23.872,23.251A5.51,5.51,0,0,1,347.224,158.349Z" transform="translate(-331.573 -88.04)" fill="#455a64"></path><path id="Path_162109" data-name="Path 162109" d="M431.807,115.262q-.464.782-.924,1.558a9.025,9.025,0,0,1-9.83,4.178c-9.933-2.326-21.249.081-33.974,7.488-14.433,8.4-27.029,21.115-37.852,37.827a4.43,4.43,0,0,1-5.792,1.468l-.087-.05a5.373,5.373,0,0,1-1.973-7.675c11.75-18.08,25.412-32.416,41.056-42.633,16.709-10.913,31.619-14.926,44.794-12.409A6.866,6.866,0,0,1,431.807,115.262Z" transform="translate(-340.502 -104.289)" fill="#455a64"></path></g></g></g><g id="Group_86418" data-name="Group 86418" transform="translate(854.226 551.053)"><g id="Group_86417" data-name="Group 86417"><path id="Path_162110" data-name="Path 162110" d="M644.254,350.208l-7.707,4.434a14.621,14.621,0,0,0,3.832,3.591,8.723,8.723,0,0,0,1.2,3.688c.334.559.665,1.115.978,1.67a13.355,13.355,0,0,0,11.372,6.5c3.85.022,8.125,1.358,12.778,4.072a53.6,53.6,0,0,1,16.047,14.951,6.789,6.789,0,0,0,1.48,1.452v5.1l7.794-4.525.122-.066a6.559,6.559,0,0,0,2.286-9.546c-11.744-17.134-28.781-30.2-43.844-32.694a8.673,8.673,0,0,0-5.074.65l0,0-.047.028A8.641,8.641,0,0,0,644.254,350.208Zm11.866,34.064a5.957,5.957,0,0,1,.628-.325l.022-.009c2.517-1.149,5.883-.784,9.58,1.358a28.521,28.521,0,0,1,9.121,9.018c3.082,4.7,5.037,10.2,5.037,15.076,0,3.71-1.13,6.467-3.032,8.066a6.749,6.749,0,0,1-.84.587l0,0-.065.037c-.084.053-.169.1-.256.15l-8.337,4.787.506-4.9a17.327,17.327,0,0,1-2.136-1.037c-7.816-4.525-14.158-15.319-14.158-24.094,0-.418.025-.812.053-1.205l-4.04-2.92Zm-32.312-68.425a8.385,8.385,0,0,1,3.631-1.368c13.88-1.777,29.487,3.157,46.836,15.135,15.036,10.38,28.2,24.425,39.592,41.771a6.594,6.594,0,0,1-2.411,9.43l-.131.069-7.916,4.59V380.55a7.919,7.919,0,0,1-2.361-2.258c-9.917-14.635-21.346-25.868-34.342-33.449-11.054-6.451-21-8.949-29.814-7.707a13.391,13.391,0,0,1-13.58-6.251L621.2,327.3a8.452,8.452,0,0,1-1.036-5.87l-4.927-.509ZM598.28,286.423l7.269-4.209a9.726,9.726,0,0,1,3.535-1.43c18.951-3.622,40.4,2.151,64.438,17.849,22.508,14.7,42.161,35.326,59.064,61.334a7.737,7.737,0,0,1-2.835,11.045l-8.044,4.656-.493-6.81c-15.554-23.988-33.646-42.236-54.377-54.3-18.308-10.657-34.586-14.117-48.875-10.773a12.988,12.988,0,0,1-14.142-6.011q-.665-1.119-1.33-2.242a9.823,9.823,0,0,1-.734-8.54Z" transform="translate(-593.181 -279.74)" fill="#263238"></path><g id="Group_86415" data-name="Group 86415" transform="translate(63.367 89.519)"><path id="Path_162111" data-name="Path 162111" d="M616.94,309.457l.128-.075a6.129,6.129,0,0,1,.625-.322l.022-.012c2.517-1.149,5.883-.784,9.58,1.358a28.523,28.523,0,0,1,9.121,9.018c.553.84,1.052,1.714,1.527,2.6a49.24,49.24,0,0,0-10.842-8.712A28.944,28.944,0,0,0,616.94,309.457Z" transform="translate(-616.94 -308.408)" fill="#8cd9ff"></path></g><g id="Group_86416" data-name="Group 86416" transform="translate(0 4.59)"><path id="Path_162112" data-name="Path 162112" d="M613.01,324.063c0,8.774,6.342,19.569,14.155,24.094,4.524,2.62,8.537,2.57,11.129.375,1.9-1.6,3.029-4.356,3.029-8.066,0-4.881-1.952-10.376-5.037-15.076a28.492,28.492,0,0,0-9.121-9.018c-3.7-2.142-7.064-2.507-9.581-1.358l-.022.012a5.566,5.566,0,0,0-.624.322C614.5,316.8,613.01,319.8,613.01,324.063Z" transform="translate(-561.915 -210.816)" fill="#455a64"></path><path id="Path_162113" data-name="Path 162113" d="M610.451,316.51c.334.559.668,1.115.981,1.671a13.347,13.347,0,0,0,11.372,6.5c3.85.022,8.125,1.358,12.775,4.075A53.493,53.493,0,0,1,651.625,343.7a7.29,7.29,0,0,0,9.274,2.024l.125-.066a6.559,6.559,0,0,0,2.283-9.546c-11.744-17.134-28.781-30.2-43.841-32.694A8.768,8.768,0,0,0,610.451,316.51Z" transform="translate(-569.969 -234.329)" fill="#455a64"></path><path id="Path_162114" data-name="Path 162114" d="M694.021,358.979l.128-.069a6.592,6.592,0,0,0,2.414-9.43c-11.388-17.346-24.556-31.391-39.594-41.771-17.349-11.978-32.953-16.912-46.833-15.135a8.548,8.548,0,0,0-6.242,12.818L606,308.98a13.388,13.388,0,0,0,13.58,6.251c8.818-1.243,18.76,1.258,29.818,7.706,12.993,7.582,24.425,18.814,34.342,33.449A7.922,7.922,0,0,0,694.021,358.979Z" transform="translate(-583.793 -257.835)" fill="#455a64"></path><path id="Path_162115" data-name="Path 162115" d="M598.04,297c.443.749.887,1.5,1.33,2.245a12.987,12.987,0,0,0,14.142,6.008c14.289-3.347,30.567.115,48.872,10.773,20.765,12.088,38.882,30.373,54.452,54.417a6.371,6.371,0,0,0,8.337,2.108l.125-.065a7.735,7.735,0,0,0,2.838-11.045C711.23,335.428,691.58,314.8,669.073,300.1c-24.038-15.7-45.49-21.471-64.441-17.849A9.874,9.874,0,0,0,598.04,297Z" transform="translate(-596.647 -281.21)" fill="#455a64"></path></g></g></g><g id="Group_86422" data-name="Group 86422" transform="translate(454.021 313.764)"><g id="Group_86421" data-name="Group 86421"><path id="Path_162116" data-name="Path 162116" d="M516.089,274.167l-7.7,4.434a14.566,14.566,0,0,0,3.828,3.591,8.725,8.725,0,0,0,1.2,3.688c.334.559.668,1.115.98,1.671a13.347,13.347,0,0,0,11.373,6.5c3.85.022,8.125,1.358,12.774,4.072a53.567,53.567,0,0,1,16.047,14.951,7.007,7.007,0,0,0,1.48,1.452v5.1l7.794-4.525.125-.066a6.559,6.559,0,0,0,2.283-9.546c-11.744-17.134-28.778-30.2-43.841-32.694a8.659,8.659,0,0,0-5.077.65v0l-.05.028A8.816,8.816,0,0,0,516.089,274.167Zm11.869,34.064a5.587,5.587,0,0,1,.624-.325l.022-.009c2.517-1.149,5.883-.784,9.58,1.358a28.461,28.461,0,0,1,9.121,9.018c3.085,4.7,5.037,10.2,5.037,15.076,0,3.706-1.127,6.467-3.029,8.066a6.519,6.519,0,0,1-.843.584l.006.006-.065.037c-.087.05-.172.1-.259.147l-8.334,4.79.5-4.906a17.29,17.29,0,0,1-2.136-1.034c-7.813-4.525-14.155-15.319-14.155-24.094,0-.418.025-.812.053-1.205l-4.044-2.92Zm-32.313-68.425a8.385,8.385,0,0,1,3.632-1.368c13.88-1.777,29.483,3.157,46.833,15.135,15.039,10.38,28.206,24.425,39.594,41.771a6.593,6.593,0,0,1-2.414,9.43l-.128.069-7.916,4.59v-4.924a7.954,7.954,0,0,1-2.361-2.258c-9.917-14.639-21.349-25.868-34.342-33.449-11.057-6.451-21-8.949-29.818-7.707a13.393,13.393,0,0,1-13.58-6.251l-2.111-3.588A8.472,8.472,0,0,1,492,245.386l-4.924-.509Zm-25.53-29.424,7.269-4.209a9.616,9.616,0,0,1,3.535-1.43c19.073-3.554,40.912,2.426,64.441,17.849,22.482,14.739,42.158,35.326,59.064,61.334a7.731,7.731,0,0,1-2.838,11.042l-8.044,4.659-.493-6.814c-15.551-23.985-33.643-42.233-54.377-54.3-18.3-10.657-34.586-14.12-48.872-10.773a12.989,12.989,0,0,1-14.142-6.011q-.665-1.119-1.33-2.242a9.812,9.812,0,0,1-.734-8.54Z" transform="translate(-465.018 -203.749)" fill="#263238"></path><g id="Group_86419" data-name="Group 86419" transform="translate(63.365 89.469)"><path id="Path_162117" data-name="Path 162117" d="M488.775,233.45l.128-.075a6.575,6.575,0,0,1,.628-.325l.022-.009c2.517-1.149,5.88-.784,9.58,1.358a28.523,28.523,0,0,1,9.121,9.018c.55.84,1.052,1.714,1.527,2.6a49.265,49.265,0,0,0-10.845-8.712A28.945,28.945,0,0,0,488.775,233.45Z" transform="translate(-488.775 -232.401)" fill="#8cd9ff"></path></g><g id="Group_86420" data-name="Group 86420" transform="translate(0 4.541)"><path id="Path_162118" data-name="Path 162118" d="M484.845,248.057c0,8.774,6.342,19.569,14.158,24.094,4.525,2.62,8.537,2.57,11.126.375,1.9-1.6,3.032-4.356,3.032-8.066,0-4.881-1.955-10.376-5.037-15.076A28.521,28.521,0,0,0,499,240.366c-3.7-2.142-7.063-2.507-9.58-1.358l-.022.009a5.958,5.958,0,0,0-.628.325C486.341,240.793,484.845,243.794,484.845,248.057Z" transform="translate(-433.752 -134.809)" fill="#455a64"></path><path id="Path_162119" data-name="Path 162119" d="M482.287,240.5c.334.556.668,1.115.977,1.671a13.356,13.356,0,0,0,11.376,6.5c3.85.022,8.122,1.358,12.774,4.072a53.6,53.6,0,0,1,16.047,14.951,7.29,7.29,0,0,0,9.274,2.027l.122-.066a6.559,6.559,0,0,0,2.286-9.546c-11.744-17.134-28.781-30.2-43.844-32.694A8.767,8.767,0,0,0,482.287,240.5Z" transform="translate(-441.804 -158.322)" fill="#455a64"></path><path id="Path_162120" data-name="Path 162120" d="M565.857,282.972l.128-.069a6.592,6.592,0,0,0,2.411-9.43c-11.388-17.346-24.556-31.391-39.591-41.771-17.349-11.978-32.956-16.912-46.836-15.135a8.547,8.547,0,0,0-6.239,12.818l2.111,3.588a13.391,13.391,0,0,0,13.58,6.251c8.815-1.243,18.76,1.255,29.815,7.707,13,7.582,24.425,18.814,34.342,33.449A7.929,7.929,0,0,0,565.857,282.972Z" transform="translate(-455.628 -181.828)" fill="#455a64"></path><path id="Path_162121" data-name="Path 162121" d="M469.873,220.988l1.33,2.242a12.989,12.989,0,0,0,14.142,6.011c14.289-3.347,30.57.116,48.875,10.773,20.765,12.088,38.883,30.373,54.452,54.417a6.371,6.371,0,0,0,8.334,2.108l.128-.069a7.733,7.733,0,0,0,2.835-11.042c-16.9-26.008-36.556-46.633-59.064-61.334-24.035-15.7-45.487-21.471-64.438-17.849A9.877,9.877,0,0,0,469.873,220.988Z" transform="translate(-468.483 -205.203)" fill="#455a64"></path></g></g></g><g id="Group_86427" data-name="Group 86427" transform="translate(937.022 59.899)"><g id="Group_86426" data-name="Group 86426"><path id="Path_162122" data-name="Path 162122" d="M660.981,178.427l-6.124,3.522A11.581,11.581,0,0,0,657.9,184.8a6.871,6.871,0,0,0,.955,2.929c.262.443.528.887.778,1.327a10.6,10.6,0,0,0,9.034,5.162,20.737,20.737,0,0,1,10.149,3.235,42.567,42.567,0,0,1,12.746,11.878,5.542,5.542,0,0,0,1.174,1.152v4.05l6.192-3.594.1-.053a5.212,5.212,0,0,0,1.817-7.582c-9.33-13.611-22.864-23.994-34.829-25.971a6.888,6.888,0,0,0-4.031.515h0l-.037.022A6.553,6.553,0,0,0,660.981,178.427Zm9.424,27.057a5.005,5.005,0,0,1,.5-.256l.015-.009c2-.912,4.675-.621,7.61,1.08a22.654,22.654,0,0,1,7.247,7.16,22.883,22.883,0,0,1,4,11.978c0,2.945-.9,5.137-2.408,6.408a5.807,5.807,0,0,1-.668.465l0,0-.053.031c-.066.037-.134.078-.2.115l-6.623,3.8.4-3.894a14.057,14.057,0,0,1-1.7-.824c-6.208-3.594-11.245-12.169-11.245-19.138,0-.331.022-.646.044-.956l-3.213-2.32Zm-25.667-54.352a6.666,6.666,0,0,1,2.885-1.09c11.026-1.408,23.423,2.511,37.206,12.025,11.944,8.247,22.4,19.4,31.447,33.181a5.237,5.237,0,0,1-1.914,7.491l-.1.053-6.289,3.647V202.53a6.334,6.334,0,0,1-1.877-1.8c-7.875-11.629-16.956-20.547-27.279-26.57-8.781-5.124-16.681-7.11-23.685-6.123a10.631,10.631,0,0,1-10.785-4.965l-1.677-2.848a6.72,6.72,0,0,1-.824-4.665l-3.913-.4ZM624.459,127.76l5.777-3.344a7.673,7.673,0,0,1,2.807-1.137c15.054-2.879,32.094,1.708,51.185,14.177,17.88,11.678,33.49,28.06,46.917,48.722a6.139,6.139,0,0,1-2.251,8.771l-6.392,3.7-.39-5.411c-12.353-19.054-26.726-33.549-43.195-43.135-14.539-8.465-27.472-11.216-38.823-8.559a10.314,10.314,0,0,1-11.232-4.774c-.353-.59-.706-1.187-1.059-1.78a7.807,7.807,0,0,1-.581-6.785Z" transform="translate(-620.409 -122.449)" fill="#263238"></path><g id="Group_86423" data-name="Group 86423" transform="translate(4.05)"><path id="Path_162123" data-name="Path 162123" d="M630.236,124.416a7.673,7.673,0,0,1,2.807-1.137c15.054-2.879,32.094,1.708,51.185,14.177,16.213,10.589,30.552,25.056,43.1,43.064a6.109,6.109,0,0,1-3.194,6.02l-4.684,2.71c-.655-.952-1.315-1.9-1.98-2.829l-.116-1.593C705,165.774,690.624,151.279,674.155,141.69c-14.542-8.465-27.473-11.213-38.823-8.556a10.305,10.305,0,0,1-8.609-1.867,7.941,7.941,0,0,1,.5-3.063l-2.764-.443Z" transform="translate(-624.459 -122.449)" fill="#263238"></path><path id="Path_162124" data-name="Path 162124" d="M634.6,132.565a6.665,6.665,0,0,1,2.885-1.09c11.026-1.408,23.423,2.511,37.206,12.025A114.931,114.931,0,0,1,702.209,171a5.2,5.2,0,0,1-2.748,4.756l-.1.056-5.608,3.251c-.228-.315-.45-.65-.684-.962v-2.554a6.284,6.284,0,0,1-1.873-1.8c-7.878-11.625-16.956-20.547-27.279-26.57-8.784-5.121-16.681-7.107-23.685-6.12a10.933,10.933,0,0,1-8.6-2.389,7.019,7.019,0,0,1,.075-1.68l-1.761-.181c-.168-.237-.353-.459-.5-.715l-.209-.359Z" transform="translate(-614.323 -103.882)" fill="#263238"></path><path id="Path_162125" data-name="Path 162125" d="M637.159,153.214l6.289-3.647a5,5,0,0,1,.5-.256l.015-.009c2-.912,4.675-.621,7.61,1.08a22.654,22.654,0,0,1,7.247,7.16,26.4,26.4,0,0,1,2.988,6.173,5.658,5.658,0,0,1-.955,1.059,5.127,5.127,0,0,1-.668.465l0,.006-.053.028c-.066.041-.135.081-.2.119l-6.623,3.8.4-3.9a13.557,13.557,0,0,1-1.7-.821C647.32,161.76,638.845,158.778,637.159,153.214Z" transform="translate(-597.502 -66.532)" fill="#263238"></path><path id="Path_162126" data-name="Path 162126" d="M634.4,144.334l5.474-3.148a6.55,6.55,0,0,1,.965-.556l.037-.022h0a6.888,6.888,0,0,1,4.031-.515c10.411,1.721,22,9.8,30.982,20.837a5.132,5.132,0,0,1-2.732,4.306l-.1.053-5.5,3.191c-.231-.262-.465-.506-.7-.756v-2.895a5.418,5.418,0,0,1-1.177-1.152A42.522,42.522,0,0,0,652.947,151.8a20.686,20.686,0,0,0-10.148-3.235A10.633,10.633,0,0,1,634.4,144.334Z" transform="translate(-603.354 -85.209)" fill="#263238"></path><path id="Path_162127" data-name="Path 162127" d="M639.282,146.056l.1-.059a5.026,5.026,0,0,1,.5-.256l.016-.009c2-.915,4.674-.621,7.61,1.077a22.693,22.693,0,0,1,7.247,7.163c.437.668.834,1.361,1.212,2.064a39.117,39.117,0,0,0-8.612-6.92A22.975,22.975,0,0,0,639.282,146.056Z" transform="translate(-592.996 -74.112)" fill="#263238"></path></g><g id="Group_86424" data-name="Group 86424" transform="translate(36.328 14.869)"><path id="Path_162128" data-name="Path 162128" d="M641.6,154.5a21.25,21.25,0,0,0,5.82,5.208,13.991,13.991,0,0,0,1.7.821l-.4,3.9,6.62-3.8c.072-.037.137-.078.206-.119l.053-.031,0,0a5.108,5.108,0,0,0,.669-.465,5.859,5.859,0,0,0,1.171-1.424,7.534,7.534,0,0,1-2.317,5.249,5.814,5.814,0,0,1-.668.465l0,0-.053.031c-.066.037-.134.078-.2.115l-6.623,3.8.4-3.894a14.047,14.047,0,0,1-1.7-.824,21.98,21.98,0,0,1-6.626-6.283A14.215,14.215,0,0,0,641.6,154.5Z" transform="translate(-624.487 -69.298)" fill="#263238"></path><path id="Path_162129" data-name="Path 162129" d="M640.175,144.37A24.9,24.9,0,0,1,646.6,147.1a42.521,42.521,0,0,1,12.746,11.875,5.483,5.483,0,0,0,1.177,1.152v4.053l6.192-3.6.1-.05a5.128,5.128,0,0,0,1.552-1.283,5.13,5.13,0,0,1-2.7,5.105l-.1.053L659.379,168v-4.05A5.541,5.541,0,0,1,658.2,162.8a42.569,42.569,0,0,0-12.746-11.878,29.216,29.216,0,0,0-3.678-1.817C641.315,147.505,640.765,145.931,640.175,144.37Z" transform="translate(-623.379 -90.789)" fill="#263238"></path><path id="Path_162130" data-name="Path 162130" d="M637.28,135.873a45.787,45.787,0,0,1,15.466,5.974c10.323,6.023,19.4,14.945,27.279,26.57a6.322,6.322,0,0,0,1.874,1.8v3.913l6.289-3.647.1-.056a5.168,5.168,0,0,0,1.583-1.311,5.217,5.217,0,0,1-2.726,5.137l-.1.053-6.289,3.647v-3.909a6.331,6.331,0,0,1-1.877-1.8C671,160.613,661.923,151.7,651.6,145.672a48.02,48.02,0,0,0-13.365-5.533C637.873,138.733,637.545,137.319,637.28,135.873Z" transform="translate(-629.524 -108.825)" fill="#263238"></path><path id="Path_162131" data-name="Path 162131" d="M634.8,127.211c7.254,1.165,15.026,4.128,23.326,8.959,16.468,9.589,30.842,24.085,43.195,43.139l.39,5.408,6.389-3.7a6.066,6.066,0,0,0,2.07-1.82,6.1,6.1,0,0,1-3.213,5.643l-6.392,3.7-.39-5.411c-12.353-19.054-26.726-33.549-43.195-43.136a72.444,72.444,0,0,0-20.141-8.337C636.2,130.156,635.527,128.669,634.8,127.211Z" transform="translate(-634.796 -127.211)" fill="#263238"></path></g><g id="Group_86425" data-name="Group 86425" transform="translate(0 3.646)"><path id="Path_162132" data-name="Path 162132" d="M636.16,157.657c0,6.97,5.037,15.544,11.245,19.138,3.594,2.083,6.782,2.042,8.84.3,1.511-1.268,2.408-3.46,2.408-6.4A24.55,24.55,0,0,0,647.4,151.55c-2.935-1.7-5.608-1.992-7.61-1.08l-.016.009a4.414,4.414,0,0,0-.5.256C637.346,151.887,636.16,154.269,636.16,157.657Z" transform="translate(-595.573 -67.698)" fill="#455a64"></path><path id="Path_162133" data-name="Path 162133" d="M634.126,151.657c.265.443.531.884.781,1.327a10.608,10.608,0,0,0,9.034,5.162,20.738,20.738,0,0,1,10.149,3.235,42.56,42.56,0,0,1,12.746,11.875,5.792,5.792,0,0,0,7.366,1.611l.1-.053a5.209,5.209,0,0,0,1.814-7.582c-9.327-13.611-22.86-23.994-34.823-25.971A6.966,6.966,0,0,0,634.126,151.657Z" transform="translate(-601.97 -86.376)" fill="#455a64"></path><path id="Path_162134" data-name="Path 162134" d="M700.511,185.394l.1-.053a5.237,5.237,0,0,0,1.914-7.491c-9.046-13.78-19.5-24.937-31.451-33.184-13.78-9.512-26.177-13.433-37.2-12.022a6.79,6.79,0,0,0-4.955,10.183l1.677,2.851a10.632,10.632,0,0,0,10.786,4.965c7-.987,14.9,1,23.685,6.123,10.323,6.02,19.4,14.942,27.279,26.57A6.3,6.3,0,0,0,700.511,185.394Z" transform="translate(-612.95 -105.049)" fill="#455a64"></path><path id="Path_162135" data-name="Path 162135" d="M624.267,136.158l1.059,1.78a10.314,10.314,0,0,0,11.232,4.774c11.351-2.657,24.284.091,38.823,8.559,16.493,9.6,30.889,24.125,43.254,43.223a5.06,5.06,0,0,0,6.62,1.677l.1-.053a6.145,6.145,0,0,0,2.251-8.775c-13.427-20.659-29.037-37.04-46.917-48.719-19.092-12.469-36.131-17.056-51.186-14.18A7.847,7.847,0,0,0,624.267,136.158Z" transform="translate(-623.162 -123.617)" fill="#455a64"></path></g></g></g></g><g id="Group_86434" data-name="Group 86434" transform="translate(360.615 104.9)"><g id="Group_86433" data-name="Group 86433"><g id="Group_86429" data-name="Group 86429" transform="translate(499.378 96.21)"><path id="Path_162136" data-name="Path 162136" d="M497.993,355.9l-2.966-.987c.078-.225,1.886-5.618,5.8-14.757l2.873,1.233C499.839,350.388,498.009,355.843,497.993,355.9Zm12.191-28.684-2.813-1.361c2.251-4.646,4.656-9.355,7.144-14l2.748,1.474C514.8,317.932,512.417,322.6,510.184,327.212Zm14.71-27.473-2.692-1.583c2.642-4.493,5.411-8.993,8.225-13.377l2.629,1.689C530.259,290.815,527.518,295.283,524.895,299.739Zm16.837-26.2-2.554-1.792c3.016-4.3,6.136-8.565,9.268-12.665l2.483,1.9C547.821,265.047,544.726,269.275,541.732,273.541Zm18.9-24.725-2.4-2c3.36-4.034,6.826-8.016,10.3-11.835l2.314,2.1C567.4,240.872,563.961,244.819,560.63,248.816Zm20.946-22.989-2.214-2.2c3.7-3.706,7.513-7.357,11.338-10.845l2.1,2.3C589.017,218.539,585.239,222.155,581.576,225.828Zm22.964-20.934-1.989-2.4c4.028-3.332,8.178-6.592,12.337-9.689l1.867,2.5C612.633,198.371,608.527,201.6,604.54,204.894Zm24.9-18.542-1.73-2.6c4.353-2.9,8.818-5.717,13.274-8.359l1.589,2.685C638.164,180.694,633.745,183.476,629.436,186.352Zm26.692-15.825-1.446-2.77c4.625-2.411,9.365-4.725,14.1-6.876l1.293,2.842C665.393,165.852,660.7,168.138,656.128,170.526Zm28.234-12.834-1.134-2.907c4.846-1.889,9.811-3.672,14.761-5.293l.977,2.966C694.067,154.064,689.155,155.825,684.362,157.693Zm198.662-9.515c-5.055-1.149-10.176-2.226-15.226-3.194l.593-3.066c5.081.977,10.239,2.058,15.329,3.219Zm-169.2-.15-.812-3.016c4.99-1.34,10.117-2.573,15.238-3.663l.653,3.054C723.838,145.48,718.764,146.7,713.827,148.028Zm138.646-5.708c-5.127-.793-10.311-1.5-15.41-2.092l.362-3.1c5.137.6,10.361,1.305,15.529,2.108Zm-108.316-.74-.49-3.085c5.112-.812,10.339-1.505,15.532-2.061l.334,3.1C754.39,140.091,749.219,140.778,744.157,141.58Zm77.431-2.842c-5.19-.393-10.411-.678-15.519-.846l.1-3.119c5.152.169,10.42.456,15.657.852ZM775,138.261l-.181-3.116c5.146-.3,10.42-.481,15.666-.543l.038,3.123C785.322,137.783,780.1,137.964,775,138.261Z" transform="translate(-495.027 -134.601)" fill="#272727"></path></g><g id="Group_86430" data-name="Group 86430" transform="translate(599.435 451.655)"><path id="Path_162137" data-name="Path 162137" d="M728.6,338.006c-2.807-3.588-5.7-7.135-8.609-10.539l2.379-2.023c2.932,3.435,5.855,7.016,8.687,10.642Zm-18.985-22.077c-3.6-3.8-7.307-7.479-11-10.942l2.133-2.28c3.744,3.507,7.488,7.229,11.132,11.07Zm-22.645-21.184c-4.034-3.322-8.169-6.495-12.291-9.436l1.811-2.545c4.184,2.985,8.375,6.2,12.462,9.568ZM661.744,276.8c-4.45-2.689-9.012-5.2-13.558-7.463l1.393-2.795c4.622,2.3,9.262,4.853,13.783,7.585Zm-27.691-13.755c-4.806-1.9-9.724-3.582-14.623-5.012l.874-2.995c4.987,1.455,10,3.173,14.895,5.1Zm-105.769-3.853-1.214-2.879a95.724,95.724,0,0,1,15.254-4.472l.671,3.051A94.1,94.1,0,0,0,528.285,259.188ZM604.4,254.4c-5.055-.968-10.2-1.7-15.3-2.173l.284-3.113c5.2.487,10.448,1.233,15.6,2.22Zm-46.164-1.98-.337-3.1a156.681,156.681,0,0,1,15.744-.887l.019,3.123A153.914,153.914,0,0,0,558.234,252.422Z" transform="translate(-527.07 -248.431)" fill="#272727"></path></g><g id="Group_86431" data-name="Group 86431" transform="translate(0 387.847)"><path id="Path_162138" data-name="Path 162138" d="M337.92,394.834l-2.817-1.349c.1-.212,2.576-5.365,7.644-13.883l2.682,1.6C340.443,389.582,337.945,394.781,337.92,394.834Zm15.81-26.811-2.6-1.727c2.864-4.312,5.892-8.646,9-12.884l2.517,1.845C359.565,359.458,356.568,363.752,353.729,368.024Zm18.389-25.115-2.433-1.955c3.282-4.087,6.682-8.134,10.1-12.022l2.345,2.061C378.741,334.849,375.372,338.856,372.118,342.909Zm20.55-23.366-2.248-2.164c3.635-3.778,7.391-7.494,11.154-11.048l2.142,2.267C399.987,312.12,396.271,315.8,392.668,319.542Zm22.6-21.346-2.03-2.373c3.981-3.407,8.075-6.745,12.172-9.911l1.908,2.47C423.266,291.517,419.213,294.821,415.269,298.2ZM439.85,279.2l-1.777-2.57c4.3-2.976,8.721-5.867,13.14-8.587l1.636,2.66C448.478,273.4,444.1,276.257,439.85,279.2Zm26.442-16.259-1.486-2.748c4.609-2.492,9.321-4.868,14.014-7.063l1.324,2.826C475.507,258.13,470.848,260.482,466.292,262.945ZM494.38,249.79l-1.158-2.9c4.837-1.927,9.8-3.738,14.745-5.38l.98,2.966C504.06,246.1,499.161,247.885,494.38,249.79Zm197.823-2.8c-4.98-1.536-10.008-2.985-14.945-4.3l.806-3.016c4.971,1.324,10.039,2.785,15.06,4.334Zm-168.4-6.951L523,237.019c5.034-1.34,10.17-2.548,15.276-3.585l.621,3.06C533.853,237.521,528.776,238.711,523.8,240.035ZM662.157,239c-5.087-1.13-10.217-2.151-15.245-3.038l.543-3.076c5.074.893,10.248,1.924,15.379,3.063Zm-107.982-5.146-.44-3.091c5.146-.737,10.386-1.33,15.582-1.767l.262,3.11C564.445,232.538,559.261,233.125,554.175,233.852Zm77.378-.234c-5.171-.659-10.37-1.2-15.451-1.592l.244-3.113c5.127.4,10.379.943,15.6,1.608Zm-46.486-2.386-.084-3.123q7.715-.215,15.694-.012l-.084,3.123Q592.709,231.009,585.067,231.232Z" transform="translate(-335.103 -227.997)" fill="#272727"></path></g><g id="Group_86432" data-name="Group 86432" transform="translate(201.26)"><path id="Path_162139" data-name="Path 162139" d="M584.748,466.563l-3.123-.119c0-.047.19-5.065.19-13.727l0-1.824,3.123-.016,0,1.839C584.938,461.446,584.748,466.514,584.748,466.563Zm-3.157-31.3c-.122-4.771-.293-10-.543-15.622l3.116-.141c.256,5.643.428,10.895.549,15.688ZM580.2,404.03c-.318-4.99-.7-10.2-1.143-15.582l3.11-.259c.453,5.408.831,10.632,1.149,15.641ZM577.609,372.9q-.787-7.588-1.761-15.513l3.1-.384q.988,7.944,1.767,15.576Zm-3.859-30.982q-1.119-7.616-2.439-15.413l3.079-.525q1.326,7.827,2.451,15.485ZM568.5,311.161q-1.494-7.6-3.207-15.263l3.048-.684c1.13,5.037,2.211,10.2,3.223,15.344Zm-6.838-30.423c-1.312-5.127-2.692-10.183-4.1-15.023l3-.874c1.415,4.874,2.8,9.964,4.119,15.123Zm-8.7-29.921c-1.652-5.021-3.385-9.961-5.155-14.689l2.923-1.1c1.786,4.768,3.535,9.749,5.2,14.807Zm-10.92-29.137c-2.064-4.849-4.225-9.611-6.432-14.155l2.81-1.361c2.226,4.587,4.412,9.4,6.495,14.292Zm-13.6-27.929c-2.554-4.581-5.237-9.059-7.975-13.3l2.623-1.7c2.776,4.3,5.493,8.84,8.078,13.477Zm-16.828-26.017c-3.154-4.187-6.448-8.216-9.792-11.969l2.329-2.077c3.4,3.816,6.751,7.91,9.958,12.169Zm-20.578-23.017a150.808,150.808,0,0,0-11.788-9.942l1.886-2.486a154.408,154.408,0,0,1,12.031,10.142ZM466.5,126.16a134.135,134.135,0,0,0-13.618-7.123l1.286-2.845a137.882,137.882,0,0,1,13.936,7.288Zm-27.963-12.628a138.151,138.151,0,0,0-14.879-3.841l.612-3.063a140.829,140.829,0,0,1,15.22,3.931Zm-30.12-6.055c-2.9-.269-5.883-.459-8.865-.568l.116-3.119c3.035.109,6.077.306,9.037.578Z" transform="translate(-399.556 -103.79)" fill="#272727"></path></g></g></g></g></svg>