<svg xmlns="http://www.w3.org/2000/svg" width="1143.129" height="739.243" viewBox="0 0 1143.129 739.243"><g id="Threat_Assessment" data-name="Threat Assessment" transform="translate(0)"><path id="Path_163888" data-name="Path 163888" d="M829.022,622.1c-117.6.006-219.919-87.721-235.034-207.377l2.889-.365c14.929,118.177,116,204.823,232.147,204.829a234.9,234.9,0,0,0,29.509-1.862c128.107-16.184,219.156-133.565,202.974-261.664l2.889-.365c16.384,129.692-75.8,248.535-205.491,264.917A238.4,238.4,0,0,1,829.022,622.1Z" transform="translate(-31.177 -123.554)" fill="#3f3d56"></path><path id="Path_163889" data-name="Path 163889" d="M821.495,311.385A81.656,81.656,0,1,1,974.244,253.6l-2.724,1.031a78.743,78.743,0,1,0-147.3,55.72Z" transform="translate(70.127 -193.983)" fill="#3f3d56"></path><path id="Path_163890" data-name="Path 163890" d="M1033.341,445.4H885.326a14.979,14.979,0,0,1-14.962-14.962V234.445a14.979,14.979,0,0,1,14.962-14.962h148.015a14.979,14.979,0,0,1,14.962,14.962V430.434A14.979,14.979,0,0,1,1033.341,445.4Z" transform="translate(94.825 -185.473)" fill="#e6e6e6"></path><path id="Path_163891" data-name="Path 163891" d="M970.977,429.976h-78.8a14.029,14.029,0,0,1-14.013-14.012V241.56a14.029,14.029,0,0,1,14.013-14.012h127.206a14.028,14.028,0,0,1,14.012,14.012v126a62.487,62.487,0,0,1-62.418,62.416Z" transform="translate(98.381 -181.796)" fill="#fff"></path><path id="Path_163892" data-name="Path 163892" d="M999.37,289.7H897.543a3.321,3.321,0,1,1,0-6.642H999.37a3.321,3.321,0,1,1,0,6.642Z" transform="translate(105.702 -156.488)" fill="#e4e4e4"></path><path id="Path_163893" data-name="Path 163893" d="M999.37,298.714H897.543a3.321,3.321,0,1,1,0-6.642H999.37a3.321,3.321,0,1,1,0,6.642Z" transform="translate(105.702 -152.379)" fill="#e4e4e4"></path><path id="Path_163894" data-name="Path 163894" d="M941.683,307.728h-44.14a3.321,3.321,0,1,1,0-6.642h44.14a3.321,3.321,0,0,1,0,6.642Z" transform="translate(105.702 -148.269)" fill="#e4e4e4"></path><path id="Path_163895" data-name="Path 163895" d="M999.37,252.893H897.543a3.321,3.321,0,1,1,0-6.642H999.37a3.321,3.321,0,1,1,0,6.642Z" transform="translate(105.702 -173.269)" fill="#e4e4e4"></path><path id="Path_163896" data-name="Path 163896" d="M999.37,261.906H897.543a3.321,3.321,0,1,1,0-6.642H999.37a3.321,3.321,0,1,1,0,6.642Z" transform="translate(105.702 -169.16)" fill="#e4e4e4"></path><path id="Path_163897" data-name="Path 163897" d="M941.683,270.92h-44.14a3.321,3.321,0,1,1,0-6.642h44.14a3.321,3.321,0,1,1,0,6.642Z" transform="translate(105.702 -165.051)" fill="#e4e4e4"></path><path id="Path_163898" data-name="Path 163898" d="M999.37,327.8H897.543a3.321,3.321,0,1,1,0-6.642H999.37a3.321,3.321,0,1,1,0,6.642Z" transform="translate(105.702 -139.12)" fill="#fb9d4b"></path><path id="Path_163899" data-name="Path 163899" d="M913.472,336.81H897.543a3.321,3.321,0,1,1,0-6.642h15.929a3.321,3.321,0,1,1,0,6.642Z" transform="translate(105.702 -135.011)" fill="#fb9d4b"></path><path id="Path_163900" data-name="Path 163900" d="M941.683,345.824h-44.14a3.321,3.321,0,1,1,0-6.642h44.14a3.321,3.321,0,0,1,0,6.642Z" transform="translate(105.702 -130.901)" fill="#fb9d4b"></path><path id="Path_163901" data-name="Path 163901" d="M598.289,428.189A136.9,136.9,0,0,1,854.38,331.316l-2.724,1.031a133.988,133.988,0,0,0-250.643,94.812Z" transform="translate(-33.27 -174.836)" fill="#3f3d56"></path><circle id="Ellipse_7936" data-name="Ellipse 7936" cx="13.898" cy="13.898" r="13.898" transform="translate(805.642 2.322)" fill="#e6e6e6"></circle><circle id="Ellipse_7937" data-name="Ellipse 7937" cx="13.898" cy="13.898" r="13.898" transform="translate(824.569 402.697)" fill="#e6e6e6"></circle><circle id="Ellipse_7938" data-name="Ellipse 7938" cx="13.898" cy="13.898" r="13.898" transform="translate(467.872 72.205)" fill="#e6e6e6"></circle><path id="Path_163902" data-name="Path 163902" d="M779.819,799.576H461.655a32.2,32.2,0,0,1-32.161-32.161V346.129a32.2,32.2,0,0,1,32.161-32.161H779.819a32.2,32.2,0,0,1,32.162,32.161V767.415A32.2,32.2,0,0,1,779.819,799.576Z" transform="translate(-106.171 -142.397)" fill="#e6e6e6"></path><path id="Path_163903" data-name="Path 163903" d="M650.48,765.333H476.115a29.318,29.318,0,0,1-29.284-29.285V361.163a29.317,29.317,0,0,1,29.284-29.284H749.55a29.317,29.317,0,0,1,29.284,29.284V636.98A128.5,128.5,0,0,1,650.48,765.333Z" transform="translate(-98.266 -134.231)" fill="#fff"></path><path id="Path_163904" data-name="Path 163904" d="M706.8,385.784H487.916a7.138,7.138,0,1,1,0-14.277H706.8a7.138,7.138,0,0,1,0,14.277Z" transform="translate(-82.79 -116.164)" fill="#fb9d4b"></path><path id="Path_163905" data-name="Path 163905" d="M706.8,405.158H487.917a7.139,7.139,0,1,1,0-14.278H706.8a7.139,7.139,0,0,1,0,14.278Z" transform="translate(-82.79 -107.331)" fill="#fb9d4b"></path><path id="Path_163906" data-name="Path 163906" d="M582.8,424.533h-94.88a7.139,7.139,0,0,1,0-14.278H582.8a7.139,7.139,0,0,1,0,14.278Z" transform="translate(-82.79 -98.498)" fill="#fb9d4b"></path><path id="Path_163907" data-name="Path 163907" d="M706.8,465.11H487.916a7.138,7.138,0,1,1,0-14.277H706.8a7.138,7.138,0,0,1,0,14.277Z" transform="translate(-82.79 -79.999)" fill="#e4e4e4"></path><path id="Path_163908" data-name="Path 163908" d="M706.8,484.485H487.917a7.139,7.139,0,1,1,0-14.277H706.8a7.139,7.139,0,0,1,0,14.278Z" transform="translate(-82.79 -71.166)" fill="#e4e4e4"></path><path id="Path_163909" data-name="Path 163909" d="M582.8,503.859h-94.88a7.139,7.139,0,0,1,0-14.278H582.8a7.139,7.139,0,0,1,0,14.278Z" transform="translate(-82.79 -62.333)" fill="#e4e4e4"></path><path id="Path_163910" data-name="Path 163910" d="M706.8,544.437H487.916a7.138,7.138,0,1,1,0-14.277H706.8a7.138,7.138,0,0,1,0,14.277Z" transform="translate(-82.79 -43.833)" fill="#e4e4e4"></path><path id="Path_163911" data-name="Path 163911" d="M706.8,563.811H487.917a7.139,7.139,0,0,1,0-14.278H706.8a7.139,7.139,0,0,1,0,14.278Z" transform="translate(-82.79 -35)" fill="#e4e4e4"></path><path id="Path_163912" data-name="Path 163912" d="M582.8,583.186h-94.88a7.139,7.139,0,0,1,0-14.278H582.8a7.139,7.139,0,0,1,0,14.278Z" transform="translate(-82.79 -26.167)" fill="#e4e4e4"></path><path id="Path_163913" data-name="Path 163913" d="M894.049,509.662H732.923a16.306,16.306,0,0,1-16.287-16.287V280.026a16.306,16.306,0,0,1,16.287-16.287H894.049a16.306,16.306,0,0,1,16.287,16.287V493.375a16.306,16.306,0,0,1-16.287,16.287Z" transform="translate(24.74 -165.296)" fill="#e6e6e6"></path><path id="Path_163914" data-name="Path 163914" d="M830.428,492.792h-90.07A15.206,15.206,0,0,1,725.169,477.6V287.753a15.207,15.207,0,0,1,15.189-15.19H878.831a15.207,15.207,0,0,1,15.19,15.19V429.2a63.665,63.665,0,0,1-63.593,63.594Z" transform="translate(28.63 -161.273)" fill="#fff"></path><path id="Path_163915" data-name="Path 163915" d="M857.068,300.108H746.222a3.615,3.615,0,0,1,0-7.23H857.068a3.615,3.615,0,0,1,0,7.23Z" transform="translate(36.58 -152.011)" fill="#e4e4e4"></path><path id="Path_163916" data-name="Path 163916" d="M857.068,309.92H746.222a3.615,3.615,0,0,1,0-7.23H857.068a3.615,3.615,0,0,1,0,7.23Z" transform="translate(36.58 -147.538)" fill="#e4e4e4"></path><path id="Path_163917" data-name="Path 163917" d="M794.271,319.732H746.222a3.615,3.615,0,1,1,0-7.23h48.049a3.615,3.615,0,0,1,0,7.23Z" transform="translate(36.58 -143.065)" fill="#e4e4e4"></path><path id="Path_163918" data-name="Path 163918" d="M857.068,340.281H746.222a3.615,3.615,0,0,1,0-7.23H857.068a3.615,3.615,0,0,1,0,7.23Z" transform="translate(36.58 -133.696)" fill="#fb9d4b"></path><path id="Path_163919" data-name="Path 163919" d="M827.95,350.093H746.222a3.615,3.615,0,0,1,0-7.23H827.95a3.615,3.615,0,1,1,0,7.23Z" transform="translate(36.58 -129.223)" fill="#fb9d4b"></path><path id="Path_163920" data-name="Path 163920" d="M794.271,359.9H746.222a3.615,3.615,0,1,1,0-7.23h48.049a3.615,3.615,0,0,1,0,7.23Z" transform="translate(36.58 -124.75)" fill="#fb9d4b"></path><path id="Path_163921" data-name="Path 163921" d="M857.068,380.454H746.222a3.615,3.615,0,0,1,0-7.23H857.068a3.615,3.615,0,0,1,0,7.23Z" transform="translate(36.58 -115.381)" fill="#e4e4e4"></path><path id="Path_163922" data-name="Path 163922" d="M857.068,390.265H746.222a3.615,3.615,0,0,1,0-7.23H857.068a3.615,3.615,0,1,1,0,7.23Z" transform="translate(36.58 -110.908)" fill="#e4e4e4"></path><path id="Path_163923" data-name="Path 163923" d="M794.271,400.077H746.222a3.615,3.615,0,1,1,0-7.23h48.049a3.615,3.615,0,0,1,0,7.23Z" transform="translate(36.58 -106.435)" fill="#e4e4e4"></path><path id="Path_163924" data-name="Path 163924" d="M343.647,502.44a12.472,12.472,0,0,0-2.487-18.961l10.221-43.125-21.633,7.9L323.359,488a12.539,12.539,0,0,0,20.288,14.443Z" transform="translate(-155.26 -84.776)" fill="#ffb8b8"></path><path id="Path_163925" data-name="Path 163925" d="M395.131,384.5l-8.682,22.324s3.721,22.324-2.48,27.285-3.721,4.961-3.721,8.682a19.078,19.078,0,0,1-7.441,13.643c-4.961,3.721-27.285,79.376-27.285,79.376H323.2a69.951,69.951,0,0,0,0-17.364c-1.24-8.682,3.721-31.006,6.2-34.727s0-8.682,0-16.123,4.961-11.162,4.961-23.565S349.242,334.894,348,323.731s12.4-21.084,12.4-21.084h12.4Z" transform="translate(-154.722 -147.558)" fill="#fb9d4b"></path><path id="Path_163926" data-name="Path 163926" d="M236.151,197.33l20.635,92.086-132.23-8.226,35.957-90.437Z" transform="translate(56.786 86.966)" fill="#ffb8b8"></path><path id="Path_163927" data-name="Path 163927" d="M212.127,656.016A141.079,141.079,0,0,0,230.34,696.1c18.17,27.473,44.172,48.482,72.752,65.3,1.98,1.179,3.989,2.329,6,3.465h20.048l.7-1.6v-.015l.815-1.849.1-.218.044.218.8,3.465h9.842c.815-1.15,1.616-2.3,2.4-3.465,1.15-1.7,2.257-3.421,3.3-5.168a83.925,83.925,0,0,0,4.95-9.493c.175-.364.32-.728.466-1.092l-.655-.713,2.722-11.909-5.474-.9,6-18.5c-.218-.684-.466-1.369-.728-2.053-3.363-8.517-9.682-14.879-17.18-20.223-7.716-5.518-16.7-9.944-24.954-14.544-3.873-2.169-7.687-4.455-11.4-6.872V669.9q-7.119-4.608-13.817-9.857a2.087,2.087,0,0,1-.218-.16,1.557,1.557,0,0,1-.175-.146,205.139,205.139,0,0,1-49.952-56.678.015.015,0,0,1-.01,0,.014.014,0,0,1,0-.01c-.437-.7-.844-1.4-1.252-2.111v-.015a198.369,198.369,0,0,1-13.7-28.609V572.3c-.291-.728-.553-1.456-.83-2.184q-.568.961-1.092,1.922a.014.014,0,0,0-.01,0,.014.014,0,0,0,0,.01C205.706,597.313,204.367,627.742,212.127,656.016Z" transform="translate(-207.417 -25.616)" fill="#f0f0f0"></path><path id="Path_163928" data-name="Path 163928" d="M215.945,572.28a176.7,176.7,0,0,0,4.178,40.1,172.565,172.565,0,0,0,4.892,17.82,176.67,176.67,0,0,0,14.748,32.9c.335.568.655,1.121,1,1.674v.015A149.042,149.042,0,0,0,249.14,677.4a69.479,69.479,0,0,0,16.6,16.685,43.8,43.8,0,0,0,17.442,6.741c1.165.218,2.359.379,3.567.524,4.819.568,9.8.786,14.574,1.805a31.814,31.814,0,0,1,7.018,2.257c7.687,3.567,12.011,11.036,13.9,19.014.335,1.4.6,2.81.8,4.222,1.587,10.846-.16,22.115.743,32.976.1,1.15.233,2.315.393,3.465h1.078l.7-1.6v-.015c-.073-.611-.131-1.223-.189-1.849a140.18,140.18,0,0,1-.131-16.03c.058-2.4.1-4.819.073-7.236-.029-1.936-.1-3.873-.247-5.794v-.015c-.1-1.194-.218-2.373-.379-3.552a45.987,45.987,0,0,0-2.65-10.556,26.428,26.428,0,0,0-15.025-15.549,39.318,39.318,0,0,0-6.508-1.82c-4.877-.932-9.915-1.165-14.821-1.776-.524-.058-1.048-.131-1.558-.218-.655-.1-1.3-.218-1.936-.335a41.737,41.737,0,0,1-17.7-7.673,75.569,75.569,0,0,1-15.986-17.354c-2.388-3.421-4.659-6.916-6.77-10.512a.015.015,0,0,0,0-.01.015.015,0,0,0-.01,0c-.1-.175-.2-.335-.306-.51l-.015-.029a174.086,174.086,0,0,1-19.6-49.748c-.131-.641-.277-1.281-.422-1.922a176,176,0,0,1-3.887-38.436v-.015c0-.611.014-1.208.029-1.82.029-1.252-1.907-1.529-1.936-.277-.015.611-.029,1.223-.015,1.834a.015.015,0,0,0-.01,0A.014.014,0,0,0,215.945,572.28Z" transform="translate(-203.534 -25.843)" fill="#fff"></path><path id="Path_163929" data-name="Path 163929" d="M243.971,637.672a26.233,26.233,0,0,1-33.041-7.885c-.741-1.018.807-2.217,1.548-1.2a24.291,24.291,0,0,0,30.75,7.272c1.12-.576,1.856,1.238.743,1.81Z" transform="translate(-205.905 0.865)" fill="#fff"></path><path id="Path_163930" data-name="Path 163930" d="M262.172,670.643a50.561,50.561,0,0,0-1.79-36.8c-.517-1.15,1.295-1.891,1.811-.743a52.591,52.591,0,0,1,1.785,38.3c-.406,1.195-2.209.433-1.805-.755Z" transform="translate(-183.312 2.835)" fill="#fff"></path><path id="Path_163931" data-name="Path 163931" d="M219.745,601.375a14.849,14.849,0,0,0,10.224-9.7c.39-1.2,2.193-.436,1.805.755a16.64,16.64,0,0,1-11.287,10.751,1.011,1.011,0,0,1-1.277-.534.983.983,0,0,1,.534-1.276Z" transform="translate(-202.073 -16.061)" fill="#fff"></path><path id="Path_163932" data-name="Path 163932" d="M271.666,677.277v.015a191.075,191.075,0,0,0,3.887,30.924v.015c.117.7.277,1.383.422,2.067a268.608,268.608,0,0,0,14.719,46.021q2.6,6.29,5.445,12.448c.524,1.165,1.063,2.315,1.616,3.465h2.155l.7-1.6v-.015l.815-1.849.1-.218.044.218.8,3.465H323.19l4.047-3.465,5.9-5.052-8.24-9-1.354-1.485-.2-.218-.655-.713,2.722-11.909-5.474-.9,6-18.5,2.839-8.75.713-2.2,4.149-12.8,12.521,2.344,2.038-7.134a197.981,197.981,0,0,1-9.347-26.8c-.015-.073-.044-.131-.058-.2a206.129,206.129,0,0,1-5.853-75.649v-.015c.087-.815.189-1.645.306-2.446V587.3a194.559,194.559,0,0,1,6.29-31.069c.2-.772.437-1.529.655-2.286-.67.291-1.325.568-1.995.859l-.015.015h-.029c-1.063.466-2.126.961-3.159,1.485-24.838,12.069-43.109,34.723-53.49,60.842-.029.073-.058.131-.087.2a140.339,140.339,0,0,0-9.565,42.847,167.223,167.223,0,0,0-.175,17.078Z" transform="translate(-178.189 -32.988)" fill="#f0f0f0"></path><path id="Path_163933" data-name="Path 163933" d="M297.572,709.827h2.3c.728-1.179,1.514-2.329,2.3-3.465q1.878-2.642,3.873-5.168c1.15-1.456,2.3-2.9,3.451-4.339,1.194-1.5,2.373-3,3.523-4.542l-1.354-1.485c-.218.291-.437.582-.67.874-3.727,4.906-7.76,9.624-11.211,14.661C299.013,707.5,298.271,708.647,297.572,709.827Z" transform="translate(-166.315 29.416)" fill="#fff"></path><path id="Path_163934" data-name="Path 163934" d="M331.335,555.046c-.379.48-.772.975-1.136,1.471q-4.258,5.525-8.051,11.4a171.781,171.781,0,0,0-11.968,21.62c-.277.582-.553,1.179-.815,1.776a173.636,173.636,0,0,0-14.326,51.6c-.029.175-.044.335-.058.51q-.721,6.246-.932,12.535a75.389,75.389,0,0,0,2.315,23.469c.291,1,.611,1.994.961,2.955a39.807,39.807,0,0,0,3.276,6.77,40.653,40.653,0,0,0,3.116,4.5c.684.874,1.4,1.732,2.155,2.562.437.48.888.961,1.339,1.441.379.364.743.742,1.121,1.107,3.931,3.814,8.27,7.352,11.822,11.56l-.713,2.2c-3.421-4.339-7.833-7.935-11.807-11.72a55.181,55.181,0,0,1-6.785-7.687c-.262-.379-.539-.757-.786-1.15a38.944,38.944,0,0,1-3.48-6.246c-.495-1.092-.946-2.213-1.354-3.378a69.726,69.726,0,0,1-3.2-23.294,150.583,150.583,0,0,1,.9-15.127c.058-.655.131-1.3.218-1.951a178.475,178.475,0,0,1,28.07-76.173q3.6-5.481,7.643-10.7c.349-.48.713-.946,1.092-1.427C330.724,552.673,332.107,554.056,331.335,555.046Z" transform="translate(-168.86 -33.273)" fill="#fff"></path><path id="Path_163935" data-name="Path 163935" d="M300.035,624.172A26.233,26.233,0,0,1,278.4,597.984a.979.979,0,0,1,1.957-.024,24.291,24.291,0,0,0,20.173,24.32c1.241.215.737,2.106-.5,1.893Z" transform="translate(-175.056 -13.348)" fill="#fff"></path><path id="Path_163936" data-name="Path 163936" d="M301.321,661.467A50.562,50.562,0,0,0,322.051,631c.279-1.229,2.172-.73,1.893.5a52.592,52.592,0,0,1-21.635,31.657c-1.043.71-2.024-.984-.987-1.69Z" transform="translate(-164.807 1.819)" fill="#fff"></path><path id="Path_163937" data-name="Path 163937" d="M304.467,578.6a14.849,14.849,0,0,0,14-1.586c1.034-.723,2.014.972.987,1.69A16.639,16.639,0,0,1,303.97,580.5a1.011,1.011,0,0,1-.7-1.195.983.983,0,0,1,1.195-.7Z" transform="translate(-163.728 -22.551)" fill="#fff"></path><path id="Path_163938" data-name="Path 163938" d="M186.083,505.134h14.853L208,447.841H186.08Z" transform="translate(84.835 204.174)" fill="#ffb8b8"></path><path id="Path_163939" data-name="Path 163939" d="M390.971,678.722l23.48-1.4v10.06L436.774,702.8a6.284,6.284,0,0,1-3.571,11.455H405.25l-4.818-9.951-1.881,9.951h-10.54Z" transform="translate(-125.083 23.259)" fill="#2f2e41"></path><path id="Path_163940" data-name="Path 163940" d="M89.657,499.65l14.517,3.148,19.051-54.492L101.8,443.66Z" transform="translate(40.875 202.268)" fill="#ffb8b8"></path><path id="Path_163941" data-name="Path 163941" d="M298.03,672.589l23.244,3.608-2.133,9.831,18.547,19.8a6.284,6.284,0,0,1-5.918,10.437l-27.319-5.926-2.6-10.746-3.948,9.326-10.3-2.235Z" transform="translate(-170.859 21.102)" fill="#2f2e41"></path><path id="Path_163942" data-name="Path 163942" d="M225.222,703.23a1.727,1.727,0,0,0,1.733,1.732H635.031a1.733,1.733,0,1,0,0-3.465H226.955a1.728,1.728,0,0,0-1.733,1.733Z" transform="translate(-199.3 34.281)" fill="#ccc"></path><path id="Path_163943" data-name="Path 163943" d="M484.237,544.5c-10.424,57.29-13.03,82.026-13.03,82.026s7.818,9.114,2.606,14.326,0,15.622,0,15.622L460.168,765.429l-2.912,16.015-27.325-3.856,4.03-15.071-7.015-104.736s-5.212-10.424-2.606-13.03-2.606-18.228-2.606-18.228l-6.508-123.694L374.855,638.243s3.916,5.212,0,9.114-11.705,23.44-11.705,23.44L333.5,749.414l-5.824,11.647-3.1-1.468-13.627-2.562-2.5-.466L304,755.721l-2.868-.539-.976-.175-4.717-.888,1.427-6.333L307.3,731.943l10.616-77.7.466-2.082.495-2.2s-2.606-6.508,1.3-10.424a10.174,10.174,0,0,0,2.606-9.114,3.541,3.541,0,0,1-.349-.437,5.405,5.405,0,0,1-.932-2.126c-.349-1.631-.044-3.916,2.592-6.552a11.115,11.115,0,0,0,1.849-2.65c3.96-7.5,5.955-23.382,5.955-23.382s3.523-125.8,15.054-145.023c.612-1,12.852-20.29,13.493-20.683,13.016-7.8,114.6,1.519,114.6,1.519s6.142,16.5,6.419,18.218C482.956,458.962,493.075,495.9,484.237,544.5Z" transform="translate(-167.289 -91.111)" fill="#2f2e41"></path><path id="Path_163944" data-name="Path 163944" d="M513.286,319.867A12.472,12.472,0,0,1,497.2,330.209l-26.334,35.648-7.931-21.622L489.159,313.7a12.539,12.539,0,0,1,24.128,6.169Z" transform="translate(-90.925 -146.178)" fill="#ffb8b8"></path><path id="Path_163945" data-name="Path 163945" d="M333.9,484.77c-2.414,0-3.785-.473-4.317-1.489-.779-1.49.573-3.436,2.138-5.691a17.41,17.41,0,0,0,2.713-4.887c.936-3.745,7.255-98.342,3.476-117.243-.874-4.373-.122-9.98,2.236-16.662,6.441-18.25,15.234-23.859,32.749-35.031q2.133-1.361,4.442-2.842c1.991-1.28,1.88-5.522,1.763-10.015-.13-4.993-.265-10.157,2.181-13.385l.159-.21.257-.06c5.917-1.368,25.817-3.907,37.6.018l.163.055.122.121c2.8,2.8,3.055,8.222,3.3,13.466.2,4.305.393,8.37,1.977,10.136,12.109,13.5,25.842,13.234,25.981,13.231l.68-.02.068.677c5.267,53.574,13.758,134.435,15.562,137.617a.949.949,0,0,1,.03.984C464.534,458.489,343,484.77,333.9,484.77ZM465.935,453.352Z" transform="translate(-151.824 -160.082)" fill="#fb9d4b"></path><circle id="Ellipse_7939" data-name="Ellipse 7939" cx="35.913" cy="35.913" r="35.913" transform="translate(225.253 30.181)" fill="#ffb8b8"></circle><path id="Path_163946" data-name="Path 163946" d="M455.563,327.865c-1.7-2.431-10.337-32.128-14.12-41.244-.387,1.959-4.726,9.554-4.827,11.576l-.038.749-.743.1c-1.118.143-27.532,3.349-41.278-12.238-8.144-9.233-9.991-23.082-5.5-41.17a7.171,7.171,0,0,1-2.315-.892,9.939,9.939,0,0,1-4.237-7.219l-.761.2c-3.876,1.046-8.248,2.429-11.072,5.623-3.144,3.552-3.7,8.378-4.3,13.487a58.284,58.284,0,0,1-1.152,7.252c-1.915,7.727-7.307,14.964-16.026,21.511-8.777,6.592-17.727,10.363-26.6,11.206-10.48,1-20.587-2.443-27.027-9.2-7.182-7.537-9.06-19.132-4.468-27.571l.739-1.359.812,1.317c4.088,6.635,13.02,10.218,21.724,8.712,7.463-1.291,14.861-6.029,20.832-13.343,5.451-6.676,9.21-14.56,12.846-22.185,3.7-7.753,7.522-15.77,13.029-22.573,6.212-7.673,13.965-12.684,21.831-14.112,5.728-1.035,10.84.138,14.026,3.226a13.358,13.358,0,0,1,3.753,8.607,10.793,10.793,0,0,1,5.9.339,10.942,10.942,0,0,1,6.754,8.953c11.541-6.071,26.816-5.083,34.716-.528,3.308,1.907,5.207,4.31,5.544,6.989,9.331.521,19.367,9.61,19.367,22.488v.9h-.9c-7.385,0-14.127,4.247-18.036,11.361a26.379,26.379,0,0,0,.811,26.916,37.952,37.952,0,0,1,5.237,29.017l-3.37,14.766Z" transform="translate(-170.402 -196.123)" fill="#2f2e41"></path><path id="Path_163947" data-name="Path 163947" d="M455.569,415.055,431.9,401.739c-41.282-28.614-51.45-51.338-52.721-65.367-1.356-14.97,6.619-23.158,6.96-23.5l.184-.135,21.34-10.9a21.478,21.478,0,0,1,29.956,11.787l19.739,54.288,21.885-16.142,9.333-3.678,7.531-10.07,20.684-12.064,15.366,13.83-19.324,38.647-10.736,2.734-2.277,5.865-.2.129Z" transform="translate(-129.182 -149)" fill="#fb9d4b"></path></g></svg>