<svg xmlns="http://www.w3.org/2000/svg" viewBox="0 0 1302.2 456.15"><defs><style>.cls-1{fill:#ed7d39;}.cls-2{isolation:isolate;}.cls-3{font-size:30px;font-family:OpenSans-Bold, Open Sans;font-weight:700;}</style></defs><g id="Layer_2" data-name="Layer 2"><g id="GRAPHIC"><g id="Group_85214" data-name="Group 85214"><g id="Group_85201" data-name="Group 85201"><path id="Path_159239" data-name="Path 159239" class="cls-1" d="M95.23,240.27A18.64,18.64,0,0,1,86,237.79L9.28,193.52A18.61,18.61,0,0,1,0,177.45V88.92A18.62,18.62,0,0,1,9.28,72.84L71.92,36.67l1.9,3.3L11.18,76.13A14.8,14.8,0,0,0,3.8,88.92v88.52a14.83,14.83,0,0,0,7.38,12.79l76.67,44.26a14.81,14.81,0,0,0,14.77,0l15.24-8.8a18.65,18.65,0,0,1,16.36-1.09l18.1,7.46,2.6-19.41A18.67,18.67,0,0,1,164,199l15.25-8.81a14.8,14.8,0,0,0,7.38-12.78V88.91a14.83,14.83,0,0,0-7.38-12.79L116.64,40l1.9-3.29,62.64,36.16a18.63,18.63,0,0,1,9.29,16.08v88.52a18.61,18.61,0,0,1-9.29,16.08l-15.24,8.8a14.86,14.86,0,0,0-7.26,10.83l-3.24,24.31-22.67-9.34a14.89,14.89,0,0,0-13,.86l-15.24,8.81A18.7,18.7,0,0,1,95.23,240.27Z"></path></g><g id="Group_85212" data-name="Group 85212"><path id="Path_159327" data-name="Path 159327" class="cls-1" d="M95.23,54.1a26.84,26.84,0,1,1,26.84-26.84h0A26.86,26.86,0,0,1,95.23,54.1Zm0-49.88a23,23,0,1,0,23,23A23,23,0,0,0,95.23,4.22Z"></path></g></g><g id="Group_85244" data-name="Group 85244"><g id="Group_85241" data-name="Group 85241"><path id="Path_159435" data-name="Path 159435" class="cls-1" d="M315.71,240.27a18.64,18.64,0,0,1-9.28-2.48l-76.67-44.27a18.59,18.59,0,0,1-9.28-16.08V88.92a18.6,18.6,0,0,1,9.28-16.08L292.4,36.67,294.31,40,231.67,76.13a14.79,14.79,0,0,0-7.39,12.79v88.52a14.82,14.82,0,0,0,7.39,12.79l76.66,44.26a14.81,14.81,0,0,0,14.77,0l15.24-8.8a18.65,18.65,0,0,1,16.36-1.09l18.1,7.46,2.6-19.41A18.65,18.65,0,0,1,384.52,199l15.24-8.81a14.78,14.78,0,0,0,7.38-12.78V88.91a14.81,14.81,0,0,0-7.38-12.79L337.12,40l1.9-3.29,62.64,36.16A18.63,18.63,0,0,1,411,88.92v88.52a18.63,18.63,0,0,1-9.29,16.08l-15.24,8.8a14.86,14.86,0,0,0-7.26,10.83l-3.24,24.31-22.67-9.34a14.89,14.89,0,0,0-13,.86L325,237.79A18.7,18.7,0,0,1,315.71,240.27Z"></path></g><g id="Group_85242" data-name="Group 85242"><path id="Path_159436" data-name="Path 159436" class="cls-1" d="M315.72,54.1a26.84,26.84,0,1,1,26.83-26.84h0A26.86,26.86,0,0,1,315.72,54.1Zm0-49.88a23,23,0,1,0,23,23A23,23,0,0,0,315.72,4.22Z"></path></g></g><g id="Group_85265" data-name="Group 85265"><g id="Group_85262" data-name="Group 85262"><path id="Path_159522" data-name="Path 159522" class="cls-1" d="M536.19,240.27a18.64,18.64,0,0,1-9.28-2.48l-76.67-44.27A18.61,18.61,0,0,1,441,177.45V88.92a18.6,18.6,0,0,1,9.28-16.08l62.64-36.16L514.79,40,452.14,76.13a14.8,14.8,0,0,0-7.38,12.79v88.52a14.83,14.83,0,0,0,7.38,12.79l76.67,44.26a14.81,14.81,0,0,0,14.77,0l15.24-8.8a18.65,18.65,0,0,1,16.36-1.09l18.1,7.46,2.6-19.41A18.69,18.69,0,0,1,605,199l15.25-8.8a14.83,14.83,0,0,0,7.38-12.79V88.92a14.8,14.8,0,0,0-7.38-12.79L557.6,40l1.9-3.29,62.64,36.17a18.6,18.6,0,0,1,9.28,16.08v88.52a18.6,18.6,0,0,1-9.28,16.08l-15.25,8.81a14.86,14.86,0,0,0-7.25,10.82l-3.24,24.31-22.67-9.34a14.89,14.89,0,0,0-13,.86l-15.24,8.8A18.61,18.61,0,0,1,536.19,240.27Z"></path></g><g id="Group_85263" data-name="Group 85263"><path id="Path_159523" data-name="Path 159523" class="cls-1" d="M536.19,54.1A26.84,26.84,0,1,1,563,27.26h0A26.86,26.86,0,0,1,536.19,54.1Zm0-49.88a23,23,0,1,0,23,23A23,23,0,0,0,536.19,4.22Z"></path></g></g><g id="Group_85279" data-name="Group 85279"><g id="Group_85276" data-name="Group 85276"><path id="Path_159608" data-name="Path 159608" class="cls-1" d="M756.67,240.27a18.64,18.64,0,0,1-9.28-2.48l-76.67-44.27a18.61,18.61,0,0,1-9.28-16.07V88.92a18.6,18.6,0,0,1,9.28-16.08l62.64-36.17,1.9,3.29L672.62,76.13a14.8,14.8,0,0,0-7.38,12.79v88.52a14.83,14.83,0,0,0,7.38,12.79l76.67,44.26a14.79,14.79,0,0,0,14.76,0l15.25-8.81a18.69,18.69,0,0,1,16.36-1.08l18.11,7.46,2.59-19.41A18.7,18.7,0,0,1,825.47,199l15.25-8.8a14.8,14.8,0,0,0,7.38-12.79V88.92a14.79,14.79,0,0,0-7.38-12.79L778.08,40l1.9-3.29,62.64,36.16a18.6,18.6,0,0,1,9.28,16.08v88.52a18.6,18.6,0,0,1-9.28,16.08l-15.25,8.8a14.88,14.88,0,0,0-7.25,10.83l-3.24,24.31-22.67-9.34a14.89,14.89,0,0,0-13,.86L766,237.79A18.64,18.64,0,0,1,756.67,240.27Z"></path></g><g id="Group_85277" data-name="Group 85277"><path id="Path_159609" data-name="Path 159609" class="cls-1" d="M756.67,54.1a26.84,26.84,0,1,1,26.84-26.84h0A26.86,26.86,0,0,1,756.67,54.1Zm0-49.88a23,23,0,1,0,23,23A23,23,0,0,0,756.67,4.22Z"></path></g></g><g id="Group_85279-2" data-name="Group 85279"><g id="Group_85276-2" data-name="Group 85276"><path id="Path_159608-2" data-name="Path 159608" class="cls-1" d="M980.28,240.27a18.64,18.64,0,0,1-9.28-2.48l-76.67-44.27a18.61,18.61,0,0,1-9.28-16.07V88.92a18.6,18.6,0,0,1,9.28-16.08L957,36.67l1.9,3.29L896.24,76.13a14.79,14.79,0,0,0-7.39,12.79v88.52a14.82,14.82,0,0,0,7.39,12.79l76.66,44.26a14.79,14.79,0,0,0,14.76,0l15.25-8.81a18.69,18.69,0,0,1,16.36-1.08l18.11,7.46,2.59-19.41a18.7,18.7,0,0,1,9.11-13.62l15.25-8.8a14.78,14.78,0,0,0,7.38-12.79V88.92a14.79,14.79,0,0,0-7.38-12.79L1001.69,40l1.9-3.29,62.64,36.16a18.6,18.6,0,0,1,9.28,16.08v88.52a18.6,18.6,0,0,1-9.28,16.08l-15.25,8.8a14.88,14.88,0,0,0-7.25,10.83l-3.24,24.31-22.67-9.34a14.86,14.86,0,0,0-13,.86l-15.25,8.81A18.7,18.7,0,0,1,980.28,240.27Z"></path></g><g id="Group_85277-2" data-name="Group 85277"><path id="Path_159609-2" data-name="Path 159609" class="cls-1" d="M980.28,54.1a26.84,26.84,0,1,1,26.84-26.84h0A26.86,26.86,0,0,1,980.28,54.1Zm0-49.88a23,23,0,1,0,23,23A23,23,0,0,0,980.28,4.22Z"></path></g></g><g id="Group_85298" data-name="Group 85298"><g id="Group_85280" data-name="Group 85280"><path id="Path_159611" data-name="Path 159611" class="cls-1" d="M1207,239.85a18.53,18.53,0,0,1-9.28-2.48L1121,193.11a18.64,18.64,0,0,1-9.28-16.08V88.5A18.62,18.62,0,0,1,1121,72.42l62.64-36.17,1.9,3.3-62.64,36.16a14.8,14.8,0,0,0-7.38,12.79V177a14.83,14.83,0,0,0,7.38,12.79l76.67,44.26a14.79,14.79,0,0,0,14.76,0L1291,189.81a14.83,14.83,0,0,0,7.38-12.79V88.5A14.8,14.8,0,0,0,1291,75.71l-62.64-36.16,1.91-3.29,62.63,36.16a18.61,18.61,0,0,1,9.29,16.08V177a18.61,18.61,0,0,1-9.29,16.08l-76.66,44.26A18.61,18.61,0,0,1,1207,239.85Z"></path></g><g id="Group_85296" data-name="Group 85296"><path id="Path_159696" data-name="Path 159696" class="cls-1" d="M1207,53.68a26.84,26.84,0,1,1,26.84-26.84h0A26.86,26.86,0,0,1,1207,53.68Zm0-49.88a23,23,0,1,0,23,23A23,23,0,0,0,1207,3.8Z"></path></g></g><g id="Group_85313" data-name="Group 85313"><g id="Group_85310" data-name="Group 85310"><path id="Path_159785" data-name="Path 159785" class="cls-1" d="M229.06,420.47l-1.9-3.29,62.36-36a14.8,14.8,0,0,0,7.38-12.78V279.86a14.83,14.83,0,0,0-7.38-12.79L278,260.45a18.7,18.7,0,0,1-9.11-13.62l-2.6-19.41-18.1,7.46a18.44,18.44,0,0,1-16.35-1.09l-19-11a14.79,14.79,0,0,0-14.76,0l-76.67,44.26A14.8,14.8,0,0,0,114,279.86v88.52a14.83,14.83,0,0,0,7.38,12.79l62.37,36-1.9,3.3-62.37-36a18.62,18.62,0,0,1-9.28-16.08V279.86a18.62,18.62,0,0,1,9.28-16.08l76.67-44.26a18.59,18.59,0,0,1,18.56,0l19,11a14.64,14.64,0,0,0,13,.86L269.45,222l3.24,24.31A14.86,14.86,0,0,0,280,257.16l11.47,6.62a18.62,18.62,0,0,1,9.28,16.08v88.52a18.59,18.59,0,0,1-9.28,16.08Z"></path></g><g id="Group_85311" data-name="Group 85311"><path id="Path_159786" data-name="Path 159786" class="cls-1" d="M205.47,456.15a26.84,26.84,0,1,1,26.85-26.84h0A26.87,26.87,0,0,1,205.47,456.15Zm0-49.88a23,23,0,1,0,23,23A23,23,0,0,0,205.47,406.27Z"></path></g></g><g id="Group_85331" data-name="Group 85331"><g id="Group_85328" data-name="Group 85328"><path id="Path_159867" data-name="Path 159867" class="cls-1" d="M449.54,420.47l-1.91-3.29,62.37-36a14.8,14.8,0,0,0,7.38-12.78V279.86A14.83,14.83,0,0,0,510,267.07l-11.48-6.62a18.69,18.69,0,0,1-9.12-13.62l-2.59-19.41-18.11,7.46a18.7,18.7,0,0,1-16.35-1.09l-19-11a14.79,14.79,0,0,0-14.76,0L341.9,267.07a14.83,14.83,0,0,0-7.38,12.79v88.52a14.8,14.8,0,0,0,7.38,12.79l62.36,36-1.9,3.29-62.36-36a18.6,18.6,0,0,1-9.28-16.08V279.86A18.6,18.6,0,0,1,340,263.78l76.66-44.26a18.61,18.61,0,0,1,18.57,0l19,11a14.87,14.87,0,0,0,13,.86L489.92,222l3.25,24.31a14.83,14.83,0,0,0,7.25,10.82l11.48,6.63a18.63,18.63,0,0,1,9.29,16.08v88.52a18.61,18.61,0,0,1-9.29,16.08Z"></path></g><g id="Group_85329" data-name="Group 85329"><path id="Path_159868" data-name="Path 159868" class="cls-1" d="M426,456.15a26.84,26.84,0,1,1,26.84-26.84h0A26.86,26.86,0,0,1,426,456.15Zm0-49.88a23,23,0,1,0,23,23A23,23,0,0,0,426,406.27Z"></path></g></g><g id="Group_85356" data-name="Group 85356"><g id="Group_85335" data-name="Group 85335"><path id="Path_159951" data-name="Path 159951" class="cls-1" d="M843.33,420.47l-62.37-36a18.62,18.62,0,0,1-9.28-16.08V279.86A18.62,18.62,0,0,1,781,263.78l76.67-44.26a18.61,18.61,0,0,1,18.57,0l19,11a14.89,14.89,0,0,0,13,.86L930.89,222l3.24,24.3a14.88,14.88,0,0,0,7.26,10.84l11.47,6.62a18.62,18.62,0,0,1,9.28,16.08v88.52a18.6,18.6,0,0,1-9.28,16.08l-62.36,36-1.9-3.29,62.36-36a14.8,14.8,0,0,0,7.38-12.78V279.86A14.83,14.83,0,0,0,951,267.07l-11.48-6.62a18.72,18.72,0,0,1-9.12-13.62l-2.59-19.41-18.1,7.46a18.72,18.72,0,0,1-16.36-1.09l-19-11a14.79,14.79,0,0,0-14.76,0l-76.67,44.26a14.83,14.83,0,0,0-7.38,12.79v88.52a14.8,14.8,0,0,0,7.38,12.79l62.37,36Z"></path></g><g id="Group_85336" data-name="Group 85336"><path id="Path_159952" data-name="Path 159952" class="cls-1" d="M866.91,456.15a26.84,26.84,0,1,1,26.84-26.84h0A26.86,26.86,0,0,1,866.91,456.15Zm0-49.88a23,23,0,1,0,23,23A23,23,0,0,0,866.91,406.27Z"></path></g></g><g id="Group_85356-2" data-name="Group 85356"><g id="Group_85335-2" data-name="Group 85335"><path id="Path_159951-2" data-name="Path 159951" class="cls-1" d="M1070,420.47l-62.37-36a18.6,18.6,0,0,1-9.28-16.08V279.86a18.6,18.6,0,0,1,9.28-16.08l76.66-44.26a18.61,18.61,0,0,1,18.57,0l19,11a14.87,14.87,0,0,0,13,.86l22.67-9.34,3.25,24.3a14.9,14.9,0,0,0,7.25,10.84l11.48,6.62a18.64,18.64,0,0,1,9.28,16.08v88.52a18.61,18.61,0,0,1-9.29,16.08l-62.36,36-1.9-3.29,62.36-36a14.79,14.79,0,0,0,7.39-12.78V279.86a14.82,14.82,0,0,0-7.39-12.79l-11.47-6.62a18.72,18.72,0,0,1-9.12-13.62l-2.59-19.41-18.11,7.46a18.7,18.7,0,0,1-16.35-1.09l-19-11a14.81,14.81,0,0,0-14.77,0l-76.66,44.26a14.83,14.83,0,0,0-7.38,12.79v88.52a14.8,14.8,0,0,0,7.38,12.79l62.37,36Z"></path></g><g id="Group_85336-2" data-name="Group 85336"><path id="Path_159952-2" data-name="Path 159952" class="cls-1" d="M1093.59,456.15a26.84,26.84,0,1,1,26.84-26.84h0A26.87,26.87,0,0,1,1093.59,456.15Zm0-49.88a23,23,0,1,0,23,23A23,23,0,0,0,1093.59,406.27Z"></path></g></g><g id="Group_85374" data-name="Group 85374"><g id="Group_85360" data-name="Group 85360"><path id="Path_160042" data-name="Path 160042" class="cls-1" d="M670,420.47l-1.9-3.29,62.37-36a14.8,14.8,0,0,0,7.38-12.78V279.86a14.83,14.83,0,0,0-7.38-12.79L719,260.45a18.68,18.68,0,0,1-9.11-13.62l-2.6-19.41-18.11,7.46a18.7,18.7,0,0,1-16.35-1.09l-19-11a14.79,14.79,0,0,0-14.76,0l-76.67,44.26A14.83,14.83,0,0,0,555,279.86v88.52a14.8,14.8,0,0,0,7.38,12.79l62.37,36-1.9,3.29-62.37-36a18.62,18.62,0,0,1-9.28-16.08V279.86a18.62,18.62,0,0,1,9.28-16.08l76.67-44.26a18.59,18.59,0,0,1,18.56,0l19,11a14.89,14.89,0,0,0,13,.86L710.4,222l3.25,24.3a14.88,14.88,0,0,0,7.25,10.84l11.48,6.62a18.6,18.6,0,0,1,9.28,16.08v88.52a18.6,18.6,0,0,1-9.28,16.08Z"></path></g><g id="Group_85361" data-name="Group 85361"><path id="Path_160043" data-name="Path 160043" class="cls-1" d="M646.43,456.15a26.84,26.84,0,1,1,26.84-26.84h0A26.86,26.86,0,0,1,646.43,456.15Zm0-49.88a23,23,0,1,0,23,23A23,23,0,0,0,646.43,406.27Z"></path></g></g><g id="Information_Gathering" data-name="Information Gathering" class="cls-2"><g class="cls-2"><path d="M69.6,122H66.45l-1.25-3.26H59.48L58.3,122H55.23l5.58-14.32h3.06Zm-5.32-5.67-2-5.31-1.93,5.31Z"></path><path d="M80.15,114.72l-2.7.49a2,2,0,0,0-.62-1.22,1.89,1.89,0,0,0-1.26-.41,2,2,0,0,0-1.63.71,3.59,3.59,0,0,0-.61,2.36,4.21,4.21,0,0,0,.62,2.61,2,2,0,0,0,1.66.76,1.83,1.83,0,0,0,1.28-.44,2.67,2.67,0,0,0,.71-1.53l2.69.46a4.78,4.78,0,0,1-1.61,2.8,5,5,0,0,1-3.19,1,4.74,4.74,0,0,1-3.63-1.44,6.56,6.56,0,0,1,0-8,4.85,4.85,0,0,1,3.68-1.43,5,5,0,0,1,3,.82A4.49,4.49,0,0,1,80.15,114.72Z"></path><path d="M91.28,114.72l-2.71.49A2,2,0,0,0,88,114a1.88,1.88,0,0,0-1.25-.41,2,2,0,0,0-1.64.71,3.65,3.65,0,0,0-.61,2.36,4.21,4.21,0,0,0,.62,2.61,2,2,0,0,0,1.67.76,1.85,1.85,0,0,0,1.28-.44,2.73,2.73,0,0,0,.7-1.53l2.69.46a4.73,4.73,0,0,1-1.61,2.8,5,5,0,0,1-3.19,1A4.74,4.74,0,0,1,83,120.82a6.54,6.54,0,0,1,0-8,4.83,4.83,0,0,1,3.67-1.43,5,5,0,0,1,3,.82A4.51,4.51,0,0,1,91.28,114.72Z"></path><path d="M92.72,116.69a5.58,5.58,0,0,1,.68-2.64,4.58,4.58,0,0,1,1.91-2,5.74,5.74,0,0,1,2.75-.67,5.18,5.18,0,0,1,3.86,1.53,5.29,5.29,0,0,1,1.51,3.86,5.35,5.35,0,0,1-1.52,3.9,5.15,5.15,0,0,1-3.83,1.55,6,6,0,0,1-2.72-.64,4.42,4.42,0,0,1-2-1.89A6.29,6.29,0,0,1,92.72,116.69Zm2.82.15a3.4,3.4,0,0,0,.73,2.36,2.4,2.4,0,0,0,3.61,0,3.49,3.49,0,0,0,.72-2.38,3.43,3.43,0,0,0-.72-2.34,2.4,2.4,0,0,0-3.61,0A3.4,3.4,0,0,0,95.54,116.84Z"></path><path d="M112.4,122v-1.56a3.94,3.94,0,0,1-1.49,1.31,4.14,4.14,0,0,1-2,.48,3.76,3.76,0,0,1-1.87-.46,2.68,2.68,0,0,1-1.2-1.29,5.69,5.69,0,0,1-.37-2.29v-6.57h2.74v4.77a13.32,13.32,0,0,0,.15,2.68,1.48,1.48,0,0,0,.55.78,1.73,1.73,0,0,0,1,.29,2.14,2.14,0,0,0,1.26-.39,1.94,1.94,0,0,0,.76-1,10.9,10.9,0,0,0,.21-2.8v-4.38H115V122Z"></path><path d="M127.23,122h-2.75v-5.3a8.59,8.59,0,0,0-.17-2.17,1.56,1.56,0,0,0-.58-.77,1.64,1.64,0,0,0-1-.27,2.22,2.22,0,0,0-1.28.39,2,2,0,0,0-.77,1,8.92,8.92,0,0,0-.21,2.38V122h-2.75V111.65h2.55v1.53a4.17,4.17,0,0,1,3.42-1.76,4.1,4.1,0,0,1,1.66.33,2.81,2.81,0,0,1,1.14.83,3.18,3.18,0,0,1,.53,1.15,8.58,8.58,0,0,1,.16,1.85Z"></path><path d="M134.76,111.65v2.19h-1.87V118a11.82,11.82,0,0,0,.05,1.48.62.62,0,0,0,.25.35.76.76,0,0,0,.46.13,3.4,3.4,0,0,0,1.1-.26l.24,2.13a5.52,5.52,0,0,1-2.17.41,3.4,3.4,0,0,1-1.34-.25,1.92,1.92,0,0,1-.87-.64,2.49,2.49,0,0,1-.39-1.07,13.6,13.6,0,0,1-.08-1.94v-4.52h-1.26v-2.19h1.26v-2.06l2.75-1.6v3.66Z"></path><path d="M37.22,146V131.71h4.63a17.19,17.19,0,0,1,3.44.21,3.78,3.78,0,0,1,2.06,1.41,4.36,4.36,0,0,1,.83,2.78,4.67,4.67,0,0,1-.48,2.22,3.91,3.91,0,0,1-1.21,1.41,4.19,4.19,0,0,1-1.5.68,16.13,16.13,0,0,1-3,.21H40.11V146Zm2.89-11.9v4.06h1.58A7.45,7.45,0,0,0,44,138a2,2,0,0,0,.91-.7,2,2,0,0,0,.32-1.12,1.84,1.84,0,0,0-.46-1.29,2,2,0,0,0-1.16-.63,13.11,13.11,0,0,0-2.08-.1Z"></path><path d="M56.54,142.73l2.74.45a4.48,4.48,0,0,1-1.67,2.29,4.86,4.86,0,0,1-2.85.79,4.64,4.64,0,0,1-4-1.77,5.94,5.94,0,0,1-1-3.57,5.72,5.72,0,0,1,1.35-4,4.46,4.46,0,0,1,3.41-1.46A4.6,4.6,0,0,1,58.14,137a6.72,6.72,0,0,1,1.28,4.68H52.55a2.8,2.8,0,0,0,.66,1.9,2.08,2.08,0,0,0,1.58.68,1.74,1.74,0,0,0,1.09-.35A2.21,2.21,0,0,0,56.54,142.73ZM56.7,140a2.65,2.65,0,0,0-.62-1.81,1.89,1.89,0,0,0-1.42-.62,1.93,1.93,0,0,0-1.49.65A2.53,2.53,0,0,0,52.6,140Z"></path><path d="M64.29,146H61.54V135.65h2.55v1.48a4.42,4.42,0,0,1,1.18-1.38,2.16,2.16,0,0,1,1.18-.33,3.44,3.44,0,0,1,1.81.52l-.85,2.39a2.39,2.39,0,0,0-1.29-.45,1.51,1.51,0,0,0-1,.32,2.11,2.11,0,0,0-.63,1.15,15.75,15.75,0,0,0-.23,3.47Z"></path><path d="M69.24,135.65h2.53v1.42A4.06,4.06,0,0,1,75,135.42a3.54,3.54,0,0,1,1.73.41,3.12,3.12,0,0,1,1.2,1.24,4.79,4.79,0,0,1,1.47-1.24,3.67,3.67,0,0,1,1.69-.41,3.79,3.79,0,0,1,1.94.46,2.89,2.89,0,0,1,1.18,1.37,5.86,5.86,0,0,1,.28,2.15V146H81.75V140.1a4.32,4.32,0,0,0-.29-2,1.29,1.29,0,0,0-1.17-.59,1.9,1.9,0,0,0-1.08.35,2,2,0,0,0-.73,1,7.39,7.39,0,0,0-.23,2.15v5H75.51v-5.69a7.65,7.65,0,0,0-.15-2,1.34,1.34,0,0,0-.45-.66,1.49,1.49,0,0,0-.84-.21,2,2,0,0,0-1.14.34,1.91,1.91,0,0,0-.73,1A7.2,7.2,0,0,0,72,141v5H69.24Z"></path><path d="M87.23,134.25v-2.54H90v2.54Zm0,11.78V135.65H90V146Z"></path><path d="M91.81,143.07l2.76-.42a2,2,0,0,0,.71,1.21,2.4,2.4,0,0,0,1.51.42,2.72,2.72,0,0,0,1.6-.39.89.89,0,0,0,.36-.74.71.71,0,0,0-.2-.51,2.13,2.13,0,0,0-.91-.36,14.87,14.87,0,0,1-4.21-1.34,2.68,2.68,0,0,1-1.23-2.34,2.87,2.87,0,0,1,1.06-2.26,5,5,0,0,1,3.3-.92,5.8,5.8,0,0,1,3.17.69,3.57,3.57,0,0,1,1.42,2l-2.59.48a1.57,1.57,0,0,0-.63-.92,2.26,2.26,0,0,0-1.32-.33,2.88,2.88,0,0,0-1.55.31.64.64,0,0,0-.32.55.62.62,0,0,0,.28.5,10.35,10.35,0,0,0,2.56.77,7.63,7.63,0,0,1,3.06,1.22,2.52,2.52,0,0,1,.86,2,3.11,3.11,0,0,1-1.19,2.45,5.23,5.23,0,0,1-3.52,1,5.8,5.8,0,0,1-3.36-.86A4,4,0,0,1,91.81,143.07Z"></path><path d="M102.94,143.07l2.75-.42a2,2,0,0,0,.71,1.21,2.4,2.4,0,0,0,1.51.42,2.72,2.72,0,0,0,1.6-.39.89.89,0,0,0,.36-.74.7.7,0,0,0-.19-.51,2.25,2.25,0,0,0-.92-.36,14.87,14.87,0,0,1-4.21-1.34,2.68,2.68,0,0,1-1.23-2.34,2.87,2.87,0,0,1,1.06-2.26,5,5,0,0,1,3.3-.92,5.8,5.8,0,0,1,3.17.69,3.57,3.57,0,0,1,1.42,2l-2.58.48a1.57,1.57,0,0,0-.63-.92,2.27,2.27,0,0,0-1.33-.33,2.88,2.88,0,0,0-1.55.31.63.63,0,0,0-.31.55.61.61,0,0,0,.27.5,10.35,10.35,0,0,0,2.56.77,7.63,7.63,0,0,1,3.07,1.22,2.55,2.55,0,0,1,.86,2,3.12,3.12,0,0,1-1.2,2.45,5.23,5.23,0,0,1-3.52,1,5.85,5.85,0,0,1-3.36-.86A3.94,3.94,0,0,1,102.94,143.07Z"></path><path d="M115,134.25v-2.54h2.74v2.54ZM115,146V135.65h2.74V146Z"></path><path d="M120,140.69a5.57,5.57,0,0,1,.67-2.64,4.63,4.63,0,0,1,1.91-2,5.81,5.81,0,0,1,2.76-.67,5.18,5.18,0,0,1,3.86,1.53,5.74,5.74,0,0,1,0,7.76,5.12,5.12,0,0,1-3.82,1.55,6,6,0,0,1-2.72-.64,4.45,4.45,0,0,1-2-1.89A6.3,6.3,0,0,1,120,140.69Zm2.81.15a3.45,3.45,0,0,0,.73,2.36,2.32,2.32,0,0,0,1.81.82,2.29,2.29,0,0,0,1.8-.82,3.44,3.44,0,0,0,.73-2.38,3.38,3.38,0,0,0-.73-2.34,2.29,2.29,0,0,0-1.8-.82,2.32,2.32,0,0,0-1.81.82A3.45,3.45,0,0,0,122.76,140.84Z"></path><path d="M142.23,146h-2.74v-5.3a8,8,0,0,0-.18-2.17,1.48,1.48,0,0,0-.57-.77,1.64,1.64,0,0,0-1-.27,2.22,2.22,0,0,0-1.28.39,2,2,0,0,0-.77,1,8.92,8.92,0,0,0-.21,2.38V146h-2.75V135.65h2.55v1.53a4.17,4.17,0,0,1,3.42-1.76,4.1,4.1,0,0,1,1.66.33,2.81,2.81,0,0,1,1.14.83,3.18,3.18,0,0,1,.53,1.15,8.7,8.7,0,0,1,.15,1.85Z"></path><path d="M144.05,143.07l2.76-.42a2,2,0,0,0,.71,1.21,2.39,2.39,0,0,0,1.5.42,2.7,2.7,0,0,0,1.6-.39.89.89,0,0,0,.36-.74.7.7,0,0,0-.19-.51,2.19,2.19,0,0,0-.92-.36,15,15,0,0,1-4.21-1.34,2.68,2.68,0,0,1-1.23-2.34,2.88,2.88,0,0,1,1.07-2.26,5,5,0,0,1,3.3-.92,5.76,5.76,0,0,1,3.16.69,3.59,3.59,0,0,1,1.43,2l-2.59.48a1.57,1.57,0,0,0-.63-.92,2.26,2.26,0,0,0-1.32-.33,2.92,2.92,0,0,0-1.56.31.63.63,0,0,0-.31.55.61.61,0,0,0,.27.5,10.5,10.5,0,0,0,2.57.77,7.63,7.63,0,0,1,3.06,1.22,2.55,2.55,0,0,1,.86,2,3.14,3.14,0,0,1-1.19,2.45,5.26,5.26,0,0,1-3.53,1,5.79,5.79,0,0,1-3.35-.86A4,4,0,0,1,144.05,143.07Z"></path></g></g><g id="Information_Gathering-2" data-name="Information Gathering" class="cls-2"><g class="cls-2"><path d="M291.63,110V95.71h9.81v2.42h-6.92v3.39h6v2.42h-6V110Z"></path><path d="M303.8,98.25V95.71h2.75v2.54Zm0,11.78V99.65h2.75V110Z"></path><path d="M309.36,110V95.71h2.74V110Z"></path><path d="M320.92,106.73l2.74.45a4.48,4.48,0,0,1-1.67,2.29,4.86,4.86,0,0,1-2.85.79,4.64,4.64,0,0,1-4-1.77,5.94,5.94,0,0,1-1-3.57,5.71,5.71,0,0,1,1.34-4,4.46,4.46,0,0,1,3.41-1.46,4.6,4.6,0,0,1,3.65,1.53,6.72,6.72,0,0,1,1.28,4.68h-6.87a2.78,2.78,0,0,0,.66,1.9,2.1,2.1,0,0,0,1.58.68,1.74,1.74,0,0,0,1.09-.35A2.21,2.21,0,0,0,320.92,106.73Zm.16-2.78a2.65,2.65,0,0,0-.62-1.81,1.89,1.89,0,0,0-1.42-.62,1.93,1.93,0,0,0-1.49.65A2.53,2.53,0,0,0,317,104Z"></path><path d="M325.07,107.07l2.76-.42a2,2,0,0,0,.71,1.21,2.39,2.39,0,0,0,1.5.42,2.7,2.7,0,0,0,1.6-.39.86.86,0,0,0,.37-.74.71.71,0,0,0-.2-.51,2.19,2.19,0,0,0-.92-.36,15.11,15.11,0,0,1-4.21-1.34,2.68,2.68,0,0,1-1.23-2.34,2.88,2.88,0,0,1,1.07-2.26,5,5,0,0,1,3.3-.92,5.76,5.76,0,0,1,3.16.69,3.59,3.59,0,0,1,1.43,2l-2.59.48a1.57,1.57,0,0,0-.63-.92,2.26,2.26,0,0,0-1.32-.33,2.92,2.92,0,0,0-1.56.31.66.66,0,0,0-.31.55.6.6,0,0,0,.28.5,10.19,10.19,0,0,0,2.56.77,7.63,7.63,0,0,1,3.06,1.22,2.55,2.55,0,0,1,.86,2,3.14,3.14,0,0,1-1.19,2.45,5.26,5.26,0,0,1-3.53,1,5.79,5.79,0,0,1-3.35-.86A4,4,0,0,1,325.07,107.07Z"></path><path d="M337.09,107.28h2.75v2a6.62,6.62,0,0,1-.21,1.88,2.73,2.73,0,0,1-.77,1.24,4,4,0,0,1-1.45.86l-.54-1.13a2.35,2.35,0,0,0,1.18-.76,2.16,2.16,0,0,0,.37-1.3h-1.33Z"></path><path d="M262.14,119.71h5.28a10.52,10.52,0,0,1,2.73.27,4.81,4.81,0,0,1,2.15,1.32,6.24,6.24,0,0,1,1.37,2.32,10.64,10.64,0,0,1,.47,3.38,9.49,9.49,0,0,1-.44,3.05,6.36,6.36,0,0,1-1.53,2.53,5,5,0,0,1-2,1.14,8.45,8.45,0,0,1-2.56.31h-5.44Zm2.89,2.42v9.48h2.16a8,8,0,0,0,1.74-.13,2.71,2.71,0,0,0,1.17-.6,3.07,3.07,0,0,0,.76-1.38,9.57,9.57,0,0,0,.29-2.62,8.73,8.73,0,0,0-.29-2.55,3.36,3.36,0,0,0-.82-1.39,2.79,2.79,0,0,0-1.34-.67,13,13,0,0,0-2.37-.14Z"></path><path d="M276.57,122.25v-2.54h2.75v2.54Zm0,11.78V123.65h2.75V134Z"></path><path d="M284.75,134H282V123.65h2.55v1.48a4.42,4.42,0,0,1,1.18-1.38,2.14,2.14,0,0,1,1.18-.33,3.44,3.44,0,0,1,1.81.52l-.85,2.39a2.39,2.39,0,0,0-1.29-.45,1.56,1.56,0,0,0-1,.32,2.24,2.24,0,0,0-.63,1.15,16.43,16.43,0,0,0-.23,3.47Z"></path><path d="M295.92,130.73l2.73.45a4.47,4.47,0,0,1-1.66,2.29,4.86,4.86,0,0,1-2.85.79,4.63,4.63,0,0,1-4-1.77,5.87,5.87,0,0,1-1-3.57,5.72,5.72,0,0,1,1.35-4,4.45,4.45,0,0,1,3.41-1.46,4.6,4.6,0,0,1,3.65,1.53,6.77,6.77,0,0,1,1.28,4.68h-6.88a2.73,2.73,0,0,0,.67,1.9,2.08,2.08,0,0,0,1.58.68,1.69,1.69,0,0,0,1.08-.35A2.15,2.15,0,0,0,295.92,130.73Zm.15-2.78a2.64,2.64,0,0,0-.61-1.81,2,2,0,0,0-2.91,0A2.58,2.58,0,0,0,292,128Z"></path><path d="M310.08,126.72l-2.71.49a2,2,0,0,0-.62-1.22,1.88,1.88,0,0,0-1.25-.41,2.06,2.06,0,0,0-1.64.71,3.59,3.59,0,0,0-.61,2.36,4.21,4.21,0,0,0,.62,2.61,2,2,0,0,0,1.67.76,1.85,1.85,0,0,0,1.28-.44,2.73,2.73,0,0,0,.7-1.53l2.69.46a4.73,4.73,0,0,1-1.61,2.8,5,5,0,0,1-3.19.95,4.74,4.74,0,0,1-3.63-1.44,6.54,6.54,0,0,1,0-8,4.83,4.83,0,0,1,3.67-1.43,5,5,0,0,1,3,.82A4.51,4.51,0,0,1,310.08,126.72Z"></path><path d="M316.91,123.65v2.19H315V130a11.82,11.82,0,0,0,0,1.48.62.62,0,0,0,.25.35.76.76,0,0,0,.46.13,3.4,3.4,0,0,0,1.1-.26l.24,2.13a5.52,5.52,0,0,1-2.17.41,3.4,3.4,0,0,1-1.34-.25,1.87,1.87,0,0,1-.87-.64,2.49,2.49,0,0,1-.39-1.07,13.11,13.11,0,0,1-.09-1.94v-4.52H311v-2.19h1.26v-2.06L315,120v3.66Z"></path><path d="M318.18,128.69a5.58,5.58,0,0,1,.68-2.64,4.58,4.58,0,0,1,1.91-2,5.74,5.74,0,0,1,2.75-.67,5.18,5.18,0,0,1,3.86,1.53,5.73,5.73,0,0,1,0,7.76,5.16,5.16,0,0,1-3.83,1.55,6,6,0,0,1-2.72-.64,4.42,4.42,0,0,1-2-1.89A6.29,6.29,0,0,1,318.18,128.69Zm2.82.15a3.4,3.4,0,0,0,.73,2.36,2.4,2.4,0,0,0,3.61,0,3.49,3.49,0,0,0,.72-2.38,3.43,3.43,0,0,0-.72-2.34,2.4,2.4,0,0,0-3.61,0A3.4,3.4,0,0,0,321,128.84Z"></path><path d="M333.66,134h-2.74V123.65h2.55v1.48a4.29,4.29,0,0,1,1.17-1.38,2.2,2.2,0,0,1,1.19-.33,3.47,3.47,0,0,1,1.81.52l-.85,2.39a2.45,2.45,0,0,0-1.29-.45,1.54,1.54,0,0,0-1,.32,2.11,2.11,0,0,0-.63,1.15,16.43,16.43,0,0,0-.23,3.47Z"></path><path d="M338.82,122.25v-2.54h2.74v2.54Zm0,11.78V123.65h2.74V134Z"></path><path d="M350.38,130.73l2.73.45a4.41,4.41,0,0,1-1.66,2.29,4.86,4.86,0,0,1-2.85.79,4.63,4.63,0,0,1-4-1.77,5.94,5.94,0,0,1-1-3.57,5.72,5.72,0,0,1,1.35-4,4.46,4.46,0,0,1,3.41-1.46A4.6,4.6,0,0,1,352,125a6.77,6.77,0,0,1,1.28,4.68h-6.87a2.78,2.78,0,0,0,.66,1.9,2.08,2.08,0,0,0,1.58.68,1.74,1.74,0,0,0,1.09-.35A2.21,2.21,0,0,0,350.38,130.73Zm.16-2.78a2.65,2.65,0,0,0-.62-1.81,1.89,1.89,0,0,0-1.42-.62,1.93,1.93,0,0,0-1.49.65,2.58,2.58,0,0,0-.58,1.78Z"></path><path d="M354.53,131.07l2.75-.42a2,2,0,0,0,.72,1.21,2.37,2.37,0,0,0,1.5.42,2.72,2.72,0,0,0,1.6-.39.88.88,0,0,0,.36-.74.7.7,0,0,0-.19-.51,2.19,2.19,0,0,0-.92-.36,15,15,0,0,1-4.21-1.34,2.68,2.68,0,0,1-1.23-2.34,2.88,2.88,0,0,1,1.07-2.26,5,5,0,0,1,3.3-.92,5.76,5.76,0,0,1,3.16.69,3.59,3.59,0,0,1,1.43,2l-2.59.48a1.57,1.57,0,0,0-.63-.92,2.26,2.26,0,0,0-1.32-.33,2.92,2.92,0,0,0-1.56.31.64.64,0,0,0-.31.55.61.61,0,0,0,.27.5,10.5,10.5,0,0,0,2.57.77,7.63,7.63,0,0,1,3.06,1.22,2.55,2.55,0,0,1,.86,2,3.14,3.14,0,0,1-1.19,2.45,5.26,5.26,0,0,1-3.53,1,5.79,5.79,0,0,1-3.35-.86A3.91,3.91,0,0,1,354.53,131.07Z"></path><path d="M366.55,131.28h2.75v2a6.62,6.62,0,0,1-.21,1.88,2.75,2.75,0,0,1-.78,1.24,3.91,3.91,0,0,1-1.45.86l-.53-1.13a2.4,2.4,0,0,0,1.18-.76,2.23,2.23,0,0,0,.37-1.3h-1.33Z"></path><path d="M261.75,158H258.6l-1.25-3.26h-5.72L250.45,158h-3.07L253,143.71h3Zm-5.33-5.67-2-5.31-1.93,5.31Z"></path><path d="M272.69,158H270v-5.3a8,8,0,0,0-.18-2.17,1.48,1.48,0,0,0-.57-.77,1.64,1.64,0,0,0-.95-.27,2.22,2.22,0,0,0-1.28.39,2,2,0,0,0-.77,1,8.92,8.92,0,0,0-.21,2.38V158h-2.75V147.65h2.55v1.53a4.15,4.15,0,0,1,3.42-1.76,4.1,4.1,0,0,1,1.66.33,2.81,2.81,0,0,1,1.14.83,3.18,3.18,0,0,1,.53,1.15,8.7,8.7,0,0,1,.15,1.85Z"></path><path d="M285,158h-2.55V156.5a4,4,0,0,1-1.5,1.33,3.82,3.82,0,0,1-1.74.43,4,4,0,0,1-3.06-1.44,7,7,0,0,1,0-8,4.06,4.06,0,0,1,3.14-1.37,3.88,3.88,0,0,1,3,1.45v-5.16H285Zm-7.32-5.41a4.85,4.85,0,0,0,.45,2.4,2.1,2.1,0,0,0,1.86,1.07,2,2,0,0,0,1.61-.8,3.74,3.74,0,0,0,.66-2.41,4.05,4.05,0,0,0-.64-2.57,2,2,0,0,0-1.65-.79,2.07,2.07,0,0,0-1.64.78A3.49,3.49,0,0,0,277.67,152.62Z"></path><path d="M293.27,158V143.71h4.64a17.26,17.26,0,0,1,3.44.21,3.82,3.82,0,0,1,2.06,1.41,4.46,4.46,0,0,1,.83,2.78,4.67,4.67,0,0,1-.48,2.22,3.93,3.93,0,0,1-1.22,1.41,4.19,4.19,0,0,1-1.5.68,16.09,16.09,0,0,1-3,.21h-1.89V158Zm2.89-11.9v4.06h1.58A7.57,7.57,0,0,0,300,150a1.88,1.88,0,0,0,1.23-1.82,1.84,1.84,0,0,0-.46-1.29,2,2,0,0,0-1.16-.63,13.19,13.19,0,0,0-2.08-.1Z"></path><path d="M308.64,150.82l-2.49-.45a3.9,3.9,0,0,1,1.45-2.23,5.29,5.29,0,0,1,3-.72,6.56,6.56,0,0,1,2.74.44,2.66,2.66,0,0,1,1.26,1.1,5.51,5.51,0,0,1,.37,2.45l0,3.21a10.87,10.87,0,0,0,.13,2,6,6,0,0,0,.49,1.4h-2.71c-.07-.19-.16-.46-.26-.81l-.1-.33a4.89,4.89,0,0,1-1.51,1,4.23,4.23,0,0,1-1.7.34,3.55,3.55,0,0,1-2.53-.87,2.91,2.91,0,0,1-.92-2.2,2.94,2.94,0,0,1,.42-1.56,2.8,2.8,0,0,1,1.17-1.06,9.45,9.45,0,0,1,2.19-.64,14.66,14.66,0,0,0,2.66-.67V151a1.41,1.41,0,0,0-.39-1.12,2.29,2.29,0,0,0-1.47-.34,1.66,1.66,0,0,0-1.81,1.3Zm3.67,2.23c-.35.11-.9.25-1.67.42a5.14,5.14,0,0,0-1.49.47,1.16,1.16,0,0,0-.54,1,1.37,1.37,0,0,0,.43,1,1.51,1.51,0,0,0,1.1.42,2.41,2.41,0,0,0,1.41-.49,1.78,1.78,0,0,0,.66-.91,5.6,5.6,0,0,0,.1-1.34Z"></path><path d="M320.34,158H317.6V147.65h2.55v1.48a4.29,4.29,0,0,1,1.17-1.38,2.2,2.2,0,0,1,1.19-.33,3.47,3.47,0,0,1,1.81.52l-.85,2.39a2.45,2.45,0,0,0-1.29-.45,1.54,1.54,0,0,0-1,.32,2.11,2.11,0,0,0-.63,1.15,16.43,16.43,0,0,0-.23,3.47Z"></path><path d="M330.25,147.65v2.19h-1.87V154a11.82,11.82,0,0,0,.05,1.48.62.62,0,0,0,.25.35.76.76,0,0,0,.46.13,3.4,3.4,0,0,0,1.1-.26l.24,2.13a5.52,5.52,0,0,1-2.17.41A3.37,3.37,0,0,1,327,158a1.87,1.87,0,0,1-.87-.64,2.49,2.49,0,0,1-.39-1.07,13.11,13.11,0,0,1-.09-1.94v-4.52h-1.26v-2.19h1.26v-2.06l2.76-1.6v3.66Z"></path><path d="M332.16,146.25v-2.54h2.74v2.54Zm0,11.78V147.65h2.74V158Z"></path><path d="M342.47,147.65v2.19h-1.88V154a9.29,9.29,0,0,0,.06,1.48.6.6,0,0,0,.24.35.79.79,0,0,0,.47.13,3.4,3.4,0,0,0,1.1-.26l.23,2.13a5.47,5.47,0,0,1-2.16.41,3.37,3.37,0,0,1-1.34-.25,2,2,0,0,1-.88-.64,2.63,2.63,0,0,1-.38-1.07,13.11,13.11,0,0,1-.09-1.94v-4.52h-1.26v-2.19h1.26v-2.06l2.75-1.6v3.66Z"></path><path d="M344.37,146.25v-2.54h2.75v2.54Zm0,11.78V147.65h2.75V158Z"></path><path d="M349.3,152.69a5.57,5.57,0,0,1,.67-2.64,4.63,4.63,0,0,1,1.91-2,5.75,5.75,0,0,1,2.76-.67A5.19,5.19,0,0,1,358.5,149a5.74,5.74,0,0,1,0,7.76,5.14,5.14,0,0,1-3.82,1.55,6,6,0,0,1-2.72-.64,4.4,4.4,0,0,1-2-1.89A6.3,6.3,0,0,1,349.3,152.69Zm2.81.15a3.4,3.4,0,0,0,.73,2.36,2.4,2.4,0,0,0,3.61,0,3.49,3.49,0,0,0,.73-2.38,3.43,3.43,0,0,0-.73-2.34,2.4,2.4,0,0,0-3.61,0A3.4,3.4,0,0,0,352.11,152.84Z"></path><path d="M371.58,158h-2.74v-5.3a8,8,0,0,0-.18-2.17,1.6,1.6,0,0,0-.57-.77,1.64,1.64,0,0,0-.95-.27,2.2,2.2,0,0,0-1.28.39,2,2,0,0,0-.78,1,8.92,8.92,0,0,0-.21,2.38V158h-2.74V147.65h2.55v1.53a4.24,4.24,0,0,1,5.08-1.43,2.71,2.71,0,0,1,1.13.83,3,3,0,0,1,.54,1.15,8.7,8.7,0,0,1,.15,1.85Z"></path><path d="M373.4,155.07l2.75-.42a2,2,0,0,0,.71,1.21,2.4,2.4,0,0,0,1.51.42,2.72,2.72,0,0,0,1.6-.39.88.88,0,0,0,.36-.74.7.7,0,0,0-.19-.51,2.25,2.25,0,0,0-.92-.36,14.87,14.87,0,0,1-4.21-1.34,2.68,2.68,0,0,1-1.23-2.34,2.87,2.87,0,0,1,1.06-2.26,5,5,0,0,1,3.3-.92,5.8,5.8,0,0,1,3.17.69,3.57,3.57,0,0,1,1.42,2l-2.58.48a1.67,1.67,0,0,0-.63-.92,2.27,2.27,0,0,0-1.33-.33,2.88,2.88,0,0,0-1.55.31.64.64,0,0,0-.31.55.61.61,0,0,0,.27.5,10.35,10.35,0,0,0,2.56.77,7.63,7.63,0,0,1,3.07,1.22,2.55,2.55,0,0,1,.86,2,3.12,3.12,0,0,1-1.2,2.45,5.23,5.23,0,0,1-3.52,1,5.85,5.85,0,0,1-3.36-.86A3.94,3.94,0,0,1,373.4,155.07Z"></path></g></g><g id="Information_Gathering-3" data-name="Information Gathering" class="cls-2"><g class="cls-2"><path d="M159.83,318.75h-3.14l-1.25-3.25h-5.72l-1.19,3.25h-3.06L151,304.44h3.06Zm-5.32-5.66-2-5.31-1.94,5.31Z"></path><path d="M161.27,308.38h2.56v1.53a3.8,3.8,0,0,1,3.23-1.76,4,4,0,0,1,3.07,1.41,5.75,5.75,0,0,1,1.26,3.95,6,6,0,0,1-1.27,4A4,4,0,0,1,167,319a3.64,3.64,0,0,1-1.56-.34,5.38,5.38,0,0,1-1.47-1.18v5.23h-2.74Zm2.71,5a4,4,0,0,0,.7,2.59,2.12,2.12,0,0,0,1.69.83A2,2,0,0,0,168,316a4,4,0,0,0,.63-2.51,3.76,3.76,0,0,0-.65-2.42,2,2,0,0,0-1.62-.79,2.09,2.09,0,0,0-1.67.77A3.43,3.43,0,0,0,164,313.39Z"></path><path d="M173.48,308.38H176v1.53a3.75,3.75,0,0,1,1.35-1.27,3.7,3.7,0,0,1,1.89-.49,4,4,0,0,1,3.06,1.41,5.75,5.75,0,0,1,1.26,3.95,5.9,5.9,0,0,1-1.27,4,3.94,3.94,0,0,1-3.07,1.44,3.57,3.57,0,0,1-1.56-.34,5.1,5.1,0,0,1-1.47-1.18v5.23h-2.75Zm2.72,5a4,4,0,0,0,.69,2.59,2.15,2.15,0,0,0,1.69.83,2,2,0,0,0,1.59-.77,3.9,3.9,0,0,0,.64-2.51,3.7,3.7,0,0,0-.66-2.42,2,2,0,0,0-1.62-.79,2.1,2.1,0,0,0-1.67.77A3.49,3.49,0,0,0,176.2,313.39Z"></path><path d="M185.78,318.75V304.44h2.74v14.31Z"></path><path d="M191.34,307v-2.54h2.74V307Zm0,11.77V308.38h2.74v10.37Z"></path><path d="M205.94,311.45l-2.71.49a2,2,0,0,0-.62-1.22,1.83,1.83,0,0,0-1.25-.41,2.05,2.05,0,0,0-1.64.7,3.64,3.64,0,0,0-.61,2.37,4.23,4.23,0,0,0,.62,2.61,2,2,0,0,0,1.67.76,1.85,1.85,0,0,0,1.27-.44,2.67,2.67,0,0,0,.71-1.53l2.69.46a4.76,4.76,0,0,1-1.61,2.8,5,5,0,0,1-3.19.95,4.74,4.74,0,0,1-3.63-1.44,6.54,6.54,0,0,1,0-8,4.78,4.78,0,0,1,3.67-1.43,5,5,0,0,1,3,.81A4.57,4.57,0,0,1,205.94,311.45Z"></path><path d="M210.07,311.55l-2.49-.45a3.87,3.87,0,0,1,1.44-2.23,5.32,5.32,0,0,1,3-.72,6.57,6.57,0,0,1,2.73.43,2.76,2.76,0,0,1,1.27,1.11,5.7,5.7,0,0,1,.36,2.45l0,3.21a10.67,10.67,0,0,0,.14,2,5.54,5.54,0,0,0,.49,1.39h-2.72c-.07-.18-.15-.45-.26-.81a2.57,2.57,0,0,0-.1-.32,5,5,0,0,1-1.5,1,4.42,4.42,0,0,1-1.71.34,3.51,3.51,0,0,1-2.52-.87,2.88,2.88,0,0,1-.93-2.2,3,3,0,0,1,.42-1.57,2.8,2.8,0,0,1,1.18-1.05,9.2,9.2,0,0,1,2.18-.64,15.75,15.75,0,0,0,2.67-.67v-.28a1.45,1.45,0,0,0-.39-1.13,2.38,2.38,0,0,0-1.48-.33,1.91,1.91,0,0,0-1.14.29A2,2,0,0,0,210.07,311.55Zm3.67,2.22a15.65,15.65,0,0,1-1.67.42,5.62,5.62,0,0,0-1.5.48,1.17,1.17,0,0,0-.53,1,1.33,1.33,0,0,0,.43,1,1.49,1.49,0,0,0,1.09.42,2.4,2.4,0,0,0,1.42-.48,1.71,1.71,0,0,0,.65-.91,5.5,5.5,0,0,0,.11-1.34Z"></path><path d="M223.9,308.38v2.19H222v4.18a11.82,11.82,0,0,0,0,1.48.66.66,0,0,0,.25.35.76.76,0,0,0,.46.13,3.74,3.74,0,0,0,1.11-.26l.23,2.13A5.52,5.52,0,0,1,222,319a3.59,3.59,0,0,1-1.34-.25,2,2,0,0,1-.87-.65,2.58,2.58,0,0,1-.39-1.06,15.37,15.37,0,0,1-.08-1.94v-4.52H218v-2.19h1.26v-2.06l2.75-1.6v3.66Z"></path><path d="M225.8,307v-2.54h2.74V307Zm0,11.77V308.38h2.74v10.37Z"></path><path d="M230.72,313.42a5.58,5.58,0,0,1,.68-2.64,4.55,4.55,0,0,1,1.9-2,5.69,5.69,0,0,1,2.76-.67,5.18,5.18,0,0,1,3.86,1.53,5.26,5.26,0,0,1,1.5,3.86,5.34,5.34,0,0,1-1.51,3.9,5.16,5.16,0,0,1-3.83,1.55,6,6,0,0,1-2.72-.65,4.37,4.37,0,0,1-2-1.89A6.28,6.28,0,0,1,230.72,313.42Zm2.81.15a3.42,3.42,0,0,0,.74,2.36,2.39,2.39,0,0,0,3.6,0,3.46,3.46,0,0,0,.73-2.38,3.41,3.41,0,0,0-.73-2.35,2.39,2.39,0,0,0-3.6,0A3.45,3.45,0,0,0,233.53,313.57Z"></path><path d="M253,318.75h-2.75v-5.29a8.59,8.59,0,0,0-.17-2.17,1.55,1.55,0,0,0-.57-.77,1.69,1.69,0,0,0-1-.27,2.22,2.22,0,0,0-1.28.39,2,2,0,0,0-.77,1,9,9,0,0,0-.21,2.39v4.69h-2.75V308.38h2.55v1.53a4.15,4.15,0,0,1,3.42-1.76,4.07,4.07,0,0,1,1.66.33,2.73,2.73,0,0,1,1.14.83,3,3,0,0,1,.53,1.15,8,8,0,0,1,.16,1.85Z"></path><path d="M254.82,315.79l2.76-.42a2,2,0,0,0,.71,1.22,2.39,2.39,0,0,0,1.5.42,2.75,2.75,0,0,0,1.61-.4.86.86,0,0,0,.36-.73.73.73,0,0,0-.2-.52,2.19,2.19,0,0,0-.92-.36,14.87,14.87,0,0,1-4.21-1.33,2.68,2.68,0,0,1-1.23-2.34,2.86,2.86,0,0,1,1.07-2.26,4.93,4.93,0,0,1,3.3-.92,5.76,5.76,0,0,1,3.16.69,3.55,3.55,0,0,1,1.43,2.05l-2.59.48a1.63,1.63,0,0,0-.63-.93,2.34,2.34,0,0,0-1.32-.32,3.06,3.06,0,0,0-1.56.3.68.68,0,0,0-.31.56.6.6,0,0,0,.28.5,10.19,10.19,0,0,0,2.56.77,7.63,7.63,0,0,1,3.06,1.22,2.55,2.55,0,0,1,.86,2,3.14,3.14,0,0,1-1.19,2.45,5.26,5.26,0,0,1-3.53,1,5.79,5.79,0,0,1-3.35-.86A4,4,0,0,1,254.82,315.79Z"></path><path d="M156.47,342.75h-3.14l-1.25-3.25h-5.72l-1.19,3.25h-3.06l5.57-14.31h3.06Zm-5.32-5.66-2-5.31-1.94,5.31Z"></path><path d="M167.42,342.75h-2.74v-5.29a8,8,0,0,0-.18-2.17,1.55,1.55,0,0,0-.57-.77,1.64,1.64,0,0,0-1-.27,2.2,2.2,0,0,0-1.28.39,2,2,0,0,0-.78,1,9,9,0,0,0-.21,2.39v4.69H158V332.38h2.55v1.53a4.12,4.12,0,0,1,3.41-1.76,4.07,4.07,0,0,1,1.66.33,2.66,2.66,0,0,1,1.14.83,3,3,0,0,1,.54,1.15,8.7,8.7,0,0,1,.15,1.85Z"></path><path d="M179.72,342.75h-2.55v-1.52a4.24,4.24,0,0,1-1.5,1.32,3.88,3.88,0,0,1-1.75.44,4,4,0,0,1-3.06-1.44,5.86,5.86,0,0,1-1.27-4,5.77,5.77,0,0,1,1.24-4,4.06,4.06,0,0,1,3.13-1.37,3.88,3.88,0,0,1,3,1.44v-5.15h2.75Zm-7.33-5.41a4.74,4.74,0,0,0,.46,2.41,2.08,2.08,0,0,0,1.86,1.07,2,2,0,0,0,1.61-.81,3.71,3.71,0,0,0,.66-2.4,4.11,4.11,0,0,0-.64-2.58,2,2,0,0,0-1.65-.78,2.09,2.09,0,0,0-1.64.77A3.51,3.51,0,0,0,172.39,337.34Z"></path><path d="M187.26,338.1l2.82-.28a3.4,3.4,0,0,0,1,2.08,3.1,3.1,0,0,0,2.09.67,3.28,3.28,0,0,0,2.11-.59,1.77,1.77,0,0,0,.7-1.39,1.28,1.28,0,0,0-.29-.86,2.34,2.34,0,0,0-1-.62c-.34-.12-1.11-.33-2.32-.63a7.82,7.82,0,0,1-3.26-1.41,3.76,3.76,0,0,1-.7-4.93,3.93,3.93,0,0,1,1.79-1.45,7.22,7.22,0,0,1,2.82-.5,6.06,6.06,0,0,1,4.05,1.18,4.15,4.15,0,0,1,1.43,3.16l-2.89.13a2.46,2.46,0,0,0-.79-1.59,2.94,2.94,0,0,0-1.83-.48,3.37,3.37,0,0,0-2,.51,1.05,1.05,0,0,0-.45.89,1.09,1.09,0,0,0,.43.87,7.42,7.42,0,0,0,2.65,1,13.52,13.52,0,0,1,3.12,1,4,4,0,0,1,1.58,1.45,4.29,4.29,0,0,1,.57,2.28,4.2,4.2,0,0,1-.68,2.31,4.05,4.05,0,0,1-1.93,1.59,8.09,8.09,0,0,1-3.12.53,6.18,6.18,0,0,1-4.17-1.26A5.44,5.44,0,0,1,187.26,338.1Z"></path><path d="M207.32,339.45l2.74.46a4.47,4.47,0,0,1-1.67,2.29,4.85,4.85,0,0,1-2.84.79,4.65,4.65,0,0,1-4-1.77,6,6,0,0,1-1-3.57,5.76,5.76,0,0,1,1.34-4,4.43,4.43,0,0,1,3.41-1.46,4.6,4.6,0,0,1,3.65,1.53,6.7,6.7,0,0,1,1.28,4.68h-6.87a2.8,2.8,0,0,0,.66,1.9,2.1,2.1,0,0,0,1.58.68,1.72,1.72,0,0,0,1.09-.35A2.24,2.24,0,0,0,207.32,339.45Zm.16-2.77a2.63,2.63,0,0,0-.62-1.81,1.85,1.85,0,0,0-1.42-.62,1.93,1.93,0,0,0-1.49.65,2.53,2.53,0,0,0-.57,1.78Z"></path><path d="M215.07,342.75h-2.75V332.38h2.55v1.48a4.42,4.42,0,0,1,1.18-1.38,2.16,2.16,0,0,1,1.18-.33,3.44,3.44,0,0,1,1.81.52l-.85,2.39a2.39,2.39,0,0,0-1.29-.45,1.46,1.46,0,0,0-1,.32,2.11,2.11,0,0,0-.63,1.14,15.92,15.92,0,0,0-.23,3.48Z"></path><path d="M223.07,342.75l-4.17-10.37h2.88l1.95,5.3.57,1.76c.15-.45.24-.74.28-.89s.19-.58.29-.87l2-5.3h2.83l-4.12,10.37Z"></path><path d="M231.35,331v-2.54h2.74V331Zm0,11.77V332.38h2.74v10.37Z"></path><path d="M246,335.45l-2.71.49a2,2,0,0,0-.62-1.22,1.83,1.83,0,0,0-1.25-.41,2.05,2.05,0,0,0-1.64.7,3.64,3.64,0,0,0-.61,2.37,4.23,4.23,0,0,0,.62,2.61,2,2,0,0,0,1.66.76,1.86,1.86,0,0,0,1.28-.44,2.67,2.67,0,0,0,.71-1.53l2.69.46a4.76,4.76,0,0,1-1.61,2.8,5,5,0,0,1-3.19.95,4.74,4.74,0,0,1-3.63-1.44,6.56,6.56,0,0,1,0-8,4.81,4.81,0,0,1,3.68-1.43,5,5,0,0,1,3,.81A4.62,4.62,0,0,1,246,335.45Z"></path><path d="M254,339.45l2.74.46a4.53,4.53,0,0,1-1.67,2.29,4.86,4.86,0,0,1-2.85.79,4.64,4.64,0,0,1-4-1.77,6,6,0,0,1-1-3.57,5.71,5.71,0,0,1,1.34-4,4.43,4.43,0,0,1,3.41-1.46,4.6,4.6,0,0,1,3.65,1.53,6.7,6.7,0,0,1,1.28,4.68H250a2.8,2.8,0,0,0,.66,1.9,2.1,2.1,0,0,0,1.58.68,1.74,1.74,0,0,0,1.09-.35A2.24,2.24,0,0,0,254,339.45Zm.16-2.77a2.63,2.63,0,0,0-.62-1.81,1.85,1.85,0,0,0-1.42-.62,1.93,1.93,0,0,0-1.49.65,2.53,2.53,0,0,0-.57,1.78Z"></path><path d="M258.18,339.79l2.76-.42a2,2,0,0,0,.71,1.22,2.39,2.39,0,0,0,1.5.42,2.69,2.69,0,0,0,1.6-.4.85.85,0,0,0,.37-.73.73.73,0,0,0-.2-.52A2.19,2.19,0,0,0,264,339a14.87,14.87,0,0,1-4.21-1.33,2.68,2.68,0,0,1-1.23-2.34,2.86,2.86,0,0,1,1.07-2.26,4.93,4.93,0,0,1,3.3-.92,5.76,5.76,0,0,1,3.16.69,3.55,3.55,0,0,1,1.43,2.05l-2.59.48a1.63,1.63,0,0,0-.63-.93,2.34,2.34,0,0,0-1.32-.32,3,3,0,0,0-1.56.3.68.68,0,0,0-.31.56.6.6,0,0,0,.28.5,10.19,10.19,0,0,0,2.56.77,7.63,7.63,0,0,1,3.06,1.22,2.55,2.55,0,0,1,.86,2,3.14,3.14,0,0,1-1.19,2.45,5.26,5.26,0,0,1-3.53,1,5.79,5.79,0,0,1-3.35-.86A4,4,0,0,1,258.18,339.79Z"></path></g></g><g id="Information_Gathering-4" data-name="Information Gathering" class="cls-2"><g class="cls-2"><path d="M517.93,115a9.07,9.07,0,0,1,.66-3.68,6.8,6.8,0,0,1,1.33-2,5.54,5.54,0,0,1,1.85-1.29,7.82,7.82,0,0,1,3.09-.56,6.7,6.7,0,0,1,5.06,2,8.77,8.77,0,0,1,0,10.88,6.67,6.67,0,0,1-5,2,6.74,6.74,0,0,1-5.08-2A7.38,7.38,0,0,1,517.93,115Zm3-.1a5.33,5.33,0,0,0,1.13,3.68,3.84,3.84,0,0,0,5.68,0,5.45,5.45,0,0,0,1.11-3.73,5.36,5.36,0,0,0-1.08-3.67,3.63,3.63,0,0,0-2.86-1.21,3.7,3.7,0,0,0-2.88,1.22A5.42,5.42,0,0,0,520.91,114.86Z"></path><path d="M534,111.65h2.56v1.53a3.75,3.75,0,0,1,1.35-1.27,3.64,3.64,0,0,1,1.88-.49,3.94,3.94,0,0,1,3.07,1.42,5.72,5.72,0,0,1,1.26,3.94,6,6,0,0,1-1.27,4,4,4,0,0,1-3.08,1.44,3.5,3.5,0,0,1-1.56-.34,5.51,5.51,0,0,1-1.47-1.17V126H534Zm2.71,5a4,4,0,0,0,.7,2.59,2.12,2.12,0,0,0,1.69.83,2,2,0,0,0,1.59-.76,4,4,0,0,0,.63-2.52,3.72,3.72,0,0,0-.65-2.42,2,2,0,0,0-1.62-.79,2.12,2.12,0,0,0-1.67.77A3.49,3.49,0,0,0,536.69,116.66Z"></path><path d="M552.28,118.73l2.73.45a4.41,4.41,0,0,1-1.66,2.29,4.86,4.86,0,0,1-2.85.79,4.63,4.63,0,0,1-4-1.77,5.87,5.87,0,0,1-1-3.57,5.72,5.72,0,0,1,1.35-4,4.46,4.46,0,0,1,3.41-1.46,4.6,4.6,0,0,1,3.65,1.53,6.77,6.77,0,0,1,1.28,4.68h-6.87a2.78,2.78,0,0,0,.66,1.9,2.08,2.08,0,0,0,1.58.68,1.74,1.74,0,0,0,1.09-.35A2.21,2.21,0,0,0,552.28,118.73Zm.16-2.78a2.65,2.65,0,0,0-.62-1.81,1.89,1.89,0,0,0-1.42-.62,1.93,1.93,0,0,0-1.49.65,2.58,2.58,0,0,0-.58,1.78Z"></path><path d="M566.83,122h-2.74v-5.3a8,8,0,0,0-.18-2.17,1.6,1.6,0,0,0-.57-.77,1.64,1.64,0,0,0-1-.27,2.2,2.2,0,0,0-1.28.39,2,2,0,0,0-.78,1,8.92,8.92,0,0,0-.21,2.38V122h-2.74V111.65h2.55v1.53a4.14,4.14,0,0,1,3.41-1.76,4.07,4.07,0,0,1,1.66.33,2.68,2.68,0,0,1,1.14.83,3,3,0,0,1,.54,1.15,8.7,8.7,0,0,1,.15,1.85Z"></path><path d="M518.52,146V131.71h4.63a17.19,17.19,0,0,1,3.44.21,3.78,3.78,0,0,1,2.06,1.41,4.4,4.4,0,0,1,.83,2.78,4.67,4.67,0,0,1-.48,2.22,3.82,3.82,0,0,1-1.21,1.41,4.19,4.19,0,0,1-1.5.68,16.13,16.13,0,0,1-3,.21h-1.88V146Zm2.89-11.9v4.06H523a7.45,7.45,0,0,0,2.28-.22,1.89,1.89,0,0,0,.91-.7,1.91,1.91,0,0,0,.32-1.12,1.84,1.84,0,0,0-.46-1.29,2,2,0,0,0-1.16-.63,13.11,13.11,0,0,0-2.08-.1Z"></path><path d="M531.2,140.69a5.69,5.69,0,0,1,.67-2.64,4.63,4.63,0,0,1,1.91-2,5.81,5.81,0,0,1,2.76-.67A5.18,5.18,0,0,1,540.4,137a5.75,5.75,0,0,1,0,7.76,5.16,5.16,0,0,1-3.83,1.55,6,6,0,0,1-2.72-.64,4.45,4.45,0,0,1-2-1.89A6.41,6.41,0,0,1,531.2,140.69Zm2.81.15a3.41,3.41,0,0,0,.74,2.36,2.39,2.39,0,0,0,3.6,0,3.44,3.44,0,0,0,.73-2.38,3.38,3.38,0,0,0-.73-2.34,2.39,2.39,0,0,0-3.6,0A3.41,3.41,0,0,0,534,140.84Z"></path><path d="M546.68,146h-2.74V135.65h2.54v1.48a4.42,4.42,0,0,1,1.18-1.38,2.17,2.17,0,0,1,1.19-.33,3.43,3.43,0,0,1,1.8.52l-.85,2.39a2.39,2.39,0,0,0-1.28-.45,1.54,1.54,0,0,0-1,.32,2.11,2.11,0,0,0-.63,1.15,16.43,16.43,0,0,0-.23,3.47Z"></path><path d="M556.59,135.65v2.19h-1.87V142a10,10,0,0,0,0,1.48.65.65,0,0,0,.24.35.81.81,0,0,0,.47.13,3.4,3.4,0,0,0,1.1-.26l.24,2.13a5.52,5.52,0,0,1-2.17.41,3.37,3.37,0,0,1-1.34-.25,1.87,1.87,0,0,1-.87-.64,2.49,2.49,0,0,1-.39-1.07,13.11,13.11,0,0,1-.09-1.94v-4.52H550.7v-2.19H552v-2.06l2.76-1.6v3.66Z"></path><path d="M557.53,143.07l2.75-.42a2,2,0,0,0,.72,1.21,2.35,2.35,0,0,0,1.5.42,2.72,2.72,0,0,0,1.6-.39.88.88,0,0,0,.36-.74.7.7,0,0,0-.19-.51,2.25,2.25,0,0,0-.92-.36,15,15,0,0,1-4.21-1.34,2.68,2.68,0,0,1-1.23-2.34,2.9,2.9,0,0,1,1.06-2.26,5,5,0,0,1,3.3-.92,5.8,5.8,0,0,1,3.17.69,3.57,3.57,0,0,1,1.42,2l-2.58.48a1.57,1.57,0,0,0-.63-.92,2.27,2.27,0,0,0-1.33-.33,2.88,2.88,0,0,0-1.55.31.64.64,0,0,0-.31.55.61.61,0,0,0,.27.5,10.34,10.34,0,0,0,2.57.77,7.63,7.63,0,0,1,3.06,1.22,2.55,2.55,0,0,1,.86,2,3.12,3.12,0,0,1-1.2,2.45,5.21,5.21,0,0,1-3.52,1,5.79,5.79,0,0,1-3.35-.86A3.91,3.91,0,0,1,557.53,143.07Z"></path></g></g><g id="Information_Gathering-5" data-name="Information Gathering" class="cls-2"><g class="cls-2"><path d="M396,330.75V316.44h4.64a17.19,17.19,0,0,1,3.44.21,3.76,3.76,0,0,1,2.06,1.4,4.47,4.47,0,0,1,.83,2.79,4.67,4.67,0,0,1-.48,2.22,3.91,3.91,0,0,1-1.21,1.41,4.27,4.27,0,0,1-1.5.68,17.25,17.25,0,0,1-3,.2h-1.88v5.4Zm2.9-11.89v4.06h1.58a7.45,7.45,0,0,0,2.28-.22,1.91,1.91,0,0,0,.91-.71,2,2,0,0,0,.32-1.11,1.84,1.84,0,0,0-.46-1.29,1.93,1.93,0,0,0-1.16-.63,13.11,13.11,0,0,0-2.08-.1Z"></path><path d="M408.72,325.42a5.57,5.57,0,0,1,.67-2.64,4.63,4.63,0,0,1,1.91-2,5.69,5.69,0,0,1,2.76-.67,5.18,5.18,0,0,1,3.86,1.53,5.74,5.74,0,0,1,0,7.76,5.12,5.12,0,0,1-3.82,1.55,6,6,0,0,1-2.72-.65,4.45,4.45,0,0,1-2-1.89A6.28,6.28,0,0,1,408.72,325.42Zm2.81.15a3.42,3.42,0,0,0,.74,2.36,2.39,2.39,0,0,0,3.6,0,3.46,3.46,0,0,0,.73-2.38,3.41,3.41,0,0,0-.73-2.35,2.39,2.39,0,0,0-3.6,0A3.45,3.45,0,0,0,411.53,325.57Z"></path><path d="M421.57,330.75V316.44h2.75v14.31Z"></path><path d="M427.13,319v-2.54h2.74V319Zm0,11.77V320.38h2.74v10.37Z"></path><path d="M441.73,323.45l-2.71.49a1.91,1.91,0,0,0-.62-1.22,1.83,1.83,0,0,0-1.25-.41,2.05,2.05,0,0,0-1.64.7,3.64,3.64,0,0,0-.61,2.37,4.23,4.23,0,0,0,.62,2.61,2,2,0,0,0,1.67.76,1.89,1.89,0,0,0,1.28-.44,2.73,2.73,0,0,0,.7-1.53l2.69.46a4.76,4.76,0,0,1-1.61,2.8,5,5,0,0,1-3.19.95,4.74,4.74,0,0,1-3.63-1.44,6.54,6.54,0,0,1,0-8,4.79,4.79,0,0,1,3.67-1.43,5,5,0,0,1,3,.81A4.57,4.57,0,0,1,441.73,323.45Z"></path><path d="M443.81,319v-2.54h2.74V319Zm0,11.77V320.38h2.74v10.37Z"></path><path d="M455.37,327.45l2.73.46a4.45,4.45,0,0,1-1.66,2.29,4.86,4.86,0,0,1-2.85.79,4.63,4.63,0,0,1-4-1.77,6,6,0,0,1-1-3.57,5.72,5.72,0,0,1,1.35-4,4.43,4.43,0,0,1,3.41-1.46,4.6,4.6,0,0,1,3.65,1.53,6.75,6.75,0,0,1,1.28,4.68h-6.87a2.8,2.8,0,0,0,.66,1.9,2.08,2.08,0,0,0,1.58.68,1.74,1.74,0,0,0,1.09-.35A2.24,2.24,0,0,0,455.37,327.45Zm.16-2.77a2.63,2.63,0,0,0-.62-1.81,1.85,1.85,0,0,0-1.42-.62,1.93,1.93,0,0,0-1.49.65,2.53,2.53,0,0,0-.57,1.78Z"></path><path d="M459.52,327.79l2.75-.42a2,2,0,0,0,.72,1.22,2.39,2.39,0,0,0,1.5.42,2.71,2.71,0,0,0,1.6-.4.86.86,0,0,0,.36-.73.73.73,0,0,0-.19-.52,2.19,2.19,0,0,0-.92-.36,14.75,14.75,0,0,1-4.21-1.33,2.68,2.68,0,0,1-1.23-2.34,2.86,2.86,0,0,1,1.07-2.26,4.93,4.93,0,0,1,3.3-.92,5.76,5.76,0,0,1,3.16.69,3.55,3.55,0,0,1,1.43,2.05l-2.59.48a1.63,1.63,0,0,0-.63-.93,2.34,2.34,0,0,0-1.32-.32,3,3,0,0,0-1.56.3.65.65,0,0,0-.31.56.61.61,0,0,0,.27.5,10.5,10.5,0,0,0,2.57.77,7.63,7.63,0,0,1,3.06,1.22,2.55,2.55,0,0,1,.86,2A3.14,3.14,0,0,1,468,330a5.26,5.26,0,0,1-3.53,1,5.79,5.79,0,0,1-3.35-.86A3.91,3.91,0,0,1,459.52,327.79Z"></path></g></g><g id="Information_Gathering-6" data-name="Information Gathering" class="cls-2"><g class="cls-2"><path d="M676.46,122V107.71h2.82l5.86,9.56v-9.56h2.68V122h-2.9l-5.77-9.34V122Z"></path><path d="M696.86,118.73l2.74.45a4.43,4.43,0,0,1-1.67,2.29,4.81,4.81,0,0,1-2.84.79,4.65,4.65,0,0,1-4-1.77,5.94,5.94,0,0,1-1-3.57,5.72,5.72,0,0,1,1.35-4,4.43,4.43,0,0,1,3.4-1.46,4.62,4.62,0,0,1,3.66,1.53,6.82,6.82,0,0,1,1.28,4.68h-6.88a2.78,2.78,0,0,0,.66,1.9,2.12,2.12,0,0,0,1.59.68,1.69,1.69,0,0,0,1.08-.35A2.14,2.14,0,0,0,696.86,118.73ZM697,116a2.64,2.64,0,0,0-.61-1.81,2,2,0,0,0-2.91,0,2.49,2.49,0,0,0-.58,1.78Z"></path><path d="M706.74,111.65v2.19h-1.88V118a9.29,9.29,0,0,0,.06,1.48.56.56,0,0,0,.24.35.78.78,0,0,0,.46.13,3.39,3.39,0,0,0,1.11-.26l.23,2.13a5.52,5.52,0,0,1-2.17.41,3.32,3.32,0,0,1-1.33-.25,2,2,0,0,1-.88-.64,2.63,2.63,0,0,1-.38-1.07,13.11,13.11,0,0,1-.09-1.94v-4.52h-1.26v-2.19h1.26v-2.06l2.75-1.6v3.66Z"></path><path d="M710.58,122l-3.29-10.38H710l1.94,6.8,1.79-6.8h2.65l1.73,6.8,2-6.8h2.7L719.42,122h-2.63L715,115.36,713.24,122Z"></path><path d="M723.56,116.69a5.58,5.58,0,0,1,.68-2.64,4.58,4.58,0,0,1,1.91-2,5.75,5.75,0,0,1,2.76-.67,5.15,5.15,0,0,1,3.85,1.53,5.26,5.26,0,0,1,1.51,3.86,5.35,5.35,0,0,1-1.52,3.9,5.14,5.14,0,0,1-3.82,1.55,6,6,0,0,1-2.72-.64,4.4,4.4,0,0,1-2-1.89A6.29,6.29,0,0,1,723.56,116.69Zm2.82.15a3.4,3.4,0,0,0,.73,2.36,2.4,2.4,0,0,0,3.61,0,3.49,3.49,0,0,0,.72-2.38,3.43,3.43,0,0,0-.72-2.34,2.4,2.4,0,0,0-3.61,0A3.4,3.4,0,0,0,726.38,116.84Z"></path><path d="M739,122H736.3V111.65h2.55v1.48a4.42,4.42,0,0,1,1.17-1.38,2.2,2.2,0,0,1,1.19-.33,3.44,3.44,0,0,1,1.81.52l-.85,2.39a2.39,2.39,0,0,0-1.29-.45,1.54,1.54,0,0,0-1,.32,2.24,2.24,0,0,0-.63,1.15,16.43,16.43,0,0,0-.23,3.47Z"></path><path d="M744.1,122V107.71h2.75v7.6l3.21-3.66h3.38l-3.55,3.79,3.8,6.59h-3l-2.61-4.66-1.27,1.34V122Z"></path><path d="M760.17,117.37l2.81-.28a3.4,3.4,0,0,0,1,2.08,3.07,3.07,0,0,0,2.09.67,3.26,3.26,0,0,0,2.11-.59,1.78,1.78,0,0,0,.71-1.38,1.31,1.31,0,0,0-.3-.87,2.44,2.44,0,0,0-1-.62c-.34-.12-1.11-.32-2.32-.62a7.94,7.94,0,0,1-3.26-1.42,3.76,3.76,0,0,1-.7-4.93,4,4,0,0,1,1.79-1.45,7.23,7.23,0,0,1,2.82-.49,6.05,6.05,0,0,1,4.06,1.18,4.22,4.22,0,0,1,1.43,3.15l-2.89.13a2.46,2.46,0,0,0-.8-1.59,2.94,2.94,0,0,0-1.83-.48,3.25,3.25,0,0,0-2,.52,1,1,0,0,0-.46.88,1.09,1.09,0,0,0,.43.87,7.42,7.42,0,0,0,2.65,1,14,14,0,0,1,3.12,1,4,4,0,0,1,1.58,1.46,4.45,4.45,0,0,1-.11,4.58,4.07,4.07,0,0,1-1.93,1.6,8.07,8.07,0,0,1-3.12.52A6.24,6.24,0,0,1,761.9,121,5.43,5.43,0,0,1,760.17,117.37Z"></path><path d="M780.22,118.73l2.74.45a4.43,4.43,0,0,1-1.67,2.29,4.81,4.81,0,0,1-2.84.79,4.65,4.65,0,0,1-4-1.77,5.94,5.94,0,0,1-1-3.57,5.72,5.72,0,0,1,1.35-4,4.43,4.43,0,0,1,3.4-1.46,4.62,4.62,0,0,1,3.66,1.53,6.77,6.77,0,0,1,1.27,4.68h-6.87a2.78,2.78,0,0,0,.66,1.9,2.12,2.12,0,0,0,1.59.68,1.69,1.69,0,0,0,1.08-.35A2.21,2.21,0,0,0,780.22,118.73Zm.16-2.78a2.64,2.64,0,0,0-.61-1.81,1.92,1.92,0,0,0-1.43-.62,2,2,0,0,0-1.49.65,2.53,2.53,0,0,0-.57,1.78Z"></path><path d="M794.38,114.72l-2.7.49a2,2,0,0,0-.62-1.22,1.89,1.89,0,0,0-1.26-.41,2.06,2.06,0,0,0-1.63.71,3.59,3.59,0,0,0-.61,2.36,4.21,4.21,0,0,0,.62,2.61,2,2,0,0,0,1.66.76,1.83,1.83,0,0,0,1.28-.44,2.74,2.74,0,0,0,.71-1.53l2.69.46a4.78,4.78,0,0,1-1.61,2.8,5,5,0,0,1-3.19,1,4.74,4.74,0,0,1-3.63-1.44,5.55,5.55,0,0,1-1.35-4,5.61,5.61,0,0,1,1.35-4,4.85,4.85,0,0,1,3.68-1.43,5,5,0,0,1,3,.82A4.49,4.49,0,0,1,794.38,114.72Z"></path><path d="M803.29,122v-1.56a3.94,3.94,0,0,1-1.49,1.31,4.14,4.14,0,0,1-1.95.48,3.76,3.76,0,0,1-1.87-.46,2.64,2.64,0,0,1-1.2-1.29,5.69,5.69,0,0,1-.37-2.29v-6.57h2.74v4.77a13.32,13.32,0,0,0,.15,2.68,1.48,1.48,0,0,0,.55.78,1.73,1.73,0,0,0,1,.29,2.14,2.14,0,0,0,1.26-.39,1.94,1.94,0,0,0,.76-1,10.9,10.9,0,0,0,.21-2.8v-4.38h2.74V122Z"></path><path d="M811.31,122h-2.75V111.65h2.55v1.48a4.42,4.42,0,0,1,1.18-1.38,2.17,2.17,0,0,1,1.19-.33,3.43,3.43,0,0,1,1.8.52l-.85,2.39a2.39,2.39,0,0,0-1.29-.45,1.53,1.53,0,0,0-1,.32,2.11,2.11,0,0,0-.63,1.15,16.43,16.43,0,0,0-.23,3.47Z"></path><path d="M816.46,110.25v-2.54h2.75v2.54Zm0,11.78V111.65h2.75V122Z"></path><path d="M826.78,111.65v2.19H824.9V118a9.29,9.29,0,0,0,.06,1.48.56.56,0,0,0,.24.35.78.78,0,0,0,.46.13,3.39,3.39,0,0,0,1.11-.26l.23,2.13a5.52,5.52,0,0,1-2.17.41,3.32,3.32,0,0,1-1.33-.25,2,2,0,0,1-.88-.64,2.63,2.63,0,0,1-.38-1.07,13.11,13.11,0,0,1-.09-1.94v-4.52h-1.26v-2.19h1.26v-2.06l2.75-1.6v3.66Z"></path><path d="M827.38,111.65h2.92l2.48,7.37,2.42-7.37h2.85l-3.67,10-.65,1.8a7.13,7.13,0,0,1-.69,1.39,3.11,3.11,0,0,1-.75.78,3.39,3.39,0,0,1-1,.46,5.44,5.44,0,0,1-1.4.16,7.35,7.35,0,0,1-1.55-.16l-.24-2.15a5.64,5.64,0,0,0,1.16.13,1.71,1.71,0,0,0,1.41-.56,3.84,3.84,0,0,0,.71-1.43Z"></path><path d="M718,141.37l2.81-.28a3.4,3.4,0,0,0,1,2.08,3.1,3.1,0,0,0,2.1.67,3.23,3.23,0,0,0,2.1-.59,1.78,1.78,0,0,0,.71-1.38,1.31,1.31,0,0,0-.3-.87,2.37,2.37,0,0,0-1-.62c-.34-.12-1.11-.32-2.31-.62a8,8,0,0,1-3.27-1.42,3.75,3.75,0,0,1-1.31-2.88,3.65,3.65,0,0,1,.62-2.05,4,4,0,0,1,1.78-1.45,7.23,7.23,0,0,1,2.82-.49,6,6,0,0,1,4.06,1.18,4.18,4.18,0,0,1,1.43,3.15l-2.89.13a2.42,2.42,0,0,0-.8-1.59,2.9,2.9,0,0,0-1.83-.48,3.25,3.25,0,0,0-2,.52,1,1,0,0,0-.46.88,1.09,1.09,0,0,0,.43.87,7.42,7.42,0,0,0,2.66,1,14.4,14.4,0,0,1,3.12,1,4.05,4.05,0,0,1,1.58,1.46,4.51,4.51,0,0,1-.11,4.58,4.1,4.1,0,0,1-1.94,1.6,8.05,8.05,0,0,1-3.11.52,6.24,6.24,0,0,1-4.17-1.25A5.48,5.48,0,0,1,718,141.37Z"></path><path d="M738,142.73l2.73.45a4.41,4.41,0,0,1-1.66,2.29,4.86,4.86,0,0,1-2.85.79,4.63,4.63,0,0,1-4-1.77,5.87,5.87,0,0,1-1-3.57,5.72,5.72,0,0,1,1.35-4,4.45,4.45,0,0,1,3.41-1.46,4.6,4.6,0,0,1,3.65,1.53,6.77,6.77,0,0,1,1.28,4.68H734a2.73,2.73,0,0,0,.67,1.9,2.08,2.08,0,0,0,1.58.68,1.69,1.69,0,0,0,1.08-.35A2.15,2.15,0,0,0,738,142.73Zm.15-2.78a2.64,2.64,0,0,0-.61-1.81,2,2,0,0,0-2.91,0,2.58,2.58,0,0,0-.58,1.78Z"></path><path d="M747.88,135.65v2.19H746V142a10,10,0,0,0,0,1.48.65.65,0,0,0,.24.35.81.81,0,0,0,.47.13,3.4,3.4,0,0,0,1.1-.26l.23,2.13a5.47,5.47,0,0,1-2.16.41,3.37,3.37,0,0,1-1.34-.25,1.87,1.87,0,0,1-.87-.64,2.49,2.49,0,0,1-.39-1.07,13.11,13.11,0,0,1-.09-1.94v-4.52H742v-2.19h1.26v-2.06L746,132v3.66Z"></path><path d="M754.54,135.65v2.19h-1.87V142a10,10,0,0,0,.05,1.48.65.65,0,0,0,.24.35.81.81,0,0,0,.47.13,3.4,3.4,0,0,0,1.1-.26l.24,2.13a5.56,5.56,0,0,1-2.17.41,3.37,3.37,0,0,1-1.34-.25,1.87,1.87,0,0,1-.87-.64,2.49,2.49,0,0,1-.39-1.07,13.11,13.11,0,0,1-.09-1.94v-4.52h-1.26v-2.19h1.26v-2.06l2.76-1.6v3.66Z"></path><path d="M756.44,134.25v-2.54h2.75v2.54Zm0,11.78V135.65h2.75V146Z"></path><path d="M771.44,146h-2.75v-5.3a8.59,8.59,0,0,0-.17-2.17,1.56,1.56,0,0,0-.58-.77,1.64,1.64,0,0,0-1-.27,2.22,2.22,0,0,0-1.28.39,2,2,0,0,0-.77,1,8.92,8.92,0,0,0-.21,2.38V146H762V135.65h2.55v1.53a4.17,4.17,0,0,1,3.42-1.76,4.1,4.1,0,0,1,1.66.33,2.81,2.81,0,0,1,1.14.83,3.18,3.18,0,0,1,.53,1.15,8,8,0,0,1,.16,1.85Z"></path><path d="M774,146.71l3.14.38a1,1,0,0,0,.36.75,2,2,0,0,0,1.23.3,3.12,3.12,0,0,0,1.61-.33,1.29,1.29,0,0,0,.55-.69,4.32,4.32,0,0,0,.13-1.26v-1.51a3.72,3.72,0,0,1-3.11,1.68,3.82,3.82,0,0,1-3.31-1.77,6,6,0,0,1-1-3.48,5.69,5.69,0,0,1,1.26-4,4,4,0,0,1,3.12-1.38,3.78,3.78,0,0,1,3.17,1.69v-1.46h2.57V145a9.39,9.39,0,0,1-.3,2.75,3.41,3.41,0,0,1-.85,1.42,3.66,3.66,0,0,1-1.46.81,7.56,7.56,0,0,1-2.31.29,6,6,0,0,1-3.74-.9A2.82,2.82,0,0,1,774,147C774,147,774,146.84,774,146.71Zm2.46-6.08a3.7,3.7,0,0,0,.64,2.41,2,2,0,0,0,1.57.77,2.16,2.16,0,0,0,1.7-.79,3.43,3.43,0,0,0,.69-2.33,3.65,3.65,0,0,0-.66-2.39,2.1,2.1,0,0,0-1.68-.78,2,2,0,0,0-1.62.77A3.57,3.57,0,0,0,776.42,140.63Z"></path><path d="M785.47,143.07l2.75-.42a2,2,0,0,0,.72,1.21,2.35,2.35,0,0,0,1.5.42,2.72,2.72,0,0,0,1.6-.39.88.88,0,0,0,.36-.74.7.7,0,0,0-.19-.51,2.25,2.25,0,0,0-.92-.36,15,15,0,0,1-4.21-1.34,2.68,2.68,0,0,1-1.23-2.34,2.87,2.87,0,0,1,1.06-2.26,5,5,0,0,1,3.3-.92,5.8,5.8,0,0,1,3.17.69,3.57,3.57,0,0,1,1.42,2l-2.58.48a1.57,1.57,0,0,0-.63-.92,2.27,2.27,0,0,0-1.33-.33,2.88,2.88,0,0,0-1.55.31.64.64,0,0,0-.31.55.61.61,0,0,0,.27.5,10.35,10.35,0,0,0,2.56.77,7.63,7.63,0,0,1,3.07,1.22,2.55,2.55,0,0,1,.86,2,3.12,3.12,0,0,1-1.2,2.45,5.21,5.21,0,0,1-3.52,1,5.85,5.85,0,0,1-3.36-.86A3.94,3.94,0,0,1,785.47,143.07Z"></path></g></g><g id="Information_Gathering-7" data-name="Information Gathering" class="cls-2"><g class="cls-2"><path d="M616,314.1l2.81-.28a3.4,3.4,0,0,0,1,2.08,3.12,3.12,0,0,0,2.09.67,3.28,3.28,0,0,0,2.11-.59,1.79,1.79,0,0,0,.71-1.39,1.29,1.29,0,0,0-.3-.86,2.34,2.34,0,0,0-1-.62c-.34-.12-1.11-.33-2.32-.63a7.82,7.82,0,0,1-3.26-1.41,3.76,3.76,0,0,1-.7-4.93,3.93,3.93,0,0,1,1.79-1.45,7.22,7.22,0,0,1,2.82-.5,6.06,6.06,0,0,1,4,1.18,4.2,4.2,0,0,1,1.44,3.16l-2.9.13a2.41,2.41,0,0,0-.79-1.59,2.94,2.94,0,0,0-1.83-.48,3.32,3.32,0,0,0-2,.51,1,1,0,0,0-.46.89,1.09,1.09,0,0,0,.43.87,7.42,7.42,0,0,0,2.65,1,13.52,13.52,0,0,1,3.12,1,4,4,0,0,1,1.58,1.45,4.47,4.47,0,0,1-.11,4.59,4.05,4.05,0,0,1-1.93,1.59,8.09,8.09,0,0,1-3.12.53,6.18,6.18,0,0,1-4.17-1.26A5.39,5.39,0,0,1,616,314.1Z"></path><path d="M636.07,315.45l2.74.46a4.47,4.47,0,0,1-1.67,2.29,4.83,4.83,0,0,1-2.84.79,4.65,4.65,0,0,1-4-1.77,6,6,0,0,1-1-3.57,5.76,5.76,0,0,1,1.34-4,4.43,4.43,0,0,1,3.41-1.46,4.62,4.62,0,0,1,3.66,1.53,6.75,6.75,0,0,1,1.27,4.68h-6.87a2.8,2.8,0,0,0,.66,1.9,2.1,2.1,0,0,0,1.59.68,1.69,1.69,0,0,0,1.08-.35A2.24,2.24,0,0,0,636.07,315.45Zm.16-2.77a2.58,2.58,0,0,0-.62-1.81,1.85,1.85,0,0,0-1.42-.62,2,2,0,0,0-1.49.65,2.53,2.53,0,0,0-.57,1.78Z"></path><path d="M643.82,318.75h-2.75V308.38h2.55v1.48a4.42,4.42,0,0,1,1.18-1.38,2.17,2.17,0,0,1,1.19-.33,3.43,3.43,0,0,1,1.8.52l-.85,2.39a2.39,2.39,0,0,0-1.29-.45,1.46,1.46,0,0,0-1,.32,2.11,2.11,0,0,0-.63,1.14,15.92,15.92,0,0,0-.23,3.48Z"></path><path d="M651.83,318.75l-4.18-10.37h2.88l2,5.3.57,1.76c.15-.45.24-.74.28-.89s.19-.58.29-.87l2-5.3h2.82l-4.12,10.37Z"></path><path d="M666.1,315.45l2.74.46a4.47,4.47,0,0,1-1.67,2.29,4.85,4.85,0,0,1-2.84.79,4.65,4.65,0,0,1-4-1.77,6,6,0,0,1-1-3.57,5.76,5.76,0,0,1,1.34-4,4.43,4.43,0,0,1,3.41-1.46,4.58,4.58,0,0,1,3.65,1.53,6.7,6.7,0,0,1,1.28,4.68h-6.87a2.8,2.8,0,0,0,.66,1.9,2.1,2.1,0,0,0,1.58.68,1.72,1.72,0,0,0,1.09-.35A2.24,2.24,0,0,0,666.1,315.45Zm.16-2.77a2.63,2.63,0,0,0-.62-1.81,1.85,1.85,0,0,0-1.42-.62,1.93,1.93,0,0,0-1.49.65,2.53,2.53,0,0,0-.57,1.78Z"></path><path d="M673.85,318.75H671.1V308.38h2.55v1.48a4.42,4.42,0,0,1,1.18-1.38,2.17,2.17,0,0,1,1.19-.33,3.43,3.43,0,0,1,1.8.52l-.85,2.39a2.39,2.39,0,0,0-1.29-.45,1.46,1.46,0,0,0-1,.32,2.11,2.11,0,0,0-.63,1.14,15.92,15.92,0,0,0-.23,3.48Z"></path><path d="M602.58,337.49l2.8.89a6.29,6.29,0,0,1-2.14,3.48,6.74,6.74,0,0,1-8.49-.81,7.44,7.44,0,0,1-1.84-5.33,7.79,7.79,0,0,1,1.85-5.55,6.31,6.31,0,0,1,4.85-2,6,6,0,0,1,4.27,1.56,5.6,5.6,0,0,1,1.46,2.63l-2.86.69a3,3,0,0,0-1.06-1.76,3,3,0,0,0-2-.65,3.23,3.23,0,0,0-2.58,1.15,5.59,5.59,0,0,0-1,3.7,6,6,0,0,0,1,3.86,3.19,3.19,0,0,0,2.54,1.16,2.92,2.92,0,0,0,2-.74A4.22,4.22,0,0,0,602.58,337.49Z"></path><path d="M613.85,339.45l2.73.46a4.51,4.51,0,0,1-1.66,2.29,4.86,4.86,0,0,1-2.85.79,4.63,4.63,0,0,1-4-1.77,5.89,5.89,0,0,1-1-3.57,5.72,5.72,0,0,1,1.35-4,4.41,4.41,0,0,1,3.41-1.46,4.6,4.6,0,0,1,3.65,1.53,6.75,6.75,0,0,1,1.28,4.68h-6.88a2.75,2.75,0,0,0,.67,1.9,2.08,2.08,0,0,0,1.58.68,1.69,1.69,0,0,0,1.08-.35A2.18,2.18,0,0,0,613.85,339.45Zm.15-2.77a2.63,2.63,0,0,0-.61-1.81,1.87,1.87,0,0,0-1.43-.62,1.91,1.91,0,0,0-1.48.65,2.58,2.58,0,0,0-.58,1.78Z"></path><path d="M621.59,342.75h-2.74V332.38h2.55v1.48a4.29,4.29,0,0,1,1.17-1.38,2.2,2.2,0,0,1,1.19-.33,3.47,3.47,0,0,1,1.81.52l-.85,2.39a2.45,2.45,0,0,0-1.29-.45,1.48,1.48,0,0,0-1,.32,2.11,2.11,0,0,0-.63,1.14,16.61,16.61,0,0,0-.23,3.48Z"></path><path d="M631.5,332.38v2.19h-1.87v4.18a11.82,11.82,0,0,0,0,1.48.66.66,0,0,0,.25.35.76.76,0,0,0,.46.13,3.69,3.69,0,0,0,1.1-.26l.24,2.13a5.52,5.52,0,0,1-2.17.41,3.55,3.55,0,0,1-1.34-.25,1.88,1.88,0,0,1-.87-.65A2.45,2.45,0,0,1,627,341a13.11,13.11,0,0,1-.09-1.94v-4.52h-1.26v-2.19h1.26v-2.06l2.76-1.6v3.66Z"></path><path d="M633.41,331v-2.54h2.74V331Zm0,11.77V332.38h2.74v10.37Z"></path><path d="M637.76,332.38h1.53v-.78a5.33,5.33,0,0,1,.27-2,2.22,2.22,0,0,1,1-1,4,4,0,0,1,1.89-.41,7.71,7.71,0,0,1,2.29.35l-.37,1.92a5.06,5.06,0,0,0-1.26-.16,1.14,1.14,0,0,0-.85.28,1.63,1.63,0,0,0-.26,1.07v.73h2.05v2.16H642v8.21h-2.74v-8.21h-1.53Z"></path><path d="M645.62,331v-2.54h2.75V331Zm0,11.77V332.38h2.75v10.37Z"></path><path d="M660.22,335.45l-2.7.49a2,2,0,0,0-.62-1.22,1.84,1.84,0,0,0-1.26-.41,2,2,0,0,0-1.63.7,3.64,3.64,0,0,0-.61,2.37A4.17,4.17,0,0,0,654,340a2,2,0,0,0,1.66.76,1.88,1.88,0,0,0,1.28-.44,2.74,2.74,0,0,0,.71-1.53l2.69.46a4.81,4.81,0,0,1-1.61,2.8,5,5,0,0,1-3.19.95,4.74,4.74,0,0,1-3.63-1.44,6.56,6.56,0,0,1,0-8,4.81,4.81,0,0,1,3.67-1.43,5.05,5.05,0,0,1,3,.81A4.56,4.56,0,0,1,660.22,335.45Z"></path><path d="M664.35,335.55l-2.49-.45a3.88,3.88,0,0,1,1.45-2.23,5.3,5.3,0,0,1,3.05-.72,6.57,6.57,0,0,1,2.73.43,2.76,2.76,0,0,1,1.27,1.11,5.7,5.7,0,0,1,.36,2.45l0,3.21a11.85,11.85,0,0,0,.13,2,6,6,0,0,0,.5,1.39H668.6c-.07-.18-.16-.45-.26-.81-.05-.16-.08-.27-.1-.32a5,5,0,0,1-1.5,1A4.5,4.5,0,0,1,665,343a3.55,3.55,0,0,1-2.53-.87,2.91,2.91,0,0,1-.92-2.2,3,3,0,0,1,.42-1.57,2.74,2.74,0,0,1,1.18-1.05,9.2,9.2,0,0,1,2.18-.64A16,16,0,0,0,668,336v-.28a1.45,1.45,0,0,0-.39-1.13,2.4,2.4,0,0,0-1.48-.33,1.89,1.89,0,0,0-1.14.29A2,2,0,0,0,664.35,335.55Zm3.68,2.22a15.65,15.65,0,0,1-1.67.42,5.62,5.62,0,0,0-1.5.48,1.15,1.15,0,0,0-.53,1,1.33,1.33,0,0,0,.43,1,1.49,1.49,0,0,0,1.09.42,2.43,2.43,0,0,0,1.42-.48,1.76,1.76,0,0,0,.65-.91,5.5,5.5,0,0,0,.11-1.34Z"></path><path d="M678.18,332.38v2.19h-1.87v4.18a11.82,11.82,0,0,0,.05,1.48.66.66,0,0,0,.25.35.76.76,0,0,0,.46.13,3.69,3.69,0,0,0,1.1-.26l.24,2.13a5.52,5.52,0,0,1-2.17.41,3.55,3.55,0,0,1-1.34-.25,1.88,1.88,0,0,1-.87-.65,2.45,2.45,0,0,1-.39-1.06,13.11,13.11,0,0,1-.09-1.94v-4.52h-1.26v-2.19h1.26v-2.06l2.76-1.6v3.66Z"></path><path d="M686.09,339.45l2.74.46a4.47,4.47,0,0,1-1.67,2.29,4.85,4.85,0,0,1-2.84.79,4.65,4.65,0,0,1-4-1.77,6,6,0,0,1-1-3.57,5.76,5.76,0,0,1,1.34-4,4.43,4.43,0,0,1,3.41-1.46,4.58,4.58,0,0,1,3.65,1.53,6.7,6.7,0,0,1,1.28,4.68H682.1a2.8,2.8,0,0,0,.66,1.9,2.1,2.1,0,0,0,1.59.68,1.71,1.71,0,0,0,1.08-.35A2.24,2.24,0,0,0,686.09,339.45Zm.16-2.77a2.63,2.63,0,0,0-.62-1.81,1.85,1.85,0,0,0-1.42-.62,1.93,1.93,0,0,0-1.49.65,2.53,2.53,0,0,0-.57,1.78Z"></path><path d="M690.24,339.79l2.76-.42a2,2,0,0,0,.71,1.22,2.39,2.39,0,0,0,1.5.42,2.75,2.75,0,0,0,1.61-.4.86.86,0,0,0,.36-.73.73.73,0,0,0-.2-.52,2.13,2.13,0,0,0-.92-.36,14.87,14.87,0,0,1-4.21-1.33,2.68,2.68,0,0,1-1.23-2.34,2.86,2.86,0,0,1,1.07-2.26,4.93,4.93,0,0,1,3.3-.92,5.76,5.76,0,0,1,3.16.69,3.55,3.55,0,0,1,1.43,2.05l-2.59.48a1.63,1.63,0,0,0-.63-.93,2.34,2.34,0,0,0-1.32-.32,3,3,0,0,0-1.55.3.67.67,0,0,0-.32.56.6.6,0,0,0,.28.5,10.19,10.19,0,0,0,2.56.77,7.63,7.63,0,0,1,3.06,1.22,2.55,2.55,0,0,1,.86,2,3.14,3.14,0,0,1-1.19,2.45,5.26,5.26,0,0,1-3.53,1,5.79,5.79,0,0,1-3.35-.86A4,4,0,0,1,690.24,339.79Z"></path></g></g><g id="Information_Gathering-8" data-name="Information Gathering" class="cls-2"><g class="cls-2"><path d="M932.13,122H929l-1.25-3.26H922L920.83,122h-3.06l5.57-14.32h3.06Zm-5.32-5.67-2-5.31-1.94,5.31Z"></path><path d="M940.47,122v-1.56a3.86,3.86,0,0,1-1.49,1.31,4.13,4.13,0,0,1-1.94.48,3.77,3.77,0,0,1-1.88-.46,2.68,2.68,0,0,1-1.2-1.29,5.69,5.69,0,0,1-.37-2.29v-6.57h2.74v4.77a13.32,13.32,0,0,0,.15,2.68,1.49,1.49,0,0,0,.56.78,1.68,1.68,0,0,0,1,.29,2.14,2.14,0,0,0,1.26-.39,1.89,1.89,0,0,0,.76-1,10.9,10.9,0,0,0,.21-2.8v-4.38H943V122Z"></path><path d="M955.38,122h-2.55V120.5a4.18,4.18,0,0,1-1.5,1.33,3.86,3.86,0,0,1-1.75.43,4,4,0,0,1-3.06-1.44,5.86,5.86,0,0,1-1.27-4,5.78,5.78,0,0,1,1.24-4,4.06,4.06,0,0,1,3.13-1.37,3.86,3.86,0,0,1,3,1.45v-5.16h2.75Zm-7.33-5.41a4.72,4.72,0,0,0,.46,2.4,2.08,2.08,0,0,0,1.86,1.07,2,2,0,0,0,1.61-.8,3.74,3.74,0,0,0,.66-2.41,4.05,4.05,0,0,0-.64-2.57,2,2,0,0,0-1.65-.79,2.07,2.07,0,0,0-1.64.78A3.49,3.49,0,0,0,948.05,116.62Z"></path><path d="M958.08,110.25v-2.54h2.74v2.54Zm0,11.78V111.65h2.74V122Z"></path><path d="M968.39,111.65v2.19h-1.87V118a11.82,11.82,0,0,0,.05,1.48.62.62,0,0,0,.25.35.76.76,0,0,0,.46.13,3.4,3.4,0,0,0,1.1-.26l.24,2.13a5.52,5.52,0,0,1-2.17.41,3.4,3.4,0,0,1-1.34-.25,1.92,1.92,0,0,1-.87-.64,2.49,2.49,0,0,1-.39-1.07,13.11,13.11,0,0,1-.09-1.94v-4.52H962.5v-2.19h1.26v-2.06l2.76-1.6v3.66Z"></path><path d="M970.3,110.25v-2.54H973v2.54Zm0,11.78V111.65H973V122Z"></path><path d="M985.29,122h-2.75v-5.3a8.59,8.59,0,0,0-.17-2.17,1.6,1.6,0,0,0-.57-.77,1.67,1.67,0,0,0-1-.27,2.22,2.22,0,0,0-1.28.39,2,2,0,0,0-.77,1,8.92,8.92,0,0,0-.21,2.38V122h-2.75V111.65h2.55v1.53a4.17,4.17,0,0,1,3.42-1.76,4.07,4.07,0,0,1,1.66.33,2.81,2.81,0,0,1,1.14.83,3,3,0,0,1,.54,1.15,8.7,8.7,0,0,1,.15,1.85Z"></path><path d="M987.82,122.71l3.13.38a1,1,0,0,0,.36.75,2,2,0,0,0,1.23.3,3.1,3.1,0,0,0,1.61-.33,1.25,1.25,0,0,0,.55-.69,4,4,0,0,0,.13-1.26v-1.51a3.72,3.72,0,0,1-3.11,1.68,3.83,3.83,0,0,1-3.31-1.77,6,6,0,0,1-.95-3.48,5.69,5.69,0,0,1,1.25-4,4.06,4.06,0,0,1,3.12-1.38,3.78,3.78,0,0,1,3.17,1.69v-1.46h2.57V121a9.39,9.39,0,0,1-.3,2.75,3.31,3.31,0,0,1-.85,1.42,3.59,3.59,0,0,1-1.46.81,7.56,7.56,0,0,1-2.31.29,6,6,0,0,1-3.74-.9,2.84,2.84,0,0,1-1.1-2.29C987.81,123,987.81,122.84,987.82,122.71Zm2.45-6.08a3.7,3.7,0,0,0,.64,2.41,2,2,0,0,0,1.57.77,2.15,2.15,0,0,0,1.7-.79,3.38,3.38,0,0,0,.7-2.33,3.59,3.59,0,0,0-.67-2.39,2.1,2.1,0,0,0-1.68-.78,2,2,0,0,0-1.62.77A3.57,3.57,0,0,0,990.27,116.63Z"></path><path d="M1018,122h-3.14l-1.25-3.26h-5.73l-1.18,3.26h-3.06l5.57-14.32h3.06Zm-5.32-5.67-2-5.31-1.94,5.31Z"></path><path d="M1029,122h-2.75v-5.3a8.12,8.12,0,0,0-.17-2.17,1.6,1.6,0,0,0-.57-.77,1.64,1.64,0,0,0-1-.27,2.18,2.18,0,0,0-1.28.39,2,2,0,0,0-.78,1,8.92,8.92,0,0,0-.21,2.38V122h-2.74V111.65h2.54v1.53a4.17,4.17,0,0,1,3.42-1.76,4.07,4.07,0,0,1,1.66.33,2.81,2.81,0,0,1,1.14.83,3,3,0,0,1,.54,1.15,8.7,8.7,0,0,1,.15,1.85Z"></path><path d="M1041.27,122h-2.54V120.5a4.18,4.18,0,0,1-1.5,1.33,3.86,3.86,0,0,1-1.75.43,4,4,0,0,1-3.06-1.44,5.86,5.86,0,0,1-1.27-4,5.78,5.78,0,0,1,1.24-4,4,4,0,0,1,3.13-1.37,3.88,3.88,0,0,1,3,1.45v-5.16h2.74Zm-7.32-5.41a4.72,4.72,0,0,0,.46,2.4,2.08,2.08,0,0,0,1.85,1.07,2,2,0,0,0,1.62-.8,3.74,3.74,0,0,0,.66-2.41,4.12,4.12,0,0,0-.64-2.57,2.12,2.12,0,0,0-3.29,0A3.49,3.49,0,0,0,1034,116.62Z"></path><path d="M942.26,146v-14.2h2.89v11.78h7.19V146Z"></path><path d="M953.74,140.69a5.58,5.58,0,0,1,.68-2.64,4.58,4.58,0,0,1,1.91-2,5.75,5.75,0,0,1,2.76-.67,5.15,5.15,0,0,1,3.85,1.53,5.26,5.26,0,0,1,1.51,3.86,5.35,5.35,0,0,1-1.52,3.9,5.14,5.14,0,0,1-3.82,1.55,6,6,0,0,1-2.72-.64,4.4,4.4,0,0,1-2-1.89A6.29,6.29,0,0,1,953.74,140.69Zm2.82.15a3.4,3.4,0,0,0,.73,2.36,2.4,2.4,0,0,0,3.61,0,3.49,3.49,0,0,0,.73-2.38,3.43,3.43,0,0,0-.73-2.34,2.4,2.4,0,0,0-3.61,0A3.4,3.4,0,0,0,956.56,140.84Z"></path><path d="M966.34,146.71l3.14.38a1,1,0,0,0,.36.75,2,2,0,0,0,1.23.3,3.12,3.12,0,0,0,1.61-.33,1.34,1.34,0,0,0,.55-.69,4.42,4.42,0,0,0,.12-1.26v-1.51a3.7,3.7,0,0,1-3.1,1.68,3.82,3.82,0,0,1-3.31-1.77,6,6,0,0,1-1-3.48,5.69,5.69,0,0,1,1.26-4,4,4,0,0,1,3.12-1.38,3.78,3.78,0,0,1,3.17,1.69v-1.46h2.57V145a9.39,9.39,0,0,1-.3,2.75,3.52,3.52,0,0,1-.85,1.42,3.66,3.66,0,0,1-1.46.81,7.56,7.56,0,0,1-2.31.29,6,6,0,0,1-3.74-.9,2.82,2.82,0,0,1-1.11-2.29C966.33,147,966.34,146.84,966.34,146.71Zm2.45-6.08a3.76,3.76,0,0,0,.64,2.41,2,2,0,0,0,1.58.77,2.16,2.16,0,0,0,1.7-.79,3.43,3.43,0,0,0,.69-2.33,3.65,3.65,0,0,0-.66-2.39,2.1,2.1,0,0,0-1.68-.78,2,2,0,0,0-1.63.77A3.63,3.63,0,0,0,968.79,140.63Z"></path><path d="M978.56,146.71l3.13.38a1.07,1.07,0,0,0,.37.75,2,2,0,0,0,1.23.3,3.15,3.15,0,0,0,1.61-.33,1.28,1.28,0,0,0,.54-.69,4,4,0,0,0,.13-1.26v-1.51a3.7,3.7,0,0,1-3.1,1.68,3.84,3.84,0,0,1-3.32-1.77,6.07,6.07,0,0,1-.95-3.48,5.74,5.74,0,0,1,1.25-4,4.06,4.06,0,0,1,3.12-1.38,3.8,3.8,0,0,1,3.18,1.69v-1.46h2.56V145a9.39,9.39,0,0,1-.3,2.75,3.31,3.31,0,0,1-.85,1.42,3.59,3.59,0,0,1-1.46.81,7.56,7.56,0,0,1-2.31.29,6,6,0,0,1-3.74-.9,2.84,2.84,0,0,1-1.1-2.29C978.55,147,978.55,146.84,978.56,146.71Zm2.45-6.08a3.7,3.7,0,0,0,.64,2.41,2,2,0,0,0,1.58.77,2.18,2.18,0,0,0,1.7-.79,3.43,3.43,0,0,0,.69-2.33,3.65,3.65,0,0,0-.66-2.39,2.13,2.13,0,0,0-1.68-.78,2,2,0,0,0-1.63.77A3.57,3.57,0,0,0,981,140.63Z"></path><path d="M991,134.25v-2.54h2.74v2.54ZM991,146V135.65h2.74V146Z"></path><path d="M1006,146h-2.74v-5.3a8,8,0,0,0-.18-2.17,1.6,1.6,0,0,0-.57-.77,1.64,1.64,0,0,0-.95-.27,2.2,2.2,0,0,0-1.28.39,2,2,0,0,0-.78,1,8.92,8.92,0,0,0-.21,2.38V146h-2.74V135.65h2.55v1.53a4.14,4.14,0,0,1,3.41-1.76,4.07,4.07,0,0,1,1.66.33,2.75,2.75,0,0,1,1.14.83,3,3,0,0,1,.54,1.15,8.7,8.7,0,0,1,.15,1.85Z"></path><path d="M1008.55,146.71l3.13.38a1.07,1.07,0,0,0,.37.75,2,2,0,0,0,1.23.3,3.15,3.15,0,0,0,1.61-.33,1.28,1.28,0,0,0,.54-.69,4,4,0,0,0,.13-1.26v-1.51a3.7,3.7,0,0,1-3.1,1.68,3.81,3.81,0,0,1-3.31-1.77,6,6,0,0,1-1-3.48,5.74,5.74,0,0,1,1.25-4,4.06,4.06,0,0,1,3.12-1.38,3.8,3.8,0,0,1,3.18,1.69v-1.46h2.57V145a9.33,9.33,0,0,1-.31,2.75,3.31,3.31,0,0,1-.85,1.42,3.59,3.59,0,0,1-1.46.81,7.56,7.56,0,0,1-2.31.29,6,6,0,0,1-3.74-.9,2.84,2.84,0,0,1-1.1-2.29C1008.54,147,1008.54,146.84,1008.55,146.71Zm2.45-6.08a3.7,3.7,0,0,0,.64,2.41,2,2,0,0,0,1.58.77,2.18,2.18,0,0,0,1.7-.79,3.43,3.43,0,0,0,.69-2.33,3.65,3.65,0,0,0-.66-2.39,2.13,2.13,0,0,0-1.68-.78,2,2,0,0,0-1.63.77A3.57,3.57,0,0,0,1011,140.63Z"></path></g></g><g id="Information_Gathering-9" data-name="Information Gathering" class="cls-2"><g class="cls-2"><path d="M791.51,318.75V304.44h2.81l5.86,9.56v-9.56h2.68v14.31H800l-5.77-9.33v9.33Z"></path><path d="M811.91,315.45l2.73.46A4.51,4.51,0,0,1,813,318.2a4.86,4.86,0,0,1-2.85.79,4.63,4.63,0,0,1-4-1.77,5.89,5.89,0,0,1-1-3.57,5.72,5.72,0,0,1,1.35-4,4.41,4.41,0,0,1,3.41-1.46,4.6,4.6,0,0,1,3.65,1.53,6.75,6.75,0,0,1,1.28,4.68h-6.88a2.75,2.75,0,0,0,.67,1.9,2.08,2.08,0,0,0,1.58.68,1.69,1.69,0,0,0,1.08-.35A2.18,2.18,0,0,0,811.91,315.45Zm.15-2.77a2.63,2.63,0,0,0-.61-1.81,1.87,1.87,0,0,0-1.43-.62,1.91,1.91,0,0,0-1.48.65,2.53,2.53,0,0,0-.58,1.78Z"></path><path d="M821.78,308.38v2.19H819.9v4.18a9.29,9.29,0,0,0,.06,1.48.64.64,0,0,0,.24.35.79.79,0,0,0,.47.13,3.69,3.69,0,0,0,1.1-.26l.23,2.13a5.47,5.47,0,0,1-2.16.41,3.55,3.55,0,0,1-1.34-.25,2,2,0,0,1-.88-.65,2.58,2.58,0,0,1-.38-1.06,13.11,13.11,0,0,1-.09-1.94v-4.52h-1.26v-2.19h1.26v-2.06l2.75-1.6v3.66Z"></path><path d="M825.62,318.75l-3.28-10.37H825l2,6.8,1.78-6.8h2.65l1.73,6.8,2-6.8h2.71l-3.33,10.37h-2.64L830,312.08l-1.76,6.67Z"></path><path d="M838.61,313.42a5.57,5.57,0,0,1,.67-2.64,4.58,4.58,0,0,1,1.91-2,5.64,5.64,0,0,1,2.76-.67,5.19,5.19,0,0,1,3.86,1.53,5.26,5.26,0,0,1,1.5,3.86,5.35,5.35,0,0,1-1.52,3.9A5.14,5.14,0,0,1,844,319a6,6,0,0,1-2.72-.65,4.4,4.4,0,0,1-2-1.89A6.28,6.28,0,0,1,838.61,313.42Zm2.81.15a3.42,3.42,0,0,0,.73,2.36,2.4,2.4,0,0,0,3.61,0,3.51,3.51,0,0,0,.73-2.38,3.46,3.46,0,0,0-.73-2.35,2.4,2.4,0,0,0-3.61,0A3.45,3.45,0,0,0,841.42,313.57Z"></path><path d="M854.08,318.75h-2.74V308.38h2.55v1.48a4.3,4.3,0,0,1,1.18-1.38,2.14,2.14,0,0,1,1.18-.33,3.44,3.44,0,0,1,1.81.52l-.85,2.39a2.39,2.39,0,0,0-1.29-.45,1.5,1.5,0,0,0-1,.32,2.25,2.25,0,0,0-.63,1.14,16.61,16.61,0,0,0-.23,3.48Z"></path><path d="M859.14,318.75V304.44h2.75V312l3.21-3.65h3.38l-3.55,3.79,3.8,6.58h-3l-2.6-4.65-1.28,1.33v3.32Z"></path><path d="M888.11,318.75H885l-1.25-3.25H878l-1.18,3.25h-3.07l5.58-14.31h3.06Zm-5.32-5.66-2-5.31-1.93,5.31Z"></path><path d="M898.66,311.45l-2.7.49a2,2,0,0,0-.62-1.22,1.84,1.84,0,0,0-1.26-.41,2,2,0,0,0-1.63.7,3.64,3.64,0,0,0-.61,2.37,4.17,4.17,0,0,0,.62,2.61,2,2,0,0,0,1.66.76,1.88,1.88,0,0,0,1.28-.44,2.74,2.74,0,0,0,.71-1.53l2.69.46a4.81,4.81,0,0,1-1.61,2.8A5,5,0,0,1,894,319a4.74,4.74,0,0,1-3.63-1.44,6.56,6.56,0,0,1,0-8,4.81,4.81,0,0,1,3.68-1.43,5,5,0,0,1,3,.81A4.56,4.56,0,0,1,898.66,311.45Z"></path><path d="M909.79,311.45l-2.71.49a2,2,0,0,0-.62-1.22,1.83,1.83,0,0,0-1.25-.41,2.05,2.05,0,0,0-1.64.7,3.64,3.64,0,0,0-.61,2.37,4.23,4.23,0,0,0,.62,2.61,2,2,0,0,0,1.67.76,1.89,1.89,0,0,0,1.28-.44,2.73,2.73,0,0,0,.7-1.53l2.69.46a4.76,4.76,0,0,1-1.61,2.8,5,5,0,0,1-3.19.95,4.74,4.74,0,0,1-3.63-1.44,6.54,6.54,0,0,1,0-8,4.79,4.79,0,0,1,3.67-1.43,5,5,0,0,1,3,.81A4.57,4.57,0,0,1,909.79,311.45Z"></path><path d="M917.87,315.45l2.74.46a4.47,4.47,0,0,1-1.67,2.29,4.85,4.85,0,0,1-2.84.79,4.65,4.65,0,0,1-4-1.77,6,6,0,0,1-1-3.57,5.76,5.76,0,0,1,1.34-4,4.43,4.43,0,0,1,3.41-1.46,4.62,4.62,0,0,1,3.66,1.53,6.75,6.75,0,0,1,1.27,4.68h-6.87a2.8,2.8,0,0,0,.66,1.9,2.1,2.1,0,0,0,1.59.68,1.69,1.69,0,0,0,1.08-.35A2.24,2.24,0,0,0,917.87,315.45Zm.16-2.77a2.58,2.58,0,0,0-.62-1.81,1.85,1.85,0,0,0-1.42-.62,2,2,0,0,0-1.49.65,2.53,2.53,0,0,0-.57,1.78Z"></path><path d="M922,315.79l2.76-.42a2,2,0,0,0,.71,1.22,2.39,2.39,0,0,0,1.5.42,2.75,2.75,0,0,0,1.61-.4.86.86,0,0,0,.36-.73.73.73,0,0,0-.2-.52,2.13,2.13,0,0,0-.92-.36,14.64,14.64,0,0,1-4.2-1.33,2.66,2.66,0,0,1-1.24-2.34,2.86,2.86,0,0,1,1.07-2.26,4.93,4.93,0,0,1,3.3-.92,5.76,5.76,0,0,1,3.16.69,3.55,3.55,0,0,1,1.43,2.05l-2.59.48a1.63,1.63,0,0,0-.63-.93,2.34,2.34,0,0,0-1.32-.32,3,3,0,0,0-1.55.3.67.67,0,0,0-.32.56.6.6,0,0,0,.28.5,10.19,10.19,0,0,0,2.56.77,7.63,7.63,0,0,1,3.06,1.22,2.55,2.55,0,0,1,.86,2,3.14,3.14,0,0,1-1.19,2.45,5.24,5.24,0,0,1-3.53,1,5.79,5.79,0,0,1-3.35-.86A4,4,0,0,1,922,315.79Z"></path><path d="M933.15,315.79l2.75-.42a2.07,2.07,0,0,0,.71,1.22,2.4,2.4,0,0,0,1.51.42,2.71,2.71,0,0,0,1.6-.4.86.86,0,0,0,.36-.73.73.73,0,0,0-.19-.52A2.25,2.25,0,0,0,939,315a14.63,14.63,0,0,1-4.21-1.33,2.68,2.68,0,0,1-1.23-2.34,2.86,2.86,0,0,1,1.06-2.26,4.93,4.93,0,0,1,3.3-.92,5.8,5.8,0,0,1,3.17.69,3.54,3.54,0,0,1,1.42,2.05l-2.58.48a1.73,1.73,0,0,0-.63-.93,2.38,2.38,0,0,0-1.33-.32,3,3,0,0,0-1.55.3.65.65,0,0,0-.31.56.61.61,0,0,0,.27.5,10.35,10.35,0,0,0,2.56.77,7.69,7.69,0,0,1,3.07,1.22,2.54,2.54,0,0,1,.85,2,3.11,3.11,0,0,1-1.19,2.45,5.23,5.23,0,0,1-3.52,1,5.82,5.82,0,0,1-3.36-.86A3.93,3.93,0,0,1,933.15,315.79Z"></path><path d="M836.42,337.49l2.8.89a6.29,6.29,0,0,1-2.14,3.48,6.74,6.74,0,0,1-8.49-.81,7.44,7.44,0,0,1-1.84-5.33,7.83,7.83,0,0,1,1.85-5.55,6.31,6.31,0,0,1,4.85-2,6,6,0,0,1,4.27,1.56,5.6,5.6,0,0,1,1.46,2.63l-2.86.69a3,3,0,0,0-1.06-1.76,3,3,0,0,0-2-.65,3.23,3.23,0,0,0-2.58,1.15,5.59,5.59,0,0,0-1,3.7,5.91,5.91,0,0,0,1,3.86,3.16,3.16,0,0,0,2.53,1.16,2.92,2.92,0,0,0,2-.74A4.22,4.22,0,0,0,836.42,337.49Z"></path><path d="M841.05,337.42a5.57,5.57,0,0,1,.67-2.64,4.63,4.63,0,0,1,1.91-2,5.64,5.64,0,0,1,2.76-.67,5.19,5.19,0,0,1,3.86,1.53,5.26,5.26,0,0,1,1.5,3.86,5.35,5.35,0,0,1-1.52,3.9,5.14,5.14,0,0,1-3.82,1.55,6,6,0,0,1-2.72-.65,4.45,4.45,0,0,1-2-1.89A6.28,6.28,0,0,1,841.05,337.42Zm2.81.15a3.42,3.42,0,0,0,.73,2.36,2.4,2.4,0,0,0,3.61,0,3.46,3.46,0,0,0,.73-2.38,3.41,3.41,0,0,0-.73-2.35,2.4,2.4,0,0,0-3.61,0A3.45,3.45,0,0,0,843.86,337.57Z"></path><path d="M863.33,342.75h-2.74v-5.29a8,8,0,0,0-.18-2.17,1.5,1.5,0,0,0-.57-.77,1.64,1.64,0,0,0-1-.27,2.2,2.2,0,0,0-1.28.39,2,2,0,0,0-.78,1,9,9,0,0,0-.21,2.39v4.69h-2.74V332.38h2.55v1.53a4.24,4.24,0,0,1,5.08-1.43,2.63,2.63,0,0,1,1.13.83,3,3,0,0,1,.54,1.15,8.7,8.7,0,0,1,.15,1.85Z"></path><path d="M870.87,332.38v2.19H869v4.18a10,10,0,0,0,0,1.48.69.69,0,0,0,.24.35.81.81,0,0,0,.47.13,3.69,3.69,0,0,0,1.1-.26l.24,2.13a5.56,5.56,0,0,1-2.17.41,3.55,3.55,0,0,1-1.34-.25,1.88,1.88,0,0,1-.87-.65,2.45,2.45,0,0,1-.39-1.06,13.11,13.11,0,0,1-.09-1.94v-4.52H865v-2.19h1.26v-2.06l2.76-1.6v3.66Z"></path><path d="M875.4,342.75h-2.74V332.38h2.55v1.48a4.42,4.42,0,0,1,1.17-1.38,2.2,2.2,0,0,1,1.19-.33,3.44,3.44,0,0,1,1.81.52l-.85,2.39a2.42,2.42,0,0,0-1.29-.45,1.48,1.48,0,0,0-1,.32,2.11,2.11,0,0,0-.63,1.14,16.61,16.61,0,0,0-.23,3.48Z"></path><path d="M879.92,337.42a5.58,5.58,0,0,1,.68-2.64,4.58,4.58,0,0,1,1.91-2,5.64,5.64,0,0,1,2.76-.67,5.17,5.17,0,0,1,3.85,1.53,5.23,5.23,0,0,1,1.51,3.86,5.35,5.35,0,0,1-1.52,3.9,5.14,5.14,0,0,1-3.82,1.55,6,6,0,0,1-2.72-.65,4.4,4.4,0,0,1-2-1.89A6.28,6.28,0,0,1,879.92,337.42Zm2.82.15a3.42,3.42,0,0,0,.73,2.36,2.4,2.4,0,0,0,3.61,0,3.51,3.51,0,0,0,.73-2.38,3.46,3.46,0,0,0-.73-2.35,2.4,2.4,0,0,0-3.61,0A3.45,3.45,0,0,0,882.74,337.57Z"></path><path d="M892.78,342.75V328.44h2.74v14.31Z"></path><path d="M897.37,339.79l2.75-.42a2,2,0,0,0,.71,1.22,2.4,2.4,0,0,0,1.51.42,2.71,2.71,0,0,0,1.6-.4.86.86,0,0,0,.36-.73.73.73,0,0,0-.2-.52,2.13,2.13,0,0,0-.91-.36,14.63,14.63,0,0,1-4.21-1.33,2.68,2.68,0,0,1-1.23-2.34,2.86,2.86,0,0,1,1.06-2.26,4.93,4.93,0,0,1,3.3-.92,5.8,5.8,0,0,1,3.17.69,3.54,3.54,0,0,1,1.42,2.05l-2.59.48a1.63,1.63,0,0,0-.63-.93,2.34,2.34,0,0,0-1.32-.32,3,3,0,0,0-1.55.3.65.65,0,0,0-.31.56.61.61,0,0,0,.27.5,10.35,10.35,0,0,0,2.56.77,7.63,7.63,0,0,1,3.06,1.22,2.52,2.52,0,0,1,.86,2,3.11,3.11,0,0,1-1.19,2.45,5.23,5.23,0,0,1-3.52,1,5.82,5.82,0,0,1-3.36-.86A3.93,3.93,0,0,1,897.37,339.79Z"></path></g></g><g id="Information_Gathering-10" data-name="Information Gathering" class="cls-2"><g class="cls-2"><path d="M1130.23,117.37l2.81-.28a3.4,3.4,0,0,0,1,2.08,3.09,3.09,0,0,0,2.09.67,3.24,3.24,0,0,0,2.11-.59,1.78,1.78,0,0,0,.71-1.38,1.31,1.31,0,0,0-.3-.87,2.44,2.44,0,0,0-1-.62c-.34-.12-1.11-.32-2.32-.62a7.94,7.94,0,0,1-3.26-1.42,3.76,3.76,0,0,1-.7-4.93,4,4,0,0,1,1.79-1.45,7.23,7.23,0,0,1,2.82-.49,6,6,0,0,1,4.06,1.18,4.18,4.18,0,0,1,1.43,3.15l-2.89.13a2.46,2.46,0,0,0-.8-1.59,2.94,2.94,0,0,0-1.83-.48,3.25,3.25,0,0,0-2,.52,1,1,0,0,0-.46.88,1.09,1.09,0,0,0,.43.87,7.42,7.42,0,0,0,2.65,1,14,14,0,0,1,3.12,1,4,4,0,0,1,1.59,1.46,4.24,4.24,0,0,1,.57,2.28,4.18,4.18,0,0,1-.69,2.3,4.07,4.07,0,0,1-1.93,1.6,8.05,8.05,0,0,1-3.11.52A6.22,6.22,0,0,1,1132,121,5.44,5.44,0,0,1,1130.23,117.37Z"></path><path d="M1143,111.65h2.92l2.48,7.37,2.42-7.37h2.85l-3.67,10-.65,1.8a7.13,7.13,0,0,1-.69,1.39,3.11,3.11,0,0,1-.75.78,3.5,3.5,0,0,1-1.05.46,5.44,5.44,0,0,1-1.4.16,7.28,7.28,0,0,1-1.55-.16l-.24-2.15a5.56,5.56,0,0,0,1.16.13,1.72,1.72,0,0,0,1.41-.56,4,4,0,0,0,.71-1.43Z"></path><path d="M1154.44,119.07l2.75-.42a2,2,0,0,0,.71,1.21,2.4,2.4,0,0,0,1.51.42,2.72,2.72,0,0,0,1.6-.39.88.88,0,0,0,.36-.74.71.71,0,0,0-.2-.51,2.13,2.13,0,0,0-.91-.36,14.87,14.87,0,0,1-4.21-1.34,2.68,2.68,0,0,1-1.23-2.34,2.87,2.87,0,0,1,1.06-2.26,5,5,0,0,1,3.3-.92,5.8,5.8,0,0,1,3.17.69,3.57,3.57,0,0,1,1.42,2l-2.59.48a1.57,1.57,0,0,0-.63-.92,2.26,2.26,0,0,0-1.32-.33,2.88,2.88,0,0,0-1.55.31.64.64,0,0,0-.31.55.61.61,0,0,0,.27.5,10.35,10.35,0,0,0,2.56.77,7.63,7.63,0,0,1,3.06,1.22,2.52,2.52,0,0,1,.86,2,3.11,3.11,0,0,1-1.19,2.45,5.23,5.23,0,0,1-3.52,1,5.82,5.82,0,0,1-3.36-.86A3.94,3.94,0,0,1,1154.44,119.07Z"></path><path d="M1171.28,111.65v2.19h-1.87V118a10,10,0,0,0,0,1.48.65.65,0,0,0,.24.35.81.81,0,0,0,.47.13,3.4,3.4,0,0,0,1.1-.26l.24,2.13a5.52,5.52,0,0,1-2.17.41A3.37,3.37,0,0,1,1168,122a1.87,1.87,0,0,1-.87-.64,2.49,2.49,0,0,1-.39-1.07,13.11,13.11,0,0,1-.09-1.94v-4.52h-1.26v-2.19h1.26v-2.06l2.76-1.6v3.66Z"></path><path d="M1179.19,118.73l2.74.45a4.48,4.48,0,0,1-1.67,2.29,4.86,4.86,0,0,1-2.85.79,4.64,4.64,0,0,1-4-1.77,5.94,5.94,0,0,1-1-3.57,5.71,5.71,0,0,1,1.34-4,4.46,4.46,0,0,1,3.41-1.46,4.6,4.6,0,0,1,3.65,1.53,6.72,6.72,0,0,1,1.28,4.68h-6.87a2.78,2.78,0,0,0,.66,1.9,2.08,2.08,0,0,0,1.58.68,1.74,1.74,0,0,0,1.09-.35A2.21,2.21,0,0,0,1179.19,118.73Zm.16-2.78a2.65,2.65,0,0,0-.62-1.81,1.89,1.89,0,0,0-1.42-.62,1.93,1.93,0,0,0-1.49.65,2.53,2.53,0,0,0-.57,1.78Z"></path><path d="M1184.1,111.65h2.53v1.42a4.09,4.09,0,0,1,3.24-1.65,3.47,3.47,0,0,1,1.72.41,3.21,3.21,0,0,1,1.21,1.24,4.68,4.68,0,0,1,1.47-1.24,3.67,3.67,0,0,1,1.69-.41,3.83,3.83,0,0,1,1.93.46,2.84,2.84,0,0,1,1.18,1.37,5.85,5.85,0,0,1,.29,2.15V122h-2.75V116.1a4.39,4.39,0,0,0-.28-2,1.29,1.29,0,0,0-1.17-.59,1.91,1.91,0,0,0-1.09.35,2,2,0,0,0-.73,1,7.51,7.51,0,0,0-.22,2.15v5h-2.75v-5.69a8.37,8.37,0,0,0-.14-2,1.3,1.3,0,0,0-.46-.66,1.44,1.44,0,0,0-.83-.21,1.94,1.94,0,0,0-1.14.34,1.85,1.85,0,0,0-.73,1,7.2,7.2,0,0,0-.22,2.14v5h-2.75Z"></path><path d="M1207.65,107.71h2.89v7.75a15,15,0,0,0,.11,2.4,2.3,2.3,0,0,0,.88,1.41,3.12,3.12,0,0,0,1.91.53,3,3,0,0,0,1.86-.5,2.06,2.06,0,0,0,.75-1.24,17,17,0,0,0,.12-2.43v-7.92h2.89v7.52a19.06,19.06,0,0,1-.23,3.64,4.08,4.08,0,0,1-.86,1.8,4.4,4.4,0,0,1-1.69,1.17,7.31,7.31,0,0,1-2.75.43,8,8,0,0,1-3.11-.47,4.53,4.53,0,0,1-1.68-1.23,4,4,0,0,1-.81-1.59,17.33,17.33,0,0,1-.28-3.63Z"></path><path d="M1222,111.65h2.56v1.53a3.75,3.75,0,0,1,1.35-1.27,3.67,3.67,0,0,1,1.89-.49,3.93,3.93,0,0,1,3.06,1.42,5.72,5.72,0,0,1,1.26,3.94,5.9,5.9,0,0,1-1.27,4,3.94,3.94,0,0,1-3.07,1.44,3.44,3.44,0,0,1-1.56-.34,5.22,5.22,0,0,1-1.47-1.17V126H1222Zm2.72,5a4,4,0,0,0,.69,2.59,2.14,2.14,0,0,0,1.69.83,2,2,0,0,0,1.59-.76,3.91,3.91,0,0,0,.64-2.52,3.72,3.72,0,0,0-.66-2.42,2,2,0,0,0-1.62-.79,2.13,2.13,0,0,0-1.67.77A3.49,3.49,0,0,0,1224.73,116.66Z"></path><path d="M1243.82,122h-2.55V120.5a4,4,0,0,1-1.5,1.33,3.79,3.79,0,0,1-1.74.43,4,4,0,0,1-3.06-1.44,7,7,0,0,1,0-8,4.08,4.08,0,0,1,3.14-1.37,3.88,3.88,0,0,1,3,1.45v-5.16h2.74Zm-7.32-5.41a4.72,4.72,0,0,0,.46,2.4,2.08,2.08,0,0,0,1.85,1.07,2,2,0,0,0,1.61-.8,3.74,3.74,0,0,0,.67-2.41,4,4,0,0,0-.65-2.57,2,2,0,0,0-1.65-.79,2,2,0,0,0-1.63.78A3.49,3.49,0,0,0,1236.5,116.62Z"></path><path d="M1248.58,114.82l-2.49-.45a3.94,3.94,0,0,1,1.44-2.23,5.32,5.32,0,0,1,3-.72,6.54,6.54,0,0,1,2.73.44,2.74,2.74,0,0,1,1.27,1.1,5.7,5.7,0,0,1,.36,2.45l0,3.21a10.67,10.67,0,0,0,.14,2,5.6,5.6,0,0,0,.49,1.4h-2.72c-.07-.19-.16-.46-.26-.81a2.93,2.93,0,0,0-.1-.33,5,5,0,0,1-1.5,1,4.25,4.25,0,0,1-1.71.34,3.51,3.51,0,0,1-2.52-.87,2.88,2.88,0,0,1-.93-2.2,2.94,2.94,0,0,1,.42-1.56,2.82,2.82,0,0,1,1.18-1.06,9.2,9.2,0,0,1,2.18-.64,15.07,15.07,0,0,0,2.67-.67V115a1.41,1.41,0,0,0-.39-1.12,2.31,2.31,0,0,0-1.48-.34,2,2,0,0,0-1.14.29A2,2,0,0,0,1248.58,114.82Zm3.67,2.23c-.35.11-.91.25-1.67.42a5.35,5.35,0,0,0-1.5.47,1.17,1.17,0,0,0-.53,1,1.33,1.33,0,0,0,.43,1,1.49,1.49,0,0,0,1.09.42,2.44,2.44,0,0,0,1.42-.49,1.71,1.71,0,0,0,.65-.91,5.44,5.44,0,0,0,.11-1.34Z"></path><path d="M1262.4,111.65v2.19h-1.87V118a11.82,11.82,0,0,0,0,1.48.62.62,0,0,0,.25.35.76.76,0,0,0,.46.13,3.45,3.45,0,0,0,1.11-.26l.23,2.13a5.52,5.52,0,0,1-2.17.41,3.4,3.4,0,0,1-1.34-.25,2,2,0,0,1-.87-.64,2.63,2.63,0,0,1-.39-1.07,15.37,15.37,0,0,1-.08-1.94v-4.52h-1.26v-2.19h1.26v-2.06l2.75-1.6v3.66Z"></path><path d="M1270.31,118.73l2.74.45a4.43,4.43,0,0,1-1.67,2.29,4.81,4.81,0,0,1-2.84.79,4.65,4.65,0,0,1-4-1.77,5.94,5.94,0,0,1-1-3.57,5.72,5.72,0,0,1,1.35-4,4.43,4.43,0,0,1,3.4-1.46,4.62,4.62,0,0,1,3.66,1.53,6.82,6.82,0,0,1,1.28,4.68h-6.88a2.78,2.78,0,0,0,.66,1.9,2.12,2.12,0,0,0,1.59.68,1.69,1.69,0,0,0,1.08-.35A2.21,2.21,0,0,0,1270.31,118.73Zm.16-2.78a2.64,2.64,0,0,0-.61-1.81,2,2,0,0,0-2.91,0,2.53,2.53,0,0,0-.58,1.78Z"></path><path d="M1274.47,119.07l2.75-.42a2,2,0,0,0,.71,1.21,2.4,2.4,0,0,0,1.51.42,2.72,2.72,0,0,0,1.6-.39.88.88,0,0,0,.36-.74.71.71,0,0,0-.2-.51,2.13,2.13,0,0,0-.91-.36,14.87,14.87,0,0,1-4.21-1.34,2.68,2.68,0,0,1-1.23-2.34,2.87,2.87,0,0,1,1.06-2.26,5,5,0,0,1,3.3-.92,5.8,5.8,0,0,1,3.17.69,3.62,3.62,0,0,1,1.42,2l-2.59.48a1.57,1.57,0,0,0-.63-.92,2.26,2.26,0,0,0-1.32-.33,2.88,2.88,0,0,0-1.55.31.64.64,0,0,0-.31.55.61.61,0,0,0,.27.5,10.35,10.35,0,0,0,2.56.77,7.63,7.63,0,0,1,3.06,1.22,2.52,2.52,0,0,1,.86,2,3.11,3.11,0,0,1-1.19,2.45,5.23,5.23,0,0,1-3.52,1,5.8,5.8,0,0,1-3.36-.86A3.94,3.94,0,0,1,1274.47,119.07Z"></path><path d="M1161.11,146H1158l-1.25-3.26H1151l-1.18,3.26h-3.07l5.58-14.32h3Zm-5.33-5.67-2-5.31-1.93,5.31Z"></path><path d="M1172.05,146h-2.74v-5.3a8,8,0,0,0-.18-2.17,1.48,1.48,0,0,0-.57-.77,1.64,1.64,0,0,0-1-.27,2.2,2.2,0,0,0-1.28.39,2,2,0,0,0-.78,1,8.92,8.92,0,0,0-.21,2.38V146h-2.74V135.65h2.55v1.53a4.15,4.15,0,0,1,3.42-1.76,4.1,4.1,0,0,1,1.66.33,2.71,2.71,0,0,1,1.13.83,3,3,0,0,1,.54,1.15,8.7,8.7,0,0,1,.15,1.85Z"></path><path d="M1184.35,146h-2.55V144.5a4,4,0,0,1-1.5,1.33,3.85,3.85,0,0,1-1.74.43,4,4,0,0,1-3.06-1.44,5.86,5.86,0,0,1-1.28-4,5.78,5.78,0,0,1,1.24-4,4.06,4.06,0,0,1,3.14-1.37,3.86,3.86,0,0,1,3,1.45v-5.16h2.75Zm-7.33-5.41a4.83,4.83,0,0,0,.46,2.4,2.09,2.09,0,0,0,1.86,1.07,2,2,0,0,0,1.61-.8,3.74,3.74,0,0,0,.66-2.41,4.05,4.05,0,0,0-.64-2.57,2,2,0,0,0-1.65-.79,2.07,2.07,0,0,0-1.64.78A3.49,3.49,0,0,0,1177,140.62Z"></path><path d="M1192.63,146V131.71h4.64a17.26,17.26,0,0,1,3.44.21,3.82,3.82,0,0,1,2.06,1.41,4.46,4.46,0,0,1,.83,2.78,4.67,4.67,0,0,1-.48,2.22,3.93,3.93,0,0,1-1.22,1.41,4.19,4.19,0,0,1-1.5.68,16.13,16.13,0,0,1-3,.21h-1.88V146Zm2.89-11.9v4.06h1.58a7.57,7.57,0,0,0,2.29-.22,1.88,1.88,0,0,0,1.23-1.82,1.88,1.88,0,0,0-.46-1.29,2,2,0,0,0-1.16-.63,13.19,13.19,0,0,0-2.08-.1Z"></path><path d="M1208,138.82l-2.49-.45a3.9,3.9,0,0,1,1.45-2.23,5.27,5.27,0,0,1,3-.72,6.56,6.56,0,0,1,2.74.44A2.66,2.66,0,0,1,1214,137a5.51,5.51,0,0,1,.37,2.45l0,3.21a10.87,10.87,0,0,0,.13,2,6,6,0,0,0,.49,1.4h-2.71q-.11-.28-.27-.81c0-.17-.07-.27-.09-.33a4.89,4.89,0,0,1-1.51,1,4.25,4.25,0,0,1-1.71.34,3.54,3.54,0,0,1-2.52-.87,2.87,2.87,0,0,1-.92-2.2,2.94,2.94,0,0,1,.42-1.56,2.8,2.8,0,0,1,1.17-1.06,9.45,9.45,0,0,1,2.19-.64,14.66,14.66,0,0,0,2.66-.67V139a1.41,1.41,0,0,0-.39-1.12,2.29,2.29,0,0,0-1.47-.34,1.64,1.64,0,0,0-1.81,1.3Zm3.67,2.23c-.35.11-.91.25-1.67.42a5.14,5.14,0,0,0-1.49.47,1.16,1.16,0,0,0-.54,1,1.33,1.33,0,0,0,.43,1,1.5,1.5,0,0,0,1.09.42,2.42,2.42,0,0,0,1.42-.49,1.71,1.71,0,0,0,.65-.91,5,5,0,0,0,.11-1.34Z"></path><path d="M1221.83,135.65v2.19H1220V142a9.29,9.29,0,0,0,.06,1.48.56.56,0,0,0,.24.35.79.79,0,0,0,.47.13,3.4,3.4,0,0,0,1.1-.26l.23,2.13a5.51,5.51,0,0,1-2.16.41,3.34,3.34,0,0,1-1.34-.25,2,2,0,0,1-.88-.64,2.63,2.63,0,0,1-.38-1.07,13.11,13.11,0,0,1-.09-1.94v-4.52h-1.26v-2.19h1.26v-2.06L1220,132v3.66Z"></path><path d="M1232.78,138.72l-2.71.49a2,2,0,0,0-.62-1.22,1.88,1.88,0,0,0-1.25-.41,2.06,2.06,0,0,0-1.64.71,3.59,3.59,0,0,0-.61,2.36,4.21,4.21,0,0,0,.62,2.61,2,2,0,0,0,1.66.76,1.81,1.81,0,0,0,1.28-.44,2.67,2.67,0,0,0,.71-1.53l2.69.46a4.73,4.73,0,0,1-1.61,2.8,5,5,0,0,1-3.19.95,4.74,4.74,0,0,1-3.63-1.44,5.55,5.55,0,0,1-1.35-4,5.61,5.61,0,0,1,1.35-4,4.85,4.85,0,0,1,3.68-1.43,5,5,0,0,1,3,.82A4.56,4.56,0,0,1,1232.78,138.72Z"></path><path d="M1237.59,131.71V137a4.12,4.12,0,0,1,4.88-1.2,2.9,2.9,0,0,1,1.15.9,3.36,3.36,0,0,1,.53,1.21,11.22,11.22,0,0,1,.14,2.06V146h-2.74v-5.48a8.22,8.22,0,0,0-.16-2.07,1.37,1.37,0,0,0-.55-.7,1.82,1.82,0,0,0-1-.26,2.25,2.25,0,0,0-1.22.33,2,2,0,0,0-.79,1,5.91,5.91,0,0,0-.25,2V146h-2.74V131.71Z"></path><path d="M1253.08,142.73l2.73.45a4.41,4.41,0,0,1-1.66,2.29,4.86,4.86,0,0,1-2.85.79,4.63,4.63,0,0,1-4-1.77,5.87,5.87,0,0,1-1-3.57,5.72,5.72,0,0,1,1.35-4,4.45,4.45,0,0,1,3.41-1.46,4.6,4.6,0,0,1,3.65,1.53,6.77,6.77,0,0,1,1.28,4.68h-6.88a2.73,2.73,0,0,0,.67,1.9,2.08,2.08,0,0,0,1.58.68,1.69,1.69,0,0,0,1.08-.35A2.15,2.15,0,0,0,1253.08,142.73Zm.15-2.78a2.6,2.6,0,0,0-.61-1.81,2,2,0,0,0-2.91,0,2.58,2.58,0,0,0-.58,1.78Z"></path><path d="M1257.23,143.07l2.75-.42a2,2,0,0,0,.72,1.21,2.37,2.37,0,0,0,1.5.42,2.72,2.72,0,0,0,1.6-.39.88.88,0,0,0,.36-.74.7.7,0,0,0-.19-.51,2.25,2.25,0,0,0-.92-.36,15,15,0,0,1-4.21-1.34,2.68,2.68,0,0,1-1.23-2.34,2.87,2.87,0,0,1,1.06-2.26,5,5,0,0,1,3.31-.92,5.79,5.79,0,0,1,3.16.69,3.57,3.57,0,0,1,1.42,2l-2.58.48a1.57,1.57,0,0,0-.63-.92,2.27,2.27,0,0,0-1.33-.33,2.88,2.88,0,0,0-1.55.31.64.64,0,0,0-.31.55.61.61,0,0,0,.27.5,10.34,10.34,0,0,0,2.57.77,7.63,7.63,0,0,1,3.06,1.22,2.55,2.55,0,0,1,.86,2,3.14,3.14,0,0,1-1.19,2.45,5.26,5.26,0,0,1-3.53,1,5.79,5.79,0,0,1-3.35-.86A3.91,3.91,0,0,1,1257.23,143.07Z"></path></g></g><g id="Information_Gathering-11" data-name="Information Gathering" class="cls-2"><g class="cls-2"><path d="M1048.86,304.44h2.89v7.75a16.1,16.1,0,0,0,.11,2.39,2.29,2.29,0,0,0,.88,1.41,3.05,3.05,0,0,0,1.91.54,2.9,2.9,0,0,0,1.86-.51,2,2,0,0,0,.75-1.23,17,17,0,0,0,.12-2.43v-7.92h2.89V312a19.06,19.06,0,0,1-.23,3.64,4.08,4.08,0,0,1-.86,1.8,4.5,4.5,0,0,1-1.69,1.16,7.29,7.29,0,0,1-2.75.44,7.8,7.8,0,0,1-3.11-.48,4.32,4.32,0,0,1-1.68-1.23,3.91,3.91,0,0,1-.81-1.58,17.37,17.37,0,0,1-.28-3.64Z"></path><path d="M1062.34,315.79l2.75-.42a2,2,0,0,0,.71,1.22,2.4,2.4,0,0,0,1.51.42,2.71,2.71,0,0,0,1.6-.4.86.86,0,0,0,.36-.73.73.73,0,0,0-.2-.52,2.13,2.13,0,0,0-.91-.36,14.63,14.63,0,0,1-4.21-1.33,2.68,2.68,0,0,1-1.23-2.34,2.86,2.86,0,0,1,1.06-2.26,4.93,4.93,0,0,1,3.3-.92,5.8,5.8,0,0,1,3.17.69,3.54,3.54,0,0,1,1.42,2.05l-2.59.48a1.63,1.63,0,0,0-.63-.93,2.32,2.32,0,0,0-1.32-.32,3,3,0,0,0-1.55.3.65.65,0,0,0-.31.56.61.61,0,0,0,.27.5,10.35,10.35,0,0,0,2.56.77,7.63,7.63,0,0,1,3.06,1.22,2.52,2.52,0,0,1,.86,2,3.11,3.11,0,0,1-1.19,2.45,5.23,5.23,0,0,1-3.52,1,5.82,5.82,0,0,1-3.36-.86A3.93,3.93,0,0,1,1062.34,315.79Z"></path><path d="M1080.43,315.45l2.74.46a4.53,4.53,0,0,1-1.67,2.29,4.86,4.86,0,0,1-2.85.79,4.64,4.64,0,0,1-4-1.77,6,6,0,0,1-1-3.57,5.72,5.72,0,0,1,1.35-4,4.43,4.43,0,0,1,3.41-1.46,4.6,4.6,0,0,1,3.65,1.53,6.7,6.7,0,0,1,1.28,4.68h-6.87a2.8,2.8,0,0,0,.66,1.9,2.08,2.08,0,0,0,1.58.68,1.74,1.74,0,0,0,1.09-.35A2.24,2.24,0,0,0,1080.43,315.45Zm.16-2.77a2.63,2.63,0,0,0-.62-1.81,1.85,1.85,0,0,0-1.42-.62,1.93,1.93,0,0,0-1.49.65,2.53,2.53,0,0,0-.57,1.78Z"></path><path d="M1088.18,318.75h-2.75V308.38H1088v1.48a4.42,4.42,0,0,1,1.18-1.38,2.16,2.16,0,0,1,1.18-.33,3.44,3.44,0,0,1,1.81.52l-.85,2.39a2.39,2.39,0,0,0-1.29-.45,1.5,1.5,0,0,0-1,.32,2.25,2.25,0,0,0-.63,1.14,16.85,16.85,0,0,0-.22,3.48Z"></path><path d="M1092.36,315.79l2.76-.42a2,2,0,0,0,.71,1.22,2.4,2.4,0,0,0,1.51.42,2.71,2.71,0,0,0,1.6-.4.86.86,0,0,0,.36-.73.73.73,0,0,0-.2-.52,2.13,2.13,0,0,0-.91-.36,14.63,14.63,0,0,1-4.21-1.33,2.68,2.68,0,0,1-1.23-2.34,2.86,2.86,0,0,1,1.06-2.26,4.93,4.93,0,0,1,3.3-.92,5.74,5.74,0,0,1,3.16.69,3.51,3.51,0,0,1,1.43,2.05l-2.59.48a1.63,1.63,0,0,0-.63-.93,2.34,2.34,0,0,0-1.32-.32,3,3,0,0,0-1.55.3.67.67,0,0,0-.32.56.62.62,0,0,0,.28.5,10.35,10.35,0,0,0,2.56.77,7.63,7.63,0,0,1,3.06,1.22,2.52,2.52,0,0,1,.86,2,3.11,3.11,0,0,1-1.19,2.45,5.23,5.23,0,0,1-3.52,1,5.82,5.82,0,0,1-3.36-.86A4,4,0,0,1,1092.36,315.79Z"></path><path d="M1122.2,318.75h-3.15l-1.25-3.25h-5.72l-1.18,3.25h-3.07l5.58-14.31h3.06Zm-5.32-5.66-2-5.31-1.93,5.31Z"></path><path d="M1133.15,318.75h-2.75v-5.29a8.59,8.59,0,0,0-.17-2.17,1.51,1.51,0,0,0-.58-.77,1.64,1.64,0,0,0-1-.27,2.22,2.22,0,0,0-1.28.39,2,2,0,0,0-.77,1,9,9,0,0,0-.21,2.39v4.69h-2.75V308.38h2.55v1.53a4.15,4.15,0,0,1,3.42-1.76,4.07,4.07,0,0,1,1.66.33,2.73,2.73,0,0,1,1.14.83,3,3,0,0,1,.53,1.15,8,8,0,0,1,.16,1.85Z"></path><path d="M1145.44,318.75h-2.55v-1.52a4.08,4.08,0,0,1-1.5,1.32,3.81,3.81,0,0,1-1.74.44,4,4,0,0,1-3.06-1.44,7,7,0,0,1,0-8,4.08,4.08,0,0,1,3.14-1.37,3.9,3.9,0,0,1,3,1.44v-5.15h2.74Zm-7.32-5.41a4.74,4.74,0,0,0,.46,2.41,2.08,2.08,0,0,0,1.85,1.07A2,2,0,0,0,1142,316a3.66,3.66,0,0,0,.67-2.4,4.1,4.1,0,0,0-.65-2.58,2,2,0,0,0-1.65-.78,2.07,2.07,0,0,0-1.63.77A3.51,3.51,0,0,0,1138.12,313.34Z"></path><path d="M1069.63,337.49v-2.41h6.23v5.7a7.93,7.93,0,0,1-2.64,1.55,9.66,9.66,0,0,1-3.49.67,7.91,7.91,0,0,1-3.91-.94,6,6,0,0,1-2.51-2.7,8.71,8.71,0,0,1-.84-3.81,8.32,8.32,0,0,1,.93-4,6.26,6.26,0,0,1,2.75-2.66,7.35,7.35,0,0,1,3.43-.72,6.88,6.88,0,0,1,4.16,1.12,5.09,5.09,0,0,1,1.93,3.09l-2.87.54a3,3,0,0,0-1.14-1.67,3.48,3.48,0,0,0-2.08-.61,3.93,3.93,0,0,0-3,1.2,5.11,5.11,0,0,0-1.11,3.57,5.57,5.57,0,0,0,1.13,3.82,3.77,3.77,0,0,0,3,1.28,5,5,0,0,0,1.82-.36,6.67,6.67,0,0,0,1.57-.86v-1.82Z"></path><path d="M1081.13,342.75h-2.74V332.38h2.54v1.48a4.42,4.42,0,0,1,1.18-1.38,2.17,2.17,0,0,1,1.19-.33,3.43,3.43,0,0,1,1.8.52l-.85,2.39a2.39,2.39,0,0,0-1.28-.45,1.48,1.48,0,0,0-1,.32,2.11,2.11,0,0,0-.63,1.14,16.61,16.61,0,0,0-.23,3.48Z"></path><path d="M1085.65,337.42a5.69,5.69,0,0,1,.67-2.64,4.63,4.63,0,0,1,1.91-2,5.69,5.69,0,0,1,2.76-.67,5.18,5.18,0,0,1,3.86,1.53,5.26,5.26,0,0,1,1.5,3.86,5.34,5.34,0,0,1-1.51,3.9A5.16,5.16,0,0,1,1091,343a6,6,0,0,1-2.72-.65,4.45,4.45,0,0,1-2-1.89A6.4,6.4,0,0,1,1085.65,337.42Zm2.81.15a3.42,3.42,0,0,0,.74,2.36,2.39,2.39,0,0,0,3.6,0,3.46,3.46,0,0,0,.73-2.38,3.41,3.41,0,0,0-.73-2.35,2.39,2.39,0,0,0-3.6,0A3.45,3.45,0,0,0,1088.46,337.57Z"></path><path d="M1105.33,342.75V341.2a4.1,4.1,0,0,1-1.49,1.31,4.2,4.2,0,0,1-1.95.48,3.84,3.84,0,0,1-1.87-.46,2.74,2.74,0,0,1-1.21-1.29,5.89,5.89,0,0,1-.37-2.3v-6.56h2.75v4.77a13.32,13.32,0,0,0,.15,2.68,1.42,1.42,0,0,0,.55.78,1.73,1.73,0,0,0,1,.29,2.14,2.14,0,0,0,1.26-.39,2,2,0,0,0,.76-.95,11.66,11.66,0,0,0,.2-2.8v-4.38h2.75v10.37Z"></path><path d="M1110.64,332.38h2.56v1.53a3.84,3.84,0,0,1,3.23-1.76,4,4,0,0,1,3.07,1.41,5.75,5.75,0,0,1,1.26,3.95,5.9,5.9,0,0,1-1.27,4,4,4,0,0,1-3.08,1.44,3.64,3.64,0,0,1-1.56-.34,5.21,5.21,0,0,1-1.46-1.18v5.23h-2.75Zm2.72,5a4,4,0,0,0,.69,2.59,2.12,2.12,0,0,0,1.69.83,2,2,0,0,0,1.59-.77,4,4,0,0,0,.64-2.51,3.7,3.7,0,0,0-.66-2.42,2,2,0,0,0-1.62-.79,2.09,2.09,0,0,0-1.67.77A3.49,3.49,0,0,0,1113.36,337.39Z"></path><path d="M1122,339.79l2.75-.42a2,2,0,0,0,.72,1.22,2.37,2.37,0,0,0,1.5.42,2.71,2.71,0,0,0,1.6-.4.86.86,0,0,0,.36-.73.73.73,0,0,0-.19-.52,2.19,2.19,0,0,0-.92-.36,14.75,14.75,0,0,1-4.21-1.33,2.68,2.68,0,0,1-1.23-2.34,2.89,2.89,0,0,1,1.06-2.26,5,5,0,0,1,3.31-.92,5.76,5.76,0,0,1,3.16.69,3.55,3.55,0,0,1,1.43,2.05l-2.59.48a1.63,1.63,0,0,0-.63-.93,2.35,2.35,0,0,0-1.33-.32,3,3,0,0,0-1.55.3.65.65,0,0,0-.31.56.61.61,0,0,0,.27.5,10.34,10.34,0,0,0,2.57.77,7.63,7.63,0,0,1,3.06,1.22,2.55,2.55,0,0,1,.86,2,3.14,3.14,0,0,1-1.19,2.45,5.26,5.26,0,0,1-3.53,1,5.79,5.79,0,0,1-3.35-.86A3.91,3.91,0,0,1,1122,339.79Z"></path></g></g><text class="cls-3" transform="translate(86.25 37.4)">1</text><text class="cls-3" transform="translate(196.91 439.21)">2</text><text class="cls-3" transform="translate(306.54 37.4)">3</text><text class="cls-3" transform="translate(417.21 439.21)">4</text><text class="cls-3" transform="translate(526.84 37.4)">5</text><text class="cls-3" transform="translate(637.5 439.21)">6</text><text class="cls-3" transform="translate(747.14 37.4)">7</text><text class="cls-3" transform="translate(858.8 439.21)">8</text><text class="cls-3" transform="translate(972.43 37.4)">9</text><text class="cls-3" transform="translate(1189.84 37.4)">11</text><text class="cls-3" transform="translate(1075.54 440.21)">10</text></g></g></svg>