<svg xmlns="http://www.w3.org/2000/svg" width="628.608" height="334.529" viewBox="0 0 628.608 334.529"><g id="Automation" transform="translate(-0.011 -0.035)"><path id="Path_12740" data-name="Path 12740" d="M659.78,437.467q-1.05,2.264-2.095,4.467-1.63,3.423-3.218,6.713c-.471.972-.942,1.926-1.4,2.88-5.192,10.607-10.039,19.988-14.157,27.7a44.2,44.2,0,0,1-38.521,23.363l-91.55,1h-.966l-7.848.085-6.713.072-20.586.223h-.833l-10.48.115h-.32l-64.595.7-57.658.6-6.707.072-41.655.453h-.048l-27.015.29h-.29l-85.422.924-25.554.278a53.118,53.118,0,0,1-6.514-.326h0c-.737-.085-1.473-.181-2.2-.3a52.75,52.75,0,0,1-30.963-16.626A120.464,120.464,0,0,1,88.1,448.647q-1.165-3.314-2.173-6.713c-18.6-62.874,4.075-143.992,44.884-198.276q2.566-3.4,5.216-6.641l.042-.048c12.551-15.406,26.623-28.277,41.612-37.429,26.562-16.245,55.992-20.821,84.939-7.184,24.492,11.543,47.359,16.97,69.527,18.443,2.24.145,4.479.254,6.707.32,50.849,1.6,98.5-16.722,154.466-28.548,2.228-.471,4.461-.936,6.713-1.376,39.922-7.945,84.209-12.134,136.875-3.326a114.152,114.152,0,0,1,16.155,3.864q3.483,1.123,6.713,2.415c25.138,10.227,38.847,29.122,44.673,52.8q.827,3.3,1.431,6.707C716.213,300.6,685.962,381.39,659.78,437.467Z" transform="translate(-79.34 -172.91)" fill="#f2f2f2"></path><path id="Path_12741" data-name="Path 12741" d="M383.706,447.338a57.476,57.476,0,0,1-1.129,6.713h56.566v-6.713Zm-47.239,37.918,6.707-.054V468.618c-2.3-.1-4.54-.205-6.707-.314ZM195.856,447.338v6.713H315.688v-6.713ZM708.8,242.373H664.126V189.556q-3.23-1.31-6.713-2.415v55.232H504.353V186.58c-2.252.441-4.485.906-6.713,1.376v54.417H343.174V216.5c-2.228-.066-4.467-.175-6.707-.32v26.188H182V204.944c-14.99,9.152-29.062,22.023-41.612,37.429h-.042v.048q-2.656,3.26-5.216,6.641h5.216V447.338H90.24q1,3.4,2.173,6.713H140.34v56.517a52.526,52.526,0,0,0,7.365,1.684c.73.115,1.467.211,2.2.3h0a53.119,53.119,0,0,0,6.514.326l25.554-.278V454.039h154.49v56.874l6.707-.072V454.051H497.64V509.2l6.713-.072V454.051H657.383v2.88c.459-.954.93-1.908,1.4-2.88q1.588-3.29,3.218-6.713,1.044-2.2,2.095-4.467V249.086H710.23Q709.62,245.651,708.8,242.373ZM182,447.338V249.062H336.467V447.338Zm161.185,0V249.062H497.64V447.338Zm314.209,0H504.353V249.062H657.383Z" transform="translate(-83.656 -178.314)" opacity="0.1"></path><path id="Path_12742" data-name="Path 12742" d="M563.083,522.355V530.2l-91.713.845-.978.018-34.857.32-.833.012-10.595.091h-.314l-64.583.6-106.014.984h-.091l-26.955.254-.29.006-119.772,1.1v-9.055l28.162-16.9L190.758,508l1.207-.006.4-.006,1.207-.018,27.13-.223,1.213-.006.386-.006,1.207-.006,8.7-.072.229-.006,21.461-.181h.175l167.464-1.413,4.1-.03h.411l3.127-.03,22.729-.187,1.207-.018,1.117-.012h.58l7.069-.054,1.4-.018,1.877-.012,5.886-.054,9.339-.078,1.207-.012,2.1-.012h.392l45.1-.386Z" transform="translate(-42.04 -200.182)" fill="#65617d"></path><path id="Path_12743" data-name="Path 12743" d="M563.083,522.355V530.2l-91.713.845-.978.018-34.857.32-.833.012-10.595.091h-.314l-64.583.6-106.014.984h-.091l-26.955.254-.29.006-119.772,1.1v-9.055l28.162-16.9L190.758,508l1.207-.006.4-.006,1.207-.018,27.13-.223,1.213-.006.386-.006,1.207-.006,8.7-.072.229-.006,21.461-.181h.175l167.464-1.413,4.1-.03h.411l3.127-.03,22.729-.187,1.207-.018,1.117-.012h.58l7.069-.054,1.4-.018,1.877-.012,5.886-.054,9.339-.078,1.207-.012,2.1-.012h.392l45.1-.386Z" transform="translate(-42.04 -200.182)" opacity="0.2"></path><path id="Path_12744" data-name="Path 12744" d="M356.746,656.57v14.784a3.7,3.7,0,0,1-2.113,3.344,3.622,3.622,0,0,1-1.509.362l-21.069.447a3.621,3.621,0,0,1-1.63-.344,3.694,3.694,0,0,1-2.155-3.363V656.57Z" transform="translate(-177.989 -364.575)" fill="#3f3d56"></path><path id="Path_12745" data-name="Path 12745" d="M356.746,656.57v14.784a3.7,3.7,0,0,1-2.113,3.344,3.622,3.622,0,0,1-1.509.362l-21.069.447a3.621,3.621,0,0,1-1.63-.344,3.694,3.694,0,0,1-2.155-3.363V656.57Z" transform="translate(-177.989 -364.575)" opacity="0.1"></path><path id="Path_12746" data-name="Path 12746" d="M358.746,656.57v14.784a3.7,3.7,0,0,1-2.113,3.344,3.621,3.621,0,0,1-1.509.362l-21.069.447a3.621,3.621,0,0,1-1.63-.344,3.7,3.7,0,0,1-2.155-3.363V656.57Z" transform="translate(-178.782 -364.575)" fill="#3f3d56"></path><rect id="Rectangle_859" data-name="Rectangle 859" width="28.476" height="19.016" transform="translate(411.069 291.989)" fill="#3f3d56"></rect><rect id="Rectangle_860" data-name="Rectangle 860" width="28.476" height="19.016" transform="translate(411.069 291.989)" opacity="0.1"></rect><rect id="Rectangle_861" data-name="Rectangle 861" width="28.476" height="19.016" transform="translate(409.861 291.989)" fill="#3f3d56"></rect><path id="Path_12747" data-name="Path 12747" d="M279.4,483.65v3l-28.476.761V483.65Z" transform="translate(-99.438 -191.661)" opacity="0.1"></path><path id="Path_12748" data-name="Path 12748" d="M381.626,483.7V585.245a2.415,2.415,0,0,1-2.324,2.385l-115.7,3.079h-.03a2.415,2.415,0,0,1-2.385-2.385V483.7a2.415,2.415,0,0,1,2.385-2.385H379.242a2.415,2.415,0,0,1,2.385,2.385Z" transform="translate(-151.405 -295.122)" fill="#65617d"></path><path id="Path_12749" data-name="Path 12749" d="M263.6,481.32V590.709h-.03a2.415,2.415,0,0,1-2.385-2.385V483.7a2.415,2.415,0,0,1,2.385-2.385Z" transform="translate(-151.405 -295.122)" opacity="0.1"></path><path id="Path_12750" data-name="Path 12750" d="M194.59,319.15H301.745v89.5L194.59,411.062Z" transform="translate(-77.114 -126.468)" fill="#ff9e48"></path><path id="Path_12751" data-name="Path 12751" d="M707.4,483.65v3.87l-28.476-.761V483.65Z" transform="translate(-269.059 -191.661)" opacity="0.1"></path><path id="Path_12752" data-name="Path 12752" d="M788.61,483.7V588.324a2.415,2.415,0,0,1-2.415,2.385h0L670.474,587.63a2.415,2.415,0,0,1-2.324-2.385V483.7a2.415,2.415,0,0,1,2.385-2.385H786.2A2.415,2.415,0,0,1,788.61,483.7Z" transform="translate(-312.687 -295.122)" fill="#65617d"></path><path id="Path_12753" data-name="Path 12753" d="M866.1,483.7v104.62a2.415,2.415,0,0,1-2.415,2.385h0V481.32h0A2.415,2.415,0,0,1,866.1,483.7Z" transform="translate(-390.182 -295.122)" opacity="0.1"></path><path id="Path_12754" data-name="Path 12754" d="M705.245,319.15H598.09v89.5l107.155,2.415Z" transform="translate(-237.025 -126.468)" fill="#ff9e48"></path><path id="Path_12755" data-name="Path 12755" d="M584.126,483.7V585.245a2.415,2.415,0,0,1-2.324,2.385l-115.7,3.079h0a2.415,2.415,0,0,1-2.415-2.385V483.7a2.415,2.415,0,0,1,2.385-2.385H581.742A2.415,2.415,0,0,1,584.126,483.7Z" transform="translate(-231.657 -295.122)" fill="#65617d"></path><path id="Path_12756" data-name="Path 12756" d="M397.09,319.15H504.245v89.5L397.09,411.062Z" transform="translate(-157.366 -126.468)" fill="#ff9e48"></path><path id="Path_12757" data-name="Path 12757" d="M563.083,533.65V541.5l-91.713.845-.978.018-34.857.32-.833.012-10.595.091h-.314l-64.583.6-106.014.984h-.091l-26.955.254-.29.006-119.772,1.1v-9.055l122.253-.8h.29l24.745-.169h.115l170.893-1.129h.175l.1-.006h.284l2.892-.018h.881l44.969-.3,2.656-.012.592-.006Z" transform="translate(-42.04 -211.477)" opacity="0.1"></path><circle id="Ellipse_158" data-name="Ellipse 158" cx="30.987" cy="30.987" r="30.987" transform="translate(263.171 149.017)" fill="#fbbebe"></circle><path id="Path_12758" data-name="Path 12758" d="M582.019,506.465s-60.067,7.244-54.332,0c2.077-2.62,2.65-10.383,2.535-19.228-.036-2.686-.133-5.469-.272-8.24-.664-13.281-2.264-26.261-2.264-26.261s52.521-24.751,46.484-5.131c-2.415,7.926-1.624,19.059.211,29.508.537,3.049,1.159,6.037,1.811,8.874a208.054,208.054,0,0,0,5.826,20.477Z" transform="translate(-256.867 -278.763)" fill="#fbbebe"></path><path id="Path_12759" data-name="Path 12759" d="M529.071,543.219c6.948-1.286,14.307-3.622,20.845-.93,1.721.706,3.3,1.739,5.065,2.33s3.695.736,5.53,1.153c6.447,1.461,11.675,6.369,15.032,12.074s5.1,12.158,6.8,18.545l4.166,15.593c3.622,13.553,7.244,27.22,8.083,41.232a1471.476,1471.476,0,0,1-151.43.863c3.284-6.242,6.641-12.865,6.363-19.922s-4.341-14.018-2.874-20.972c.936-4.431,3.966-8.083,5.82-12.207,5.282-11.784,1.171-27.643,10.456-36.614,4.178-4.033,10.263-5.56,16.076-5.367,7.413.247,15,2.56,22.337,3.689C510.731,544.113,519.605,544.958,529.071,543.219Z" transform="translate(-223.521 -317.975)" fill="#ff6584"></path><path id="Path_12760" data-name="Path 12760" d="M602.471,652.558l-.06.863v.06l-.1,1.388-.8,11.174-.972,13.462-.278,3.791-.6,8.114v.1l-64.595.6-106,1.147v.507h-.085V693.1l.272-8.669.519-16.94.447-14.362.042-1.431a6.357,6.357,0,0,1,6.894-6.139c2.849.241,6.55.537,10.975.851l1.811.133c25.554,1.775,72.781,4.069,120.436,1.207,1-.054,2.01-.115,3.018-.187,7.389-.465,14.772-1.062,22.083-1.811a6.357,6.357,0,0,1,7,6.779Z" transform="translate(-217.898 -360.201)" opacity="0.1"></path><path id="Path_12761" data-name="Path 12761" d="M429.08,695.369v-.507l106.02-1.153,64.595-.6h.181V693l.6-8.114.26-3.622.99-13.649.779-10.806v-.266a6.409,6.409,0,0,0-.066-1.491.179.179,0,0,0,0-.06,6.272,6.272,0,0,0-1.207-2.8,6.363,6.363,0,0,0-5.687-2.415c-7.311.749-14.694,1.346-22.083,1.811-1.008.072-2.016.133-3.018.187-47.655,2.831-94.882.537-120.436-1.207l-1.811-.133c-4.425-.314-8.126-.6-10.975-.851a6.363,6.363,0,0,0-6.785,5.15,6.641,6.641,0,0,0-.109.99l-.411,13.378-.561,16.946-.266,8.669v.676Z" transform="translate(-217.941 -361.798)" fill="#3f3d56"></path><path id="Path_12762" data-name="Path 12762" d="M602.707,661.366l-.743,9.255-1.1,13.794-.278,3.453-.6,7.733-.036.386v.1h0l-.091.893.066-.893h-.175l-64.595.6L429.11,697.841v-.169l.3-8.669.6-16.94L430.4,660.8a3.839,3.839,0,0,1,1.847-3.169,3.773,3.773,0,0,1,2.282-.543c1.268.1,2.825.223,4.642.356,2.952.217,6.592.471,10.83.737,7.848.5,17.694,1.026,28.977,1.461,31.392,1.207,73.771,1.612,114.025-1.914,1.811-.157,3.682-.332,5.512-.507a3.779,3.779,0,0,1,2.1.4,3.11,3.11,0,0,1,.519.326,3.707,3.707,0,0,1,1.207,1.485,2.153,2.153,0,0,1,.151.368A3.791,3.791,0,0,1,602.707,661.366Z" transform="translate(-217.953 -364.777)" opacity="0.1"></path><path id="Path_12763" data-name="Path 12763" d="M358.746,677.87V679.8a3.7,3.7,0,0,1-2.113,3.344l-24.208.465a3.7,3.7,0,0,1-2.155-3.363v-1.811Z" transform="translate(-178.782 -373.017)" opacity="0.1"></path><path id="Path_12764" data-name="Path 12764" d="M277.883,512.134l-31.543.6V507.5l31.543-.6Z" transform="translate(-97.623 -200.876)" fill="#3f3d56"></path><path id="Path_12765" data-name="Path 12765" d="M277.883,512.134l-31.543.6V507.5l31.543-.6Z" transform="translate(-97.623 -200.876)" opacity="0.1"></path><path id="Path_12766" data-name="Path 12766" d="M279.883,512.134l-31.543.6V507.5l31.543-.6Z" transform="translate(-98.415 -200.876)" fill="#3f3d56"></path><path id="Path_12767" data-name="Path 12767" d="M758.56,679.87V681.8a3.7,3.7,0,0,0,2.113,3.344l24.208.465a3.7,3.7,0,0,0,2.155-3.363v-1.811Z" transform="translate(-348.517 -373.809)" opacity="0.1"></path><path id="Path_12768" data-name="Path 12768" d="M678.72,514.134l31.543.6V509.5l-31.543-.6Z" transform="translate(-268.979 -201.668)" opacity="0.1"></path><path id="Path_12769" data-name="Path 12769" d="M676.72,514.134l31.543.6V509.5l-31.543-.6Z" transform="translate(-268.187 -201.668)" fill="#3f3d56"></path><path id="Path_12770" data-name="Path 12770" d="M519.53,452.407c.048,4.226-1.908,8.21-3.568,12.116a98.7,98.7,0,0,0-7.643,45.1c.441,6.641,1.557,13.281.441,19.861s-5.089,13.142-11.47,15.032a32.468,32.468,0,0,0,34.869-1.606c5.306-3.864,9.261-9.255,13.13-14.555a59.077,59.077,0,0,1-8.035,27.015,62.44,62.44,0,0,0,44.377-24.643A32.324,32.324,0,0,0,587.5,519.12c1.865-7.848-.736-16-2.723-23.846a160.609,160.609,0,0,1-3.725-19.922,17.726,17.726,0,0,1,.06-6.46c.6-2.457,2.216-4.534,3.4-6.773,3.381-6.363,3.459-14.066,1.727-21.057s-5.125-13.438-8.488-19.807c-2.693-5.107-5.614-10.45-10.54-13.45-3.079-1.871-6.641-2.65-10.19-3.4l-15.316-3.278c-3.35-.718-6.8-1.437-10.184-.912-5.717.893-9.744,5.023-13.281,9.261-2.771,3.3-9.544,9.484-10.021,13.8-.435,3.978,3.079,10.643,3.676,14.839.785,5.433,1.34,3.622,4.407,6.954A10.721,10.721,0,0,1,519.53,452.407Z" transform="translate(-244.973 -262.907)" fill="#3f3d56"></path><path id="Path_12771" data-name="Path 12771" d="M339.929,506.1H279.8a.3.3,0,0,1,0-.6h60.128a.3.3,0,1,1,0,.6Z" transform="translate(-158.661 -304.705)" fill="#f2f2f2"></path><path id="Path_12772" data-name="Path 12772" d="M339.929,515.1H279.8a.3.3,0,1,1,0-.6h60.128a.3.3,0,1,1,0,.6Z" transform="translate(-158.661 -308.272)" fill="#f2f2f2"></path><path id="Path_12773" data-name="Path 12773" d="M339.929,524.1H279.8a.3.3,0,1,1,0-.6h60.128a.3.3,0,1,1,0,.6Z" transform="translate(-158.661 -311.838)" fill="#f2f2f2"></path></g></svg>