<svg xmlns="http://www.w3.org/2000/svg" width="1143.129" height="740.296" viewBox="0 0 1143.129 740.296"><g id="Code_Review_Tools" data-name="Code Review Tools" transform="translate(0)"><circle id="Ellipse_7932" data-name="Ellipse 7932" cx="30.3" cy="30.3" r="30.3" transform="translate(155.407 284.124)" fill="#ffb8b8"></circle><path id="Path_163860" data-name="Path 163860" d="M67.543,554.8l7.672,13.035,53.925-23.39L117.817,525.21Z" transform="translate(15.782 122.717)" fill="#ffb8b8"></path><path id="Path_163861" data-name="Path 163861" d="M209.295,694.43,224.4,720.1h0a18.981,18.981,0,0,1-6.73,25.986l-.532.313L192.4,704.372Z" transform="translate(-123.671 -22.74)" fill="#2f2e41"></path><path id="Path_163862" data-name="Path 163862" d="M139.6,598.309h15.125l7.195-58.337H139.6Z" transform="translate(32.618 126.166)" fill="#ffb8b8"></path><path id="Path_163863" data-name="Path 163863" d="M273.162,733.215h29.786A18.981,18.981,0,0,1,321.93,752.2v.616l-48.767,0Z" transform="translate(-104.802 -13.678)" fill="#2f2e41"></path><path id="Path_163864" data-name="Path 163864" d="M230.815,741.96a5.543,5.543,0,0,1-4.471-2.261l-14.586-19.811a5.551,5.551,0,0,1,1.387-7.908l64.907-43.352L238.888,565.649l83.751,6.912,2.821,88.494a44.468,44.468,0,0,1-22.262,40l-69.611,40.16a5.534,5.534,0,0,1-2.773.746Z" transform="translate(-119.402 -52.83)" fill="#2f2e41"></path><path id="Path_163865" data-name="Path 163865" d="M278.289,745.338a5.551,5.551,0,0,1-5.538-5.354l-3.069-86.21,38.007-2L304.663,738.6a5.536,5.536,0,0,1-5.181,5.345l-20.815,1.379Q278.478,745.339,278.289,745.338Z" transform="translate(-105.615 -32.707)" fill="#2f2e41"></path><path id="Path_163866" data-name="Path 163866" d="M328.251,620.019c-9.67,0-43.445-10.876-55.17-14.753-1.754,1.4-11.391,8.609-22.639,7.292-6.941-.814-13.051-4.743-18.161-11.678-11.284-15.315,2.653-80.991,16.332-133.39a42.275,42.275,0,0,1,50-30.693h0a42.649,42.649,0,0,1,32.183,31.308c2.575,10.484.36,22.815-1.258,31.821-.76,4.233-1.361,7.578-1.156,9.221.794,6.351,5.2,105.96,2.368,110.214C330.447,619.814,329.573,620.019,328.251,620.019Z" transform="translate(-115.32 -83.168)" fill="#fb9d4b"></path><path id="Path_163867" data-name="Path 163867" d="M285.667,611.976a13.253,13.253,0,0,0,1.162-20.288l.6-120.705L259,475.717l8.351,117.161a13.325,13.325,0,0,0,18.318,19.1Z" transform="translate(-108.111 -74.949)" fill="#ffb8b8"></path><path id="Path_163868" data-name="Path 163868" d="M292.94,554.691H262.318a5.568,5.568,0,0,1-5.551-5.5l-.752-83.015a21.715,21.715,0,1,1,43.431.053l-.954,82.975A5.571,5.571,0,0,1,292.94,554.691Z" transform="translate(-108.808 -81.14)" fill="#fb9d4b"></path><path id="Path_163869" data-name="Path 163869" d="M286.615,442.845c-13.873.025-26.96-10.94-29.365-24.6a35.37,35.37,0,0,1,1.134-16.054,43.121,43.121,0,0,1,59.136-27.083c3.711,1.679,7.367,4.091,9.066,7.794s.636,8.876-3.082,10.542c-2.429,1.089-5.478.554-7.633,2.117-3.1,2.244-2.3,7.021-.916,10.586s2.946,7.879.628,10.921c-2.159,2.834-6.475,2.746-9.875,1.679s-6.755-2.853-10.3-2.49c-5.169.53-8.884,5.672-9.572,10.823s.931,10.3,2.529,15.244Z" transform="translate(-108.624 -98.247)" fill="#2f2e41"></path><path id="Path_163870" data-name="Path 163870" d="M456.205,750.509H137.923a1.234,1.234,0,1,1,0-2.467H456.205a1.234,1.234,0,1,1,0,2.467Z" transform="translate(-136.689 -10.213)" fill="#ccc"></path><path id="Path_163871" data-name="Path 163871" d="M1200.4,683.514H409.827a20.378,20.378,0,0,1-20.355-20.355V175.677a14.93,14.93,0,0,1,14.912-14.913h801.2a15.187,15.187,0,0,1,15.17,15.171V663.158A20.378,20.378,0,0,1,1200.4,683.514Z" transform="translate(-77.626 -147.433)" fill="#f2f2f2"></path><path id="Path_163872" data-name="Path 163872" d="M1169.348,650.125H432.556c-10.8,0-19.587-8.228-19.587-18.342V207.276c0-7.5,6.511-13.6,14.515-13.6h746.7c8.136,0,14.755,6.2,14.755,13.827V631.783C1188.938,641.9,1180.155,650.125,1169.348,650.125Z" transform="translate(-72.136 -139.743)" fill="#fff"></path><path id="Path_163873" data-name="Path 163873" d="M1220.525,180.738H389.241V170.375a20.446,20.446,0,0,1,20.429-20.417H1200.1a20.446,20.446,0,0,1,20.43,20.417Z" transform="translate(-77.68 -149.958)" fill="#3f3d56"></path><circle id="Ellipse_7933" data-name="Ellipse 7933" cx="5.284" cy="5.284" r="5.284" transform="translate(343.404 10.136)" fill="#fff"></circle><circle id="Ellipse_7934" data-name="Ellipse 7934" cx="5.284" cy="5.284" r="5.284" transform="translate(363.462 10.136)" fill="#fff"></circle><circle id="Ellipse_7935" data-name="Ellipse 7935" cx="5.284" cy="5.284" r="5.284" transform="translate(383.52 10.136)" fill="#fff"></circle><path id="Path_163874" data-name="Path 163874" d="M742.127,271.98h-144.1a8.1,8.1,0,1,1,0-16.2h144.1a8.1,8.1,0,0,1,0,16.2Z" transform="translate(-30.789 -125.232)" fill="#ccc"></path><path id="Path_163875" data-name="Path 163875" d="M887.273,271.98h-144.1a8.1,8.1,0,1,1,0-16.2h144.1a8.1,8.1,0,0,1,0,16.2Z" transform="translate(3.125 -125.232)" fill="#ccc"></path><path id="Path_163876" data-name="Path 163876" d="M907.46,296.862H656.775a8.1,8.1,0,0,1,0-16.2H907.46a8.1,8.1,0,0,1,0,16.2Z" transform="translate(-17.062 -119.418)" fill="#ccc"></path><path id="Path_163877" data-name="Path 163877" d="M742.127,246.752h-144.1a8.1,8.1,0,1,1,0-16.2h144.1a8.1,8.1,0,0,1,0,16.2Z" transform="translate(-30.789 -131.126)" fill="#ccc"></path><path id="Path_163878" data-name="Path 163878" d="M786.865,247.1H745.936a8.1,8.1,0,0,1,0-16.2h40.929a8.1,8.1,0,1,1,0,16.2Z" transform="translate(3.771 -131.046)" fill="#ccc"></path><path id="Path_163879" data-name="Path 163879" d="M638.954,296.862H598.026a8.1,8.1,0,1,1,0-16.2h40.928a8.1,8.1,0,1,1,0,16.2Z" transform="translate(-30.789 -119.418)" fill="#ccc"></path><path id="Path_163880" data-name="Path 163880" d="M742.127,504.98h-144.1a8.1,8.1,0,1,1,0-16.2h144.1a8.1,8.1,0,0,1,0,16.2Z" transform="translate(-30.789 -70.791)" fill="#ccc"></path><path id="Path_163881" data-name="Path 163881" d="M887.273,504.98h-144.1a8.1,8.1,0,1,1,0-16.2h144.1a8.1,8.1,0,0,1,0,16.2Z" transform="translate(3.125 -70.791)" fill="#ccc"></path><path id="Path_163882" data-name="Path 163882" d="M907.46,529.862H656.775a8.1,8.1,0,0,1,0-16.2H907.46a8.1,8.1,0,0,1,0,16.2Z" transform="translate(-17.062 -64.977)" fill="#ccc"></path><path id="Path_163883" data-name="Path 163883" d="M742.127,479.752h-144.1a8.1,8.1,0,1,1,0-16.2h144.1a8.1,8.1,0,1,1,0,16.2Z" transform="translate(-30.789 -76.685)" fill="#ccc"></path><path id="Path_163884" data-name="Path 163884" d="M786.865,480.1H745.936a8.1,8.1,0,0,1,0-16.2h40.929a8.1,8.1,0,1,1,0,16.2Z" transform="translate(3.771 -76.604)" fill="#ccc"></path><path id="Path_163885" data-name="Path 163885" d="M638.954,529.862H598.026a8.1,8.1,0,1,1,0-16.2h40.928a8.1,8.1,0,1,1,0,16.2Z" transform="translate(-30.789 -64.977)" fill="#ccc"></path><path id="Path_163886" data-name="Path 163886" d="M695.236,455.966a11.593,11.593,0,0,1-8.171-3.343L632.9,399.133a11.29,11.29,0,0,1,0-16.066l53.949-53.275a11.969,11.969,0,0,1,16.831.053h0a11.953,11.953,0,0,1,0,16.885l-40.089,40.09a6.678,6.678,0,0,0,0,9.433l39.871,39.872a11.618,11.618,0,0,1-8.224,19.842Z" transform="translate(-21.533 -108.741)" fill="#fb9d4b"></path><path id="Path_163887" data-name="Path 163887" d="M755.02,455.966a11.619,11.619,0,0,1-8.224-19.842l39.871-39.872a6.678,6.678,0,0,0,0-9.433L746.578,346.73a11.939,11.939,0,0,1,0-16.885h0a11.969,11.969,0,0,1,16.831-.053l53.949,53.274a11.29,11.29,0,0,1,0,16.066l-54.168,53.49A11.6,11.6,0,0,1,755.02,455.966Z" transform="translate(4.996 -108.741)" fill="#fb9d4b"></path></g></svg>