<svg xmlns="http://www.w3.org/2000/svg" width="1143.129" height="831.402" viewBox="0 0 1143.129 831.402"><g id="Manual_Code_Review" data-name="Manual Code Review" transform="translate(0)"><circle id="Ellipse_7928" data-name="Ellipse 7928" cx="38.792" cy="38.792" r="38.792" transform="translate(627.078 68.982)" fill="#f2f2f2"></circle><path id="Path_163833" data-name="Path 163833" d="M1153.791,871.337c57.66-43.918,85.2-117.718,67.959-188.117q-.643-2.624-1.356-5.236c-11.43-41.789-39.709-81.506-80.924-94.858-34.606-11.212-72.38-2.59-108.483-7.049-70.872-8.752-125.817-66.1-164.478-126.135S798.134,322.7,746.762,273.1c-84.679-81.759-222.811-99.362-327.8-46.143S247.093,398.244,249.945,515.917s72.71,230.177,174.16,289.868c37.269,21.928,80.374,37.462,123.272,32.026,37.222-4.716,71.043-24.717,108.09-30.654,58.246-9.336,116.122,17,166.5,47.688s99.041,67.063,156.288,81.29C1033.843,949.948,1102.711,910.242,1153.791,871.337Z" transform="translate(-186.996 -149.052)" fill="#f2f2f2"></path><path id="Path_163834" data-name="Path 163834" d="M1011.728,244.242c-1.264-.843-2.542-1.642-3.806-2.455a552.432,552.432,0,0,0-116.678-56.559l-9.5,131.076H821.507V166.094c-3.792-.785-7.613-1.525-11.434-2.223V316.3H738.491A148.583,148.583,0,0,1,589.909,167.721h0c-3.836.828-7.642,1.714-11.448,2.659V316.3h-58.3l-9.051-124.988A553.33,553.33,0,0,0,392.06,254.558c-.639.436-1.279.886-1.9,1.322-3.211,2.252-6.378,4.547-9.531,6.872V762.807H552.454l-3.036-42.06L532.71,489.817H869.175l-16.708,230.93-3.036,42.06h169.925V249.3Q1015.564,246.727,1011.728,244.242ZM578.46,451.68H529.95l-8.964-123.928H578.46Zm231.613,0H728.6v-2.455a8.978,8.978,0,0,0-8.993-8.979h-35.42a8.975,8.975,0,0,0-8.979,8.979v2.455h-85.3V327.752H810.073Zm11.434,0V327.752h59.407L871.95,451.68Z" transform="translate(-127.778 -163.871)" fill="#3f3d56"></path><path id="Path_163835" data-name="Path 163835" d="M206.59,598.162a419.877,419.877,0,0,0,40.854,42.06l1061.421,1.453a419.856,419.856,0,0,0,40.854-42.06Z" transform="translate(-206.59 32.796)" fill="#3f3d56"></path><path id="Path_163836" data-name="Path 163836" d="M702.02,507.325V631.84A5.989,5.989,0,0,0,708,637.824H892.522a5.989,5.989,0,0,0,5.984-5.984V507.325a5.992,5.992,0,0,0-5.984-5.978H708A5.992,5.992,0,0,0,702.02,507.325Z" transform="translate(17.764 -11.046)" fill="#3f3d56"></path><path id="Path_163837" data-name="Path 163837" d="M705,507.528V628.957a3.2,3.2,0,0,0,3.2,3.2h181.44a3.2,3.2,0,0,0,3.2-3.2V507.528a3.205,3.205,0,0,0-3.2-3.2H708.2A3.205,3.205,0,0,0,705,507.528Z" transform="translate(19.113 -9.699)" fill="#fb9d4b"></path><path id="Path_163838" data-name="Path 163838" d="M699.619,614.265a3.589,3.589,0,0,0,2.824,1.351H900.017a3.635,3.635,0,0,0,3.554-4.381L900.5,596.667a3.642,3.642,0,0,0-2.264-2.641,3.522,3.522,0,0,0-1.29-.244H705.5a3.523,3.523,0,0,0-1.29.243,3.642,3.642,0,0,0-2.264,2.641l-3.067,14.568a3.632,3.632,0,0,0,.743,3.03Z" transform="translate(16.306 30.813)" fill="#2f2e41"></path><rect id="Rectangle_22230" data-name="Rectangle 22230" width="6.085" height="3.651" rx="0.488" transform="translate(911.853 630.871) rotate(180)" fill="#3f3d56"></rect><rect id="Rectangle_22231" data-name="Rectangle 22231" width="6.085" height="3.651" rx="0.488" transform="translate(899.683 630.871) rotate(180)" fill="#3f3d56"></rect><rect id="Rectangle_22232" data-name="Rectangle 22232" width="6.085" height="3.651" rx="0.488" transform="translate(887.512 630.871) rotate(180)" fill="#3f3d56"></rect><rect id="Rectangle_22233" data-name="Rectangle 22233" width="6.085" height="3.651" rx="0.488" transform="translate(875.342 630.871) rotate(180)" fill="#3f3d56"></rect><rect id="Rectangle_22234" data-name="Rectangle 22234" width="6.085" height="3.651" rx="0.488" transform="translate(863.171 630.871) rotate(180)" fill="#3f3d56"></rect><rect id="Rectangle_22235" data-name="Rectangle 22235" width="6.085" height="3.651" rx="0.488" transform="translate(851.001 630.871) rotate(180)" fill="#3f3d56"></rect><rect id="Rectangle_22236" data-name="Rectangle 22236" width="6.085" height="3.651" rx="0.488" transform="translate(838.831 630.871) rotate(180)" fill="#3f3d56"></rect><rect id="Rectangle_22237" data-name="Rectangle 22237" width="6.085" height="3.651" rx="0.488" transform="translate(826.66 630.871) rotate(180)" fill="#3f3d56"></rect><rect id="Rectangle_22238" data-name="Rectangle 22238" width="6.085" height="3.651" rx="0.488" transform="translate(814.49 630.871) rotate(180)" fill="#3f3d56"></rect><rect id="Rectangle_22239" data-name="Rectangle 22239" width="6.085" height="3.651" rx="0.488" transform="translate(802.319 630.871) rotate(180)" fill="#3f3d56"></rect><rect id="Rectangle_22240" data-name="Rectangle 22240" width="6.085" height="3.651" rx="0.488" transform="translate(790.149 630.871) rotate(180)" fill="#3f3d56"></rect><rect id="Rectangle_22241" data-name="Rectangle 22241" width="6.085" height="3.651" rx="0.488" transform="translate(777.978 630.871) rotate(180)" fill="#3f3d56"></rect><rect id="Rectangle_22242" data-name="Rectangle 22242" width="6.085" height="3.651" rx="0.488" transform="translate(765.808 630.871) rotate(180)" fill="#3f3d56"></rect><rect id="Rectangle_22243" data-name="Rectangle 22243" width="6.085" height="3.651" rx="0.488" transform="translate(753.637 630.871) rotate(180)" fill="#3f3d56"></rect><rect id="Rectangle_22244" data-name="Rectangle 22244" width="6.085" height="3.651" rx="0.488" transform="translate(741.467 630.871) rotate(180)" fill="#3f3d56"></rect><rect id="Rectangle_22245" data-name="Rectangle 22245" width="6.085" height="3.651" rx="0.488" transform="translate(729.296 630.871) rotate(180)" fill="#3f3d56"></rect><rect id="Rectangle_22246" data-name="Rectangle 22246" width="6.085" height="3.651" rx="0.488" transform="translate(911.997 636.955) rotate(180)" fill="#3f3d56"></rect><rect id="Rectangle_22247" data-name="Rectangle 22247" width="6.085" height="3.651" rx="0.488" transform="translate(899.827 636.955) rotate(180)" fill="#3f3d56"></rect><rect id="Rectangle_22248" data-name="Rectangle 22248" width="6.085" height="3.651" rx="0.488" transform="translate(887.656 636.955) rotate(180)" fill="#3f3d56"></rect><rect id="Rectangle_22249" data-name="Rectangle 22249" width="6.085" height="3.651" rx="0.488" transform="translate(875.486 636.955) rotate(180)" fill="#3f3d56"></rect><rect id="Rectangle_22250" data-name="Rectangle 22250" width="6.085" height="3.651" rx="0.488" transform="translate(863.315 636.955) rotate(180)" fill="#3f3d56"></rect><rect id="Rectangle_22251" data-name="Rectangle 22251" width="6.085" height="3.651" rx="0.488" transform="translate(851.145 636.955) rotate(180)" fill="#3f3d56"></rect><rect id="Rectangle_22252" data-name="Rectangle 22252" width="6.085" height="3.651" rx="0.488" transform="translate(838.974 636.955) rotate(180)" fill="#3f3d56"></rect><rect id="Rectangle_22253" data-name="Rectangle 22253" width="6.085" height="3.651" rx="0.488" transform="translate(826.804 636.955) rotate(180)" fill="#3f3d56"></rect><rect id="Rectangle_22254" data-name="Rectangle 22254" width="6.085" height="3.651" rx="0.488" transform="translate(814.633 636.955) rotate(180)" fill="#3f3d56"></rect><rect id="Rectangle_22255" data-name="Rectangle 22255" width="6.085" height="3.651" rx="0.488" transform="translate(802.463 636.955) rotate(180)" fill="#3f3d56"></rect><rect id="Rectangle_22256" data-name="Rectangle 22256" width="6.085" height="3.651" rx="0.488" transform="translate(790.292 636.955) rotate(180)" fill="#3f3d56"></rect><rect id="Rectangle_22257" data-name="Rectangle 22257" width="6.085" height="3.651" rx="0.488" transform="translate(778.122 636.955) rotate(180)" fill="#3f3d56"></rect><rect id="Rectangle_22258" data-name="Rectangle 22258" width="6.085" height="3.651" rx="0.488" transform="translate(765.952 636.955) rotate(180)" fill="#3f3d56"></rect><rect id="Rectangle_22259" data-name="Rectangle 22259" width="6.085" height="3.651" rx="0.488" transform="translate(753.781 636.955) rotate(180)" fill="#3f3d56"></rect><rect id="Rectangle_22260" data-name="Rectangle 22260" width="6.085" height="3.651" rx="0.488" transform="translate(741.611 636.955) rotate(180)" fill="#3f3d56"></rect><rect id="Rectangle_22261" data-name="Rectangle 22261" width="6.085" height="3.651" rx="0.488" transform="translate(729.44 636.955) rotate(180)" fill="#3f3d56"></rect><rect id="Rectangle_22262" data-name="Rectangle 22262" width="48.682" height="3.651" rx="0.488" transform="translate(853.579 644.258) rotate(180)" fill="#3f3d56"></rect><rect id="Rectangle_22263" data-name="Rectangle 22263" width="8.667" height="4.536" rx="1.561" transform="translate(749.133 521.19)" fill="#fff"></rect><rect id="Rectangle_22264" data-name="Rectangle 22264" width="8.667" height="4.536" rx="1.561" transform="translate(796.384 521.19)" fill="#fff"></rect><rect id="Rectangle_22265" data-name="Rectangle 22265" width="8.667" height="4.536" rx="1.561" transform="translate(809.772 521.19)" fill="#fff"></rect><rect id="Rectangle_22266" data-name="Rectangle 22266" width="30.214" height="4.536" rx="1.561" transform="translate(761.985 520.812)" fill="#fff"></rect><rect id="Rectangle_22267" data-name="Rectangle 22267" width="30.214" height="4.536" rx="1.561" transform="translate(824.986 520.812)" fill="#fff"></rect><rect id="Rectangle_22268" data-name="Rectangle 22268" width="8.667" height="4.536" rx="1.561" transform="translate(761.733 531.428)" fill="#fff"></rect><rect id="Rectangle_22269" data-name="Rectangle 22269" width="8.667" height="4.536" rx="1.561" transform="translate(808.984 531.428)" fill="#fff"></rect><rect id="Rectangle_22270" data-name="Rectangle 22270" width="8.667" height="4.536" rx="1.561" transform="translate(822.372 531.428)" fill="#fff"></rect><rect id="Rectangle_22271" data-name="Rectangle 22271" width="30.214" height="4.536" rx="1.561" transform="translate(774.585 531.049)" fill="#fff"></rect><rect id="Rectangle_22272" data-name="Rectangle 22272" width="30.214" height="4.536" rx="1.561" transform="translate(837.586 531.049)" fill="#fff"></rect><rect id="Rectangle_22273" data-name="Rectangle 22273" width="8.667" height="4.536" rx="1.561" transform="translate(774.334 541.665)" fill="#fff"></rect><rect id="Rectangle_22274" data-name="Rectangle 22274" width="8.667" height="4.536" rx="1.561" transform="translate(821.585 541.665)" fill="#fff"></rect><rect id="Rectangle_22275" data-name="Rectangle 22275" width="8.667" height="4.536" rx="1.561" transform="translate(834.973 541.665)" fill="#fff"></rect><rect id="Rectangle_22276" data-name="Rectangle 22276" width="30.214" height="4.536" rx="1.561" transform="translate(787.186 541.287)" fill="#fff"></rect><rect id="Rectangle_22277" data-name="Rectangle 22277" width="30.214" height="4.536" rx="1.561" transform="translate(850.187 541.287)" fill="#fff"></rect><rect id="Rectangle_22278" data-name="Rectangle 22278" width="8.667" height="4.536" rx="1.561" transform="translate(786.933 551.903)" fill="#fff"></rect><rect id="Rectangle_22279" data-name="Rectangle 22279" width="8.667" height="4.536" rx="1.561" transform="translate(834.184 551.903)" fill="#fff"></rect><rect id="Rectangle_22280" data-name="Rectangle 22280" width="8.667" height="4.536" rx="1.561" transform="translate(847.572 551.903)" fill="#fff"></rect><rect id="Rectangle_22281" data-name="Rectangle 22281" width="30.214" height="4.536" rx="1.561" transform="translate(799.786 551.525)" fill="#fff"></rect><rect id="Rectangle_22282" data-name="Rectangle 22282" width="8.667" height="4.536" rx="1.561" transform="translate(796.384 592.613)" fill="#fff"></rect><rect id="Rectangle_22283" data-name="Rectangle 22283" width="8.667" height="4.536" rx="1.561" transform="translate(809.772 592.613)" fill="#fff"></rect><rect id="Rectangle_22284" data-name="Rectangle 22284" width="30.214" height="4.536" rx="1.561" transform="translate(824.986 592.991)" fill="#fff"></rect><rect id="Rectangle_22285" data-name="Rectangle 22285" width="8.667" height="4.536" rx="1.561" transform="translate(749.133 592.613)" fill="#fff"></rect><rect id="Rectangle_22286" data-name="Rectangle 22286" width="30.214" height="4.536" rx="1.561" transform="translate(761.985 592.991)" fill="#fff"></rect><rect id="Rectangle_22287" data-name="Rectangle 22287" width="8.667" height="4.536" rx="1.561" transform="translate(761.733 582.375)" fill="#fff"></rect><rect id="Rectangle_22288" data-name="Rectangle 22288" width="8.667" height="4.536" rx="1.561" transform="translate(808.984 582.375)" fill="#fff"></rect><rect id="Rectangle_22289" data-name="Rectangle 22289" width="8.667" height="4.536" rx="1.561" transform="translate(822.372 582.375)" fill="#fff"></rect><rect id="Rectangle_22290" data-name="Rectangle 22290" width="30.214" height="4.536" rx="1.561" transform="translate(774.585 582.753)" fill="#fff"></rect><rect id="Rectangle_22291" data-name="Rectangle 22291" width="8.667" height="4.536" rx="1.561" transform="translate(774.334 572.137)" fill="#fff"></rect><rect id="Rectangle_22292" data-name="Rectangle 22292" width="8.667" height="4.536" rx="1.561" transform="translate(821.585 572.137)" fill="#fff"></rect><rect id="Rectangle_22293" data-name="Rectangle 22293" width="8.667" height="4.536" rx="1.561" transform="translate(834.973 572.137)" fill="#fff"></rect><rect id="Rectangle_22294" data-name="Rectangle 22294" width="30.214" height="4.536" rx="1.561" transform="translate(787.186 572.515)" fill="#fff"></rect><rect id="Rectangle_22295" data-name="Rectangle 22295" width="8.667" height="4.536" rx="1.561" transform="translate(786.933 561.9)" fill="#fff"></rect><rect id="Rectangle_22296" data-name="Rectangle 22296" width="8.667" height="4.536" rx="1.561" transform="translate(834.184 561.9)" fill="#fff"></rect><rect id="Rectangle_22297" data-name="Rectangle 22297" width="8.667" height="4.536" rx="1.561" transform="translate(847.572 561.9)" fill="#fff"></rect><rect id="Rectangle_22298" data-name="Rectangle 22298" width="30.214" height="4.536" rx="1.561" transform="translate(799.786 562.278)" fill="#fff"></rect><path id="Path_163839" data-name="Path 163839" d="M717.552,690.575l-19.395-30.657,60.877-48.529,25.128-27.838a27.839,27.839,0,0,1,47.1,9.92h0a27.838,27.838,0,0,1-16.81,34.855l-39.734,14.638Z" transform="translate(16.015 22.02)" fill="#ffb6b6"></path><path id="Path_163840" data-name="Path 163840" d="M398.28,502.919v149H502.667v-149a5.009,5.009,0,0,0-3.53-4.794,4.613,4.613,0,0,0-1.5-.232H403.321a5.032,5.032,0,0,0-5.041,5.027Zm40.738,51.2a11.144,11.144,0,1,1,22.287,0v17.289a11.143,11.143,0,1,1-22.287,0Z" transform="translate(-119.784 -12.611)" fill="#2f2e41"></path><path id="Path_163841" data-name="Path 163841" d="M398.06,600.632V615a2.828,2.828,0,0,0,2.8,2.819h99.418a2.818,2.818,0,0,0,2.8-2.819V600.632Z" transform="translate(-119.883 33.915)" fill="#3f3d56"></path><path id="Path_163842" data-name="Path 163842" d="M285.25,350.9v272.06a13.086,13.086,0,0,0,13.076,13.076H701.491a13.086,13.086,0,0,0,13.076-13.076V350.9a13.092,13.092,0,0,0-13.076-13.061H298.326A13.092,13.092,0,0,0,285.25,350.9Z" transform="translate(-170.969 -85.089)" fill="#3f3d56"></path><path id="Path_163843" data-name="Path 163843" d="M291.76,351.345V616.664a7,7,0,0,0,6.988,6.988H695.186a7,7,0,0,0,6.988-6.988V351.345a7,7,0,0,0-6.987-7H298.748a7,7,0,0,0-6.988,7Z" transform="translate(-168.021 -82.145)" fill="#fff"></path><path id="Path_163844" data-name="Path 163844" d="M342.7,619.413a4.284,4.284,0,0,0,3.371,1.613H581.93a4.34,4.34,0,0,0,4.242-5.23l-3.661-17.391a4.348,4.348,0,0,0-2.7-3.153,4.206,4.206,0,0,0-1.54-.291H349.721a4.2,4.2,0,0,0-1.54.291,4.348,4.348,0,0,0-2.7,3.153L341.818,615.8A4.337,4.337,0,0,0,342.7,619.413Z" transform="translate(-145.393 31.347)" fill="#2f2e41"></path><path id="Path_163845" data-name="Path 163845" d="M676.668,370.419H305.721a1.475,1.475,0,1,1,0-2.951H676.668a1.475,1.475,0,1,1,0,2.951Z" transform="translate(-162.367 -71.673)" fill="#3f3d56"></path><ellipse id="Ellipse_7929" data-name="Ellipse 7929" cx="8.645" cy="8.838" rx="8.645" ry="8.838" transform="translate(159.959 270.588)" fill="#3f3d56"></ellipse><ellipse id="Ellipse_7930" data-name="Ellipse 7930" cx="8.645" cy="8.838" rx="8.645" ry="8.838" transform="translate(189.824 270.588)" fill="#3f3d56"></ellipse><ellipse id="Ellipse_7931" data-name="Ellipse 7931" cx="8.645" cy="8.838" rx="8.645" ry="8.838" transform="translate(219.689 270.588)" fill="#3f3d56"></ellipse><path id="Path_163846" data-name="Path 163846" d="M555.306,351.622H534.095a1.606,1.606,0,0,0,0,3.211h21.212a1.605,1.605,0,1,0,0-3.211Z" transform="translate(-58.991 -78.849)" fill="#3f3d56"></path><path id="Path_163847" data-name="Path 163847" d="M555.318,355.772H534.107a1.606,1.606,0,1,0,0,3.211h21.212a1.605,1.605,0,1,0,0-3.211Z" transform="translate(-59.002 -76.969)" fill="#3f3d56"></path><path id="Path_163848" data-name="Path 163848" d="M555.306,359.922H534.095a1.606,1.606,0,0,0,0,3.211h21.212a1.605,1.605,0,1,0,0-3.211Z" transform="translate(-58.991 -75.09)" fill="#3f3d56"></path><path id="Path_163849" data-name="Path 163849" d="M903.54,632.806a9.322,9.322,0,0,0,8.983,6.292l38.488-.99a9.2,9.2,0,0,0,8.689-6.766l5.447-58.24a14.23,14.23,0,0,0,6.157,1.265,14.036,14.036,0,1,0-.7-28.064,11.886,11.886,0,0,0-2.522.262A9.513,9.513,0,0,0,961,543.509l-59.2,1.529a8.483,8.483,0,0,0-1.46.181,9.247,9.247,0,0,0-7.08,12.007Zm62.724-63.659,3.876-13.879a9.456,9.456,0,0,0,.029-4.9c.188,0,.354-.09.542-.09a10.04,10.04,0,1,1,.47,20.074,9.45,9.45,0,0,1-4.918-1.2Z" transform="translate(104.149 8.046)" fill="#2f2e41"></path><path id="Path_163850" data-name="Path 163850" d="M897.978,545.22c1.261,7.212,15.442,12.282,32.494,11.4,15.68-.722,28.5-6.228,30.85-12.754a8.753,8.753,0,0,0-2.68-.357l-59.2,1.529A8.5,8.5,0,0,0,897.978,545.22Z" transform="translate(106.503 8.046)" fill="#3f3d56"></path><path id="Path_163851" data-name="Path 163851" d="M922.879,586.869a.724.724,0,0,0,.219-.1l8.359-5.471a.725.725,0,0,0,0-1.215l-8.688-5.69a.726.726,0,1,0-.8,1.214l7.76,5.082-7.43,4.864a.726.726,0,0,0,.576,1.312Z" transform="translate(117.22 21.98)" fill="#fb9d4b"></path><path id="Path_163852" data-name="Path 163852" d="M916.391,587.288a.726.726,0,0,0,.183-1.334l-7.7-4.417L916.317,576a.726.726,0,0,0-.866-1.165l-8.337,6.193a.726.726,0,0,0,.071,1.213l8.667,4.968A.726.726,0,0,0,916.391,587.288Z" transform="translate(110.507 22.17)" fill="#fb9d4b"></path><path id="Path_163853" data-name="Path 163853" d="M925.9,592.762a.694.694,0,0,0,.2-.084.726.726,0,0,0,.243-1L914.491,572.2a.727.727,0,0,0-1.241.756l11.849,19.48A.727.727,0,0,0,925.9,592.762Z" transform="translate(113.37 20.881)" fill="#fb9d4b"></path><rect id="Rectangle_22299" data-name="Rectangle 22299" width="73.687" height="15.757" rx="3.264" transform="translate(304.204 378.942)" fill="#fb9d4b"></rect><rect id="Rectangle_22300" data-name="Rectangle 22300" width="148.533" height="15.757" rx="3.264" transform="translate(266.78 410.457)" fill="#e6e6e6"></rect><rect id="Rectangle_22301" data-name="Rectangle 22301" width="148.533" height="15.757" rx="3.264" transform="translate(266.78 441.971)" fill="#e6e6e6"></rect><path id="Path_163854" data-name="Path 163854" d="M497.3,565.875l.315.994.017.033,9.48,28.822,10.905,33.213,20.518,62.416.2,9.7v.033l1.525,78-4.226,10.574,4.757,17.336s-2.188-26.205-13.922-11.156c-6.646,8.552-14.419,17.3-20.8,25.507q13.947,5.643,28.341,10.209c2.072.663,4.16,1.293,6.248,1.923l1.342.4A387.713,387.713,0,0,0,639.851,849.6c1.724.05,3.414.083,5.055.116.58.017,1.144.033,1.707.033,1.856.017,3.7.033,5.552.033q5.618,0,11.187-.166a387.7,387.7,0,0,0,81.492-11.021c-.182-11.021-.679-23.9-1.392-37.655-.331-6.745-7.773-14.054-8.22-21.115-.315-5.3,6.364-10.292,6.016-15.679-2.254-33.164-5.071-20.433-7.16-43.918q-.323-3.456-.6-6.613c-1.343-15.082-2.271-24.512-2.271-24.512l8.917-56.2,14-88.238-1.077-1.773-1.21-.6-73.869-36.561-4.011-10.276a15.951,15.951,0,0,0-14.734-10.093l-48.66-.2a15.881,15.881,0,0,0-12.944,6.58l-13.176,18.247Z" transform="translate(-74.942 -18.376)" fill="#3f3d56"></path><path id="Path_163855" data-name="Path 163855" d="M565.612,659.839l-11.023,23.584-7.524,16.109L534.121,767.3l-6.48,6.878-5.552-24.349-58.11,12.9c-1.906-10.59-.51.358-1.687-11.26.331-.331.68-.663,1.028-.994.928-.862,1.707-1.674,1.691-2.453-.663-40.075,1.326-108.275,17.933-149.594a87.249,87.249,0,0,1,10.209-19.043c.332-.447.646-.9.961-1.342,7.657-10.723,12.5-21.281,19.358-28.788v-.017a.77.77,0,0,0,.116-.116.229.229,0,0,0,.066-.05l47.135-24.993L562.81,580.9l1.442,40.837Z" transform="translate(-90.797 -0.75)" fill="#3f3d56"></path><path id="Path_163856" data-name="Path 163856" d="M650.391,666.356l13.767,29.457,4.805,10.258,12.94,67.763,6.459,6.861,5.565-24.343,2.615-.536L743.7,746.05,757.444,789.7a26.128,26.128,0,0,0-4.738-32.7c-.939-.849-1.721-1.676-1.7-2.458.782-47.135-2.1-133.2-28.138-168.626-8.269-11.242-13.231-22.439-20.45-30.261-.022-.022-.022-.045-.045-.045l-17.567-28.763-1.073-1.766-1.207-.6Z" transform="translate(-5.616 -0.569)" fill="#3f3d56"></path><circle id="Ellipse_5" data-name="Ellipse 5" cx="64.736" cy="64.736" r="64.736" transform="translate(496.639 323.466)" fill="#ffb6b6"></circle><path id="Path_163857" data-name="Path 163857" d="M703.177,415.616a5.462,5.462,0,0,0-3.908-1.729l.973-2.7a5.125,5.125,0,0,0-5.753-6.828l-3.545.683.334-2.368a5.134,5.134,0,0,0-6.872-5.55,5.472,5.472,0,0,1-4.707-.334A5.588,5.588,0,0,1,676.91,393l-1.235-5.957-.131-.32c-6.015-10.025-17.579-17.318-31.73-19.991-12.6-2.4-25.512-1.177-37.963-.029-4.94.465-10.519.988-15.168,3.836-3.952,2.441-7.293,7.322-6.61,12.247C571.8,379.019,558.634,386.53,552.11,396c-7.729,11.274-8.993,25.4-9.2,36.437-.552,26.122,4.838,47.494,15.981,63.533.814,1.162,1.017,3.589,2.63,4.4l-.334-.537c1.8.9,3.632,2.354,2.949,3.908-1.961,4.475,11.071,14.369,20.253,17.638,16.751,5.971,39.023,5.463,54.685,3.313l.552-3.7c5.652-.77,9.632-2.237,10.751-4.533,1.976-1.685,3.661-3.2,5.129-4.591l.015-.015c.029-.029.087-.073.116-.1,7.075-6.785,8.717-10.649,9.458-16.533.712-5.768-.552-11.623-1.845-16.9,27.226,4.213-10.722-29,14.645-35.42a7.907,7.907,0,0,1,.886-.218c.741-.174,1.482-.349,2.194-.552a38.43,38.43,0,0,0,9.763-4.17c7.09-4.315,9.429-10.039,13.09-16.49a4.978,4.978,0,0,0-.654-5.855Z" transform="translate(-54.304 -72.633)" fill="#2f2e41"></path><path id="Path_163858" data-name="Path 163858" d="M883.452,654.415c-.015,2.543-.044,6.1-.16,10.5q-.022.915-.044,1.874c-.189,8.092-.378,14.877-.683,22.417-.015.523-.029,1.032-.058,1.555-.407,10.519-1.046,22.766-2.15,42.162-2.049,35.827-5.622,4.925-9.211,17.492-.174.625-.363,1.366-.538,2.237a40.56,40.56,0,0,1-2.731,9.2c-1.9,1.133-3.865,2.223-5.8,3.313-5.506,3.065-11.1,6.015-16.737,8.819-3.167,1.569-6.349,3.109-9.545,4.591-.508.232-1,.465-1.5.683a393.6,393.6,0,0,1-50.487,19.265c-3.37,1.017-6.727,2.005-10.126,2.92-3.545.988-7.09,1.918-10.678,2.789a387.737,387.737,0,0,1-81.49,11.027c-3.7.116-7.439.16-11.187.16-1.86,0-3.69-.015-5.55-.029-.567,0-1.133-.015-1.7-.029-1.642-.044-3.341-.073-5.056-.116a387.427,387.427,0,0,1-97.849-15.734l-1.351-.392c-2.092-.639-4.17-1.264-6.247-1.932q-14.383-4.555-28.345-10.2-10.657-4.293-21.066-9.211a.491.491,0,0,1-.174-.087c-1.453-.668-2.92-1.366-4.373-2.078-.189-.1-.392-.2-.6-.305Q489.9,771.34,481.943,767c-4.46-10.243-10.737-12.2-14.63-21.211a37.587,37.587,0,0,1-2.441-8.339c0-.029-.015-.058-.015-.1.407,5.4-1.729-9.589-.014-.058-.015-.174-.029-.363-.044-.581-.044-.523-.1-1.162-.189-1.961-4.983-48.656-4.664-104.3-6.828-150.152q-.218-4.446-.45-8.514c-.044-.9-.1-1.787-.16-2.659.1-.262.218-.538.349-.8a1.441,1.441,0,0,1,.1-.218,2.384,2.384,0,0,1,.145-.262c.029-.044.073-.1.1-.145a1.316,1.316,0,0,1,.073-.145c.131-.2.276-.421.436-.625.073-.087.131-.16.2-.232a1.17,1.17,0,0,1,.174-.2.922.922,0,0,1,.16-.189c.058-.058.116-.131.189-.2a.438.438,0,0,1,.116-.116,2.934,2.934,0,0,1,.378-.363,13.989,13.989,0,0,1,1.656-1.308c.2-.131.421-.261.625-.407a27.8,27.8,0,0,1,4.606-2.208c.552-.2,1.1-.392,1.7-.6.218-.058.421-.131.639-.2.32-.1.639-.2.973-.276,1.656-.494,3.443-.915,5.376-1.308.232-.044.479-.087.726-.145.349-.073.712-.131,1.075-.189.494-.087,1-.174,1.511-.261,4.315-.683,9.211-1.191,14.616-1.525l1.526-.087,1.8-.087c.509-.029,1.031-.044,1.555-.058s1.031-.044,1.569-.058c1.467-.044,2.978-.087,4.518-.116,4.388-.087,9.008-.058,13.86.044,2.252.058,4.547.116,6.9.218.16,0,.305.015.45.015,2.048.073,4.112.16,6.233.276,1.482.073,2.978.145,4.475.232,1.409.087,2.833.174,4.271.276,1.119.058,2.237.145,3.371.218.959.073,1.918.145,2.877.2l1.308.087c.712.058,1.424.1,2.15.174,1.6.131,3.2.262,4.823.392s3.254.291,4.9.436,3.3.305,4.954.465l.494.044c1.511.16,3.022.305,4.547.465.349.029.712.058,1.061.1,1.454.146,2.937.317,4.4.473l1.35.145c1.15.125,2.283.234,3.441.37,1.525.174,3.08.334,4.591.538,1.177.131,2.354.262,3.53.407,1.845.218,3.719.45,5.593.7.712.087,1.424.174,2.136.276,5.346.668,10.751,1.409,16.243,2.179,8.325,1.177,16.78,2.455,25.294,3.835s17.1,2.838,25.73,4.373c2.179.392,4.359.785,6.552,1.191l2.964.567c1.685.305,3.371.625,5.056.944s3.371.639,5.056.973c2.005.392,4.024.785,6.029,1.177,13.206,2.615,26.34,5.4,39.154,8.325,2.107.479,4.213.973,6.305,1.453q6.276,1.46,12.436,2.964c1.133.262,2.252.538,3.371.814,2.789.7,5.579,1.395,8.325,2.107l.479.131c2.019.494,4,1,5.971,1.526q7,1.831,13.758,3.7,4.489,1.242,8.877,2.513c4.373,1.264,8.659,2.542,12.829,3.836,1.032.32,2.063.639,3.08.944,3.051.945,6.058,1.9,8.979,2.862,2.324.755,4.591,1.525,6.828,2.3s4.431,1.54,6.581,2.31c1.38.494,2.746,1.017,4.112,1.511,1.961.726,3.894,1.453,5.782,2.179.581.218,1.148.45,1.714.668.363.16.712.291,1.061.436.683.276,1.38.537,2.048.814s1.351.538,2.02.828c.654.262,1.322.538,1.961.814s1.293.538,1.932.828c.538.218,1.061.45,1.569.683,1.032.45,2.063.9,3.065,1.366.494.232.988.45,1.482.683l1.133.523c.16.087.32.16.479.232.363.174.741.363,1.1.538.843.392,1.671.814,2.484,1.206,1.09.552,2.15,1.1,3.167,1.642s2.034,1.1,2.993,1.642c.16.087.305.174.465.262.218.116.436.247.654.363.741.421,1.453.857,2.165,1.278,1.395.857,2.717,1.7,3.952,2.543.276.189.537.378.814.552.915.654,1.787,1.293,2.6,1.947,0,.015,0,.015.015.015.276.2.538.421.8.625.218.2.45.378.668.581.755.654,1.453,1.278,2.092,1.918a8.263,8.263,0,0,1,.61.625,1.762,1.762,0,0,1,.233.232c.291.291.552.581.8.872a.8.8,0,0,1,.1.131c.349.407.668.814.973,1.22.145.2.305.407.436.61.174.247.349.508.494.755.131.2.247.421.363.625a10.552,10.552,0,0,1,.784,1.642,7.6,7.6,0,0,1,.392,1.191,8.516,8.516,0,0,1,.247,1.177Z" transform="translate(-93.115 15.982)" fill="#2f2e41"></path><path id="Path_163859" data-name="Path 163859" d="M883.456,654.411c-.015,2.542-.044,6.1-.16,10.5-.015.61-.044,1.235-.058,1.874-.145,6.175-.363,13.8-.668,22.417-.015.523-.029,1.032-.058,1.555-.407,10.519-1.046,22.766-2.15,42.162-2.048,35.827-5.622,4.925-9.211,17.492-9.967-6.131-20.892-12.553-32.573-19.148q-3.16-1.787-6.378-3.589c-23.362-13.032-49.455-26.689-76.7-40.215-1.075-.538-2.165-1.075-3.24-1.6C689.865,655.022,621.755,625.02,566.576,605c-10.649-3.864-20.819-7.351-30.379-10.417-20.136-6.436-37.542-10.94-50.937-12.887-13.947-2.034-23.58-1.308-27.473,2.891q-.218-4.446-.45-8.514-.087-1.351-.174-2.659c.09-.239.206-.467.319-.7.016-.034.028-.068.044-.1a1.447,1.447,0,0,1,.1-.218,2.36,2.36,0,0,1,.145-.261,1.547,1.547,0,0,1,.174-.291c.131-.2.276-.421.436-.625a5.074,5.074,0,0,1,.378-.436.924.924,0,0,1,.16-.189c.058-.058.116-.131.189-.2a.435.435,0,0,1,.116-.116,2.947,2.947,0,0,1,.378-.363,13.993,13.993,0,0,1,1.656-1.308c.2-.131.421-.262.625-.407a27.79,27.79,0,0,1,4.605-2.208c.552-.2,1.1-.392,1.7-.6.218-.058.421-.131.639-.2.32-.1.639-.2.973-.276,1.656-.494,3.443-.915,5.376-1.308.581-.116,1.191-.232,1.8-.334.494-.087,1-.174,1.511-.261,4.315-.683,9.211-1.191,14.616-1.525l1.526-.087,1.8-.087c.509-.029,1.031-.044,1.555-.058s1.031-.044,1.569-.058c1.467-.044,2.978-.087,4.518-.116,4.388-.073,9.008-.044,13.86.058,2.252.044,4.547.116,6.9.218.145,0,.3.015.45.015,2.049.058,4.126.16,6.233.261,1.482.073,2.978.145,4.475.232,1.409.087,2.833.174,4.271.276,1.119.058,2.237.145,3.371.218.959.073,1.918.145,2.877.2l3.458.261c1.6.131,3.2.261,4.823.392s3.254.291,4.9.436,3.3.305,4.954.465l.494.044c1.511.16,3.022.305,4.547.465q12.683,1.286,26.108,3.007,8.02,1.024,16.243,2.194c8.325,1.177,16.78,2.455,25.294,3.821s17.105,2.838,25.73,4.373c2.179.392,4.359.784,6.552,1.191q4.01.741,8.02,1.511c1.685.32,3.371.639,5.056.973,2,.392,4.024.785,6.029,1.177,13.206,2.615,26.34,5.4,39.154,8.325,2.107.479,4.213.973,6.305,1.453q6.276,1.46,12.436,2.964c1.133.276,2.252.552,3.371.828q4.206,1.046,8.325,2.092v.014c.16.029.32.073.479.116,2,.508,4,1.017,5.971,1.54q7,1.831,13.758,3.69c2.993.843,5.957,1.671,8.877,2.513,4.373,1.279,8.659,2.557,12.829,3.836,1.032.32,2.063.639,3.08.944q4.576,1.438,8.979,2.862c2.325.755,4.591,1.525,6.828,2.3s4.431,1.54,6.581,2.31c1.395.494,2.76,1,4.112,1.5,1.976.726,3.894,1.453,5.782,2.194.581.218,1.148.45,1.714.668,1.061.407,2.092.828,3.109,1.249.683.262,1.351.538,2.019.828.654.261,1.322.537,1.961.814s1.293.538,1.932.828c.538.218,1.06.45,1.569.683,1.032.45,2.063.9,3.065,1.366.494.232.988.45,1.482.683l1.133.523c.16.087.32.16.479.232,1.235.581,2.426,1.162,3.589,1.743,1.09.552,2.15,1.1,3.167,1.642,1.206.639,2.354,1.264,3.458,1.9.218.116.436.247.654.363.741.421,1.453.857,2.165,1.278,1.395.857,2.717,1.7,3.952,2.542s2.354,1.671,3.414,2.5c0,.015,0,.015.015.015.509.407,1,.814,1.467,1.206.755.654,1.453,1.278,2.092,1.918a8.23,8.23,0,0,1,.61.625,1.752,1.752,0,0,1,.232.232c.305.334.61.668.9,1,.349.407.668.814.973,1.22.145.2.305.407.436.61.174.247.349.509.494.755.131.2.247.421.363.625a10.553,10.553,0,0,1,.784,1.642,8.779,8.779,0,0,1,.392,1.191,8.492,8.492,0,0,1,.247,1.177Z" transform="translate(-93.119 15.986)" opacity="0.2"></path></g></svg>