<svg xmlns="http://www.w3.org/2000/svg" width="1143.129" height="1023.843" viewBox="0 0 1143.129 1023.843"><g id="Confirmation_POC" data-name="Confirmation &amp; POC" transform="translate(0)"><path id="Path_163820" data-name="Path 163820" d="M1032.178,732.881c-10.4,63.98-57.247,113.52-107.124,156.815q-10.446,9.069-20.942,17.785c-.049.029-.1.083-.145.112-.337.278-.674.557-.986.834-1.444,1.2-2.889,2.4-4.322,3.579l.9.281,2.8.86c-.961-.264-1.909-.515-2.87-.779-.286-.081-.584-.149-.87-.231-33.069-8.933-66.811-18.735-93.844-39.663-28.047-21.735-47.362-58.789-37.689-92.929a62.542,62.542,0,0,1,5.272-12.87c.912-1.708,1.917-3.359,2.974-4.988a67.009,67.009,0,0,1,116.7,6.492c-.472-37.618-34.832-65.049-67.06-84.463s-68.742-40.362-78.878-76.61c-5.651-20.166-.9-40.939,10.2-58.488.345-.534.689-1.068,1.047-1.59a97.793,97.793,0,0,1,58.385-40.976c44.645-10.129,91.434,8.527,128.053,36.016C1002.711,586.293,1044,660.137,1032.178,732.881Z" transform="translate(100.824 109.829)" fill="#f2f2f2"></path><path id="Path_163821" data-name="Path 163821" d="M931.573,641.617a166.246,166.246,0,0,1,25.013,41.239,144.352,144.352,0,0,1,10.038,41.734c2.712,29.445-2.873,59.207-14.013,86.457a266.187,266.187,0,0,1-33.469,58.063Q908.7,878.178,898.2,886.894c-.049.029-.1.083-.145.112-.337.278-.674.557-.986.834-1.444,1.2-2.889,2.4-4.322,3.579l.9.281,2.8.86c-.961-.264-1.909-.515-2.87-.779-.286-.081-.584-.149-.87-.231A145.842,145.842,0,0,0,766.445,746.087c.912-1.708,1.917-3.359,2.974-4.988a153.838,153.838,0,0,1,26.362,6.513A150.764,150.764,0,0,1,871.3,804.735a154.14,154.14,0,0,1,26.75,81.978c1.155-1.33,2.308-2.686,3.424-4.026,21.284-25.224,39.491-53.43,50.343-84.761a172.059,172.059,0,0,0,8.18-82.974c-4.843-30.391-20.4-57.21-40.975-79.714-22.032-24.083-48.487-44.554-76.172-61.715A409.25,409.25,0,0,0,752.3,531.6a2.942,2.942,0,0,1-1.921-3.573,2.5,2.5,0,0,1,1.047-1.59,2.18,2.18,0,0,1,1.888-.146c3.924,1.265,7.825,2.557,11.706,3.927a413.886,413.886,0,0,1,91.628,45.807C884.2,594.334,910.646,615.85,931.573,641.617Z" transform="translate(106.737 130.416)" fill="#fff"></path><path id="Path_163822" data-name="Path 163822" d="M556.6,542.247a12.532,12.532,0,0,1-12.486-11.712l-1.86-28.394a12.532,12.532,0,0,1,11.686-13.324L776.4,474.248a26.759,26.759,0,1,1,3.5,53.4L557.438,542.219Q557.018,542.247,556.6,542.247Z" transform="translate(-80.403 83.68)" fill="#fb9d4b"></path><path id="Path_163823" data-name="Path 163823" d="M579.569,547.136a12.548,12.548,0,0,1-12.518-12.065l-1.585-42.41a12.531,12.531,0,0,1,12.055-12.99l182.931-6.837a12.532,12.532,0,0,1,12.991,12.055l1.585,42.41a12.53,12.53,0,0,1-12.055,12.99l-182.932,6.837C579.884,547.132,579.726,547.136,579.569,547.136Z" transform="translate(-59.508 82.453)" fill="#2f2e41"></path><path id="Path_163824" data-name="Path 163824" d="M705.148,841.932H676.693A12.545,12.545,0,0,1,664.162,829.4V592.241a12.546,12.546,0,0,1,12.531-12.531h28.455a12.546,12.546,0,0,1,12.531,12.531V829.4A12.546,12.546,0,0,1,705.148,841.932Z" transform="translate(29.279 178.598)" fill="#2f2e41"></path><path id="Path_163825" data-name="Path 163825" d="M633.628,765.794l-24.334-14.75a12.546,12.546,0,0,1-4.221-17.212L728,531.02a12.546,12.546,0,0,1,17.212-4.221l24.334,14.75a12.545,12.545,0,0,1,4.221,17.212L650.84,761.574a12.546,12.546,0,0,1-17.212,4.221Z" transform="translate(-25.501 129.375)" fill="#2f2e41"></path><circle id="Ellipse_7927" data-name="Ellipse 7927" cx="98.323" cy="98.323" r="98.323" transform="translate(592.887 314.16)" fill="#fb9d4b"></circle><path id="Path_163826" data-name="Path 163826" d="M641.2,445.673a23.318,23.318,0,0,1-8.515-5A15.681,15.681,0,0,1,628.1,428.26a10.548,10.548,0,0,1,4.69-8.119c3.516-2.255,8.219-2.262,13.007-.152l-.181-38.384,3.855-.018.213,45.124-2.971-1.869c-3.445-2.163-8.365-3.686-11.841-1.456a6.775,6.775,0,0,0-2.933,5.242,11.849,11.849,0,0,0,3.408,9.256c4.257,4.067,10.469,5.339,17.553,6.475l-.611,3.807A63.547,63.547,0,0,1,641.2,445.673Z" transform="translate(-3.208 0.383)" fill="#2f2e41"></path><rect id="Rectangle_22228" data-name="Rectangle 22228" width="3.855" height="20.767" transform="translate(602.154 383.874) rotate(-82.477)" fill="#2f2e41"></rect><rect id="Rectangle_22229" data-name="Rectangle 22229" width="3.855" height="20.767" transform="translate(667.139 392.454) rotate(-82.477)" fill="#2f2e41"></rect><path id="Path_163827" data-name="Path 163827" d="M792.484,761.314h-165.8A16.405,16.405,0,0,1,610.3,744.927l34.71-266.174a16.368,16.368,0,0,1,16.379-16.263h58.84a88.745,88.745,0,0,1,88.645,88.645V744.927a16.405,16.405,0,0,1-16.387,16.387Z" transform="translate(-19.173 73.156)" fill="#2f2e41"></path><path id="Path_163828" data-name="Path 163828" d="M709.034,733.1a12.551,12.551,0,0,1-11.505,7.321l-28.454-.247a12.53,12.53,0,0,1-12.422-12.64l1.933-222.924a26.758,26.758,0,0,1,53.515.464L710.169,728a12.459,12.459,0,0,1-1.135,5.1Z" transform="translate(22.525 87.182)" fill="#fb9d4b"></path><path id="Path_163829" data-name="Path 163829" d="M725.193,676.291a12.551,12.551,0,0,1-11.505,7.32l-48.6-.422a12.546,12.546,0,0,1-12.422-12.64L654.252,487.5a12.53,12.53,0,0,1,12.639-12.422l48.6.421a12.531,12.531,0,0,1,12.422,12.64l-1.587,183.053A12.479,12.479,0,0,1,725.193,676.291Z" transform="translate(18.938 84.477)" fill="#2f2e41"></path><path id="Path_163830" data-name="Path 163830" d="M702.33,409.634c-13.144-10.877-30.714-.59-45.578-2.05-14.221-1.4-25.667-13.912-28.786-27.379-3.639-15.712,4.249-31.672,16.131-41.736,13.013-11.023,30.485-14.449,47.135-12.772,19.083,1.922,36.664,10.467,52.493,20.9a234.916,234.916,0,0,1,42,34.237c11.318,12.033,20.988,26.448,24.3,42.866,3.01,14.921,1.244,31.551-7.366,44.4A46.668,46.668,0,0,1,784.678,483.5c-7.519,3.871-15.564,6.689-22.837,11.043-11,6.582-21.551,20-17.807,33.68a18.875,18.875,0,0,0,4.444,7.995c2.54,2.714,6.958-1.02,4.411-3.742-4.473-4.78-4.424-11.269-2.2-17.12a31.372,31.372,0,0,1,13.652-15.6c7.613-4.547,16.059-7.424,23.871-11.583a52.1,52.1,0,0,0,18.8-16.2c9.192-13.3,11.692-30.43,9.251-46.186-2.642-17.05-11.72-32.417-22.978-45.225-12.251-13.939-27.2-25.651-42.438-36.138-16.353-11.253-34.364-20.687-54.155-23.846-17.156-2.739-35.653-.5-50.427,9.1-13.791,8.962-24.209,24.127-24.955,40.865a42.868,42.868,0,0,0,20.731,38.059,36.824,36.824,0,0,0,22.09,4.677c8.2-.682,16.379-3.354,24.659-2.812a17.236,17.236,0,0,1,10.232,3.91c2.872,2.376,6.15-2.394,3.3-4.75Z" transform="translate(-9.281 -55.466)" fill="#2f2e41"></path><path id="Path_163831" data-name="Path 163831" d="M603.168,649.031q.053-.326.124-.651a12.447,12.447,0,0,1,5.457-7.887l23.912-15.423a12.546,12.546,0,0,1,17.323,3.738L723.748,743.17a12.533,12.533,0,0,1-3.738,17.323L696.1,775.916a12.546,12.546,0,0,1-17.323-3.738L605.009,657.816a12.44,12.44,0,0,1-1.842-8.785Z" transform="translate(-25.734 217.604)" fill="#2f2e41"></path><path id="Path_336" data-name="Path 336" d="M786.98,246.963a24.2,24.2,0,0,0-22.134-14.809H323.05A23.962,23.962,0,0,0,299.1,256.1V815.017a23.962,23.962,0,0,0,23.949,23.949H764.862a23.981,23.981,0,0,0,23.949-23.949V256.1a23.521,23.521,0,0,0-1.815-9.14Zm-3.5,568.054a18.653,18.653,0,0,1-18.631,18.63H323.05a18.633,18.633,0,0,1-18.631-18.624V256.105a18.656,18.656,0,0,1,18.631-18.631H764.862a18.723,18.723,0,0,1,17.293,11.72,20.624,20.624,0,0,1,.7,2.1,18.469,18.469,0,0,1,.637,4.809Z" transform="translate(-299.101 -134.036)" fill="#3f3d56"></path><path id="Path_337" data-name="Path 337" d="M575.467,311.706H442.392a10.646,10.646,0,0,1,0-21.293H575.467a10.646,10.646,0,1,1,0,21.293Z" transform="translate(-179.785 -81.63)" fill="#3f3d56"></path><path id="Path_338" data-name="Path 338" d="M575.467,341.13H442.392a10.646,10.646,0,0,1,0-21.293H575.467a10.646,10.646,0,1,1,0,21.293Z" transform="translate(-179.785 -55.163)" fill="#3f3d56"></path><path id="Path_339" data-name="Path 339" d="M453.13,413.492H355.878A11.99,11.99,0,0,1,343.9,401.514V286.75a11.99,11.99,0,0,1,11.978-11.978h97.251a11.99,11.99,0,0,1,11.977,11.978V401.514A11.99,11.99,0,0,1,453.13,413.492Z" transform="translate(-258.803 -95.7)" fill="#fb9d4b"></path><path id="Path_340" data-name="Path 340" d="M654.383,401.379H353.634a10.646,10.646,0,0,1,0-21.293H654.383a10.646,10.646,0,1,1,0,21.293Z" transform="translate(-259.624 -0.968)" fill="#ccc"></path><path id="Path_341" data-name="Path 341" d="M654.383,430.8H353.634a10.646,10.646,0,0,1,0-21.293H654.383a10.646,10.646,0,1,1,0,21.293Z" transform="translate(-259.624 25.5)" fill="#ccc"></path><path id="Path_342" data-name="Path 342" d="M654.383,460.227H353.634a10.646,10.646,0,0,1,0-21.293H654.383a10.646,10.646,0,1,1,0,21.293Z" transform="translate(-259.624 51.968)" fill="#ccc"></path><path id="Path_343" data-name="Path 343" d="M654.383,489.651H353.634a10.646,10.646,0,1,1,0-21.293H654.383a10.646,10.646,0,1,1,0,21.293Z" transform="translate(-259.624 78.435)" fill="#ccc"></path><path id="Path_344" data-name="Path 344" d="M654.383,519.075H353.634a10.646,10.646,0,1,1,0-21.293H654.383a10.646,10.646,0,1,1,0,21.293Z" transform="translate(-259.624 104.903)" fill="#ccc"></path><circle id="Ellipse_44" data-name="Ellipse 44" cx="102.745" cy="102.745" r="102.745" transform="translate(388.438 0)" fill="#fb9d4b"></circle><path id="Path_395" data-name="Path 395" d="M568.838,292.227a10.656,10.656,0,0,1-6.411-2.131l-.115-.086-24.146-18.471a10.73,10.73,0,1,1,13.057-17.032l15.64,11.994,36.958-48.215a10.726,10.726,0,0,1,15.038-1.986l0,0-.229.318.236-.318a10.739,10.739,0,0,1,1.984,15.041l-43.471,56.687a10.732,10.732,0,0,1-8.535,4.185Z" transform="translate(-87.837 -150.289)" fill="#fff"></path><path id="Path_163832" data-name="Path 163832" d="M1231.823,721.3H532.8a1.9,1.9,0,0,1,0-3.8h699.024a1.9,1.9,0,1,1,0,3.8Z" transform="translate(-90.594 302.544)" fill="#3f3d56"></path></g></svg>